<svg version="1.1" id="Layer_1" xmlns="http://www.w3.org/2000/svg" xmlns:xlink="http://www.w3.org/1999/xlink" x="0px" y="0px"
	 width="100%" viewBox="0 0 383 192" enable-background="new 0 0 383 192" xml:space="preserve">
<path fill="#171796" opacity="1.000000" stroke="none" 
	d="
M384.000000,129.000000 
	C384.000000,150.315063 384.000000,171.630112 384.000000,192.943420 
	C256.333313,192.941681 128.666656,192.941681 1.000000,192.941681 
	C1.000000,171.901337 1.000000,150.919327 1.458928,129.366257 
	C54.941151,128.819870 107.964447,128.844528 161.062851,129.176758 
	C162.176071,130.334656 163.214172,131.184998 164.481003,132.322327 
	C166.164963,134.249237 167.620178,135.889206 169.342377,137.706543 
	C174.131958,141.420715 178.831451,144.571350 185.202530,144.903900 
	C186.045349,144.909073 186.527145,144.871109 187.461380,144.896240 
	C191.518616,144.917252 195.123383,144.875183 199.144958,144.910736 
	C206.023499,143.726837 211.964233,141.503067 216.088104,136.006104 
	C216.039398,135.998459 216.023956,136.095871 216.408295,136.189438 
	C216.893555,135.858887 216.994492,135.434753 217.052948,135.010498 
	C217.010483,135.010361 217.011887,135.095291 217.396179,135.224731 
	C217.885406,134.906708 217.990341,134.459259 218.052490,134.010880 
	C218.009720,134.009949 218.009445,134.095535 218.376404,134.247833 
	C218.868423,133.949814 218.993469,133.499527 219.063980,133.025970 
	C219.009460,133.002716 218.963593,133.112015 219.059067,133.307129 
	C219.154541,133.502228 219.570892,133.578506 219.570892,133.578506 
	C219.570892,133.578506 219.921021,133.343033 220.163422,133.021118 
	C221.008209,131.818146 221.610580,130.937119 222.500580,129.910797 
	C224.674545,129.430313 226.560593,128.804382 228.447281,128.802368 
	C278.643707,128.749039 328.840179,128.757645 379.036652,128.770050 
	C380.691132,128.770462 382.345551,128.919983 384.000000,129.000000 
z"/>
<path fill="#FF0000" opacity="1.000000" stroke="none" 
	d="
M1.000000,64.000000 
	C1.000000,43.018063 1.000000,22.036121 1.000000,1.000000 
	C128.372284,1.000000 255.744568,0.999929 383.116852,1.004336 
	C383.411652,1.004346 383.706451,1.070216 384.000641,1.110660 
	C384.000000,21.764891 384.000000,42.413788 383.799438,63.617794 
	C383.323975,64.300331 383.116211,64.498230 382.511871,64.825577 
	C372.246246,64.889694 362.444397,64.890450 352.642517,64.900757 
	C311.776093,64.943726 270.909668,64.989578 229.822662,64.792755 
	C229.413513,63.716125 229.224976,62.881115 229.020752,62.021469 
	C229.005096,61.996834 229.055878,62.025860 229.396469,61.948696 
	C229.830490,61.433838 229.923920,60.996143 230.009048,60.303085 
	C230.063614,59.714722 230.126480,59.381714 230.482635,58.946526 
	C231.824692,56.213699 232.873474,53.583046 233.970337,50.719440 
	C234.018402,50.486488 234.184448,50.040676 234.502106,49.926304 
	C235.185883,48.603664 235.552032,47.395393 235.932861,46.049084 
	C235.947571,45.911041 236.214905,45.836056 236.347748,45.780449 
	C236.613586,45.422123 236.530594,45.176739 236.132507,44.632244 
	C234.151550,40.940487 232.269699,37.605167 230.452484,34.384434 
	C226.282410,35.723358 222.435654,36.958466 218.391861,37.930668 
	C211.350601,29.419191 211.349991,29.418207 203.106674,34.544460 
	C202.998123,34.611961 202.990005,34.840969 202.565369,35.021454 
	C198.888107,32.838341 195.580460,30.628376 192.056030,28.273554 
	C189.134628,30.449205 185.873062,32.878204 182.323608,35.154831 
	C181.313705,34.629230 180.568970,34.293903 179.873154,33.876904 
	C173.048019,29.786587 173.050323,29.782730 167.790390,35.235435 
	C167.414413,35.884838 167.265900,36.388371 167.116577,36.978439 
	C167.115753,37.064983 166.946365,37.100620 166.595978,37.071442 
	C165.571594,37.166077 164.897583,37.289894 163.798126,37.339474 
	C162.070862,37.052837 160.767090,36.851635 159.467682,36.625477 
	C157.378052,36.261795 153.961243,34.934917 153.435410,35.673653 
	C151.254623,38.737438 147.981232,42.938229 148.724380,45.774155 
	C150.323486,51.876354 154.155029,57.393532 156.903656,63.383598 
	C156.152863,64.095375 155.571274,64.573700 154.525833,64.985229 
	C103.392426,64.884575 52.722851,64.850708 1.901432,64.652832 
	C1.497010,64.330048 1.247147,64.167107 1.000000,64.000000 
z"/>
<path fill="#FEFEFE" opacity="1.000000" stroke="none" 
	d="
M230.043243,65.034370 
	C270.909668,64.989578 311.776093,64.943726 352.642517,64.900757 
	C362.444397,64.890450 372.246246,64.889694 382.758423,64.925735 
	C383.645844,64.977943 383.822906,64.988968 384.000000,65.000000 
	C384.000000,86.020897 384.000000,107.041786 384.000000,128.531342 
	C382.345551,128.919983 380.691132,128.770462 379.036652,128.770050 
	C328.840179,128.757645 278.643707,128.749039 228.447281,128.802368 
	C226.560593,128.804382 224.674545,129.430313 222.268921,129.547821 
	C219.153885,129.199173 216.558121,129.068192 213.981201,128.985046 
	C214.000061,129.032898 214.093781,129.075241 213.858185,128.656082 
	C213.743958,123.130470 213.865326,118.024017 214.440033,113.014587 
	C218.941895,113.117287 222.990448,113.122963 227.147003,113.337044 
	C227.839050,113.692238 228.423065,113.839027 229.289963,113.676514 
	C229.715668,111.552353 229.976547,109.737877 229.982590,107.922554 
	C230.030273,93.626587 230.029251,79.330452 230.043243,65.034370 
M226.541245,121.754951 
	C226.810394,121.943321 227.079544,122.131691 227.348694,122.320061 
	C227.176147,122.040627 227.003586,121.761185 226.541245,121.754951 
M227.532333,118.752731 
	C227.804382,118.943016 228.076431,119.133301 228.348495,119.323578 
	C228.174088,119.041260 227.999664,118.758942 227.532333,118.752731 
z"/>
<path fill="#FEFEFE" opacity="1.000000" stroke="none" 
	d="
M2.053275,64.816849 
	C52.722851,64.850708 103.392426,64.884575 154.530594,65.450531 
	C155.000214,70.480019 154.945923,74.978226 155.013016,79.474632 
	C155.189209,91.282738 155.418274,103.090050 155.928925,114.838989 
	C156.807663,114.233650 157.383743,113.686996 158.425537,113.139503 
	C162.933151,113.064461 166.975052,112.990265 171.168030,113.367630 
	C171.177277,118.911087 171.035446,124.002991 170.942749,129.067230 
	C170.991867,129.039551 171.046219,128.940750 170.610046,128.825333 
	C168.076630,128.794220 165.979385,128.878540 163.628159,128.914124 
	C162.578705,128.866669 161.783218,128.867920 160.987747,128.869186 
	C107.964447,128.844528 54.941151,128.819870 1.458928,128.897598 
	C1.000000,107.979103 1.000000,86.958214 1.273331,65.480446 
	C1.715532,64.954666 1.884404,64.885757 2.053275,64.816849 
M157.497818,122.156677 
	C157.823868,122.094170 158.149918,122.031654 158.475967,121.969147 
	C158.151993,121.895630 157.828018,121.822105 157.497818,122.156677 
M156.987122,118.360275 
	C157.060013,118.663559 157.132904,118.966835 157.205811,119.270111 
	C157.255981,118.981842 157.306152,118.693565 156.987122,118.360275 
z"/>
<path fill="#FF2A2A" opacity="1.000000" stroke="none" 
	d="
M384.000000,64.750000 
	C383.822906,64.988968 383.645844,64.977943 383.222168,64.866768 
	C383.116211,64.498230 383.323975,64.300331 383.799438,64.086456 
	C384.000000,64.000000 384.000000,64.500000 384.000000,64.750000 
z"/>
<path fill="#FF4A4A" opacity="1.000000" stroke="none" 
	d="
M1.901432,64.652840 
	C1.884404,64.885757 1.715532,64.954666 1.273331,65.011787 
	C1.000000,65.000000 1.000000,64.500000 1.000000,64.250000 
	C1.247147,64.167107 1.497010,64.330048 1.901432,64.652840 
z"/>
<path fill="#FF0404" opacity="1.000000" stroke="none" 
	d="
M198.728165,144.833115 
	C195.123383,144.875183 191.518616,144.917252 187.425812,144.612823 
	C186.435074,143.755402 185.932373,143.244476 185.431213,142.285675 
	C185.306030,137.548599 185.179306,133.259430 185.012878,128.999557 
	C184.973160,129.028854 184.895340,129.089539 185.360001,128.988678 
	C190.585388,128.954620 195.346100,129.021439 200.067780,129.058228 
	C200.028748,129.028214 199.949463,128.969788 199.771576,129.405594 
	C199.305191,134.838638 199.016678,139.835876 198.728165,144.833115 
z"/>
<path fill="#FFF9F9" opacity="1.000000" stroke="none" 
	d="
M199.144958,144.910736 
	C199.016678,139.835876 199.305191,134.838638 200.231628,129.308044 
	C205.277649,128.874863 209.685715,128.975052 214.093781,129.075241 
	C214.093781,129.075241 214.000061,129.032898 213.829620,129.419983 
	C214.598618,131.830612 211.121796,135.617126 216.136826,136.013763 
	C211.964233,141.503067 206.023499,143.726837 199.144958,144.910736 
z"/>
<path fill="#FFFAFA" opacity="1.000000" stroke="none" 
	d="
M185.052597,128.970276 
	C185.179306,133.259430 185.306030,137.548599 185.257751,142.614960 
	C185.002335,143.881683 184.921921,144.371231 184.841492,144.860779 
	C178.831451,144.571350 174.131958,141.420715 169.255981,137.236206 
	C173.349182,135.085297 171.025909,131.684586 171.046219,128.940750 
	C171.046219,128.940750 170.991867,129.039551 171.392242,128.910278 
	C176.212616,128.844086 180.632599,128.907181 185.052597,128.970276 
z"/>
<path fill="#FF1D1D" opacity="1.000000" stroke="none" 
	d="
M170.610046,128.825333 
	C171.025909,131.684586 173.349182,135.085297 168.989014,137.058823 
	C167.620178,135.889206 166.164963,134.249237 164.769653,132.104416 
	C164.513763,130.720657 164.197952,129.841751 163.882141,128.962860 
	C165.979385,128.878540 168.076630,128.794220 170.610046,128.825333 
z"/>
<path fill="#FF0B0B" opacity="1.000000" stroke="none" 
	d="
M216.088104,136.006104 
	C211.121796,135.617126 214.598618,131.830612 213.810760,129.372131 
	C216.558121,129.068192 219.153885,129.199173 221.981293,129.693130 
	C221.610580,130.937119 221.008209,131.818146 220.073349,132.731781 
	C219.481781,132.880249 219.222687,132.996140 218.963593,133.112015 
	C218.963593,133.112015 219.009460,133.002716 218.716110,132.930054 
	C218.284988,133.270111 218.147217,133.682831 218.009445,134.095535 
	C218.009445,134.095535 218.009720,134.009949 217.707184,133.960663 
	C217.273743,134.306015 217.142822,134.700653 217.011902,135.095291 
	C217.011887,135.095291 217.010483,135.010361 216.696259,134.963364 
	C216.262680,135.309540 216.143326,135.702698 216.023956,136.095871 
	C216.023956,136.095871 216.039398,135.998459 216.088104,136.006104 
z"/>
<path fill="#FFF6F6" opacity="1.000000" stroke="none" 
	d="
M163.628159,128.914124 
	C164.197952,129.841751 164.513763,130.720657 164.540924,131.817444 
	C163.214172,131.184998 162.176071,130.334656 161.062851,129.176758 
	C161.783218,128.867920 162.578705,128.866669 163.628159,128.914124 
z"/>
<path fill="#FF8181" opacity="1.000000" stroke="none" 
	d="
M185.202530,144.903900 
	C184.921921,144.371231 185.002335,143.881683 185.256195,143.062851 
	C185.932373,143.244476 186.435074,143.755402 186.973358,144.549728 
	C186.527145,144.871109 186.045349,144.909073 185.202530,144.903900 
z"/>
<path fill="#FFF9F9" opacity="1.000000" stroke="none" 
	d="
M219.059067,133.307129 
	C219.222687,132.996140 219.481781,132.880249 219.830948,133.053696 
	C219.921021,133.343033 219.570892,133.578506 219.570892,133.578506 
	C219.570892,133.578506 219.154541,133.502228 219.059067,133.307129 
z"/>
<path fill="#FFF9F9" opacity="1.000000" stroke="none" 
	d="
M218.376404,134.247833 
	C218.147217,133.682831 218.284988,133.270111 218.770630,132.953308 
	C218.993469,133.499527 218.868423,133.949814 218.376404,134.247833 
z"/>
<path fill="#FFF9F9" opacity="1.000000" stroke="none" 
	d="
M217.396179,135.224731 
	C217.142822,134.700653 217.273743,134.306015 217.749969,133.961594 
	C217.990341,134.459259 217.885406,134.906708 217.396179,135.224731 
z"/>
<path fill="#FFF9F9" opacity="1.000000" stroke="none" 
	d="
M216.408295,136.189438 
	C216.143326,135.702698 216.262680,135.309540 216.738739,134.963501 
	C216.994492,135.434753 216.893555,135.858887 216.408295,136.189438 
z"/>
<path fill="#1296D8" opacity="1.000000" stroke="none" 
	d="
M157.072830,63.150154 
	C154.155029,57.393532 150.323486,51.876354 148.724380,45.774155 
	C147.981232,42.938229 151.254623,38.737438 153.435410,35.673653 
	C153.961243,34.934917 157.378052,36.261795 159.467682,36.625477 
	C160.767090,36.851635 162.070862,37.052837 163.776947,37.677017 
	C165.142578,39.927155 166.103928,41.765511 167.105072,43.923676 
	C167.558105,45.746952 167.971359,47.250427 168.363327,49.115074 
	C168.867706,51.009521 169.393356,52.542797 169.946594,54.430687 
	C170.408691,56.131779 170.843231,57.478256 170.922150,58.981018 
	C166.389832,60.479591 162.213165,61.821884 157.796478,63.097923 
	C157.556488,63.031673 157.072830,63.150158 157.072830,63.150154 
z"/>
<path fill="#1E1D92" opacity="1.000000" stroke="none" 
	d="
M202.935028,34.994598 
	C202.990005,34.840969 202.998123,34.611961 203.106674,34.544460 
	C211.349991,29.418207 211.350601,29.419191 218.506073,38.284676 
	C218.522324,41.855610 218.227295,44.809628 217.627747,47.935905 
	C216.843781,49.398682 216.364319,50.689198 215.662262,52.250114 
	C214.583160,54.609653 213.726669,56.698799 212.475433,58.876274 
	C208.041550,58.252991 204.002396,57.541367 199.976898,56.397770 
	C200.972031,48.975399 201.953522,41.985001 202.935028,34.994598 
M212.986099,49.345081 
	C213.343079,48.010284 213.700058,46.675488 214.111252,45.137962 
	C210.346375,44.843998 206.154846,45.566139 206.533905,38.983589 
	C202.577209,42.254108 203.657150,46.057541 204.881134,47.801449 
	C206.255188,49.759190 209.162094,52.720879 212.986099,49.345081 
z"/>
<path fill="#0D90D0" opacity="1.000000" stroke="none" 
	d="
M202.565384,35.021454 
	C201.953522,41.985001 200.972031,48.975399 199.517471,56.470856 
	C194.359543,56.928082 189.674683,56.880241 184.980255,56.411034 
	C184.822540,54.352215 184.674377,52.714764 184.560822,50.684376 
	C184.547836,49.767860 184.500244,49.244278 184.537003,48.726814 
	C184.621368,48.732937 184.447861,48.598007 184.351151,48.156410 
	C184.110901,47.131485 183.967361,46.548153 183.867645,45.544689 
	C183.872116,43.718475 183.832779,42.312393 183.825226,40.513264 
	C183.445938,38.636284 183.034866,37.152355 182.736053,35.574181 
	C182.848312,35.479939 182.611481,35.307201 182.611481,35.307205 
	C185.873062,32.878204 189.134628,30.449205 192.056030,28.273554 
	C195.580460,30.628376 198.888107,32.838341 202.565384,35.021454 
M191.095062,46.069260 
	C188.873795,48.482594 189.061539,50.803738 191.854340,52.397068 
	C192.405472,52.711494 194.739838,51.364628 195.005188,50.429985 
	C195.691086,48.014008 195.655838,45.417770 191.095062,46.069260 
M191.285278,38.754387 
	C189.913345,38.166794 188.541412,37.579197 187.169479,36.991604 
	C186.750107,38.266987 185.860703,39.620651 186.056046,40.793659 
	C186.220337,41.780048 187.647217,42.556160 188.515152,43.425358 
	C189.460495,42.127861 190.405823,40.830360 191.285278,38.754387 
M198.610306,37.288494 
	C197.093231,37.529198 195.149918,37.304348 194.204773,38.169704 
	C193.544022,38.774662 193.937866,41.005226 194.474670,42.243553 
	C194.741104,42.858162 197.227585,43.239273 197.286758,43.103878 
	C198.003098,41.465504 198.453644,39.710918 198.610306,37.288494 
z"/>
<path fill="#1197D9" opacity="1.000000" stroke="none" 
	d="
M217.932251,47.763645 
	C218.227295,44.809628 218.522324,41.855610 218.703125,38.547585 
	C222.435654,36.958466 226.282410,35.723358 230.452484,34.384434 
	C232.269699,37.605167 234.151550,40.940487 236.077896,44.843170 
	C236.122375,45.410530 236.214905,45.836056 236.214905,45.836056 
	C236.214905,45.836056 235.947571,45.911041 235.623260,46.153290 
	C234.927429,47.610588 234.555939,48.825630 234.184448,50.040672 
	C234.184448,50.040676 234.018402,50.486488 233.645386,50.857361 
	C232.192627,51.485497 231.112885,51.742760 229.829315,51.669651 
	C228.615128,51.260872 227.604782,51.182472 226.213593,51.054737 
	C223.832703,50.276016 221.832611,49.546627 219.770996,48.516464 
	C219.117050,48.065010 218.524643,47.914326 217.932251,47.763645 
z"/>
<path fill="#1F9EDF" opacity="1.000000" stroke="none" 
	d="
M212.870178,58.787941 
	C213.726669,56.698799 214.583160,54.609653 216.037216,52.328766 
	C217.136185,52.051445 217.637573,51.965870 218.424026,51.944027 
	C219.210968,52.254581 219.712860,52.501400 220.238159,53.110313 
	C221.181320,53.662888 222.101105,53.853359 223.199188,54.365868 
	C224.999313,55.083492 226.621094,55.479073 228.336090,55.928505 
	C228.429276,55.982353 228.627182,55.897655 228.826340,56.199215 
	C229.413437,57.350086 229.801392,58.199398 230.189346,59.048706 
	C230.126480,59.381714 230.063614,59.714722 229.779266,60.497070 
	C229.390472,61.306229 229.223175,61.666042 229.055878,62.025860 
	C229.055878,62.025860 229.005096,61.996834 228.699509,62.073860 
	C227.930679,62.822685 227.467422,63.494480 226.662109,64.018890 
	C221.836761,62.176983 217.353470,60.482460 212.870178,58.787941 
z"/>
<path fill="#EE040D" opacity="1.000000" stroke="none" 
	d="
M182.623810,35.668427 
	C183.034866,37.152355 183.445938,38.636284 183.418350,40.557083 
	C177.674881,41.863922 172.370071,42.733894 167.065277,43.603867 
	C166.103928,41.765511 165.142578,39.927155 164.202408,37.751251 
	C164.897583,37.289894 165.571594,37.166077 166.752823,37.438225 
	C172.381302,37.112263 177.502563,36.390343 182.623810,35.668427 
z"/>
<path fill="#FF4A4A" opacity="1.000000" stroke="none" 
	d="
M227.004181,64.166275 
	C227.467422,63.494480 227.930679,62.822685 228.715179,62.098495 
	C229.224976,62.881115 229.413513,63.716125 229.822662,64.792755 
	C230.029251,79.330452 230.030273,93.626587 229.982590,107.922554 
	C229.976547,109.737877 229.715668,111.552353 229.304352,113.276443 
	C228.970612,112.122780 228.905380,111.059883 228.908096,109.532852 
	C228.984711,95.995537 229.052002,82.921738 228.910324,69.850189 
	C228.896332,68.559052 227.603455,67.281761 226.550903,66.212997 
	C222.159454,66.630119 218.121262,66.832291 214.058838,66.638046 
	C214.031296,65.976891 214.027969,65.712143 214.368225,65.227997 
	C218.809265,64.727821 222.906723,64.447052 227.004181,64.166275 
z"/>
<path fill="#FF4A4A" opacity="1.000000" stroke="none" 
	d="
M156.903656,63.383602 
	C157.072830,63.150158 157.556488,63.031673 157.925369,63.451881 
	C159.962891,64.172791 161.632858,64.466347 163.299835,64.775986 
	C165.426682,65.171051 167.551132,65.579109 169.308289,66.260986 
	C165.105133,66.735016 161.270294,66.929619 157.184998,66.823776 
	C156.621521,67.129814 156.035416,67.736328 156.035507,68.342758 
	C156.037582,82.226524 156.103607,96.110283 156.080841,110.399216 
	C155.878098,112.168823 155.752182,113.533249 155.626282,114.897682 
	C155.418274,103.090050 155.189209,91.282738 155.013016,79.474632 
	C154.945923,74.978226 155.000214,70.480019 154.994431,65.517326 
	C155.571274,64.573700 156.152863,64.095375 156.903656,63.383602 
z"/>
<path fill="#272298" opacity="1.000000" stroke="none" 
	d="
M182.736053,35.574181 
	C177.502563,36.390343 172.381302,37.112263 167.103210,37.467400 
	C166.946365,37.100620 167.115753,37.064983 167.382324,36.890064 
	C167.771881,36.173286 167.894882,35.631428 168.017883,35.089569 
	C173.050323,29.782730 173.048019,29.786587 179.873154,33.876904 
	C180.568970,34.293903 181.313705,34.629230 182.323608,35.154831 
	C182.611481,35.307201 182.848312,35.479939 182.736053,35.574181 
z"/>
<path fill="#FF0B0B" opacity="1.000000" stroke="none" 
	d="
M230.482635,58.946529 
	C229.801392,58.199398 229.413437,57.350086 228.904282,55.804928 
	C228.882233,54.581577 228.981400,54.054070 229.072189,53.551395 
	C229.063828,53.576229 229.080933,53.625748 229.156830,53.254128 
	C229.208282,52.630840 229.183823,52.379166 229.379456,52.106941 
	C229.599548,52.086399 230.033157,52.000023 230.033157,52.000023 
	C231.112885,51.742760 232.192627,51.485497 233.597305,51.090309 
	C232.873474,53.583046 231.824692,56.213699 230.482635,58.946529 
z"/>
<path fill="#FF0B0B" opacity="1.000000" stroke="none" 
	d="
M234.502106,49.926300 
	C234.555939,48.825630 234.927429,47.610588 235.608551,46.291336 
	C235.552032,47.395393 235.185883,48.603664 234.502106,49.926300 
z"/>
<path fill="#EE040D" opacity="1.000000" stroke="none" 
	d="
M167.790405,35.235435 
	C167.894882,35.631428 167.771881,36.173286 167.383133,36.803520 
	C167.265900,36.388371 167.414413,35.884838 167.790405,35.235435 
z"/>
<path fill="#FF4A4A" opacity="1.000000" stroke="none" 
	d="
M229.396469,61.948696 
	C229.223175,61.666042 229.390472,61.306229 229.787567,60.752430 
	C229.923920,60.996143 229.830490,61.433838 229.396469,61.948696 
z"/>
<path fill="#FF0B0B" opacity="1.000000" stroke="none" 
	d="
M236.347748,45.780449 
	C236.214905,45.836056 236.122375,45.410530 236.177002,45.199608 
	C236.530594,45.176739 236.613586,45.422123 236.347748,45.780449 
z"/>
<path fill="#FF0404" opacity="1.000000" stroke="none" 
	d="
M213.858185,128.656082 
	C209.685715,128.975052 205.277649,128.874863 200.409515,128.872223 
	C199.949463,128.969788 200.028748,129.028214 199.883743,128.615814 
	C199.808426,123.122597 199.878128,118.041771 200.411316,113.037094 
	C205.276382,113.090935 209.677948,113.068626 214.059784,113.011635 
	C214.040039,112.976952 213.986710,112.917564 213.986710,112.917564 
	C213.865326,118.024017 213.743958,123.130470 213.858185,128.656082 
z"/>
<path fill="#FF0606" opacity="1.000000" stroke="none" 
	d="
M227.038986,113.128647 
	C222.990448,113.122963 218.941895,113.117287 214.440033,113.014587 
	C213.986710,112.917564 214.040039,112.976952 213.856369,112.581505 
	C213.793106,107.432739 213.913513,102.679420 214.496414,97.899994 
	C219.031433,97.873894 223.103958,97.873894 227.904266,97.873894 
	C227.904266,102.208702 227.904266,106.105476 227.746307,110.289864 
	C227.405212,111.427864 227.222107,112.278252 227.038986,113.128647 
z"/>
<path fill="#FFF9F9" opacity="1.000000" stroke="none" 
	d="
M227.147003,113.337044 
	C227.222107,112.278252 227.405212,111.427864 227.980270,110.286850 
	C228.372208,109.996239 228.840164,109.996986 228.840164,109.996986 
	C228.905380,111.059883 228.970612,112.122780 229.021454,113.585747 
	C228.423065,113.839027 227.839050,113.692238 227.147003,113.337044 
z"/>
<path fill="#FFF9F9" opacity="1.000000" stroke="none" 
	d="
M226.686142,121.618347 
	C227.003586,121.761185 227.176147,122.040627 227.348694,122.320068 
	C227.079544,122.131691 226.810394,121.943321 226.686142,121.618347 
z"/>
<path fill="#FFF9F9" opacity="1.000000" stroke="none" 
	d="
M227.678802,118.614677 
	C227.999664,118.758942 228.174088,119.041260 228.348495,119.323578 
	C228.076431,119.133301 227.804382,118.943016 227.678802,118.614677 
z"/>
<path fill="#FF0404" opacity="1.000000" stroke="none" 
	d="
M185.012878,128.999573 
	C180.632599,128.907181 176.212616,128.844086 171.343124,128.937943 
	C171.035446,124.002991 171.177277,118.911087 171.140625,113.398064 
	C170.962158,112.976944 170.921173,113.047867 171.389069,113.097458 
	C176.256378,113.084335 180.655762,113.021629 185.185699,113.413422 
	C185.175949,118.941795 185.035645,124.015671 184.895355,129.089539 
	C184.895340,129.089539 184.973160,129.028854 185.012878,128.999573 
z"/>
<path fill="#FF0606" opacity="1.000000" stroke="none" 
	d="
M170.989563,112.946510 
	C166.975052,112.990265 162.933151,113.064461 158.289093,112.839050 
	C157.475174,111.693687 157.263397,110.847931 157.147095,109.549011 
	C157.242569,105.510147 157.242569,101.924454 157.242569,97.926437 
	C162.162338,97.926437 166.567413,97.926437 171.138062,98.373848 
	C171.176132,103.563461 171.048660,108.305664 170.921173,113.047867 
	C170.921173,113.047867 170.962158,112.976944 170.989563,112.946510 
z"/>
<path fill="#FFF6F6" opacity="1.000000" stroke="none" 
	d="
M157.051620,110.002182 
	C157.263397,110.847931 157.475174,111.693687 157.823395,112.839890 
	C157.383743,113.686996 156.807663,114.233650 155.928925,114.838989 
	C155.752182,113.533249 155.878098,112.168823 156.304352,110.398453 
	C156.604691,109.992523 157.051620,110.002182 157.051620,110.002182 
z"/>
<path fill="#FFF6F6" opacity="1.000000" stroke="none" 
	d="
M157.500931,121.952629 
	C157.828018,121.822105 158.151993,121.895630 158.475967,121.969147 
	C158.149918,122.031654 157.823868,122.094170 157.500931,121.952629 
z"/>
<path fill="#FFF6F6" opacity="1.000000" stroke="none" 
	d="
M157.171722,118.382782 
	C157.306152,118.693565 157.255981,118.981842 157.205811,119.270111 
	C157.132904,118.966835 157.060013,118.663559 157.171722,118.382782 
z"/>
<path fill="#FFFBFB" opacity="1.000000" stroke="none" 
	d="
M185.360016,128.988678 
	C185.035645,124.015671 185.175949,118.941795 185.158798,113.443604 
	C185.001343,113.019279 184.924118,113.043526 185.395172,113.062988 
	C190.602737,113.069031 195.339249,113.055611 200.037933,113.031113 
	C200.000076,113.020035 199.947815,112.960953 199.947815,112.960953 
	C199.878128,118.041771 199.808426,123.122597 199.922791,128.645828 
	C195.346100,129.021439 190.585388,128.954620 185.360016,128.988678 
z"/>
<path fill="#FF0B0B" opacity="1.000000" stroke="none" 
	d="
M169.676605,65.981567 
	C167.551132,65.579109 165.426682,65.171051 163.299835,64.775986 
	C161.632858,64.466347 159.962891,64.172791 158.165375,63.518135 
	C162.213165,61.821884 166.389832,60.479591 171.306732,59.067600 
	C176.361237,58.276066 180.675522,57.554230 184.989822,56.832397 
	C189.674683,56.880241 194.359543,56.928082 199.503815,56.902832 
	C204.002396,57.541367 208.041550,58.252991 212.475433,58.876274 
	C217.353470,60.482460 221.836761,62.176983 226.662109,64.018890 
	C222.906723,64.447052 218.809265,64.727821 213.902771,65.294609 
	C207.969116,65.708092 202.844498,65.835564 197.676636,65.999008 
	C197.633423,66.034988 197.521805,66.021095 197.236221,65.669495 
	C193.357300,65.356354 189.763962,65.394814 185.697708,65.505966 
	C180.059158,65.702225 174.893509,65.825806 169.717239,65.961281 
	C169.706604,65.973175 169.676605,65.981567 169.676605,65.981567 
z"/>
<path fill="#F0020A" opacity="1.000000" stroke="none" 
	d="
M184.452637,48.720695 
	C184.500244,49.244278 184.547836,49.767860 184.200897,50.713833 
	C179.177246,52.116173 174.548141,53.096119 169.919037,54.076073 
	C169.393356,52.542797 168.867706,51.009521 168.705338,49.043076 
	C173.987030,47.728214 178.905411,46.846519 183.823822,45.964821 
	C183.967361,46.548153 184.110901,47.131485 184.264404,48.147179 
	C184.274353,48.579544 184.452652,48.720695 184.452637,48.720695 
z"/>
<path fill="#23178F" opacity="1.000000" stroke="none" 
	d="
M183.867630,45.544693 
	C178.905411,46.846519 173.987030,47.728214 168.726624,48.681908 
	C167.971359,47.250427 167.558105,45.746952 167.105057,43.923676 
	C172.370071,42.733894 177.674881,41.863922 183.386566,40.950130 
	C183.832779,42.312393 183.872116,43.718475 183.867630,45.544693 
z"/>
<path fill="#241C93" opacity="1.000000" stroke="none" 
	d="
M169.946594,54.430687 
	C174.548141,53.096119 179.177246,52.116173 184.166290,51.106770 
	C184.674377,52.714764 184.822540,54.352215 184.980255,56.411034 
	C180.675522,57.554230 176.361237,58.276066 171.662354,58.911316 
	C170.843231,57.478256 170.408691,56.131779 169.946594,54.430687 
z"/>
<path fill="#C9B117" opacity="1.000000" stroke="none" 
	d="
M212.837982,49.658424 
	C209.162094,52.720879 206.255188,49.759190 204.881134,47.801449 
	C203.657150,46.057541 202.577209,42.254108 206.533905,38.983589 
	C206.154846,45.566139 210.346375,44.843998 214.111252,45.137962 
	C213.700058,46.675488 213.343079,48.010284 212.837982,49.658424 
z"/>
<path fill="#FF1D1D" opacity="1.000000" stroke="none" 
	d="
M218.138977,51.880287 
	C217.637573,51.965870 217.136185,52.051445 216.259827,52.058369 
	C216.364319,50.689198 216.843781,49.398682 217.627747,47.935905 
	C218.524643,47.914326 219.117050,48.065010 219.497971,48.544331 
	C218.903992,49.875408 218.521484,50.877850 218.138977,51.880287 
z"/>
<path fill="#ACA11D" opacity="1.000000" stroke="none" 
	d="
M191.460419,45.929184 
	C195.655838,45.417770 195.691086,48.014008 195.005188,50.429985 
	C194.739838,51.364628 192.405472,52.711494 191.854340,52.397068 
	C189.061539,50.803738 188.873795,48.482594 191.460419,45.929184 
z"/>
<path fill="#B5A517" opacity="1.000000" stroke="none" 
	d="
M191.318207,39.143623 
	C190.405823,40.830360 189.460495,42.127861 188.515152,43.425358 
	C187.647217,42.556160 186.220337,41.780048 186.056046,40.793659 
	C185.860703,39.620651 186.750107,38.266987 187.169479,36.991604 
	C188.541412,37.579197 189.913345,38.166794 191.318207,39.143623 
z"/>
<path fill="#B5A517" opacity="1.000000" stroke="none" 
	d="
M198.791840,37.637535 
	C198.453644,39.710918 198.003098,41.465504 197.286758,43.103878 
	C197.227585,43.239273 194.741104,42.858162 194.474670,42.243553 
	C193.937866,41.005226 193.544022,38.774662 194.204773,38.169704 
	C195.149918,37.304348 197.093231,37.529198 198.791840,37.637535 
z"/>
<path fill="#241C93" opacity="1.000000" stroke="none" 
	d="
M184.537018,48.726814 
	C184.452652,48.720695 184.274353,48.579544 184.361115,48.588776 
	C184.447861,48.598007 184.621368,48.732937 184.537018,48.726814 
z"/>
<path fill="#5A0000" opacity="1.000000" stroke="none" 
	d="
M218.424026,51.944023 
	C218.521484,50.877850 218.903992,49.875408 219.559509,48.845108 
	C221.832611,49.546627 223.832703,50.276016 226.474731,51.291206 
	C227.797562,51.760506 228.478455,51.943996 229.159348,52.127487 
	C229.183823,52.379166 229.208282,52.630840 228.967194,53.181881 
	C228.410919,53.522327 228.202240,53.675327 227.972015,54.023842 
	C227.868347,54.107426 227.657639,54.270313 227.272400,54.251396 
	C225.864212,54.132591 224.841278,54.032700 223.599213,53.702843 
	C222.324966,53.231323 221.269867,52.989773 220.214752,52.748219 
	C219.712860,52.501400 219.210968,52.254581 218.424026,51.944023 
z"/>
<path fill="#FF2A2A" opacity="1.000000" stroke="none" 
	d="
M229.379456,52.106941 
	C228.478455,51.943996 227.797562,51.760506 226.855545,51.340542 
	C227.604782,51.182472 228.615128,51.260872 229.829315,51.669647 
	C230.033157,52.000023 229.599548,52.086399 229.379456,52.106941 
z"/>
<path fill="#FF1D1D" opacity="1.000000" stroke="none" 
	d="
M223.818329,53.932812 
	C224.841278,54.032700 225.864212,54.132591 227.360168,54.520279 
	C227.969742,55.163601 228.106323,55.519127 228.242889,55.874657 
	C226.621094,55.479073 224.999313,55.083492 223.398087,54.336353 
	C223.418655,53.984798 223.818329,53.932812 223.818329,53.932812 
z"/>
<path fill="#EE040D" opacity="1.000000" stroke="none" 
	d="
M223.599213,53.702843 
	C223.818329,53.932812 223.418655,53.984798 223.219757,54.014313 
	C222.101105,53.853359 221.181320,53.662888 220.238159,53.110313 
	C221.269867,52.989773 222.324966,53.231323 223.599213,53.702843 
z"/>
<path fill="#5A0000" opacity="1.000000" stroke="none" 
	d="
M228.336090,55.928505 
	C228.106323,55.519127 227.969742,55.163601 227.745392,54.539192 
	C227.657639,54.270313 227.868347,54.107426 228.237183,53.954620 
	C228.764206,53.710064 228.922379,53.618313 229.080566,53.526566 
	C228.981400,54.054070 228.882233,54.581577 228.705124,55.503368 
	C228.627182,55.897655 228.429276,55.982353 228.336090,55.928505 
z"/>
<path fill="#FFFCFC" opacity="1.000000" stroke="none" 
	d="
M228.908096,109.532852 
	C228.840164,109.996986 228.372208,109.996239 228.138245,109.999252 
	C227.904266,106.105476 227.904266,102.208702 227.904266,97.873894 
	C223.103958,97.873894 219.031433,97.873894 214.519882,97.937256 
	C214.080856,98.000610 214.107544,98.084518 213.892319,97.657776 
	C213.636719,92.130112 213.596344,87.029205 213.532135,81.964142 
	C213.508316,82.000000 213.434540,82.044373 213.927948,82.142105 
	C218.693817,82.239845 222.966263,82.239845 228.040024,82.239845 
	C227.634369,76.439445 227.269257,71.218750 226.904144,65.998047 
	C227.603455,67.281761 228.896332,68.559052 228.910324,69.850189 
	C229.052002,82.921738 228.984711,95.995537 228.908096,109.532852 
z"/>
<path fill="#FFFFFF" opacity="1.000000" stroke="none" 
	d="
M213.434540,82.044373 
	C213.434540,82.044373 213.508316,82.000000 213.047363,82.103241 
	C208.385681,82.157158 204.184921,82.107834 199.798004,81.628021 
	C199.586334,78.705444 199.785965,76.184753 199.474030,73.729034 
	C199.141144,71.108383 198.325027,68.549103 197.719849,65.963028 
	C202.844498,65.835564 207.969116,65.708092 213.559204,65.514008 
	C214.027969,65.712143 214.031296,65.976891 213.853043,67.061630 
	C213.592484,72.602539 213.513519,77.323456 213.434540,82.044373 
z"/>
<path fill="#FF0707" opacity="1.000000" stroke="none" 
	d="
M213.927948,82.142105 
	C213.513519,77.323456 213.592484,72.602539 213.877258,67.458038 
	C218.121262,66.832291 222.159454,66.630119 226.550903,66.212997 
	C227.269257,71.218750 227.634369,76.439445 228.040024,82.239845 
	C222.966263,82.239845 218.693817,82.239845 213.927948,82.142105 
z"/>
<path fill="#FFFCFC" opacity="1.000000" stroke="none" 
	d="
M157.147095,109.549011 
	C157.051620,110.002182 156.604691,109.992523 156.381195,109.993286 
	C156.103607,96.110283 156.037582,82.226524 156.035507,68.342758 
	C156.035416,67.736328 156.621521,67.129814 157.110809,67.277336 
	C157.287048,72.619949 157.287048,77.208572 157.287048,82.068733 
	C162.151337,82.068733 166.562408,82.068733 170.947571,82.029739 
	C170.921661,81.990746 170.894852,81.901031 171.088409,82.340019 
	C171.153320,87.881180 171.024689,92.983345 170.909821,98.043190 
	C170.923599,98.000862 170.972488,97.926437 170.972488,97.926437 
	C166.567413,97.926437 162.162338,97.926437 157.242569,97.926437 
	C157.242569,101.924454 157.242569,105.510147 157.147095,109.549011 
z"/>
<path fill="#FF0606" opacity="1.000000" stroke="none" 
	d="
M170.973480,82.068733 
	C166.562408,82.068733 162.151337,82.068733 157.287048,82.068733 
	C157.287048,77.208572 157.287048,72.619949 157.361252,67.577774 
	C161.270294,66.929619 165.105133,66.735016 169.308289,66.260986 
	C169.676605,65.981567 169.706604,65.973175 169.960892,66.336281 
	C170.467941,71.822502 170.720703,76.945618 170.973480,82.068733 
z"/>
<path fill="#FF1D1D" opacity="1.000000" stroke="none" 
	d="
M229.072205,53.551399 
	C228.922379,53.618313 228.764206,53.710064 228.340851,53.871033 
	C228.202240,53.675327 228.410919,53.522327 228.891296,53.553497 
	C229.080933,53.625748 229.063828,53.576229 229.072205,53.551399 
z"/>
<path fill="#FFFFFF" opacity="1.000000" stroke="none" 
	d="
M214.057388,97.963356 
	C213.913513,102.679420 213.793106,107.432739 213.876114,112.616188 
	C209.677948,113.068626 205.276382,113.090935 200.411316,113.037094 
	C199.947815,112.960953 200.000076,113.020035 199.813690,112.609772 
	C199.749359,107.442818 199.871414,102.686111 200.456909,97.905289 
	C205.316071,97.948952 209.711807,98.016731 214.107544,98.084518 
	C214.107544,98.084518 214.080856,98.000610 214.057388,97.963356 
z"/>
<path fill="#FFFFFF" opacity="1.000000" stroke="none" 
	d="
M171.389069,113.097458 
	C171.048660,108.305664 171.176132,103.563461 171.138062,98.373848 
	C170.972488,97.926437 170.923599,98.000862 171.373383,97.948685 
	C176.217682,97.907799 180.612228,97.919098 185.181061,98.373123 
	C185.211609,103.558411 185.067871,108.300964 184.924118,113.043526 
	C184.924118,113.043526 185.001343,113.019279 185.028259,112.989105 
	C180.655762,113.021629 176.256378,113.084335 171.389069,113.097458 
z"/>
<path fill="#FF0000" opacity="1.000000" stroke="none" 
	d="
M185.395172,113.062988 
	C185.067871,108.300964 185.211609,103.558411 185.144226,98.405014 
	C184.933075,97.994179 184.893768,98.083755 185.363739,98.019684 
	C190.592026,97.997925 195.350342,98.040230 200.088379,98.037842 
	C200.068115,97.993156 199.993484,97.929413 199.993484,97.929413 
	C199.871414,102.686111 199.749359,107.442818 199.851532,112.620850 
	C195.339249,113.055611 190.602737,113.069031 185.395172,113.062988 
z"/>
<path fill="#FFFFFF" opacity="1.000000" stroke="none" 
	d="
M170.947571,82.029739 
	C170.720703,76.945618 170.467941,71.822502 169.971527,66.324387 
	C174.893509,65.825806 180.059158,65.702225 185.639450,65.903290 
	C186.053558,66.495644 186.052994,66.763359 185.789841,67.348541 
	C185.357651,72.462715 185.188034,77.259415 184.559998,82.140625 
	C179.699341,82.117088 175.297104,82.009056 170.894852,81.901031 
	C170.894852,81.901031 170.921661,81.990746 170.947571,82.029739 
z"/>
<path fill="#FF0000" opacity="1.000000" stroke="none" 
	d="
M185.018417,82.056122 
	C185.188034,77.259415 185.357651,72.462715 186.241852,67.388992 
	C190.478210,66.748360 194.000015,66.384727 197.521805,66.021095 
	C197.521805,66.021095 197.633423,66.034988 197.676636,65.999008 
	C198.325027,68.549103 199.141144,71.108383 199.474030,73.729034 
	C199.785965,76.184753 199.586334,78.705444 199.838165,81.598381 
	C200.064514,81.999214 200.105896,81.907890 199.639740,82.002518 
	C194.414490,82.033630 189.655396,81.970123 184.916946,81.952057 
	C184.937607,81.997498 185.018417,82.056122 185.018417,82.056122 
z"/>
<path fill="#FF4A4A" opacity="1.000000" stroke="none" 
	d="
M197.236221,65.669495 
	C194.000015,66.384727 190.478210,66.748360 186.504425,67.071533 
	C186.052994,66.763359 186.053558,66.495644 186.112366,65.830612 
	C189.763962,65.394814 193.357300,65.356354 197.236221,65.669495 
z"/>
<path fill="#FF0404" opacity="1.000000" stroke="none" 
	d="
M213.892319,97.657776 
	C209.711807,98.016731 205.316071,97.948952 200.456909,97.905289 
	C199.993484,97.929413 200.068115,97.993156 199.884460,97.603531 
	C199.835846,92.111908 199.970871,87.009895 200.105896,81.907890 
	C200.105896,81.907890 200.064514,81.999214 200.024353,82.028854 
	C204.184921,82.107834 208.385681,82.157158 213.071198,82.067383 
	C213.596344,87.029205 213.636719,92.130112 213.892319,97.657776 
z"/>
<path fill="#FF0404" opacity="1.000000" stroke="none" 
	d="
M171.088409,82.340012 
	C175.297104,82.009056 179.699341,82.117088 184.559998,82.140625 
	C185.018417,82.056122 184.937607,81.997498 185.085144,82.400192 
	C185.119705,87.896507 185.006729,92.990128 184.893768,98.083755 
	C184.893768,98.083755 184.933075,97.994179 184.969910,97.962288 
	C180.612228,97.919098 176.217682,97.907799 171.359604,97.991013 
	C171.024689,92.983345 171.153320,87.881180 171.088409,82.340012 
z"/>
<path fill="#FFFBFB" opacity="1.000000" stroke="none" 
	d="
M185.363739,98.019684 
	C185.006729,92.990128 185.119705,87.896507 185.064484,82.354752 
	C189.655396,81.970123 194.414490,82.033630 199.639740,82.002518 
	C199.970871,87.009895 199.835846,92.111908 199.904739,97.648224 
	C195.350342,98.040230 190.592026,97.997925 185.363739,98.019684 
z"/>
</svg>