<svg version="1.1" id="Layer_1" xmlns="http://www.w3.org/2000/svg" xmlns:xlink="http://www.w3.org/1999/xlink" x="0px" y="0px"
	 width="100%" viewBox="0 0 383 256" enable-background="new 0 0 383 256" xml:space="preserve">
<path fill="#CE1126" opacity="1.000000" stroke="none" 
	d="
M256.000000,1.000000 
	C298.630188,1.000000 341.260376,1.000000 383.945282,1.000000 
	C383.945282,86.223869 383.945282,171.447784 383.945282,257.000000 
	C341.646332,257.000000 299.291840,257.000000 256.457428,256.726105 
	C255.938477,256.273682 255.899445,256.095154 255.971115,255.464111 
	C256.136841,253.850586 256.239868,252.689575 256.239990,251.528580 
	C256.247559,169.342041 256.248077,87.155510 256.236694,4.968975 
	C256.236511,3.645972 256.082306,2.322991 256.000000,1.000000 
z"/>
<path fill="#002654" opacity="1.000000" stroke="none" 
	d="
M1.000000,256.000000 
	C1.000000,171.097183 1.000000,86.194366 1.000000,1.000000 
	C43.353783,1.000000 85.708229,1.000000 128.424927,1.458110 
	C128.776718,46.198318 128.851120,90.480644 128.730820,134.762451 
	C128.621048,175.172516 128.300278,215.582001 128.020813,255.914642 
	C127.969131,255.837524 127.802673,255.919754 127.348007,255.946960 
	C84.928902,255.982773 42.964451,255.991394 1.000000,256.000000 
z"/>
<path fill="#FFFFFF" opacity="1.000000" stroke="none" 
	d="
M128.072510,255.991745 
	C128.300278,215.582001 128.621048,175.172516 128.730820,134.762451 
	C128.851120,90.480644 128.776718,46.198318 128.893585,1.458110 
	C171.020889,1.000000 213.041794,1.000000 255.531342,1.000000 
	C256.082306,2.322991 256.236511,3.645972 256.236694,4.968975 
	C256.248077,87.155510 256.247559,169.342041 256.239990,251.528580 
	C256.239868,252.689575 256.136841,253.850586 255.512268,255.492279 
	C212.652634,255.979248 170.362579,255.985504 128.072510,255.991745 
z"/>
<path fill="#EBA0A9" opacity="1.000000" stroke="none" 
	d="
M128.020813,255.914642 
	C170.362579,255.985504 212.652634,255.979248 255.401550,255.944824 
	C255.899445,256.095154 255.938477,256.273682 255.988770,256.726105 
	C213.645767,257.000000 171.291550,257.000000 128.440887,256.726013 
	C127.897186,256.274597 127.849930,256.097168 127.802673,255.919754 
	C127.802673,255.919754 127.969131,255.837524 128.020813,255.914642 
z"/>
<path fill="#7B6681" opacity="1.000000" stroke="none" 
	d="
M127.348007,255.946960 
	C127.849930,256.097168 127.897186,256.274597 127.972221,256.726013 
	C85.666664,257.000000 43.333332,257.000000 1.000000,256.500000 
	C42.964451,255.991394 84.928902,255.982773 127.348007,255.946960 
z"/>
</svg>