<svg version="1.1" id="Layer_1" xmlns="http://www.w3.org/2000/svg" xmlns:xlink="http://www.w3.org/1999/xlink" x="0px" y="0px"
	 width="100%" viewBox="0 0 383 256" enable-background="new 0 0 383 256" xml:space="preserve">
<path fill="#FF6820" opacity="1.000000" stroke="none" 
	d="
M1.000000,86.000000 
	C1.000000,57.689098 1.000000,29.378199 1.000000,1.033648 
	C128.543152,1.033648 256.086334,1.033648 384.000000,1.033648 
	C384.000000,29.019806 384.000000,57.041245 383.531921,85.556168 
	C330.290588,86.053009 277.517303,86.065498 224.744034,86.057533 
	C150.162689,86.046272 75.581345,86.019905 1.000000,86.000000 
z"/>
<path fill="#056A39" opacity="1.000000" stroke="none" 
	d="
M384.000000,171.000000 
	C384.000000,199.020889 384.000000,227.041794 383.533966,255.532242 
	C255.711960,256.001190 128.355972,256.000610 1.000000,256.000000 
	C1.000000,227.979111 1.000000,199.958206 1.465153,171.530090 
	C128.290710,171.128693 254.651108,171.134857 381.011505,171.134567 
	C382.007660,171.134567 383.003845,171.046799 384.000000,171.000000 
z"/>
<path fill="#FFFFFF" opacity="1.000000" stroke="none" 
	d="
M384.000000,170.531342 
	C383.003845,171.046799 382.007660,171.134567 381.011505,171.134567 
	C254.651108,171.134857 128.290710,171.128693 1.465153,171.061432 
	C1.000000,142.979111 1.000000,114.958214 1.000000,86.468658 
	C75.581345,86.019905 150.162689,86.046272 224.744034,86.057533 
	C277.517303,86.065498 330.290588,86.053009 383.531921,86.024826 
	C384.000000,114.020897 384.000000,142.041794 384.000000,170.531342 
M171.552750,161.991470 
	C172.124527,162.328781 172.686874,162.683365 173.269424,163.000885 
	C188.981308,171.564102 207.699432,169.019958 220.188354,156.627533 
	C232.598007,144.313766 235.443024,125.604172 227.243683,110.229591 
	C218.923859,94.629059 201.788986,86.291367 184.377884,90.190033 
	C168.372223,93.773994 157.778549,103.919426 154.221725,119.939949 
	C150.377625,137.254379 156.556747,151.253204 171.552750,161.991470 
z"/>
<path fill="#68A588" opacity="1.000000" stroke="none" 
	d="
M1.000000,256.500000 
	C128.355972,256.000610 255.711960,256.001190 383.533966,256.000916 
	C382.666656,256.333344 381.333557,256.957245 379.999969,256.958252 
	C317.000000,257.006134 254.000000,257.000000 191.000000,257.000000 
	C127.666664,257.000000 64.333336,257.000000 1.000000,256.500000 
z"/>
<path fill="#120F92" opacity="1.000000" stroke="none" 
	d="
M171.241821,161.805222 
	C156.556747,151.253204 150.377625,137.254379 154.221725,119.939949 
	C157.778549,103.919426 168.372223,93.773994 184.377884,90.190033 
	C201.788986,86.291367 218.923859,94.629059 227.243683,110.229591 
	C235.443024,125.604172 232.598007,144.313766 220.188354,156.627533 
	C207.699432,169.019958 188.981308,171.564102 173.269424,163.000885 
	C172.686874,162.683365 172.124527,162.328781 171.241821,161.805222 
M162.022385,143.583557 
	C162.557678,144.441071 163.092987,145.298599 163.860794,146.886520 
	C164.772003,147.490051 166.195847,147.896759 166.514847,148.727646 
	C169.593445,156.746124 177.539566,158.066818 183.915192,161.496155 
	C184.666519,161.900299 185.957184,161.301727 187.649536,161.058716 
	C188.089539,161.067703 188.529526,161.076675 189.364838,161.828415 
	C191.586319,161.579651 193.807800,161.330902 196.689606,161.040924 
	C197.127350,161.084808 197.565109,161.128677 198.618423,161.861496 
	C201.225632,160.904846 204.015808,160.270584 206.398514,158.918335 
	C210.274521,156.718613 214.625122,154.681381 217.412567,151.413193 
	C220.670868,147.592911 222.467712,142.526184 225.129608,137.547546 
	C225.117065,137.378632 225.104523,137.209702 225.585434,136.503418 
	C225.432129,132.207962 225.728210,127.834846 225.003021,123.638214 
	C224.230240,119.166199 223.302338,114.351814 220.957748,110.619339 
	C218.359146,106.482452 214.523438,102.709854 210.400345,100.067719 
	C206.790848,97.754707 202.108322,96.841347 197.765137,96.035316 
	C194.303116,95.392807 190.525284,95.272606 187.091232,95.951019 
	C182.585358,96.841194 177.879456,98.081085 174.011673,100.416267 
	C170.804733,102.352455 168.402374,105.892799 166.161697,109.086021 
	C163.624176,112.702362 160.537506,116.504692 159.735748,120.624382 
	C158.712906,125.879936 159.739075,131.534271 159.856491,137.537872 
	C159.937210,137.691940 160.017929,137.845993 160.033340,138.742447 
	C160.765961,140.161758 161.498566,141.581070 162.022385,143.583557 
z"/>
<path fill="#F5F4FA" opacity="1.000000" stroke="none" 
	d="
M196.029282,161.082153 
	C193.807800,161.330902 191.586319,161.579651 189.116547,161.178101 
	C188.549118,160.243286 188.229980,159.958786 187.910858,159.674271 
	C187.606522,160.172165 187.302185,160.670059 186.997849,161.167953 
	C185.957184,161.301727 184.666519,161.900299 183.915192,161.496155 
	C177.539566,158.066818 169.593445,156.746124 166.514847,148.727646 
	C166.195847,147.896759 164.772003,147.490051 164.008194,146.370682 
	C164.439514,145.568970 164.723419,145.283096 165.245041,144.961761 
	C165.323914,144.289948 165.165070,143.653564 164.659363,143.012604 
	C163.618729,143.005463 162.924957,143.002930 162.231171,143.000381 
	C161.498566,141.581070 160.765961,140.161758 160.303284,138.329041 
	C160.885193,137.632126 161.197144,137.348618 161.509094,137.065109 
	C160.966751,137.048981 160.424408,137.032852 159.882050,137.016724 
	C159.739075,131.534271 158.712906,125.879936 159.735748,120.624382 
	C160.537506,116.504692 163.624176,112.702362 166.161697,109.086021 
	C168.402374,105.892799 170.804733,102.352455 174.011673,100.416267 
	C177.879456,98.081085 182.585358,96.841194 187.091232,95.951019 
	C190.525284,95.272606 194.303116,95.392807 197.765137,96.035316 
	C202.108322,96.841347 206.790848,97.754707 210.400345,100.067719 
	C214.523438,102.709854 218.359146,106.482452 220.957748,110.619339 
	C223.302338,114.351814 224.230240,119.166199 225.003021,123.638214 
	C225.728210,127.834846 225.432129,132.207962 225.118469,136.690674 
	C224.265182,136.948715 223.878860,137.019501 223.492523,137.090302 
	C223.961212,137.393600 224.429901,137.696899 224.898590,138.000198 
	C222.467712,142.526184 220.670868,147.592911 217.412567,151.413193 
	C214.625122,154.681381 210.274521,156.718613 206.398514,158.918335 
	C204.015808,160.270584 201.225632,160.904846 198.260468,161.234802 
	C197.601578,160.294861 197.300674,159.981613 196.999756,159.668381 
	C196.676254,160.139633 196.352768,160.610886 196.029282,161.082153 
M212.146530,139.081253 
	C211.709137,138.846878 211.271729,138.612503 210.378159,137.963928 
	C209.585312,137.331314 208.792450,136.698715 207.935867,135.500214 
	C207.661713,135.018158 207.387558,134.536102 208.216476,133.797607 
	C207.272751,132.561234 206.329025,131.324844 205.573837,130.335464 
	C208.808228,129.992233 212.743820,129.574615 216.679428,129.156982 
	C216.650848,128.828110 216.622253,128.499222 216.593674,128.170349 
	C212.898071,127.967117 209.202454,127.763893 205.506836,127.560661 
	C205.538910,127.236221 205.570984,126.911781 205.603058,126.587334 
	C208.063446,125.683891 210.523834,124.780449 213.661865,123.841904 
	C213.532471,123.382927 213.403076,122.923958 212.373840,122.571671 
	C210.312866,122.809395 208.251892,123.047119 206.190918,123.284843 
	C206.151001,122.979721 206.111084,122.674606 206.071152,122.369484 
	C207.344391,121.425018 208.617630,120.480553 210.416855,119.304001 
	C210.816467,118.737701 211.216064,118.171394 211.615677,117.605095 
	C210.630951,117.865395 209.646225,118.125694 208.009186,118.661316 
	C206.804321,119.142212 205.599457,119.623116 204.394592,120.104027 
	C204.315643,119.510231 204.236694,118.916428 204.763199,118.015274 
	C206.106598,116.449669 207.449997,114.884071 208.793396,113.318466 
	C208.197601,112.771675 207.601791,112.224884 207.005981,111.678093 
	C206.005280,113.106331 205.004578,114.534569 203.602676,116.037125 
	C203.602676,116.037125 203.196899,116.079910 202.577133,116.043526 
	C202.163391,116.042908 201.749664,116.042297 201.513977,115.451981 
	C201.813675,114.691986 202.113373,113.931992 202.937317,112.491348 
	C202.949936,111.818474 202.962555,111.145592 202.975159,110.472710 
	C202.199661,111.272911 201.424164,112.073112 200.179337,113.151848 
	C199.784210,113.759827 199.389084,114.367813 198.158386,114.875221 
	C198.158386,112.781143 198.158386,110.687073 198.158386,108.592995 
	C197.820511,108.570648 197.482635,108.548294 197.144760,108.525940 
	C196.338440,110.650742 195.532120,112.775551 194.725800,114.900360 
	C194.442322,114.817909 194.158844,114.735466 193.875366,114.653015 
	C193.516479,110.634926 193.157593,106.616837 192.798706,102.598747 
	C192.594864,102.599663 192.391022,102.600586 192.187180,102.601501 
	C191.832031,106.617287 191.476883,110.633064 191.121735,114.648849 
	C190.804794,114.705406 190.487839,114.761955 190.170898,114.818512 
	C189.438202,112.570633 188.705505,110.322754 187.903122,107.422859 
	C187.458435,106.285698 187.013748,105.148537 186.569061,104.011383 
	C186.145432,104.240379 185.721786,104.469376 185.298157,104.698372 
	C185.855759,105.721313 186.413376,106.744255 186.383102,108.159653 
	C186.630707,109.810707 187.045959,111.460335 187.059937,113.113365 
	C187.067719,114.031700 186.405975,114.955711 185.950211,115.211426 
	C184.712570,113.404716 183.474915,111.598015 182.161728,109.371742 
	C182.161728,109.371742 182.008163,108.974045 181.933548,108.501518 
	C181.560181,108.189377 181.186798,107.877235 180.813416,107.565094 
	C180.874786,107.978256 180.936157,108.391418 180.480072,109.020058 
	C180.738785,109.545807 180.997498,110.071556 181.457504,111.246323 
	C181.974518,112.490753 182.491516,113.735184 182.705948,115.407845 
	C182.431717,115.621826 182.157471,115.835800 181.217987,115.773926 
	C180.135010,114.811378 179.052048,113.848839 177.696381,112.686234 
	C177.467300,113.132828 177.238205,113.579422 177.282990,114.712090 
	C177.620316,115.668831 177.957657,116.625572 177.735413,118.157738 
	C177.491058,119.439430 177.246704,120.721115 176.836761,122.465378 
	C177.223938,122.977486 177.611115,123.489601 177.998306,124.757019 
	C177.998001,125.763992 177.997711,126.770958 177.098801,127.975960 
	C173.627884,127.975960 170.156967,127.975960 166.686050,127.975960 
	C166.658829,128.307266 166.631607,128.638565 166.604385,128.969879 
	C170.886948,129.387985 175.169495,129.806091 178.418320,130.123276 
	C178.189880,131.606903 178.028351,132.655884 177.849564,133.882568 
	C177.849564,133.882568 177.970825,134.014008 178.026489,134.004608 
	C178.026489,134.004608 178.089005,134.020264 178.830963,133.104126 
	C176.677963,133.001846 174.524963,132.899582 172.371964,132.797302 
	C172.373047,133.333282 172.374130,133.869247 172.375198,134.405212 
	C173.717178,134.506821 175.059143,134.608429 177.411102,134.934280 
	C177.748291,135.006592 178.085495,135.078903 177.815903,135.835159 
	C177.574829,136.021622 177.333771,136.208084 177.150589,136.425064 
	C177.150589,136.425064 176.995193,136.416687 176.490219,136.812180 
	C175.995682,137.214127 175.501144,137.616074 174.319702,138.140381 
	C173.236618,138.926559 172.153549,139.712738 171.070480,140.498917 
	C171.239822,140.754288 171.409164,141.009674 171.578506,141.265045 
	C172.727264,140.867050 173.876038,140.469055 175.447113,140.548187 
	C176.017273,141.167068 176.587433,141.785950 176.953278,142.959167 
	C176.675003,143.478073 176.396744,143.996994 176.118484,144.515915 
	C176.318924,144.711731 176.519379,144.907547 176.719818,145.103363 
	C177.638992,144.353363 178.558167,143.603363 180.151947,142.315887 
	C180.095093,141.875031 180.038239,141.434158 179.988785,141.008881 
	C179.988785,141.008881 179.967041,141.001190 179.894287,141.669220 
	C180.636719,141.449142 181.379150,141.229065 182.480377,141.512878 
	C181.128723,145.049698 179.777069,148.586517 178.425430,152.123337 
	C178.660660,152.256699 178.895889,152.390045 179.131119,152.523407 
	C181.433594,149.347900 183.736069,146.172379 186.672607,142.999619 
	C187.096039,142.998413 187.519485,142.997208 187.795670,143.653702 
	C186.920761,146.518982 186.045868,149.384262 185.170959,152.249542 
	C185.668320,152.441635 186.165665,152.633728 186.663025,152.825821 
	C188.093521,149.553024 189.524002,146.280228 191.204895,143.819733 
	C191.535599,147.361176 191.866302,150.902634 192.197006,154.444077 
	C192.369202,154.445938 192.541412,154.447800 192.713608,154.449661 
	C193.158768,150.635559 193.603912,146.821442 194.470459,143.442322 
	C195.378143,145.189682 196.285828,146.937042 197.193512,148.684418 
	C197.690262,148.484024 198.187012,148.283646 198.683762,148.083252 
	C198.121689,146.389648 197.559631,144.696045 197.662338,143.001389 
	C198.105377,143.000519 198.548416,142.999634 199.318909,143.444672 
	C201.499298,146.461121 203.679688,149.477570 205.860077,152.494034 
	C206.117569,150.368073 205.242111,148.856003 204.674942,147.235992 
	C203.967270,145.214645 203.513550,143.104401 203.168625,140.963440 
	C203.168625,140.963440 203.395020,140.928329 203.530930,141.201431 
	C203.664642,141.367966 203.836716,141.469452 204.137283,141.767883 
	C204.137283,141.767883 204.402695,141.847397 204.787674,142.330566 
	C206.154816,143.147903 207.521942,143.965240 209.148712,145.268585 
	C209.406784,145.526520 209.664841,145.784470 210.053543,146.693527 
	C211.050827,147.922729 212.048126,149.151947 213.045410,150.381149 
	C213.444550,149.940552 213.843689,149.499969 214.242844,149.059372 
	C212.873489,147.995956 211.504120,146.932541 209.979172,145.312088 
	C209.627747,144.869217 209.276306,144.426346 208.494293,143.520905 
	C207.494324,142.438889 206.494354,141.356873 205.293381,139.961380 
	C205.105637,139.645996 204.917908,139.330597 205.321365,139.004425 
	C205.913635,138.990326 206.505905,138.976227 207.755844,139.016876 
	C208.406235,139.112762 209.056625,139.208633 210.062225,139.773621 
	C210.619263,139.949814 211.176300,140.125992 212.178909,140.821228 
	C212.719055,140.847366 213.259201,140.873505 213.799347,140.899658 
	C213.365585,140.411026 212.931839,139.922409 212.146530,139.081253 
M174.656860,118.197899 
	C174.597977,118.450241 174.539093,118.702576 174.480209,118.954910 
	C174.677109,118.651428 174.874008,118.347939 175.240448,117.923882 
	C175.240448,117.923882 175.222931,117.641197 175.222931,117.641197 
	C175.222931,117.641197 174.959381,117.936852 174.656860,118.197899 
M172.566879,116.662201 
	C172.182709,116.449028 171.798538,116.235847 171.414368,116.022675 
	C171.427216,116.441124 171.440063,116.859566 171.452911,117.278015 
	C171.993088,117.200340 172.533279,117.122673 173.243683,116.924141 
	C173.243683,116.924141 173.224747,116.638718 173.224747,116.638718 
	C173.224747,116.638718 172.958206,116.933525 172.566879,116.662201 
M199.413071,105.650635 
	C199.462006,105.059067 199.536209,104.466942 199.523285,103.876732 
	C199.521896,103.813141 199.014496,103.760620 198.741821,103.702965 
	C198.793457,104.435478 198.845093,105.167984 198.519043,105.990089 
	C198.344193,106.156746 198.169327,106.323410 197.994461,106.490067 
	C198.336060,106.345184 198.677673,106.200310 199.413071,105.650635 
M212.472977,134.919785 
	C213.482147,134.919785 214.491333,134.919785 215.500504,134.919785 
	C215.514877,134.653610 215.529236,134.387436 215.543610,134.121262 
	C214.357239,133.789734 213.170868,133.458191 211.072083,132.729858 
	C210.534744,132.894058 209.997406,133.058243 209.460068,133.222443 
	C210.259323,133.688522 211.058594,134.154587 212.472977,134.919785 
M171.920547,108.780205 
	C171.920547,108.780205 171.652161,108.785545 171.652161,108.785545 
	C171.652161,108.785545 171.952103,109.033287 172.285522,109.575676 
	C173.203552,110.247124 174.121582,110.918571 175.039627,111.590012 
	C175.258606,111.101280 175.477585,110.612549 175.696564,110.123810 
	C174.475586,109.732819 173.254608,109.341827 171.920547,108.780205 
M212.173203,108.199280 
	C211.144455,108.364410 210.115692,108.529541 209.086945,108.694672 
	C209.943268,109.400330 210.799591,110.105988 211.655930,110.811646 
	C212.006012,109.958206 212.356110,109.104767 212.173203,108.199280 
M199.530182,150.736450 
	C198.954819,150.673737 198.379440,150.611038 197.804062,150.548325 
	C197.884888,150.965790 197.965714,151.383240 198.046539,151.800705 
	C198.611618,151.609009 199.176682,151.417313 199.530182,150.736450 
M174.396881,145.889450 
	C173.984238,146.520599 173.571594,147.151733 173.158951,147.782883 
	C173.500320,147.927246 173.841690,148.071609 174.183060,148.215973 
	C174.374863,147.560211 174.566666,146.904465 174.396881,145.889450 
M217.573608,114.159859 
	C218.189621,113.967880 218.805618,113.775909 219.421616,113.583931 
	C219.284576,113.253265 219.147537,112.922592 219.010498,112.591927 
	C218.527084,112.951530 218.043671,113.311142 217.573608,114.159859 
M173.491730,123.748123 
	C173.773071,123.464485 174.054413,123.180840 174.335754,122.897202 
	C173.987396,122.698433 173.639023,122.499664 173.290665,122.300896 
	C173.191940,122.743004 173.093216,123.185120 173.491730,123.748123 
M169.431870,122.169838 
	C169.021927,121.869133 168.612000,121.568436 168.202057,121.267731 
	C168.109100,121.528976 167.899567,121.995560 167.941406,122.019310 
	C168.309265,122.228134 168.721878,122.358078 169.431870,122.169838 
M203.362457,110.226707 
	C203.983124,109.367653 204.603790,108.508598 205.224442,107.649536 
	C204.851486,107.429726 204.478531,107.209923 204.105560,106.990112 
	C203.692657,107.844521 203.279755,108.698921 203.362457,110.226707 
M185.785126,156.348450 
	C185.475677,156.097046 185.166245,155.845627 184.856781,155.594223 
	C184.723312,155.842407 184.589844,156.090591 184.456390,156.338791 
	C184.880341,156.490051 185.304276,156.641312 185.785126,156.348450 
M170.043671,133.931671 
	C169.576080,134.078476 169.108505,134.225281 168.627594,134.376266 
	C168.720718,134.535400 168.786621,134.735306 168.843811,134.732834 
	C169.896988,134.687500 170.949127,134.617935 172.001495,134.553497 
	C171.623093,134.285614 171.244705,134.017731 170.043671,133.931671 
M199.897583,156.443359 
	C199.880585,156.724442 199.863602,157.005508 199.846619,157.286575 
	C200.160202,157.132339 200.473785,156.978088 200.787369,156.823853 
	C200.569672,156.587219 200.351974,156.350586 199.897583,156.443359 
M219.145859,144.463760 
	C219.089050,144.162918 219.032242,143.862061 218.975433,143.561218 
	C218.906754,143.859573 218.838074,144.157928 219.145859,144.463760 
M168.255157,142.157852 
	C168.308472,142.432663 168.361786,142.707474 168.415100,142.982285 
	C168.533630,142.921173 168.759705,142.843506 168.753250,142.801651 
	C168.711029,142.527542 168.618546,142.261185 168.255157,142.157852 
M207.931931,102.206688 
	C207.974747,101.963654 208.017578,101.720612 208.060394,101.477570 
	C207.921326,101.482391 207.666763,101.466026 207.661392,101.495384 
	C207.616852,101.738091 207.618454,101.989265 207.931931,102.206688 
M215.254700,115.156700 
	C215.308136,115.431931 215.361572,115.707169 215.415009,115.982414 
	C215.533676,115.921181 215.760025,115.843369 215.753540,115.801399 
	C215.711258,115.526855 215.618576,115.260063 215.254700,115.156700 
M205.772507,105.018166 
	C206.002777,105.162956 206.233047,105.307747 206.463318,105.452530 
	C206.317017,105.222176 206.170715,104.991821 205.772507,105.018166 
M217.652039,135.117355 
	C217.590759,135.150558 217.529480,135.183762 217.652039,135.117355 
M167.505508,113.464310 
	C167.505508,113.464310 167.527435,113.515419 167.505508,113.464310 
z"/>
<path fill="#F6F5FB" opacity="1.000000" stroke="none" 
	d="
M162.126770,143.291962 
	C162.924957,143.002930 163.618729,143.005463 164.658051,143.342377 
	C165.004837,144.116913 165.006073,144.557068 165.007324,144.997223 
	C164.723419,145.283096 164.439514,145.568970 163.891937,146.005478 
	C163.092987,145.298599 162.557678,144.441071 162.126770,143.291962 
z"/>
<path fill="#F6F5FB" opacity="1.000000" stroke="none" 
	d="
M196.359436,161.061539 
	C196.352768,160.610886 196.676254,160.139633 196.999756,159.668381 
	C197.300674,159.981613 197.601578,160.294861 197.952667,160.890320 
	C197.565109,161.128677 197.127350,161.084808 196.359436,161.061539 
z"/>
<path fill="#F6F5FB" opacity="1.000000" stroke="none" 
	d="
M187.323700,161.113342 
	C187.302185,160.670059 187.606522,160.172165 187.910858,159.674271 
	C188.229980,159.958786 188.549118,160.243286 188.918884,160.806732 
	C188.529526,161.076675 188.089539,161.067703 187.323700,161.113342 
z"/>
<path fill="#F3F3F9" opacity="1.000000" stroke="none" 
	d="
M225.014099,137.773865 
	C224.429901,137.696899 223.961212,137.393600 223.492523,137.090302 
	C223.878860,137.019501 224.265182,136.948715 224.871735,136.959335 
	C225.104523,137.209702 225.117065,137.378632 225.014099,137.773865 
z"/>
<path fill="#F3F2F9" opacity="1.000000" stroke="none" 
	d="
M159.869278,137.277298 
	C160.424408,137.032852 160.966751,137.048981 161.509094,137.065109 
	C161.197144,137.348618 160.885193,137.632126 160.335953,137.957855 
	C160.017929,137.845993 159.937210,137.691940 159.869278,137.277298 
z"/>
<path fill="#120E92" opacity="1.000000" stroke="none" 
	d="
M187.972809,108.074875 
	C188.705505,110.322754 189.438202,112.570633 190.170898,114.818512 
	C190.487839,114.761955 190.804794,114.705406 191.121735,114.648849 
	C191.476883,110.633064 191.832031,106.617287 192.187180,102.601501 
	C192.391022,102.600586 192.594864,102.599663 192.798706,102.598747 
	C193.157593,106.616837 193.516479,110.634926 193.875366,114.653015 
	C194.158844,114.735466 194.442322,114.817909 194.725800,114.900360 
	C195.532120,112.775551 196.338440,110.650742 197.144760,108.525940 
	C197.482635,108.548294 197.820511,108.570648 198.158386,108.592995 
	C198.158386,110.687073 198.158386,112.781143 198.515900,115.247215 
	C198.243042,116.736801 197.612671,117.854401 196.706757,118.947937 
	C195.835876,118.972763 195.240540,119.021645 194.645187,119.070526 
	C194.664062,119.303978 194.682922,119.537430 194.701782,119.770889 
	C195.475754,119.823822 196.249710,119.876755 197.306396,119.958893 
	C198.379303,119.728340 199.169479,119.468575 200.261871,119.080040 
	C201.441681,117.994156 202.319290,117.037033 203.196899,116.079910 
	C203.196899,116.079910 203.602676,116.037125 203.825989,116.393463 
	C204.085434,117.274071 204.121582,117.798355 204.157745,118.322632 
	C204.236694,118.916428 204.315643,119.510231 204.394592,120.104019 
	C205.599457,119.623116 206.804321,119.142212 208.634949,118.819450 
	C209.470764,119.163750 209.680817,119.349922 209.890869,119.536087 
	C208.617630,120.480553 207.344391,121.425018 206.071152,122.369484 
	C206.111084,122.674606 206.151001,122.979721 206.190918,123.284843 
	C208.251892,123.047119 210.312866,122.809395 212.721954,122.866104 
	C213.041428,123.399368 213.012817,123.638184 212.984222,123.876999 
	C210.523834,124.780449 208.063446,125.683891 205.603058,126.587334 
	C205.570984,126.911781 205.538910,127.236221 205.506836,127.560661 
	C209.202454,127.763893 212.898071,127.967117 216.593674,128.170349 
	C216.622253,128.499222 216.650848,128.828110 216.679428,129.156982 
	C212.743820,129.574615 208.808228,129.992233 205.573837,130.335464 
	C206.329025,131.324844 207.272751,132.561234 207.305069,133.792542 
	C205.889999,133.847092 205.386322,133.906738 204.716797,133.943390 
	C204.550949,133.920425 204.216782,133.899033 204.112625,133.595779 
	C203.343597,132.854736 202.678726,132.416946 202.007141,131.989853 
	C202.000427,132.000534 202.020569,131.983582 201.966614,131.695496 
	C201.585907,130.941895 201.259155,130.476395 200.894165,129.668915 
	C200.573654,128.218018 200.291351,127.109093 200.003662,125.667358 
	C200.000641,124.890762 200.003021,124.446983 199.966019,123.681458 
	C199.281479,122.901794 198.636322,122.443863 197.736099,121.879471 
	C197.015396,122.365654 196.060486,123.364563 196.161758,123.486542 
	C196.954773,124.441650 197.950348,125.228569 198.914597,126.458115 
	C198.994049,127.897537 199.042374,128.946213 198.958054,130.261215 
	C198.864258,131.393417 198.903091,132.259293 198.950699,133.305420 
	C198.959488,133.485687 198.978607,133.846115 198.711365,133.971588 
	C197.316956,134.636078 196.189804,135.175095 194.864502,135.808884 
	C195.210251,136.667084 195.571121,137.562820 196.281586,138.755707 
	C196.740601,139.338516 196.850006,139.624191 196.572739,139.969574 
	C195.473740,141.021973 194.761398,142.014664 194.049072,143.007339 
	C193.603912,146.821442 193.158768,150.635559 192.713608,154.449661 
	C192.541412,154.447800 192.369202,154.445938 192.197006,154.444077 
	C191.866302,150.902634 191.535599,147.361176 191.144989,143.035004 
	C190.068497,141.800903 189.051910,141.351517 187.914764,140.612610 
	C187.182098,140.266052 186.570007,140.208984 185.859100,139.858429 
	C184.556122,139.822830 183.351974,140.080734 181.976959,140.074005 
	C181.496552,139.527817 181.187012,139.246277 180.932831,138.645691 
	C180.945663,137.899780 180.903137,137.472885 181.224182,137.029739 
	C185.032761,136.636948 183.543900,134.582306 183.285828,132.792755 
	C184.315292,133.426697 185.107605,134.076553 185.797348,134.821411 
	C186.491364,135.570862 187.083344,136.414795 187.784821,137.480255 
	C188.142929,137.951874 188.436218,138.160568 188.729507,138.369278 
	C188.872696,137.962891 189.015900,137.556488 189.382996,136.995880 
	C189.610184,136.443573 189.613464,136.045517 189.616760,135.647446 
	C189.305511,136.040176 188.994263,136.432892 188.569794,136.768951 
	C188.456558,136.712311 188.207123,136.668762 188.174408,136.315903 
	C187.437103,134.297821 186.732498,132.632584 186.013962,130.622498 
	C185.738419,129.395889 185.476807,128.514145 185.215179,127.632385 
	C184.935394,127.675018 184.655594,127.717651 184.375809,127.760277 
	C184.252686,128.515823 184.129547,129.271347 183.785538,130.226929 
	C183.377304,130.987518 183.189926,131.548080 182.560028,132.160172 
	C180.700607,132.709427 179.283722,133.207138 177.866837,133.704865 
	C178.028351,132.655884 178.189880,131.606903 178.418320,130.123276 
	C175.169495,129.806091 170.886948,129.387985 166.604385,128.969879 
	C166.631607,128.638565 166.658829,128.307266 166.686050,127.975960 
	C170.156967,127.975960 173.627884,127.975960 177.878571,127.826363 
	C179.146011,126.477081 179.633698,125.277390 180.097748,124.060959 
	C180.074112,124.044212 180.089462,124.100159 180.498322,124.206009 
	C181.956970,124.345619 183.006760,124.379372 184.313110,124.655037 
	C188.460281,125.748604 189.495712,122.802910 190.681641,120.173439 
	C190.734604,120.056023 189.564911,119.387161 188.640274,118.974854 
	C187.883133,118.977768 187.450424,118.980995 186.718781,118.846878 
	C185.590012,118.465240 184.760223,118.220932 183.984802,117.650543 
	C184.053146,116.883919 184.067108,116.443382 184.288727,116.091660 
	C185.012924,116.079369 185.529449,115.978256 186.045990,115.877159 
	C186.405975,114.955711 187.067719,114.031700 187.059937,113.113365 
	C187.045959,111.460335 186.630707,109.810707 186.936768,108.010132 
	C187.651230,107.932030 187.812027,108.003456 187.972809,108.074875 
M203.784409,123.371315 
	C203.775482,123.766693 203.766556,124.162064 203.757645,124.557442 
	C203.923218,124.552261 204.230957,124.561783 204.233231,124.539719 
	C204.273468,124.150551 204.276459,123.757538 203.784409,123.371315 
M202.444519,126.658775 
	C202.595322,126.840446 202.746124,127.022110 202.896927,127.203781 
	C203.004211,127.099449 203.111496,126.995117 203.218781,126.890785 
	C203.041779,126.733826 202.864777,126.576866 202.444519,126.658775 
M181.589569,129.517670 
	C181.589569,129.517670 181.456116,129.596436 181.589569,129.517670 
M193.515793,116.397179 
	C193.515793,116.397179 193.572617,116.498375 193.515793,116.397179 
z"/>
<path fill="#26229B" opacity="1.000000" stroke="none" 
	d="
M183.930420,117.976631 
	C184.760223,118.220932 185.590012,118.465240 186.706787,119.176529 
	C186.982513,120.082703 186.971283,120.521904 186.768097,120.991119 
	C186.387680,121.169434 186.199219,121.317719 186.010773,121.465996 
	C186.349579,121.324379 186.688385,121.182762 187.330048,120.965027 
	C188.076843,120.250992 188.520782,119.613075 188.964722,118.975159 
	C189.564911,119.387161 190.734604,120.056023 190.681641,120.173439 
	C189.495712,122.802910 188.460281,125.748604 184.301239,124.222290 
	C182.159790,121.735184 180.286789,119.922729 178.355972,118.123627 
	C178.298157,118.136986 178.179459,118.136902 178.300919,118.017532 
	C178.422379,117.898170 178.294983,117.582314 178.294983,117.582314 
	C177.957657,116.625572 177.620316,115.668831 177.426666,114.118340 
	C177.703262,113.311821 177.836166,113.099052 177.969070,112.886292 
	C179.052048,113.848839 180.135010,114.811378 181.671478,116.179298 
	C182.726791,117.048660 183.328613,117.512642 183.930420,117.976631 
z"/>
<path fill="#1E1A97" opacity="1.000000" stroke="none" 
	d="
M204.216782,133.899033 
	C204.216782,133.899033 204.550949,133.920425 204.809753,134.261444 
	C206.045578,135.090332 207.022583,135.578217 207.999603,136.066101 
	C208.792450,136.698715 209.585312,137.331314 210.315277,138.391479 
	C210.070587,138.980881 209.888794,139.142700 209.707016,139.304504 
	C209.056625,139.208633 208.406235,139.112762 207.263916,138.676483 
	C206.091385,138.562454 205.410782,138.788834 204.730164,139.015213 
	C204.917908,139.330597 205.105637,139.645996 205.238190,140.398438 
	C204.922897,141.172806 204.662796,141.510101 204.402695,141.847397 
	C204.402695,141.847397 204.137283,141.767883 204.017151,141.506668 
	C203.763626,141.085999 203.596298,140.980301 203.395020,140.928329 
	C203.395020,140.928329 203.168625,140.963440 202.902634,140.716217 
	C201.712860,140.079605 200.789062,139.690201 199.873154,138.905823 
	C199.580215,136.955933 199.279404,135.401016 198.978607,133.846115 
	C198.978607,133.846115 198.959488,133.485687 199.185577,133.052765 
	C200.281311,132.407761 201.150940,132.195679 202.020569,131.983582 
	C202.020569,131.983582 202.000427,132.000534 202.067932,132.314240 
	C202.829224,133.051636 203.523010,133.475342 204.216782,133.899033 
M201.851028,135.492828 
	C201.911942,135.814270 201.972855,136.135712 202.033752,136.457153 
	C202.107147,136.136353 202.180542,135.815536 201.851028,135.492828 
z"/>
<path fill="#EEEDF7" opacity="1.000000" stroke="none" 
	d="
M182.147812,140.338654 
	C183.351974,140.080734 184.556122,139.822830 185.882187,140.212845 
	C186.015579,141.572800 186.027069,142.284836 186.038559,142.996872 
	C183.736069,146.172379 181.433594,149.347900 179.131119,152.523407 
	C178.895889,152.390045 178.660660,152.256699 178.425430,152.123337 
	C179.777069,148.586517 181.128723,145.049698 182.314941,141.093628 
	C182.149506,140.674393 182.147812,140.338654 182.147812,140.338654 
z"/>
<path fill="#F0F0F8" opacity="1.000000" stroke="none" 
	d="
M199.865280,139.300812 
	C200.789062,139.690201 201.712860,140.079605 202.793427,140.750763 
	C203.513550,143.104401 203.967270,145.214645 204.674942,147.235992 
	C205.242111,148.856003 206.117569,150.368073 205.860077,152.494034 
	C203.679688,149.477570 201.499298,146.461121 199.289337,143.016006 
	C198.866486,141.651566 198.473221,140.715775 198.320923,139.791840 
	C198.996338,139.636078 199.430817,139.468445 199.865280,139.300812 
z"/>
<path fill="#EEEDF7" opacity="1.000000" stroke="none" 
	d="
M188.035324,140.902115 
	C189.051910,141.351517 190.068497,141.800903 191.019775,142.628860 
	C189.524002,146.280228 188.093521,149.553024 186.663025,152.825821 
	C186.165665,152.633728 185.668320,152.441635 185.170959,152.249542 
	C186.045868,149.384262 186.920761,146.518982 187.892975,142.976318 
	C188.005310,141.833344 188.020325,141.367722 188.035324,140.902115 
z"/>
<path fill="#F0F0F8" opacity="1.000000" stroke="none" 
	d="
M194.259766,143.224823 
	C194.761398,142.014664 195.473740,141.021973 196.583099,140.356018 
	C196.985931,141.455978 196.991745,142.229218 196.997559,143.002441 
	C197.559631,144.696045 198.121689,146.389648 198.683762,148.083252 
	C198.187012,148.283646 197.690262,148.484024 197.193512,148.684418 
	C196.285828,146.937042 195.378143,145.189682 194.259766,143.224823 
z"/>
<path fill="#26229B" opacity="1.000000" stroke="none" 
	d="
M183.003708,132.850327 
	C183.543900,134.582306 185.032761,136.636948 180.719025,137.060059 
	C178.931122,136.869263 178.011917,136.631912 177.092712,136.394547 
	C177.333771,136.208084 177.574829,136.021622 178.315948,135.249390 
	C178.534271,134.447067 178.252548,134.230545 177.970825,134.014008 
	C177.970825,134.014008 177.849564,133.882568 177.858200,133.793716 
	C179.283722,133.207138 180.700607,132.709427 182.559296,132.344910 
	C183.001099,132.478119 183.003708,132.850327 183.003708,132.850327 
z"/>
<path fill="#F6F5FB" opacity="1.000000" stroke="none" 
	d="
M177.121643,136.409805 
	C178.011917,136.631912 178.931122,136.869263 180.355469,137.076294 
	C180.903137,137.472885 180.945663,137.899780 180.604614,138.815598 
	C180.136368,139.870071 180.051697,140.435638 179.967041,141.001190 
	C179.967041,141.001190 179.988785,141.008881 179.734436,140.781418 
	C179.320511,140.708618 179.160904,140.863281 178.739960,141.149384 
	C178.038269,141.655518 177.597931,142.030182 177.157593,142.404846 
	C176.587433,141.785950 176.017273,141.167068 175.274734,140.183258 
	C175.102356,139.818329 175.128799,139.555267 175.582001,139.351166 
	C176.355194,138.236954 176.675201,137.326813 176.995193,136.416687 
	C176.995193,136.416687 177.150589,136.425064 177.121643,136.409805 
z"/>
<path fill="#F4F3FA" opacity="1.000000" stroke="none" 
	d="
M178.015198,117.870026 
	C178.294983,117.582314 178.422379,117.898170 178.359070,118.209526 
	C178.335083,118.384010 178.374435,118.247139 178.413788,118.110268 
	C180.286789,119.922729 182.159790,121.735184 184.044678,123.980377 
	C183.006760,124.379372 181.956970,124.345619 180.444733,123.909073 
	C178.988953,123.005127 177.995651,122.503967 177.002335,122.002808 
	C177.246704,120.721115 177.491058,119.439430 178.015198,117.870026 
z"/>
<path fill="#2C289E" opacity="1.000000" stroke="none" 
	d="
M199.959656,119.208809 
	C199.169479,119.468575 198.379303,119.728340 197.296432,119.719879 
	C197.003754,119.451660 196.982300,118.972000 196.982300,118.972000 
	C197.612671,117.854401 198.243042,116.736801 198.933685,115.297501 
	C199.389084,114.367813 199.784210,113.759827 200.853531,113.096512 
	C201.822845,113.084785 202.117950,113.128395 202.413055,113.171997 
	C202.113373,113.931992 201.813675,114.691986 201.239655,116.045837 
	C200.630112,117.496071 200.294891,118.352440 199.959656,119.208809 
z"/>
<path fill="#1C1997" opacity="1.000000" stroke="none" 
	d="
M185.998093,115.544289 
	C185.529449,115.978256 185.012924,116.079369 184.108292,115.921310 
	C183.535385,115.379959 183.298172,115.152458 183.008514,114.979622 
	C182.491516,113.735184 181.974518,112.490753 181.607376,110.726654 
	C181.917252,110.068436 182.077255,109.929878 182.237259,109.791313 
	C183.474915,111.598015 184.712570,113.404716 185.998093,115.544289 
z"/>
<path fill="#28249C" opacity="1.000000" stroke="none" 
	d="
M204.460480,118.168953 
	C204.121582,117.798355 204.085434,117.274071 204.026581,116.356300 
	C205.004578,114.534569 206.005280,113.106331 207.005981,111.678093 
	C207.601791,112.224884 208.197601,112.771675 208.793396,113.318466 
	C207.449997,114.884071 206.106598,116.449669 204.460480,118.168953 
z"/>
<path fill="#F0F0F8" opacity="1.000000" stroke="none" 
	d="
M210.134766,145.869141 
	C211.504120,146.932541 212.873489,147.995956 214.242844,149.059372 
	C213.843689,149.499969 213.444550,149.940552 213.045410,150.381149 
	C212.048126,149.151947 211.050827,147.922729 210.042908,146.326874 
	C210.032272,145.960220 210.134766,145.869141 210.134766,145.869141 
z"/>
<path fill="#2E2B9F" opacity="1.000000" stroke="none" 
	d="
M204.595184,142.088989 
	C204.662796,141.510101 204.922897,141.172806 205.338699,140.555176 
	C206.494354,141.356873 207.494324,142.438889 208.615860,143.948181 
	C208.737427,144.375458 208.889069,144.782578 208.889069,144.782578 
	C207.521942,143.965240 206.154816,143.147903 204.595184,142.088989 
z"/>
<path fill="#120E92" opacity="1.000000" stroke="none" 
	d="
M176.401108,134.710037 
	C175.059143,134.608429 173.717178,134.506821 172.375198,134.405212 
	C172.374130,133.869247 172.373047,133.333282 172.371964,132.797302 
	C174.524963,132.899582 176.677963,133.001846 177.975037,133.582687 
	C176.879791,134.277496 176.640457,134.493759 176.401108,134.710037 
z"/>
<path fill="#26229B" opacity="1.000000" stroke="none" 
	d="
M177.055435,142.682007 
	C177.597931,142.030182 178.038269,141.655518 178.841827,141.612686 
	C179.295807,142.247467 179.386566,142.550415 179.477341,142.853348 
	C178.558167,143.603363 177.638992,144.353363 176.719818,145.103363 
	C176.519379,144.907547 176.318924,144.711731 176.118484,144.515915 
	C176.396744,143.996994 176.675003,143.478073 177.055435,142.682007 
z"/>
<path fill="#F6F5FB" opacity="1.000000" stroke="none" 
	d="
M176.919556,122.234093 
	C177.995651,122.503967 178.988953,123.005127 180.035858,123.803223 
	C180.089462,124.100159 180.074112,124.044212 179.744308,124.037247 
	C178.942429,124.020760 178.470367,124.011238 177.998291,124.001717 
	C177.611115,123.489601 177.223938,122.977486 176.919556,122.234093 
z"/>
<path fill="#F3F3F9" opacity="1.000000" stroke="none" 
	d="
M187.937958,107.748871 
	C187.812027,108.003456 187.651230,107.932030 187.230713,107.813904 
	C186.413376,106.744255 185.855759,105.721313 185.298157,104.698372 
	C185.721786,104.469376 186.145432,104.240379 186.569061,104.011383 
	C187.013748,105.148537 187.458435,106.285698 187.937958,107.748871 
z"/>
<path fill="#F4F3FA" opacity="1.000000" stroke="none" 
	d="
M172.033630,108.950836 
	C173.254608,109.341827 174.475586,109.732819 175.696564,110.123810 
	C175.477585,110.612549 175.258606,111.101280 175.039627,111.590012 
	C174.121582,110.918571 173.203552,110.247124 172.140747,109.285400 
	C171.995956,108.995125 172.033630,108.950836 172.033630,108.950836 
z"/>
<path fill="#EEEDF7" opacity="1.000000" stroke="none" 
	d="
M212.439697,108.225304 
	C212.356110,109.104767 212.006012,109.958206 211.655930,110.811646 
	C210.799591,110.105988 209.943268,109.400330 209.086945,108.694672 
	C210.115692,108.529541 211.144455,108.364410 212.439697,108.225304 
z"/>
<path fill="#26229B" opacity="1.000000" stroke="none" 
	d="
M175.128799,139.555267 
	C175.128799,139.555267 175.102356,139.818329 175.063568,139.944702 
	C173.876038,140.469055 172.727264,140.867050 171.578506,141.265045 
	C171.409164,141.009674 171.239822,140.754288 171.070480,140.498917 
	C172.153549,139.712738 173.236618,138.926559 174.699142,138.463074 
	C175.095337,139.042282 175.112076,139.298782 175.128799,139.555267 
z"/>
<path fill="#F0F0F8" opacity="1.000000" stroke="none" 
	d="
M199.635971,150.981049 
	C199.176682,151.417313 198.611618,151.609009 198.046539,151.800705 
	C197.965714,151.383240 197.884888,150.965790 197.804077,150.548325 
	C198.379440,150.611038 198.954819,150.673737 199.635971,150.981049 
z"/>
<path fill="#F4F3FA" opacity="1.000000" stroke="none" 
	d="
M177.998291,124.379364 
	C178.470367,124.011238 178.942429,124.020760 179.767944,124.053993 
	C179.633698,125.277390 179.146011,126.477081 178.327866,127.727348 
	C177.997711,126.770958 177.998001,125.763992 177.998291,124.379364 
z"/>
<path fill="#F6F5FB" opacity="1.000000" stroke="none" 
	d="
M197.329956,143.001923 
	C196.991745,142.229218 196.985931,141.455978 196.969757,140.296295 
	C196.850006,139.624191 196.740601,139.338516 196.754120,138.704742 
	C197.278000,138.831100 197.678986,139.305542 198.079956,139.779999 
	C198.473221,140.715775 198.866486,141.651566 199.125610,142.793060 
	C198.548416,142.999634 198.105377,143.000519 197.329956,143.001923 
z"/>
<path fill="#EEEDF7" opacity="1.000000" stroke="none" 
	d="
M200.261871,119.080040 
	C200.294891,118.352440 200.630112,117.496071 201.150635,116.340691 
	C201.749664,116.042297 202.163391,116.042908 202.887024,116.061722 
	C202.319290,117.037033 201.441681,117.994156 200.261871,119.080040 
z"/>
<path fill="#EEEDF7" opacity="1.000000" stroke="none" 
	d="
M174.577667,146.069077 
	C174.566666,146.904465 174.374863,147.560211 174.183060,148.215973 
	C173.841690,148.071609 173.500320,147.927246 173.158951,147.782883 
	C173.571594,147.151733 173.984238,146.520599 174.577667,146.069077 
z"/>
<path fill="#F6F5FB" opacity="1.000000" stroke="none" 
	d="
M187.914764,140.612610 
	C188.020325,141.367722 188.005310,141.833344 187.966614,142.647491 
	C187.519485,142.997208 187.096039,142.998413 186.355591,142.998245 
	C186.027069,142.284836 186.015579,141.572800 185.981003,140.506348 
	C186.570007,140.208984 187.182098,140.266052 187.914764,140.612610 
z"/>
<path fill="#26239B" opacity="1.000000" stroke="none" 
	d="
M211.984497,133.126663 
	C213.170868,133.458191 214.357239,133.789734 215.543610,134.121262 
	C215.529236,134.387436 215.514877,134.653610 215.500504,134.919785 
	C214.491333,134.919785 213.482147,134.919785 212.189575,134.396088 
	C211.932266,133.623810 211.958389,133.375244 211.984497,133.126663 
z"/>
<path fill="#F4F3FA" opacity="1.000000" stroke="none" 
	d="
M217.566925,113.915298 
	C218.043671,113.311142 218.527084,112.951530 219.010498,112.591927 
	C219.147537,112.922592 219.284576,113.253265 219.421616,113.583931 
	C218.805618,113.775909 218.189621,113.967880 217.566925,113.915298 
z"/>
<path fill="#F4F3FA" opacity="1.000000" stroke="none" 
	d="
M173.243103,123.687675 
	C173.093216,123.185120 173.191940,122.743004 173.290665,122.300896 
	C173.639023,122.499664 173.987396,122.698433 174.335754,122.897202 
	C174.054413,123.180840 173.773071,123.464485 173.243103,123.687675 
z"/>
<path fill="#F4F3FA" opacity="1.000000" stroke="none" 
	d="
M169.276550,122.340614 
	C168.721878,122.358078 168.309265,122.228134 167.941406,122.019310 
	C167.899567,121.995560 168.109100,121.528976 168.202057,121.267731 
	C168.612000,121.568436 169.021927,121.869133 169.276550,122.340614 
z"/>
<path fill="#2C289E" opacity="1.000000" stroke="none" 
	d="
M208.961105,118.681793 
	C209.646225,118.125694 210.630951,117.865395 211.615677,117.605095 
	C211.216064,118.171394 210.816467,118.737701 210.153870,119.420044 
	C209.680817,119.349922 209.470764,119.163750 208.961105,118.681793 
z"/>
<path fill="#211D99" opacity="1.000000" stroke="none" 
	d="
M203.114655,109.890015 
	C203.279755,108.698921 203.692657,107.844521 204.105560,106.990112 
	C204.478531,107.209923 204.851486,107.429726 205.224442,107.649536 
	C204.603790,108.508598 203.983124,109.367653 203.114655,109.890015 
z"/>
<path fill="#F3F3F9" opacity="1.000000" stroke="none" 
	d="
M198.896729,105.900497 
	C198.845093,105.167984 198.793457,104.435478 198.741821,103.702965 
	C199.014496,103.760620 199.521896,103.813141 199.523285,103.876732 
	C199.536209,104.466942 199.462006,105.059067 199.188019,105.812340 
	C198.962967,105.974045 198.896729,105.900497 198.896729,105.900497 
z"/>
<path fill="#EEEDF7" opacity="1.000000" stroke="none" 
	d="
M185.756683,156.570511 
	C185.304276,156.641312 184.880341,156.490051 184.456390,156.338791 
	C184.589844,156.090591 184.723312,155.842407 184.856781,155.594223 
	C185.166245,155.845627 185.475677,156.097046 185.756683,156.570511 
z"/>
<path fill="#231F9A" opacity="1.000000" stroke="none" 
	d="
M179.930664,141.335205 
	C180.051697,140.435638 180.136368,139.870071 180.549240,139.134613 
	C181.187012,139.246277 181.496552,139.527817 181.976959,140.074005 
	C182.147812,140.338654 182.149506,140.674393 182.135544,140.841675 
	C181.379150,141.229065 180.636719,141.449142 179.930664,141.335205 
z"/>
<path fill="#F3F3F9" opacity="1.000000" stroke="none" 
	d="
M207.967743,135.783157 
	C207.022583,135.578217 206.045578,135.090332 204.975616,134.284409 
	C205.386322,133.906738 205.889999,133.847092 206.753540,133.920761 
	C207.387558,134.536102 207.661713,135.018158 207.967743,135.783157 
z"/>
<path fill="#120E92" opacity="1.000000" stroke="none" 
	d="
M175.582001,139.351166 
	C175.112076,139.298782 175.095337,139.042282 175.042603,138.401917 
	C175.501144,137.616074 175.995682,137.214127 176.742706,136.614441 
	C176.675201,137.326813 176.355194,138.236954 175.582001,139.351166 
z"/>
<path fill="#26229B" opacity="1.000000" stroke="none" 
	d="
M170.454987,133.840759 
	C171.244705,134.017731 171.623093,134.285614 172.001495,134.553497 
	C170.949127,134.617935 169.896988,134.687500 168.843811,134.732834 
	C168.786621,134.735306 168.720718,134.535400 168.627594,134.376266 
	C169.108505,134.225281 169.576080,134.078476 170.454987,133.840759 
z"/>
<path fill="#F0F0F8" opacity="1.000000" stroke="none" 
	d="
M200.015930,156.278656 
	C200.351974,156.350586 200.569672,156.587219 200.787369,156.823853 
	C200.473785,156.978088 200.160202,157.132339 199.846619,157.286591 
	C199.863602,157.005508 199.880585,156.724442 200.015930,156.278656 
z"/>
<path fill="#211D99" opacity="1.000000" stroke="none" 
	d="
M202.675186,112.831673 
	C202.117950,113.128395 201.822845,113.084785 201.088196,112.957245 
	C201.424164,112.073112 202.199661,111.272911 202.975159,110.472717 
	C202.962555,111.145592 202.949936,111.818474 202.675186,112.831673 
z"/>
<path fill="#F4F3FA" opacity="1.000000" stroke="none" 
	d="
M173.073456,117.044998 
	C172.533279,117.122673 171.993088,117.200340 171.452911,117.278015 
	C171.440063,116.859566 171.427216,116.441124 171.414368,116.022675 
	C171.798538,116.235847 172.182709,116.449028 172.789047,116.828125 
	C173.011215,116.994041 173.073456,117.044998 173.073456,117.044998 
z"/>
<path fill="#F4F3FA" opacity="1.000000" stroke="none" 
	d="
M182.857239,115.193733 
	C183.298172,115.152458 183.535385,115.379959 183.900635,115.832489 
	C184.067108,116.443382 184.053146,116.883919 183.984802,117.650543 
	C183.328613,117.512642 182.726791,117.048660 182.004120,116.317230 
	C182.157471,115.835800 182.431717,115.621826 182.857239,115.193733 
z"/>
<path fill="#F3F3F9" opacity="1.000000" stroke="none" 
	d="
M218.957626,144.460022 
	C218.838074,144.157928 218.906754,143.859573 218.975433,143.561218 
	C219.032242,143.862061 219.089050,144.162918 218.957626,144.460022 
z"/>
<path fill="#F4F3FA" opacity="1.000000" stroke="none" 
	d="
M165.245041,144.961761 
	C165.006073,144.557068 165.004837,144.116913 165.004913,143.346985 
	C165.165070,143.653564 165.323914,144.289948 165.245041,144.961761 
z"/>
<path fill="#F4F3FA" opacity="1.000000" stroke="none" 
	d="
M168.398804,142.075073 
	C168.618546,142.261185 168.711029,142.527542 168.753250,142.801651 
	C168.759705,142.843506 168.533630,142.921173 168.415100,142.982285 
	C168.361786,142.707474 168.308472,142.432663 168.398804,142.075073 
z"/>
<path fill="#EEEDF7" opacity="1.000000" stroke="none" 
	d="
M207.769012,102.222282 
	C207.618454,101.989265 207.616852,101.738091 207.661392,101.495384 
	C207.666763,101.466026 207.921326,101.482391 208.060394,101.477570 
	C208.017578,101.720612 207.974747,101.963654 207.769012,102.222282 
z"/>
<path fill="#F3F3F9" opacity="1.000000" stroke="none" 
	d="
M205.025757,139.009827 
	C205.410782,138.788834 206.091385,138.562454 206.935089,138.649109 
	C206.505905,138.976227 205.913635,138.990326 205.025757,139.009827 
z"/>
<path fill="#F3F3F9" opacity="1.000000" stroke="none" 
	d="
M180.997528,108.804581 
	C180.936157,108.391418 180.874786,107.978256 180.813416,107.565094 
	C181.186798,107.877235 181.560181,108.189377 181.715393,108.712074 
	C181.330673,108.883278 181.164108,108.843925 180.997528,108.804581 
z"/>
<path fill="#F4F3FA" opacity="1.000000" stroke="none" 
	d="
M215.398529,115.073715 
	C215.618576,115.260063 215.711258,115.526855 215.753540,115.801399 
	C215.760025,115.843369 215.533676,115.921181 215.415009,115.982407 
	C215.361572,115.707169 215.308136,115.431931 215.398529,115.073715 
z"/>
<path fill="#EEEDF7" opacity="1.000000" stroke="none" 
	d="
M205.898468,104.889816 
	C206.170715,104.991821 206.317017,105.222176 206.463318,105.452530 
	C206.233047,105.307747 206.002777,105.162956 205.898468,104.889816 
z"/>
<path fill="#F3F3F9" opacity="1.000000" stroke="none" 
	d="
M198.991119,106.014740 
	C198.677673,106.200310 198.336060,106.345184 197.994461,106.490067 
	C198.169327,106.323410 198.344193,106.156746 198.707886,105.945297 
	C198.896729,105.900497 198.962967,105.974045 198.991119,106.014740 
z"/>
<path fill="#1C1997" opacity="1.000000" stroke="none" 
	d="
M180.738800,108.912323 
	C181.164108,108.843925 181.330673,108.883278 181.752716,108.948334 
	C182.008163,108.974045 182.161728,109.371742 182.199493,109.581528 
	C182.077255,109.929878 181.917252,110.068436 181.506714,110.402145 
	C180.997498,110.071556 180.738785,109.545807 180.738800,108.912323 
z"/>
<path fill="#F4F3FA" opacity="1.000000" stroke="none" 
	d="
M177.832733,112.786263 
	C177.836166,113.099052 177.703262,113.311821 177.289734,113.775299 
	C177.238205,113.579422 177.467300,113.132828 177.832733,112.786263 
z"/>
<path fill="#F0F0F8" opacity="1.000000" stroke="none" 
	d="
M209.018890,145.025574 
	C208.889069,144.782578 208.737427,144.375458 208.831146,144.179474 
	C209.276306,144.426346 209.627747,144.869217 210.056976,145.590607 
	C210.134766,145.869141 210.032272,145.960220 209.977600,146.001312 
	C209.664841,145.784470 209.406784,145.526520 209.018890,145.025574 
z"/>
<path fill="#F4F3FA" opacity="1.000000" stroke="none" 
	d="
M175.070908,118.044456 
	C174.874008,118.347939 174.677109,118.651428 174.480209,118.954910 
	C174.539093,118.702576 174.597977,118.450241 174.833832,118.096512 
	C175.010818,117.995125 175.070908,118.044456 175.070908,118.044456 
z"/>
<path fill="#1E1A97" opacity="1.000000" stroke="none" 
	d="
M212.498077,139.433777 
	C212.931839,139.922409 213.365585,140.411026 213.799347,140.899658 
	C213.259201,140.873505 212.719055,140.847366 212.149292,140.346344 
	C212.245819,139.725571 212.371948,139.579666 212.498077,139.433777 
z"/>
<path fill="#120E92" opacity="1.000000" stroke="none" 
	d="
M211.528290,132.928253 
	C211.958389,133.375244 211.932266,133.623810 211.882004,134.246521 
	C211.058594,134.154587 210.259323,133.688522 209.460068,133.222443 
	C209.997406,133.058243 210.534744,132.894058 211.528290,132.928253 
z"/>
<path fill="#1E1A97" opacity="1.000000" stroke="none" 
	d="
M210.543365,138.598587 
	C211.271729,138.612503 211.709137,138.846878 212.322296,139.257507 
	C212.371948,139.579666 212.245819,139.725571 211.926514,140.086823 
	C211.176300,140.125992 210.619263,139.949814 209.884613,139.539062 
	C209.888794,139.142700 210.070587,138.980881 210.543365,138.598587 
z"/>
<path fill="#F4F3FA" opacity="1.000000" stroke="none" 
	d="
M176.906097,134.822159 
	C176.640457,134.493759 176.879791,134.277496 177.604065,134.040756 
	C178.089005,134.020264 178.026489,134.004608 177.998657,134.009308 
	C178.252548,134.230545 178.534271,134.447067 178.619339,134.907410 
	C178.085495,135.078903 177.748291,135.006592 176.906097,134.822159 
z"/>
<path fill="#F3F3F9" opacity="1.000000" stroke="none" 
	d="
M217.560120,135.167145 
	C217.529480,135.183762 217.590759,135.150558 217.560120,135.167145 
z"/>
<path fill="#2E2B9F" opacity="1.000000" stroke="none" 
	d="
M203.462982,141.064880 
	C203.596298,140.980301 203.763626,141.085999 203.972076,141.375671 
	C203.836716,141.469452 203.664642,141.367966 203.462982,141.064880 
z"/>
<path fill="#231F9A" opacity="1.000000" stroke="none" 
	d="
M179.814636,142.584625 
	C179.386566,142.550415 179.295807,142.247467 179.103180,141.481232 
	C179.160904,140.863281 179.320511,140.708618 179.730743,140.773621 
	C180.038239,141.434158 180.095093,141.875031 179.814636,142.584625 
z"/>
<path fill="#28249C" opacity="1.000000" stroke="none" 
	d="
M213.323044,123.859451 
	C213.012817,123.638184 213.041428,123.399368 213.171875,122.812767 
	C213.403076,122.923958 213.532471,123.382927 213.323044,123.859451 
z"/>
<path fill="#F4F3FA" opacity="1.000000" stroke="none" 
	d="
M174.985107,117.965988 
	C174.959381,117.936852 175.222931,117.641197 175.222931,117.641197 
	C175.222931,117.641197 175.240448,117.923882 175.155670,117.984169 
	C175.070908,118.044456 175.010818,117.995125 174.985107,117.965988 
z"/>
<path fill="#F4F3FA" opacity="1.000000" stroke="none" 
	d="
M172.984711,116.963783 
	C172.958206,116.933525 173.224747,116.638718 173.224747,116.638718 
	C173.224747,116.638718 173.243683,116.924141 173.158569,116.984573 
	C173.073456,117.044998 173.011215,116.994041 172.984711,116.963783 
z"/>
<path fill="#F3F2F9" opacity="1.000000" stroke="none" 
	d="
M167.516479,113.489868 
	C167.527435,113.515419 167.505508,113.464310 167.516479,113.489868 
z"/>
<path fill="#F4F3FA" opacity="1.000000" stroke="none" 
	d="
M171.974030,109.014206 
	C171.952103,109.033287 171.652161,108.785545 171.652161,108.785545 
	C171.652161,108.785545 171.920547,108.780205 171.977081,108.865524 
	C172.033630,108.950836 171.995956,108.995125 171.974030,109.014206 
z"/>
<path fill="#2E2B9F" opacity="1.000000" stroke="none" 
	d="
M198.320923,139.791840 
	C197.678986,139.305542 197.278000,138.831100 196.404510,138.407593 
	C195.571121,137.562820 195.210251,136.667084 194.864502,135.808884 
	C196.189804,135.175095 197.316956,134.636078 198.711365,133.971588 
	C199.279404,135.401016 199.580215,136.955933 199.873154,138.905823 
	C199.430817,139.468445 198.996338,139.636078 198.320923,139.791840 
z"/>
<path fill="#24219A" opacity="1.000000" stroke="none" 
	d="
M183.285828,132.792755 
	C183.003708,132.850327 183.001099,132.478119 183.001831,132.293381 
	C183.189926,131.548080 183.377304,130.987518 183.983276,130.437134 
	C184.943878,130.620651 185.485870,130.794006 186.027878,130.967361 
	C186.732498,132.632584 187.437103,134.297821 188.061615,136.461838 
	C187.981506,136.960632 187.720016,137.217346 187.720016,137.217346 
	C187.083344,136.414795 186.491364,135.570862 185.797348,134.821411 
	C185.107605,134.076553 184.315292,133.426697 183.285828,132.792755 
z"/>
<path fill="#28259C" opacity="1.000000" stroke="none" 
	d="
M200.005417,124.003197 
	C200.003021,124.446983 200.000641,124.890762 199.721954,125.679779 
	C199.258255,126.039116 199.070847,126.053238 198.883453,126.067368 
	C197.950348,125.228569 196.954773,124.441650 196.161758,123.486542 
	C196.060486,123.364563 197.015396,122.365654 197.871048,122.139053 
	C198.842529,123.004471 199.423965,123.503830 200.005417,124.003197 
z"/>
<path fill="#26239B" opacity="1.000000" stroke="none" 
	d="
M201.966614,131.695496 
	C201.150940,132.195679 200.281311,132.407761 199.176788,132.872498 
	C198.903091,132.259293 198.864258,131.393417 199.264374,130.263092 
	C200.113022,130.002716 200.522705,130.006805 200.932388,130.010895 
	C201.259155,130.476395 201.585907,130.941895 201.966614,131.695496 
z"/>
<path fill="#1C1897" opacity="1.000000" stroke="none" 
	d="
M186.013962,130.622498 
	C185.485870,130.794006 184.943878,130.620651 184.204132,130.237091 
	C184.129547,129.271347 184.252686,128.515823 184.375809,127.760277 
	C184.655594,127.717651 184.935394,127.675018 185.215179,127.632385 
	C185.476807,128.514145 185.738419,129.395889 186.013962,130.622498 
z"/>
<path fill="#28249C" opacity="1.000000" stroke="none" 
	d="
M200.894165,129.668915 
	C200.522705,130.006805 200.113022,130.002716 199.397003,129.996765 
	C199.042374,128.946213 198.994049,127.897537 198.914597,126.458115 
	C199.070847,126.053238 199.258255,126.039116 199.727356,126.012581 
	C200.291351,127.109093 200.573654,128.218018 200.894165,129.668915 
z"/>
<path fill="#26239B" opacity="1.000000" stroke="none" 
	d="
M204.112625,133.595779 
	C203.523010,133.475342 202.829224,133.051636 202.074646,132.303558 
	C202.678726,132.416946 203.343597,132.854736 204.112625,133.595779 
z"/>
<path fill="#2C289E" opacity="1.000000" stroke="none" 
	d="
M204.035950,123.368332 
	C204.276459,123.757538 204.273468,124.150551 204.233231,124.539719 
	C204.230957,124.561783 203.923218,124.552261 203.757645,124.557442 
	C203.766556,124.162064 203.775482,123.766693 204.035950,123.368332 
z"/>
<path fill="#1C1997" opacity="1.000000" stroke="none" 
	d="
M188.640274,118.974854 
	C188.520782,119.613075 188.076843,120.250992 187.314331,120.944122 
	C186.995758,120.999329 186.960052,120.961098 186.960052,120.961098 
	C186.971283,120.521904 186.982513,120.082703 187.005737,119.313866 
	C187.450424,118.980995 187.883133,118.977768 188.640274,118.974854 
z"/>
<path fill="#25219B" opacity="1.000000" stroke="none" 
	d="
M196.706757,118.947937 
	C196.982300,118.972000 197.003754,119.451660 197.013718,119.690674 
	C196.249710,119.876755 195.475754,119.823822 194.701782,119.770889 
	C194.682922,119.537430 194.664062,119.303978 194.645187,119.070526 
	C195.240540,119.021645 195.835876,118.972763 196.706757,118.947937 
z"/>
<path fill="#28249C" opacity="1.000000" stroke="none" 
	d="
M202.566132,126.539337 
	C202.864777,126.576866 203.041779,126.733826 203.218781,126.890785 
	C203.111496,126.995117 203.004211,127.099449 202.896927,127.203781 
	C202.746124,127.022110 202.595322,126.840446 202.566132,126.539337 
z"/>
<path fill="#2C289E" opacity="1.000000" stroke="none" 
	d="
M199.966019,123.681458 
	C199.423965,123.503830 198.842529,123.004471 198.126129,122.245514 
	C198.636322,122.443863 199.281479,122.901794 199.966019,123.681458 
z"/>
<path fill="#24219A" opacity="1.000000" stroke="none" 
	d="
M189.159088,137.150101 
	C189.015900,137.556488 188.872696,137.962891 188.729507,138.369278 
	C188.436218,138.160568 188.142929,137.951874 187.784821,137.480255 
	C187.720016,137.217346 187.981506,136.960632 188.094315,136.814697 
	C188.207123,136.668762 188.456558,136.712311 188.693298,136.843506 
	C188.930038,136.974686 189.159088,137.150101 189.159088,137.150101 
z"/>
<path fill="#24219A" opacity="1.000000" stroke="none" 
	d="
M188.806519,136.900146 
	C188.994263,136.432892 189.305511,136.040176 189.616760,135.647446 
	C189.613464,136.045517 189.610184,136.443573 189.382996,136.995880 
	C189.159088,137.150101 188.930038,136.974686 188.806519,136.900146 
z"/>
<path fill="#26229B" opacity="1.000000" stroke="none" 
	d="
M181.522842,129.557053 
	C181.456116,129.596436 181.589569,129.517670 181.522842,129.557053 
z"/>
<path fill="#25219B" opacity="1.000000" stroke="none" 
	d="
M193.544205,116.447777 
	C193.572617,116.498375 193.515793,116.397179 193.544205,116.447777 
z"/>
<path fill="#1C1997" opacity="1.000000" stroke="none" 
	d="
M187.011475,121.020233 
	C186.688385,121.182762 186.349579,121.324379 186.010773,121.465996 
	C186.199219,121.317719 186.387680,121.169434 186.768097,120.991119 
	C186.960052,120.961098 186.995758,120.999329 187.011475,121.020233 
z"/>
<path fill="#F5F4FA" opacity="1.000000" stroke="none" 
	d="
M178.355972,118.123627 
	C178.374435,118.247139 178.335083,118.384010 178.237610,118.328888 
	C178.179459,118.136902 178.298157,118.136986 178.355972,118.123627 
z"/>
<path fill="#2E2B9F" opacity="1.000000" stroke="none" 
	d="
M202.052475,135.493774 
	C202.180542,135.815536 202.107147,136.136353 202.033752,136.457153 
	C201.972855,136.135712 201.911942,135.814270 202.052475,135.493774 
z"/>
</svg>