<svg version="1.1" id="Layer_1" xmlns="http://www.w3.org/2000/svg" xmlns:xlink="http://www.w3.org/1999/xlink" x="0px" y="0px"
	 width="100%" viewBox="0 0 383 256" enable-background="new 0 0 383 256" xml:space="preserve">
<path fill="#CE2B37" opacity="1.000000" stroke="none" 
	d="
M257.000000,1.000000 
	C299.297058,1.000000 341.594147,1.000000 383.945618,1.000000 
	C383.945618,86.223938 383.945618,171.447922 383.945618,257.000000 
	C341.646332,257.000000 299.291840,257.000000 256.470520,256.531281 
	C256.029755,173.539734 256.054779,91.016914 256.087646,8.494098 
	C256.088501,6.333718 256.174835,4.173372 256.386078,1.873534 
	C256.742218,1.514843 256.891937,1.270157 257.000000,1.000000 
z"/>
<path fill="#009246" opacity="1.000000" stroke="none" 
	d="
M128.000000,257.000000 
	C85.702995,257.000000 43.405994,257.000000 1.054495,257.000000 
	C1.054495,171.776260 1.054495,86.552475 1.054495,1.000000 
	C43.020325,1.000000 85.041504,1.000000 127.609161,1.408739 
	C128.313278,3.783206 128.608215,5.748893 128.608780,7.714666 
	C128.631912,88.011734 128.634903,168.308807 128.602097,248.605865 
	C128.600952,251.403992 128.209518,254.201965 128.000000,257.000000 
z"/>
<path fill="#FFFFFF" opacity="1.000000" stroke="none" 
	d="
M128.468658,257.000000 
	C128.209518,254.201965 128.600952,251.403992 128.602097,248.605865 
	C128.634903,168.308807 128.631912,88.011734 128.608780,7.714666 
	C128.608215,5.748893 128.313278,3.783206 128.077820,1.408739 
	C170.354233,1.000000 212.708450,1.000000 255.550156,1.261228 
	C256.098846,1.685974 256.160065,1.849492 256.221283,2.013011 
	C256.174835,4.173372 256.088501,6.333718 256.087646,8.494098 
	C256.054779,91.016914 256.029755,173.539734 256.001831,256.531281 
	C213.645767,257.000000 171.291550,257.000000 128.468658,257.000000 
z"/>
<path fill="#D54953" opacity="1.000000" stroke="none" 
	d="
M256.386078,1.873534 
	C256.160065,1.849492 256.098846,1.685974 256.018799,1.261228 
	C256.000000,1.000000 256.500000,1.000000 256.750000,1.000000 
	C256.891937,1.270157 256.742218,1.514843 256.386078,1.873534 
z"/>
</svg>