<svg version="1.1" id="Layer_1" xmlns="http://www.w3.org/2000/svg" xmlns:xlink="http://www.w3.org/1999/xlink" x="0px" y="0px"
	 width="100%" viewBox="0 0 200 200" enable-background="new 0 0 200 200" xml:space="preserve">
<path fill="#FFFFFF" opacity="1.000000" stroke="none" 
	d="
M109.000000,1.000000 
	C139.649719,1.000000 170.299438,1.000000 200.974579,1.000000 
	C200.974579,67.612869 200.974579,134.225739 200.974579,200.919312 
	C134.424057,200.919312 67.847984,200.919312 1.135953,200.919312 
	C1.135953,134.333496 1.135953,67.666794 1.135953,1.000000 
	C34.099087,1.000000 67.080887,1.000000 100.475830,1.352785 
	C99.331017,2.747972 97.773048,3.790374 96.215080,4.832776 
	C96.541519,5.395529 96.867966,5.958282 97.194405,6.521036 
	C100.938972,6.848917 104.683540,7.176800 108.428116,7.504682 
	C108.383278,7.954579 108.338448,8.404478 108.293617,8.854376 
	C105.862907,8.854376 103.288544,9.377724 101.028114,8.757299 
	C93.943695,6.812823 85.782440,9.266103 79.554413,3.553595 
	C79.187149,3.216729 76.363937,4.428905 76.307304,5.064832 
	C75.936295,9.230893 73.144112,8.966410 70.211082,9.061830 
	C68.542633,9.116111 66.894600,9.797897 65.237373,10.197102 
	C65.837738,11.803294 66.438103,13.409487 66.924210,15.271685 
	C66.541351,16.017975 66.272743,16.508259 65.712730,17.210043 
	C60.322399,19.716141 55.223473,22.010740 50.046112,24.340635 
	C50.046112,25.438908 50.046112,27.234495 50.041626,29.354774 
	C50.039135,30.112423 50.041130,30.545376 49.808159,31.126144 
	C49.730808,31.858789 49.888432,32.443619 50.040581,33.421761 
	C51.870274,38.955132 50.413403,45.290054 55.706268,49.209908 
	C56.396648,49.721203 56.478947,50.983810 57.019939,51.777794 
	C60.782787,57.300278 64.426025,62.989563 71.921265,64.508499 
	C73.028717,66.209953 74.032433,67.598183 74.685532,69.042953 
	C73.699120,69.600693 72.808968,69.972923 72.476723,70.628082 
	C71.593620,72.369469 70.951111,74.232887 70.212906,76.047775 
	C71.915581,76.698532 73.572350,77.576195 75.334557,77.932739 
	C76.923172,78.254158 78.683846,77.734459 80.268150,78.065941 
	C83.188004,78.676888 86.549019,78.949120 86.684601,83.068451 
	C86.299553,83.684959 86.232719,84.249977 86.165886,84.814987 
	C87.432716,84.214264 88.699539,83.613541 90.239563,82.891235 
	C91.012657,82.169067 91.512573,81.568466 92.266663,81.079590 
	C93.007126,81.453514 93.493423,81.715714 93.984138,82.350708 
	C93.330399,84.165382 92.672241,85.607246 91.711075,86.915459 
	C90.508675,86.814888 89.085365,86.497971 88.792557,86.936279 
	C86.388741,90.534561 83.427711,91.740868 78.777802,88.733444 
	C79.368423,90.832375 79.660957,91.871986 79.916687,93.160324 
	C79.846474,93.573318 79.813072,93.737595 79.526993,94.024551 
	C78.856140,94.765221 78.437973,95.383202 77.602974,96.016457 
	C76.457581,97.237648 75.182213,98.407860 75.100731,99.656021 
	C74.833168,103.754799 74.998924,107.881859 74.677887,112.040146 
	C73.904434,112.720512 73.451271,113.358795 72.830658,114.086601 
	C72.775795,114.450829 72.888374,114.725517 73.334023,115.000397 
	C74.111198,115.000290 74.555290,114.999992 74.999756,115.413277 
	C75.017570,116.929756 75.035019,118.032654 74.834244,119.403915 
	C71.617737,119.672272 68.619438,119.672272 65.599899,119.672272 
	C65.599899,123.200645 65.599899,125.643074 65.428505,128.529510 
	C63.569382,129.649078 61.889160,130.887680 60.192730,130.910294 
	C47.699730,131.076889 35.203331,130.970917 22.708488,131.039047 
	C21.170412,131.047440 19.635181,131.577240 18.098631,131.865417 
	C18.153116,132.379501 18.207602,132.893585 18.262087,133.407669 
	C33.555889,136.944000 49.411121,133.553299 64.917336,136.631622 
	C62.798313,138.087341 60.592098,138.915115 58.377651,138.937775 
	C45.883739,139.065628 33.387371,138.943634 20.893042,139.049179 
	C18.458168,139.069748 15.100857,138.363358 15.316956,142.951752 
	C15.056010,143.427109 14.919393,143.704926 14.433496,144.000397 
	C12.536739,145.109360 10.071469,145.947556 9.674537,147.364960 
	C8.861930,150.266678 9.031873,153.479187 9.026707,156.564102 
	C9.015309,163.369049 10.318114,164.381470 16.790874,163.272797 
	C16.897150,170.829529 16.933123,177.955933 16.951313,185.398407 
	C16.960598,186.136124 16.987663,186.557755 17.018772,187.386826 
	C17.167849,191.265915 19.699507,190.998474 22.052591,190.998886 
	C34.168301,191.000992 46.284836,190.926758 58.399002,191.063492 
	C60.744190,191.089951 63.104015,192.397812 65.413811,192.278275 
	C67.873772,192.150970 72.248688,194.805145 72.231628,188.969238 
	C72.462624,188.962448 72.924690,188.949722 73.299240,189.002380 
	C76.829491,191.898849 80.603256,192.152939 84.642212,192.055435 
	C92.547897,191.864594 100.462097,192.052109 108.371170,191.954041 
	C109.917732,191.934875 111.457039,191.331100 113.466187,190.997818 
	C118.954918,190.665192 123.977150,190.331680 129.339630,190.051620 
	C130.436813,190.975983 131.193771,191.846878 132.503693,193.353973 
	C132.741547,191.310806 132.879044,190.129715 133.348358,188.954315 
	C134.122543,188.968369 134.564941,188.976730 135.012238,189.384048 
	C135.237823,193.551102 138.065018,193.334045 140.406784,192.836609 
	C142.959152,192.294418 146.838898,192.667114 146.458191,187.978088 
	C151.619156,187.978790 156.313431,187.982025 161.006470,188.390259 
	C161.930191,190.115311 162.806900,192.521545 163.788574,192.565155 
	C167.791138,192.742966 171.847427,192.351944 175.831192,191.793945 
	C176.666901,191.676880 177.279205,189.964844 178.307434,188.854401 
	C180.523300,189.023682 182.426178,189.326355 184.690964,189.686600 
	C184.756302,188.283447 184.814362,187.036774 184.898911,185.591187 
	C184.925400,185.392288 185.079239,185.021622 185.467072,184.920425 
	C186.206436,184.308823 186.836929,183.814087 186.866623,183.285614 
	C187.186630,177.591034 187.478668,171.892349 187.583694,166.191223 
	C187.597733,165.429764 186.533813,164.648422 186.259476,163.598022 
	C186.369949,160.207535 186.190033,157.095291 186.025497,153.849304 
	C186.040878,153.715546 186.134018,153.462891 186.079773,153.118683 
	C183.741394,149.243744 180.328827,149.498444 177.509766,153.504059 
	C166.710648,153.582275 156.359680,153.533081 146.001099,153.144714 
	C145.204849,149.325119 143.346375,148.629166 140.205933,150.310043 
	C138.288116,151.336517 135.826447,151.681015 136.104462,148.458939 
	C136.677872,141.813248 137.657288,135.198074 138.627182,128.593475 
	C138.978912,126.198288 139.666351,123.911964 136.377365,122.546570 
	C135.277786,121.064110 134.380554,119.259964 133.257111,119.105972 
	C130.225372,118.690392 127.097321,118.977577 123.928024,118.524048 
	C123.798683,111.601555 123.897202,105.134468 123.616646,98.683861 
	C123.521332,96.492470 122.470116,94.342659 121.847900,91.993546 
	C121.559570,91.777702 121.279060,91.742149 120.967308,91.846970 
	C120.936073,91.987343 121.029442,92.259377 120.617851,92.052872 
	C117.469093,91.724442 114.731934,91.602524 111.795380,91.335068 
	C110.847977,89.320946 109.725685,87.503700 109.460373,85.568932 
	C109.210197,83.744560 109.557961,81.662079 110.299332,79.983086 
	C110.527542,79.466240 112.914948,79.902794 114.483391,79.902794 
	C114.483391,78.988319 114.483391,77.638069 114.483391,75.152344 
	C117.547127,77.401031 119.841843,79.085281 122.136559,80.769531 
	C122.213303,78.304726 122.128990,75.757469 120.858818,74.824219 
	C118.230461,72.893074 119.579781,71.154076 120.593269,69.137695 
	C123.656395,68.681541 127.650772,70.297600 127.339432,64.947350 
	C128.087555,64.813255 128.519409,64.760239 129.115173,64.995728 
	C131.422318,64.581314 134.147675,62.693893 135.595764,63.405533 
	C139.396362,65.273270 140.349564,62.764904 141.999619,60.828442 
	C140.934616,59.183224 140.006821,57.749962 139.110901,56.089348 
	C139.142761,55.861988 139.236633,55.412529 139.498749,55.353607 
	C140.083252,55.141403 140.405640,54.988117 141.111343,54.834316 
	C141.886475,54.039314 142.278305,53.244827 142.669968,52.312073 
	C142.669815,52.173809 142.825012,51.944927 143.172104,51.941093 
	C144.677963,50.624607 145.836716,49.311951 147.403824,48.050507 
	C151.316971,48.031422 154.948929,48.436440 158.237274,47.556866 
	C159.060104,47.336769 158.777420,42.983662 159.088394,39.598797 
	C153.966827,43.820560 153.966827,43.820560 150.919327,41.478241 
	C156.187927,37.475235 160.359100,32.450577 158.104156,25.619434 
	C155.873337,18.861382 149.911423,17.887981 143.337341,19.226269 
	C143.060074,20.775154 142.687912,22.854122 142.209122,25.528656 
	C137.397827,20.043844 136.416183,15.050077 138.903366,10.227332 
	C140.618164,6.902298 138.931885,5.387393 136.031891,5.054646 
	C128.659439,4.208726 121.241928,3.757481 113.867004,2.929565 
	C112.193550,2.741702 110.619698,1.666674 109.000000,1.000000 
M67.000000,105.426178 
	C66.647530,108.432617 66.295052,111.439064 65.794960,115.704636 
	C67.207794,115.446533 69.475418,115.713737 70.290092,114.751190 
	C72.434105,112.218040 70.819969,100.916954 67.602119,97.383179 
	C67.359238,100.260429 67.179619,102.388191 67.000000,105.426178 
M56.519779,61.011497 
	C58.291504,62.414555 60.063232,63.817616 61.834957,65.220673 
	C62.491821,64.469765 63.148685,63.718853 63.805550,62.967945 
	C61.875317,61.525196 60.010223,59.978443 57.974815,58.703621 
	C57.370781,58.325310 56.287701,58.711853 55.424126,58.747925 
	C55.629528,59.333248 55.834930,59.918571 56.519779,61.011497 
M77.585388,89.519424 
	C77.585388,89.519424 77.476891,89.584625 77.585388,89.519424 
z"/>
<path fill="#FCFDFC" opacity="1.000000" stroke="none" 
	d="
M67.038467,15.015680 
	C66.438103,13.409487 65.837738,11.803294 65.237373,10.197102 
	C66.894600,9.797897 68.542633,9.116111 70.211082,9.061830 
	C73.144112,8.966410 75.936295,9.230893 76.307304,5.064832 
	C76.363937,4.428905 79.187149,3.216729 79.554413,3.553595 
	C85.782440,9.266103 93.943695,6.812823 101.028114,8.757299 
	C103.288544,9.377724 105.862907,8.854376 108.293617,8.854376 
	C108.338448,8.404478 108.383278,7.954579 108.428116,7.504682 
	C104.683540,7.176800 100.938972,6.848917 97.194405,6.521036 
	C96.867966,5.958282 96.541519,5.395529 96.215080,4.832776 
	C97.773048,3.790374 99.331017,2.747972 100.944489,1.352785 
	C103.370560,1.000000 105.741112,1.000000 108.555832,1.000000 
	C110.619698,1.666674 112.193550,2.741702 113.867004,2.929565 
	C121.241928,3.757481 128.659439,4.208726 136.031891,5.054646 
	C138.931885,5.387393 140.618164,6.902298 138.903366,10.227332 
	C136.416183,15.050077 137.397827,20.043844 142.209122,25.528656 
	C142.687912,22.854122 143.060074,20.775154 143.337341,19.226269 
	C149.911423,17.887981 155.873337,18.861382 158.104156,25.619434 
	C160.359100,32.450577 156.187927,37.475235 150.919327,41.478241 
	C153.966827,43.820560 153.966827,43.820560 159.088394,39.598797 
	C158.777420,42.983662 159.060104,47.336769 158.237274,47.556866 
	C154.948929,48.436440 151.316971,48.031422 147.563858,47.718601 
	C148.519165,42.158966 149.862076,37.006840 150.777237,31.779816 
	C150.915619,30.989382 149.062271,29.850233 148.037613,28.533638 
	C146.950027,27.533960 145.325302,26.104136 145.053802,26.326513 
	C140.386749,30.149065 137.672897,25.770905 134.913528,24.470116 
	C134.913528,21.496893 135.272308,18.962381 134.772629,16.610239 
	C134.493866,15.298023 132.919754,14.078435 131.640915,13.277966 
	C131.280334,13.052272 129.900620,14.454805 128.521179,15.138664 
	C121.383942,15.161742 114.713852,15.156693 107.809418,14.849741 
	C105.703117,14.747921 103.831161,14.948005 101.547562,15.171070 
	C99.761734,15.196559 98.387558,15.199065 96.749710,14.869987 
	C86.666489,14.470067 76.811386,12.207633 67.038467,15.015680 
z"/>
<path fill="#E85452" opacity="1.000000" stroke="none" 
	d="
M16.969093,185.082321 
	C16.933123,177.955933 16.897150,170.829529 16.886551,162.912674 
	C16.982990,159.163010 17.054056,156.203827 17.578459,153.197144 
	C33.125488,153.121918 48.219669,153.031128 63.312229,153.149063 
	C65.127258,153.163239 66.933449,154.308762 68.793678,155.406342 
	C68.781425,165.910767 68.719223,175.938751 68.210526,185.995026 
	C52.408634,186.042648 37.053143,186.091141 21.698013,186.037415 
	C20.120611,186.031891 18.545349,185.415344 16.969093,185.082321 
z"/>
<path fill="#51619A" opacity="1.000000" stroke="none" 
	d="
M124.007484,118.985901 
	C127.097321,118.977577 130.225372,118.690392 133.257111,119.105972 
	C134.380554,119.259964 135.277786,121.064110 136.267670,122.960022 
	C135.914047,126.006668 137.366425,129.257950 132.644165,129.119293 
	C113.461906,129.074799 94.753014,129.089508 75.701996,129.057632 
	C74.902481,129.043015 74.445091,129.074997 73.563675,129.058044 
	C71.719742,129.066071 70.299850,129.123016 68.865692,129.117859 
	C68.851425,129.055756 68.963013,128.994156 68.974243,128.566467 
	C68.366486,123.627800 69.972488,121.560204 74.867760,121.824211 
	C76.518257,121.913231 78.274361,120.044128 80.452438,119.047760 
	C92.911873,119.019722 104.901352,119.051933 116.889977,118.965965 
	C118.638222,118.953430 120.382431,118.376846 122.368408,118.167389 
	C123.074699,118.510979 123.541092,118.748444 124.007484,118.985901 
z"/>
<path fill="#59628B" opacity="1.000000" stroke="none" 
	d="
M186.010132,153.983063 
	C186.190033,157.095291 186.369949,160.207535 185.960526,163.566772 
	C185.179108,163.870529 184.987045,163.927261 184.342041,163.926498 
	C167.039963,163.870300 150.190857,163.871582 133.212799,163.505859 
	C133.017258,162.088821 132.950653,161.038803 132.945709,159.545074 
	C133.046265,157.289154 133.085159,155.476959 133.510925,153.655441 
	C134.921051,153.738556 135.944321,153.830978 137.251938,154.236832 
	C138.176834,154.696304 138.816177,154.964157 139.458130,154.970520 
	C154.606995,155.120621 169.756104,155.252365 184.905472,155.311295 
	C185.271957,155.312729 185.641830,154.445267 186.010132,153.983063 
z"/>
<path fill="#F9FCFB" opacity="1.000000" stroke="none" 
	d="
M15.422889,142.745148 
	C15.100857,138.363358 18.458168,139.069748 20.893042,139.049179 
	C33.387371,138.943634 45.883739,139.065628 58.377651,138.937775 
	C60.592098,138.915115 62.798313,138.087341 64.917336,136.631622 
	C49.411121,133.553299 33.555889,136.944000 18.262087,133.407669 
	C18.207602,132.893585 18.153116,132.379501 18.098631,131.865417 
	C19.635181,131.577240 21.170412,131.047440 22.708488,131.039047 
	C35.203331,130.970917 47.699730,131.076889 60.192730,130.910294 
	C61.889160,130.887680 63.569382,129.649078 65.674728,128.802216 
	C67.049240,128.751984 68.006126,128.873062 68.963013,128.994156 
	C68.963013,128.994156 68.851425,129.055756 68.884140,129.568863 
	C68.869766,134.368896 68.822678,138.655823 68.403519,142.938538 
	C67.025803,142.997620 66.020157,143.060913 64.671570,143.056641 
	C63.867538,143.037247 63.406452,143.085434 62.543701,143.053192 
	C60.781933,143.027115 59.421822,143.081497 57.594414,143.060959 
	C46.731342,143.037521 36.335564,143.089005 25.511745,143.058914 
	C21.863432,142.899948 18.643160,142.822556 15.422889,142.745148 
z"/>
<path fill="#F1C849" opacity="1.000000" stroke="none" 
	d="
M133.341751,163.872879 
	C150.190857,163.871582 167.039963,163.870300 184.366623,164.395340 
	C184.922531,171.621658 185.000885,178.321640 185.079239,185.021622 
	C185.079239,185.021622 184.925400,185.392288 184.443283,185.643250 
	C167.065765,185.903366 150.170380,185.912506 133.230469,185.463593 
	C133.043976,180.324249 132.901978,175.643005 132.835175,170.638306 
	C132.857315,169.878647 132.804260,169.442444 132.874512,168.610138 
	C133.033325,166.839203 133.068832,165.464386 133.182114,164.055573 
	C133.259888,164.021576 133.341751,163.872879 133.341751,163.872879 
M176.588043,165.650177 
	C163.175552,166.047134 149.763062,166.444092 136.350571,166.841049 
	C136.314499,167.385254 136.278427,167.929474 136.242355,168.473679 
	C137.771271,169.570465 139.300201,170.667252 141.539856,172.273911 
	C138.673309,172.890366 136.968765,173.256927 135.511383,173.570343 
	C135.511383,176.777817 135.511383,179.584702 135.511383,182.391602 
	C135.802582,182.409546 136.093796,182.427505 136.384995,182.445465 
	C136.843857,180.808456 137.302704,179.171448 137.761551,177.534439 
	C138.053391,177.584213 138.345215,177.634003 138.637039,177.683792 
	C138.859161,179.903488 139.081268,182.123184 139.270065,184.009781 
	C150.354126,184.009781 161.132477,184.010773 171.910828,184.009506 
	C183.435623,184.008163 183.864441,183.523758 182.673141,171.879745 
	C181.208603,171.522934 179.744049,171.166107 177.180450,170.541534 
	C179.617935,169.206238 180.803940,168.556519 183.299210,167.189575 
	C180.502365,166.329605 178.934128,165.847397 176.588043,165.650177 
z"/>
<path fill="#FCF7D8" opacity="1.000000" stroke="none" 
	d="
M66.924210,15.271685 
	C76.811386,12.207633 86.666489,14.470067 96.422241,15.116114 
	C89.428062,15.609503 82.494713,15.382875 75.569054,15.526726 
	C73.464264,15.570441 70.248108,14.090665 69.637527,18.433260 
	C69.660774,19.524704 69.705399,20.252251 69.551590,21.230278 
	C69.892403,23.959999 70.431648,26.439236 70.510246,28.921921 
	C66.041931,28.981524 62.034267,29.037682 57.694126,29.051121 
	C56.923569,29.084696 56.485485,29.160986 55.647469,29.227802 
	C55.095814,32.303196 54.944092,35.388062 54.739738,38.854965 
	C56.964336,43.889076 59.241566,48.541145 61.605110,53.519264 
	C62.484604,54.888660 63.277786,55.932011 64.203018,57.240257 
	C64.824409,57.826096 65.313766,58.147030 65.926056,58.724010 
	C66.841949,59.438389 67.634911,59.896717 68.579529,60.642021 
	C69.854645,61.903263 70.978088,62.877529 72.033722,63.940308 
	C71.965919,64.028816 71.817528,64.195274 71.817528,64.195274 
	C64.426025,62.989563 60.782787,57.300278 57.019939,51.777794 
	C56.478947,50.983810 56.396648,49.721203 55.706268,49.209908 
	C50.413403,45.290054 51.870274,38.955132 50.303886,33.398777 
	C50.396152,32.314434 50.219643,31.646381 50.043129,30.978331 
	C50.041130,30.545376 50.039135,30.112423 50.401257,29.310246 
	C52.843990,28.296602 54.922604,27.652184 57.415527,27.001089 
	C61.040020,26.505136 64.250206,26.015858 67.550255,25.512882 
	C67.349823,23.901430 67.169380,22.450752 66.992691,20.649174 
	C66.665680,19.198364 66.334908,18.098454 66.004135,16.998543 
	C66.272743,16.508259 66.541351,16.017975 66.924210,15.271685 
z"/>
<path fill="#5E6896" opacity="1.000000" stroke="none" 
	d="
M78.019806,96.001183 
	C78.437973,95.383202 78.856140,94.765221 79.817307,94.217575 
	C80.887283,96.356430 81.784073,97.911972 84.255219,97.609207 
	C84.094246,100.040024 83.943275,102.022499 83.963646,104.003197 
	C84.077339,115.056137 82.449844,114.265976 93.966461,114.139030 
	C101.866447,114.051964 109.762657,113.622688 117.751877,113.785065 
	C117.884529,115.107376 117.925858,115.991013 117.501480,116.903015 
	C106.204872,116.942253 95.372482,117.047783 84.544418,116.877533 
	C82.572723,116.846535 80.618736,115.689186 78.499535,114.745491 
	C78.230354,113.293472 78.118217,112.147766 78.090881,110.547531 
	C78.119362,106.394485 78.063034,102.695961 78.096848,98.628319 
	C78.131256,97.506531 78.075531,96.753853 78.019806,96.001183 
z"/>
<path fill="#F9FCFB" opacity="1.000000" stroke="none" 
	d="
M72.000633,188.976013 
	C72.248688,194.805145 67.873772,192.150970 65.413811,192.278275 
	C63.104015,192.397812 60.744190,191.089951 58.399002,191.063492 
	C46.284836,190.926758 34.168301,191.000992 22.052591,190.998886 
	C19.699507,190.998474 17.167849,191.265915 17.476236,187.401031 
	C22.048878,187.304428 26.171291,187.888138 30.286699,187.842346 
	C41.391155,187.718781 52.492046,187.186371 63.595699,187.140060 
	C66.394745,187.128372 69.198853,188.331268 72.000633,188.976013 
z"/>
<path fill="#F9FCFB" opacity="1.000000" stroke="none" 
	d="
M112.999695,190.996948 
	C111.457039,191.331100 109.917732,191.934875 108.371170,191.954041 
	C100.462097,192.052109 92.547897,191.864594 84.642212,192.055435 
	C80.603256,192.152939 76.829491,191.898849 73.352142,188.698944 
	C74.341606,187.694839 75.652718,187.046860 77.383972,186.303619 
	C78.939934,186.248520 80.075752,186.288681 81.526184,186.547714 
	C92.237083,186.854004 102.633369,186.941437 113.021347,187.425659 
	C113.008598,188.880615 113.004143,189.938782 112.999695,190.996948 
z"/>
<path fill="#FCFEFA" opacity="1.000000" stroke="none" 
	d="
M92.012482,80.967865 
	C91.512573,81.568466 91.012657,82.169067 89.869827,82.892731 
	C88.485535,83.016197 87.744171,83.016579 87.002800,83.016960 
	C86.549019,78.949120 83.188004,78.676888 80.268150,78.065941 
	C78.683846,77.734459 76.923172,78.254158 75.334557,77.932739 
	C73.572350,77.576195 71.915581,76.698532 70.212906,76.047775 
	C70.951111,74.232887 71.593620,72.369469 72.476723,70.628082 
	C72.808968,69.972923 73.699120,69.600693 75.086975,69.052002 
	C78.247375,69.314781 80.655731,69.625046 83.046799,69.945709 
	C83.029510,69.956108 83.039932,69.934860 83.111526,70.174362 
	C83.359634,70.718033 83.616913,70.918610 84.218033,71.158035 
	C84.965782,71.917290 85.450478,72.534088 85.953491,73.504173 
	C86.937012,74.619484 87.902214,75.381500 88.910568,76.489212 
	C89.984764,77.887703 91.015793,78.940483 92.035400,80.236816 
	C92.023979,80.480370 92.012482,80.967865 92.012482,80.967865 
M89.584625,80.516411 
	C89.584625,80.516411 89.476448,80.580269 89.584625,80.516411 
z"/>
<path fill="#F2FBFD" opacity="1.000000" stroke="none" 
	d="
M136.967606,153.923401 
	C135.944321,153.830978 134.921051,153.738556 133.501663,153.215393 
	C133.109558,144.915939 133.113541,137.047226 133.117523,129.178497 
	C137.366425,129.257950 135.914047,126.006668 136.366852,123.390884 
	C139.666351,123.911964 138.978912,126.198288 138.627182,128.593475 
	C137.657288,135.198074 136.677872,141.813248 136.104462,148.458939 
	C135.826447,151.681015 138.288116,151.336517 140.205933,150.310043 
	C143.346375,148.629166 145.204849,149.325119 145.559296,153.241730 
	C142.405930,153.759766 139.686768,153.841583 136.967606,153.923401 
z"/>
<path fill="#F9FCFB" opacity="1.000000" stroke="none" 
	d="
M17.125120,153.244629 
	C17.054056,156.203827 16.982990,159.163010 16.816248,162.482330 
	C10.318114,164.381470 9.015309,163.369049 9.026707,156.564102 
	C9.031873,153.479187 8.861930,150.266678 9.674537,147.364960 
	C10.071469,145.947556 12.536739,145.109360 14.500429,144.442139 
	C15.893841,147.605209 12.919382,151.364365 17.125120,153.244629 
z"/>
<path fill="#515D8D" opacity="1.000000" stroke="none" 
	d="
M84.344345,97.160049 
	C81.784073,97.911972 80.887283,96.356430 80.069992,94.094879 
	C79.813072,93.737595 79.846474,93.573318 80.359756,93.146469 
	C83.188423,92.820999 85.537209,92.758118 88.035995,92.970596 
	C88.788300,92.805786 89.390617,92.365616 90.263641,91.908752 
	C90.997932,91.707458 91.461525,91.522873 92.256516,91.492111 
	C93.065460,91.694542 93.543007,91.743141 94.259033,91.876740 
	C94.655678,92.021988 94.813835,92.082230 95.287430,92.416382 
	C101.402252,92.786942 107.201645,92.883575 113.229095,93.252075 
	C114.970886,93.345825 116.484604,93.167702 118.332474,92.988152 
	C119.112198,92.989807 119.557762,92.992897 120.023682,93.294868 
	C120.363167,94.065277 120.682312,94.536804 120.959869,95.320061 
	C120.010750,96.736259 119.103218,97.840729 118.056259,98.580231 
	C116.229393,97.521896 114.559128,96.283981 112.851517,96.230133 
	C105.750679,96.006187 98.637032,96.055267 91.531502,96.187805 
	C89.130569,96.232582 86.739777,96.820404 84.344345,97.160049 
z"/>
<path fill="#F3EBD9" opacity="1.000000" stroke="none" 
	d="
M133.274979,185.921661 
	C150.170380,185.912506 167.065765,185.903366 184.416794,185.842163 
	C184.814362,187.036774 184.756302,188.283447 184.690964,189.686600 
	C182.426178,189.326355 180.523300,189.023682 177.926895,188.683823 
	C171.824814,188.426178 166.416260,188.205719 161.007706,187.985260 
	C156.313431,187.982025 151.619156,187.978790 146.018311,187.974792 
	C141.743607,188.311066 138.375458,188.648087 135.007324,188.985107 
	C134.564941,188.976730 134.122543,188.968369 133.284302,188.601242 
	C131.615005,187.809555 130.341568,187.376648 129.057098,186.808716 
	C129.046066,186.673691 129.028397,186.403305 129.439606,186.293884 
	C130.992218,186.096863 132.133591,186.009262 133.274979,185.921661 
z"/>
<path fill="#FCF7D8" opacity="1.000000" stroke="none" 
	d="
M120.180473,69.207733 
	C119.579781,71.154076 118.230461,72.893074 120.858818,74.824219 
	C122.128990,75.757469 122.213303,78.304726 122.136559,80.769531 
	C119.841843,79.085281 117.547127,77.401031 114.483391,75.152344 
	C114.483391,77.638069 114.483391,78.988319 114.483391,79.902794 
	C112.914948,79.902794 110.527542,79.466240 110.299332,79.983086 
	C109.557961,81.662079 109.210197,83.744560 109.460373,85.568932 
	C109.725685,87.503700 110.847977,89.320946 111.383408,91.423271 
	C109.808083,91.463173 108.445343,91.269325 107.100800,90.753326 
	C106.693138,89.300499 106.267281,88.169815 105.841240,86.590927 
	C105.775330,83.764587 105.709602,81.386459 105.999054,78.921837 
	C109.968285,76.290123 113.582329,73.744904 117.416328,71.017632 
	C117.806229,70.298973 117.976181,69.762360 118.455383,69.195801 
	C119.174828,69.108543 119.585030,69.051231 120.042526,69.046524 
	C120.089828,69.099113 120.180473,69.207733 120.180473,69.207733 
z"/>
<path fill="#6A5E83" opacity="1.000000" stroke="none" 
	d="
M17.578459,153.197144 
	C12.919382,151.364365 15.893841,147.605209 14.868103,144.433533 
	C14.919393,143.704926 15.056010,143.427109 15.316956,142.951752 
	C18.643160,142.822556 21.863432,142.899948 25.227604,143.317642 
	C16.077299,144.644241 16.077299,144.644241 17.480614,151.057083 
	C34.619465,151.057083 51.684437,151.057083 68.840164,151.296082 
	C68.989410,151.695145 69.047913,151.855209 69.044388,152.378922 
	C68.902817,153.471680 68.823273,154.200790 68.743729,154.929901 
	C66.933449,154.308762 65.127258,153.163239 63.312229,153.149063 
	C48.219669,153.031128 33.125488,153.121918 17.578459,153.197144 
z"/>
<path fill="#F9FCFB" opacity="1.000000" stroke="none" 
	d="
M161.006470,188.390259 
	C166.416260,188.205719 171.824814,188.426178 177.613922,188.817200 
	C177.279205,189.964844 176.666901,191.676880 175.831192,191.793945 
	C171.847427,192.351944 167.791138,192.742966 163.788574,192.565155 
	C162.806900,192.521545 161.930191,190.115311 161.006470,188.390259 
z"/>
<path fill="#FDFEFA" opacity="1.000000" stroke="none" 
	d="
M67.000000,104.971069 
	C67.179619,102.388191 67.359238,100.260429 67.602119,97.383179 
	C70.819969,100.916954 72.434105,112.218040 70.290092,114.751190 
	C69.475418,115.713737 67.207794,115.446533 65.794960,115.704636 
	C66.295052,111.439064 66.647530,108.432617 67.000000,104.971069 
z"/>
<path fill="#F3EBD9" opacity="1.000000" stroke="none" 
	d="
M76.963821,186.398865 
	C75.652718,187.046860 74.341606,187.694839 72.977600,188.646271 
	C72.924690,188.949722 72.462624,188.962448 72.231628,188.969238 
	C69.198853,188.331268 66.394745,187.128372 63.595699,187.140060 
	C52.492046,187.186371 41.391155,187.718781 30.286699,187.842346 
	C26.171291,187.888138 22.048878,187.304428 17.472195,186.993591 
	C16.987663,186.557755 16.960598,186.136124 16.951313,185.398407 
	C18.545349,185.415344 20.120611,186.031891 21.698013,186.037415 
	C37.053143,186.091141 52.408634,186.042648 68.686371,186.034439 
	C72.060417,186.163345 74.512115,186.281113 76.963821,186.398865 
z"/>
<path fill="#5E6896" opacity="1.000000" stroke="none" 
	d="
M68.974243,128.566467 
	C68.006126,128.873062 67.049240,128.751984 65.846130,128.358215 
	C65.599899,125.643074 65.599899,123.200645 65.599899,119.672272 
	C68.619438,119.672272 71.617737,119.672272 75.146286,119.355690 
	C76.622887,118.655716 77.569229,118.272324 78.825073,117.994431 
	C79.417130,118.423271 79.699669,118.746605 79.982208,119.069946 
	C78.274361,120.044128 76.518257,121.913231 74.867760,121.824211 
	C69.972488,121.560204 68.366486,123.627800 68.974243,128.566467 
z"/>
<path fill="#FDFEFC" opacity="1.000000" stroke="none" 
	d="
M57.001221,27.007767 
	C54.922604,27.652184 52.843990,28.296602 50.405743,28.985550 
	C50.046112,27.234495 50.046112,25.438908 50.046112,24.340635 
	C55.223473,22.010740 60.322399,19.716141 65.712730,17.210043 
	C66.334908,18.098454 66.665680,19.198364 66.613556,20.695587 
	C64.256554,21.729668 62.289989,22.859953 60.306591,22.890310 
	C57.141747,22.938745 56.824139,24.616302 57.001221,27.007767 
z"/>
<path fill="#FCF7D8" opacity="1.000000" stroke="none" 
	d="
M148.130219,28.872383 
	C149.062271,29.850233 150.915619,30.989382 150.777237,31.779816 
	C149.862076,37.006840 148.519165,42.158966 147.155518,47.667389 
	C145.836716,49.311951 144.677963,50.624607 143.222473,51.599991 
	C143.349350,50.205173 143.772964,49.147625 144.273132,47.945305 
	C144.349701,47.800537 144.328522,47.473942 144.563095,47.239441 
	C144.932327,46.370537 145.067001,45.736137 145.140930,45.040688 
	C145.080185,44.979637 145.171600,45.125572 145.460999,44.908173 
	C146.185486,42.799999 146.620575,40.909222 147.027527,39.010838 
	C146.999390,39.003231 147.038773,39.046207 147.347504,38.771477 
	C147.690186,35.413742 147.724121,32.330738 147.850830,29.153625 
	C147.943588,29.059519 148.130219,28.872383 148.130219,28.872383 
z"/>
<path fill="#FBFDF9" opacity="1.000000" stroke="none" 
	d="
M78.515564,117.888924 
	C77.569229,118.272324 76.622887,118.655716 75.364510,119.087326 
	C75.035019,118.032654 75.017570,116.929756 74.999954,115.038101 
	C74.999245,113.498917 74.998711,112.748482 74.998169,111.998055 
	C74.998924,107.881859 74.833168,103.754799 75.100731,99.656021 
	C75.182213,98.407860 76.457581,97.237648 77.602982,96.016457 
	C78.075531,96.753853 78.131256,97.506531 77.802338,98.914902 
	C77.613815,103.381081 77.809952,107.191566 78.006081,111.002052 
	C78.118217,112.147766 78.230354,113.293472 78.414871,115.093521 
	C78.496689,116.461540 78.506126,117.175232 78.515564,117.888924 
z"/>
<path fill="#FBFFF2" opacity="1.000000" stroke="none" 
	d="
M129.028397,186.403305 
	C129.028397,186.403305 129.046066,186.673691 129.031525,187.191132 
	C129.011124,188.471771 129.005249,189.234970 128.999390,189.998169 
	C123.977150,190.331680 118.954918,190.665192 113.466187,190.997818 
	C113.004143,189.938782 113.008598,188.880615 113.268692,187.399536 
	C113.947647,186.774368 114.370972,186.572113 115.099709,186.350800 
	C115.606735,186.362930 115.808350,186.394150 116.138016,186.766296 
	C119.507401,186.880325 122.748711,186.653427 126.364014,186.336304 
	C127.501457,186.298492 128.264923,186.350906 129.028397,186.403305 
z"/>
<path fill="#505885" opacity="1.000000" stroke="none" 
	d="
M121.001465,95.008331 
	C120.682312,94.536804 120.363167,94.065277 120.223206,93.215912 
	C120.654282,92.691628 120.863297,92.498734 121.029442,92.259377 
	C121.029442,92.259377 120.936073,91.987343 121.146866,92.026855 
	C121.523674,92.102188 121.689690,92.138016 121.855705,92.173843 
	C122.470116,94.342659 123.521332,96.492470 123.616646,98.683861 
	C123.897202,105.134468 123.798683,111.601555 123.928024,118.524048 
	C123.541092,118.748444 123.074699,118.510979 122.325897,117.872345 
	C122.019463,117.274353 121.995445,117.077515 121.979675,116.425186 
	C121.991982,114.155617 122.083366,112.336731 121.983513,110.528404 
	C121.697723,105.352753 121.334335,100.181381 121.001465,95.008331 
z"/>
<path fill="#EAEEEE" opacity="1.000000" stroke="none" 
	d="
M91.925110,91.338287 
	C91.461525,91.522873 90.997932,91.707458 89.954788,91.832611 
	C88.878822,92.080536 88.382408,92.387894 87.885994,92.695244 
	C85.537209,92.758118 83.188423,92.820999 80.396568,92.897736 
	C79.660957,91.871986 79.368423,90.832375 78.777802,88.733444 
	C83.427711,91.740868 86.388741,90.534561 88.792557,86.936279 
	C89.085365,86.497971 90.508675,86.814888 91.704163,87.274422 
	C91.975220,88.957451 91.950165,90.147873 91.925110,91.338287 
z"/>
<path fill="#FCF7D8" opacity="1.000000" stroke="none" 
	d="
M139.079025,56.316704 
	C140.006821,57.749962 140.934616,59.183224 141.999619,60.828442 
	C140.349564,62.764904 139.396362,65.273270 135.595764,63.405533 
	C134.147675,62.693893 131.422318,64.581314 129.306000,64.757523 
	C130.569260,63.166584 131.805588,62.102352 133.019867,61.020584 
	C132.997803,61.003040 133.035156,61.046799 133.346039,61.002079 
	C134.204681,60.366516 134.752457,59.775677 135.481491,59.089169 
	C135.895905,58.839737 136.080475,58.640877 136.516785,58.281807 
	C137.332138,57.507950 137.847168,56.849216 138.549042,56.178719 
	C138.735870,56.166950 139.079025,56.316704 139.079025,56.316704 
z"/>
<path fill="#485579" opacity="1.000000" stroke="none" 
	d="
M137.251938,154.236832 
	C139.686768,153.841583 142.405930,153.759766 145.566895,153.580917 
	C156.359680,153.533081 166.710648,153.582275 177.945648,153.642212 
	C181.264465,153.589600 183.699234,153.526245 186.134018,153.462891 
	C186.134018,153.462891 186.040878,153.715546 186.025513,153.849304 
	C185.641830,154.445267 185.271957,155.312729 184.905472,155.311295 
	C169.756104,155.252365 154.606995,155.120621 139.458130,154.970520 
	C138.816177,154.964157 138.176834,154.696304 137.251938,154.236832 
z"/>
<path fill="#F0A912" opacity="1.000000" stroke="none" 
	d="
M139.110901,56.089348 
	C139.079025,56.316704 138.735870,56.166950 138.207642,56.225719 
	C137.191757,56.988636 136.704117,57.692783 136.216461,58.396927 
	C136.080475,58.640877 135.895905,58.839737 135.130585,59.069057 
	C134.077332,59.778671 133.556244,60.412735 133.035156,61.046799 
	C133.035156,61.046799 132.997803,61.003040 132.636856,60.993725 
	C131.499771,59.968536 130.723633,58.952663 129.952087,57.953033 
	C129.956711,57.969280 129.944489,57.949883 130.262848,57.959106 
	C130.957092,57.536884 131.332993,57.105446 131.697769,56.714390 
	C131.686661,56.754772 131.731979,56.690407 132.021927,56.662758 
	C132.468613,56.301720 132.625351,55.968327 132.892914,55.458858 
	C133.189682,55.066349 133.418411,54.914242 133.989014,54.772469 
	C134.467865,54.376194 134.647629,54.033924 134.919373,53.505119 
	C135.174088,53.083065 135.388031,52.911385 135.958633,52.741669 
	C136.418701,52.318111 136.573349,51.956429 136.887329,51.383072 
	C137.368088,50.775490 137.689514,50.379581 138.337296,49.931892 
	C139.772888,49.249161 140.882141,48.618214 141.995163,47.992931 
	C141.998932,47.998596 142.012756,48.007568 141.977951,48.370041 
	C141.619308,50.138718 141.295456,51.544926 140.984467,52.959515 
	C140.997314,52.967896 140.982590,52.990105 140.634689,53.042839 
	C139.936737,53.867893 139.586685,54.640209 139.236633,55.412529 
	C139.236633,55.412529 139.142761,55.861988 139.110901,56.089348 
z"/>
<path fill="#F9FCFB" opacity="1.000000" stroke="none" 
	d="
M135.012238,189.384064 
	C138.375458,188.648087 141.743607,188.311066 145.551636,187.977325 
	C146.838898,192.667114 142.959152,192.294418 140.406784,192.836609 
	C138.065018,193.334045 135.237823,193.551102 135.012238,189.384064 
z"/>
<path fill="#F3EBD9" opacity="1.000000" stroke="none" 
	d="
M185.467072,184.920425 
	C185.000885,178.321640 184.922531,171.621658 184.819580,164.452835 
	C184.987045,163.927261 185.179108,163.870529 185.670135,163.845047 
	C186.533813,164.648422 187.597733,165.429764 187.583694,166.191223 
	C187.478668,171.892349 187.186630,177.591034 186.866623,183.285614 
	C186.836929,183.814087 186.206436,184.308823 185.467072,184.920425 
z"/>
<path fill="#FEFADB" opacity="1.000000" stroke="none" 
	d="
M92.256516,91.492111 
	C91.950165,90.147873 91.975220,88.957451 92.007179,87.408073 
	C92.672241,85.607246 93.330399,84.165382 93.947548,82.036484 
	C93.286636,80.897400 92.666733,80.445335 92.046829,79.993271 
	C91.015793,78.940483 89.984764,77.887703 88.978195,76.418068 
	C89.002663,76.001221 89.138496,75.864319 89.457535,76.021996 
	C91.814178,76.914459 93.851799,77.649254 95.875290,78.757446 
	C96.034149,80.103920 96.207123,81.076996 96.344574,82.407036 
	C96.324265,83.478516 96.339478,84.193039 96.255951,85.201111 
	C96.200935,85.696449 96.244652,85.898247 96.208054,86.389282 
	C95.994583,87.055824 95.861443,87.433121 95.389671,87.895073 
	C94.707535,89.250404 94.364037,90.521072 94.020538,91.791748 
	C93.543007,91.743141 93.065460,91.694542 92.256516,91.492111 
z"/>
<path fill="#E8B947" opacity="1.000000" stroke="none" 
	d="
M129.947479,57.936790 
	C130.723633,58.952663 131.499771,59.968536 132.658920,61.011269 
	C131.805588,62.102352 130.569260,63.166584 129.142090,64.469025 
	C128.519409,64.760239 128.087555,64.813255 127.193161,64.686943 
	C126.155998,64.363365 125.581390,64.219109 124.871552,63.779568 
	C125.511032,62.063004 126.285728,60.641727 127.325562,59.033573 
	C128.376282,58.543396 129.161880,58.240097 129.947479,57.936790 
z"/>
<path fill="#FEFADB" opacity="1.000000" stroke="none" 
	d="
M83.064079,69.935318 
	C80.655731,69.625046 78.247375,69.314781 75.437592,68.995461 
	C74.032433,67.598183 73.028717,66.209953 71.921265,64.508499 
	C71.817528,64.195274 71.965919,64.028816 72.359848,64.005859 
	C74.410995,64.032913 76.068222,64.082924 77.821465,64.347572 
	C77.917488,64.562202 78.182770,64.950775 78.213470,65.288162 
	C79.850807,67.062134 81.457443,68.498726 83.064079,69.935318 
z"/>
<path fill="#F2FBFD" opacity="1.000000" stroke="none" 
	d="
M186.079773,153.118683 
	C183.699234,153.526245 181.264465,153.589600 178.393799,153.514801 
	C180.328827,149.498444 183.741394,149.243744 186.079773,153.118683 
z"/>
<path fill="#525668" opacity="1.000000" stroke="none" 
	d="
M120.617851,92.052872 
	C120.863297,92.498734 120.654282,92.691628 120.202858,92.917023 
	C119.557762,92.992897 119.112198,92.989807 117.916077,92.985527 
	C115.777367,92.982956 114.389198,92.981583 113.001030,92.980209 
	C107.201645,92.883575 101.402252,92.786942 95.750565,92.351593 
	C99.626381,91.700424 103.354492,91.387955 107.082603,91.075478 
	C108.445343,91.269325 109.808083,91.463173 111.582794,91.568817 
	C114.731934,91.602524 117.469093,91.724442 120.617851,92.052872 
z"/>
<path fill="#FDFFF1" opacity="1.000000" stroke="none" 
	d="
M56.280056,60.757698 
	C55.834930,59.918571 55.629528,59.333248 55.424126,58.747925 
	C56.287701,58.711853 57.370781,58.325310 57.974815,58.703621 
	C60.010223,59.978443 61.875317,61.525196 63.805550,62.967945 
	C63.148685,63.718853 62.491821,64.469765 61.834957,65.220673 
	C60.063232,63.817616 58.291504,62.414555 56.280056,60.757698 
z"/>
<path fill="#FCF7D8" opacity="1.000000" stroke="none" 
	d="
M125.006775,64.074852 
	C125.581390,64.219109 126.155998,64.363365 126.876884,64.768028 
	C127.650772,70.297600 123.656395,68.681541 120.593269,69.137695 
	C120.180473,69.207733 120.089828,69.099113 120.184814,68.732437 
	C121.855461,66.935463 123.431122,65.505157 125.006775,64.074852 
z"/>
<path fill="#F9FCFB" opacity="1.000000" stroke="none" 
	d="
M129.339630,190.051620 
	C129.005249,189.234970 129.011124,188.471771 129.042542,187.326157 
	C130.341568,187.376648 131.615005,187.809555 132.952499,188.595551 
	C132.879044,190.129715 132.741547,191.310806 132.503693,193.353973 
	C131.193771,191.846878 130.436813,190.975983 129.339630,190.051620 
z"/>
<path fill="#E3B23F" opacity="1.000000" stroke="none" 
	d="
M140.971619,52.951134 
	C141.295456,51.544926 141.619308,50.138718 142.341614,48.375271 
	C143.225586,48.042046 143.711090,48.066059 144.196579,48.090073 
	C143.772964,49.147625 143.349350,50.205173 142.875366,51.603825 
	C142.825012,51.944927 142.669815,52.173809 142.392365,52.416988 
	C141.733826,52.757156 141.352722,52.854145 140.971619,52.951134 
z"/>
<path fill="#EAEEEE" opacity="1.000000" stroke="none" 
	d="
M86.684601,83.068451 
	C87.744171,83.016579 88.485535,83.016197 89.596634,83.014313 
	C88.699539,83.613541 87.432716,84.214264 86.165886,84.814987 
	C86.232719,84.249977 86.299553,83.684959 86.684601,83.068451 
z"/>
<path fill="#FDFEFA" opacity="1.000000" stroke="none" 
	d="
M74.677887,112.040146 
	C74.998711,112.748482 74.999245,113.498917 74.999588,114.624519 
	C74.555290,114.999992 74.111198,115.000290 73.333534,114.749619 
	C72.999352,114.331451 72.998726,114.164261 72.998108,113.997070 
	C73.451271,113.358795 73.904434,112.720512 74.677887,112.040146 
z"/>
<path fill="#FDFEFC" opacity="1.000000" stroke="none" 
	d="
M49.808159,31.126144 
	C50.219643,31.646381 50.396152,32.314434 50.309361,33.005466 
	C49.888432,32.443619 49.730808,31.858789 49.808159,31.126144 
z"/>
<path fill="#FCF7D8" opacity="1.000000" stroke="none" 
	d="
M140.984467,52.959518 
	C141.352722,52.854145 141.733826,52.757156 142.392517,52.555252 
	C142.278305,53.244827 141.886475,54.039314 141.160339,54.527096 
	C140.878189,53.810295 140.930389,53.400200 140.982590,52.990105 
	C140.982590,52.990105 140.997314,52.967896 140.984467,52.959518 
z"/>
<path fill="#E8B947" opacity="1.000000" stroke="none" 
	d="
M140.634689,53.042839 
	C140.930389,53.400200 140.878189,53.810295 140.777008,54.527611 
	C140.405640,54.988117 140.083252,55.141403 139.498749,55.353607 
	C139.586685,54.640209 139.936737,53.867893 140.634689,53.042839 
z"/>
<path fill="#EAEEEE" opacity="1.000000" stroke="none" 
	d="
M92.035400,80.236816 
	C92.666733,80.445335 93.286636,80.897400 93.943130,81.663689 
	C93.493423,81.715714 93.007126,81.453514 92.266655,81.079590 
	C92.012482,80.967865 92.023979,80.480370 92.035400,80.236816 
z"/>
<path fill="#EAEEEE" opacity="1.000000" stroke="none" 
	d="
M77.531143,89.552025 
	C77.476891,89.584625 77.585388,89.519424 77.531143,89.552025 
z"/>
<path fill="#FCF7D8" opacity="1.000000" stroke="none" 
	d="
M121.847900,91.993546 
	C121.689690,92.138016 121.523674,92.102188 121.178101,91.886482 
	C121.279060,91.742149 121.559570,91.777702 121.847900,91.993546 
z"/>
<path fill="#FBFDF9" opacity="1.000000" stroke="none" 
	d="
M72.830658,114.086601 
	C72.998726,114.164261 72.999352,114.331451 73.000458,114.749428 
	C72.888374,114.725517 72.775795,114.450829 72.830658,114.086601 
z"/>
<path fill="#F3C650" opacity="1.000000" stroke="none" 
	d="
M69.658897,18.069361 
	C70.248108,14.090665 73.464264,15.570441 75.569054,15.526726 
	C82.494713,15.382875 89.428062,15.609503 96.685928,15.447698 
	C98.387558,15.199065 99.761734,15.196559 101.831932,15.387938 
	C104.366562,15.438430 106.205162,15.295038 108.043762,15.151646 
	C114.713852,15.156693 121.383942,15.161742 128.790451,15.371819 
	C134.555618,16.782309 132.911743,20.128143 132.071869,23.302505 
	C131.584839,25.143301 131.345474,27.049623 130.985321,29.153999 
	C130.976013,29.381542 130.943207,29.835241 130.700470,30.005983 
	C130.264206,30.724039 130.070663,31.271355 129.633209,31.604115 
	C129.249496,28.913492 129.109680,26.437424 129.130981,23.637688 
	C132.058472,17.930668 131.532959,16.997833 125.622581,16.946657 
	C121.811325,16.913658 117.992233,16.816633 114.191803,17.024834 
	C112.861969,17.097689 110.501999,17.955008 110.479759,18.526749 
	C110.420082,20.060690 111.369652,21.633902 111.943665,23.564093 
	C112.298508,25.630707 112.628090,27.324745 112.613403,28.946531 
	C111.563744,27.721096 110.858345,26.567915 110.099228,25.326904 
	C105.203827,26.192791 107.645836,29.421892 107.958374,32.153637 
	C107.933556,32.354485 107.908348,32.758457 107.679245,32.813599 
	C107.450134,32.868744 107.001007,33.011623 106.718742,32.944336 
	C106.050819,32.871540 105.665169,32.866035 105.124222,32.646179 
	C104.644989,32.330482 104.321037,32.229141 103.681458,32.038242 
	C102.932640,31.892147 102.499466,31.835602 101.877792,31.549686 
	C101.124283,31.132801 100.559265,30.945288 99.992737,30.484812 
	C99.673172,29.802044 99.355118,29.392237 99.029953,28.559669 
	C99.055435,26.728657 99.088043,25.320408 99.524017,23.938744 
	C102.084984,24.047960 104.858589,24.356153 103.736115,20.984823 
	C103.206329,19.393642 101.023842,18.352730 99.590195,17.062489 
	C99.329361,18.689501 99.016205,20.310694 98.834259,21.946480 
	C98.764557,22.573132 98.994560,23.233118 98.654831,23.909008 
	C96.484962,23.946764 94.748253,23.953424 93.018456,23.577991 
	C95.944496,17.000290 95.944496,17.000038 88.576866,16.996801 
	C87.107109,16.996155 85.408051,16.527496 84.219833,17.106289 
	C82.302948,18.040016 80.722580,19.664570 78.669075,20.998001 
	C77.898186,20.996429 77.458298,20.994188 77.004997,20.616402 
	C75.634079,15.847404 72.688034,16.818089 69.658897,18.069361 
z"/>
<path fill="#FCF7D8" opacity="1.000000" stroke="none" 
	d="
M130.994644,28.926460 
	C131.345474,27.049623 131.584839,25.143301 132.071869,23.302505 
	C132.911743,20.128143 134.555618,16.782309 129.257599,15.343693 
	C129.900620,14.454805 131.280334,13.052272 131.640915,13.277966 
	C132.919754,14.078435 134.493866,15.298023 134.772629,16.610239 
	C135.272308,18.962381 134.913528,21.496893 134.913528,24.470116 
	C137.672897,25.770905 140.386749,30.149065 145.053802,26.326513 
	C145.325302,26.104136 146.950027,27.533960 148.037613,28.533638 
	C148.130219,28.872383 147.943588,29.059519 147.407913,29.082203 
	C141.579712,29.045410 136.287170,28.985935 130.994644,28.926460 
z"/>
<path fill="#FCF7D8" opacity="1.000000" stroke="none" 
	d="
M107.809418,14.849741 
	C106.205162,15.295038 104.366562,15.438430 102.243591,15.364955 
	C103.831161,14.948005 105.703117,14.747921 107.809418,14.849741 
z"/>
<path fill="#8FB7D2" opacity="1.000000" stroke="none" 
	d="
M129.439606,186.293884 
	C128.264923,186.350906 127.501457,186.298492 125.921478,186.227539 
	C122.073288,186.281128 119.041626,186.353241 116.009956,186.425354 
	C115.808350,186.394150 115.606735,186.362930 114.665398,186.248260 
	C103.020966,186.219482 92.116264,186.274155 81.211563,186.328842 
	C80.075752,186.288681 78.939934,186.248520 77.383972,186.303619 
	C74.512115,186.281113 72.060417,186.163345 69.132866,186.006165 
	C68.719223,175.938751 68.781425,165.910767 68.793678,155.406342 
	C68.823273,154.200790 68.902817,153.471680 69.264282,152.375732 
	C69.546211,152.008911 69.986893,152.002594 70.090195,152.264709 
	C70.456879,153.023666 70.720261,153.520523 70.982407,154.414429 
	C70.983009,155.870239 70.984856,156.929016 70.816772,158.370834 
	C70.682442,166.084366 70.713272,173.414886 70.756020,180.745331 
	C70.772812,183.625336 72.489113,184.340622 75.292816,184.310425 
	C90.796272,184.733917 105.999550,184.919525 121.203171,184.953873 
	C123.800262,184.959747 126.398811,184.318909 129.337433,183.801300 
	C130.115875,181.820251 130.552170,180.014420 130.991608,178.209335 
	C131.579788,175.793167 132.170395,173.377579 132.759979,170.961746 
	C132.901978,175.643005 133.043976,180.324249 133.230469,185.463593 
	C132.133591,186.009262 130.992218,186.096863 129.439606,186.293884 
z"/>
<path fill="#7EBDF1" opacity="1.000000" stroke="none" 
	d="
M132.644165,129.119293 
	C133.113541,137.047226 133.109558,144.915939 133.114807,153.224701 
	C133.085159,155.476959 133.046265,157.289154 132.586777,159.465714 
	C131.589111,152.283142 130.517456,144.730011 130.611847,137.191498 
	C130.673004,132.306915 130.517365,131.080536 125.730087,131.006500 
	C122.578255,130.957748 119.423409,131.063370 116.272766,130.985046 
	C104.865845,130.701508 93.460739,130.284332 82.052910,130.202942 
	C81.044029,130.195755 79.349518,132.140961 79.128624,133.384552 
	C78.450653,137.201538 78.334885,141.118393 77.705116,144.704498 
	C76.954498,139.309799 76.499306,134.207001 76.044113,129.104218 
	C94.753014,129.089508 113.461906,129.074799 132.644165,129.119293 
z"/>
<path fill="#7EBDF1" opacity="1.000000" stroke="none" 
	d="
M70.986702,157.987793 
	C70.984856,156.929016 70.983009,155.870239 71.298401,154.364929 
	C71.905785,153.493973 72.195938,153.069550 72.486084,152.645126 
	C71.653023,152.430939 70.819962,152.216766 69.986893,152.002594 
	C69.986893,152.002594 69.546211,152.008911 69.326309,152.012100 
	C69.047913,151.855209 68.989410,151.695145 68.913269,150.857452 
	C68.865463,148.126862 68.835304,146.073914 68.841980,143.750183 
	C68.844398,143.300522 68.809990,143.121628 68.775589,142.942749 
	C68.822678,138.655823 68.869766,134.368896 68.898407,129.630966 
	C70.299850,129.123016 71.719742,129.066071 73.567474,129.508881 
	C74.328583,136.340836 74.661850,142.673035 74.994362,149.453949 
	C74.993607,152.757614 74.993607,155.612595 74.993607,158.725830 
	C73.168373,158.389633 72.077538,158.188705 70.986702,157.987793 
z"/>
<path fill="#3F4B7F" opacity="1.000000" stroke="none" 
	d="
M121.971420,116.880684 
	C121.995445,117.077515 122.019463,117.274353 122.085999,117.766220 
	C120.382431,118.376846 118.638222,118.953430 116.889977,118.965965 
	C104.901352,119.051933 92.911873,119.019722 80.452438,119.047760 
	C79.699669,118.746605 79.417130,118.423271 78.825073,117.994431 
	C78.506126,117.175232 78.496689,116.461540 78.571915,115.399826 
	C80.618736,115.689186 82.572723,116.846535 84.544418,116.877533 
	C95.372482,117.047783 106.204872,116.942253 117.902336,116.940445 
	C119.836403,116.926559 120.903908,116.903618 121.971420,116.880684 
z"/>
<path fill="#6CC2FD" opacity="1.000000" stroke="none" 
	d="
M74.995117,149.005249 
	C74.661850,142.673035 74.328583,136.340836 73.991508,129.557800 
	C74.445091,129.074997 74.902481,129.043015 75.701996,129.057632 
	C76.499306,134.207001 76.954498,139.309799 77.700775,145.069366 
	C76.992950,146.819183 75.994034,147.912216 74.995117,149.005249 
z"/>
<path fill="#70C1F9" opacity="1.000000" stroke="none" 
	d="
M74.994354,149.453949 
	C75.994034,147.912216 76.992950,146.819183 77.996201,145.361282 
	C78.334885,141.118393 78.450653,137.201538 79.128624,133.384552 
	C79.349518,132.140961 81.044029,130.195755 82.052910,130.202942 
	C93.460739,130.284332 104.865845,130.701508 116.272766,130.985046 
	C119.423409,131.063370 122.578255,130.957748 125.730087,131.006500 
	C130.517365,131.080536 130.673004,132.306915 130.611847,137.191498 
	C130.517456,144.730011 131.589111,152.283142 132.525116,159.909424 
	C132.950653,161.038803 133.017258,162.088821 133.212799,163.505859 
	C133.341751,163.872879 133.259888,164.021576 132.814926,164.026505 
	C131.368866,164.648895 130.367767,165.266357 129.366669,165.883820 
	C130.494843,166.924622 131.623032,167.965439 132.751205,169.006241 
	C132.804260,169.442444 132.857315,169.878647 132.835175,170.638306 
	C132.170395,173.377579 131.579788,175.793167 130.991608,178.209335 
	C130.552170,180.014420 130.115875,181.820251 129.329407,183.397705 
	C127.791046,182.116547 126.675491,180.262283 125.399445,180.144333 
	C118.669067,179.522263 111.901253,179.158096 105.140709,179.044464 
	C95.271439,178.878601 85.397308,179.001846 75.275093,179.001846 
	C75.156799,181.105042 75.074776,182.563263 74.992760,184.021500 
	C72.489113,184.340622 70.772812,183.625336 70.756020,180.745331 
	C70.713272,173.414886 70.682442,166.084366 70.816772,158.370834 
	C72.077538,158.188705 73.168373,158.389633 74.993607,158.725830 
	C74.993607,155.612595 74.993607,152.757614 74.994354,149.453949 
z"/>
<path fill="#525C97" opacity="1.000000" stroke="none" 
	d="
M68.805145,144.020950 
	C68.835304,146.073914 68.865463,148.126862 68.822510,150.618454 
	C51.684437,151.057083 34.619465,151.057083 17.480614,151.057083 
	C16.077299,144.644241 16.077299,144.644241 25.655645,143.399216 
	C36.335564,143.089005 46.731342,143.037521 57.828728,143.303482 
	C60.002014,143.458481 61.473686,143.296051 62.945362,143.133606 
	C63.406452,143.085434 63.867538,143.037247 64.718323,143.371338 
	C66.340393,143.842697 67.572769,143.931824 68.805145,144.020950 
z"/>
<path fill="#6A5E83" opacity="1.000000" stroke="none" 
	d="
M68.841972,143.750183 
	C67.572769,143.931824 66.340393,143.842697 65.061272,143.438904 
	C66.020157,143.060913 67.025803,142.997620 68.403519,142.938538 
	C68.809990,143.121628 68.844398,143.300522 68.841972,143.750183 
z"/>
<path fill="#6A5E83" opacity="1.000000" stroke="none" 
	d="
M62.543701,143.053177 
	C61.473686,143.296051 60.002014,143.458481 58.296028,143.378387 
	C59.421822,143.081497 60.781933,143.027115 62.543701,143.053177 
z"/>
<path fill="#FBC82B" opacity="1.000000" stroke="none" 
	d="
M176.976959,165.507690 
	C178.934128,165.847397 180.502365,166.329605 183.299210,167.189575 
	C180.803940,168.556519 179.617935,169.206238 177.180450,170.541534 
	C179.744049,171.166107 181.208603,171.522934 182.669495,171.881683 
	C183.864441,183.523758 183.435623,184.008163 171.910828,184.009506 
	C161.132477,184.010773 150.354126,184.009781 139.270065,184.009781 
	C139.081268,182.123184 138.859161,179.903488 138.637039,177.683792 
	C138.345215,177.634003 138.053391,177.584213 137.761551,177.534439 
	C137.302704,179.171448 136.843857,180.808456 136.384995,182.445465 
	C136.093796,182.427505 135.802582,182.409546 135.511383,182.391602 
	C135.511383,179.584702 135.511383,176.777817 135.511383,173.570343 
	C136.968765,173.256927 138.673309,172.890366 141.539856,172.273911 
	C139.300201,170.667252 137.771271,169.570465 136.242355,168.473679 
	C136.278427,167.929474 136.314499,167.385254 136.350571,166.841049 
	C149.763062,166.444092 163.175552,166.047134 176.976959,165.507690 
M177.019577,175.798965 
	C177.698730,176.828720 178.377869,177.858459 179.057022,178.888214 
	C179.640701,178.462448 180.224365,178.036697 180.808044,177.610931 
	C179.543243,176.746292 178.278442,175.881638 176.916580,174.236649 
	C175.683990,173.160934 174.482483,171.198212 173.213776,171.153763 
	C165.114410,170.870056 156.997101,170.895996 148.894150,171.122162 
	C147.590332,171.158569 146.328751,172.707703 145.047638,173.557556 
	C145.305923,174.042923 145.564194,174.528290 145.822479,175.013657 
	C156.220627,175.013657 166.618774,175.013657 177.019577,175.798965 
z"/>
<path fill="#8FB7D2" opacity="1.000000" stroke="none" 
	d="
M132.874512,168.610138 
	C131.623032,167.965439 130.494843,166.924622 129.366669,165.883820 
	C130.367767,165.266357 131.368866,164.648895 132.737152,164.060486 
	C133.068832,165.464386 133.033325,166.839203 132.874512,168.610138 
z"/>
<path fill="#EDAF22" opacity="1.000000" stroke="none" 
	d="
M61.518795,53.193222 
	C59.241566,48.541145 56.964336,43.889076 54.799927,38.396469 
	C55.290966,34.783047 55.669186,32.010162 56.047405,29.237276 
	C56.485485,29.160986 56.923569,29.084696 57.997688,29.322302 
	C62.765671,29.750690 66.897614,29.865179 71.278931,29.979656 
	C71.528320,29.979645 72.027031,29.987503 72.017380,30.365479 
	C72.012428,31.498728 72.017136,32.254002 71.555893,33.002380 
	C66.744270,33.364712 62.398594,33.733932 58.036835,34.491013 
	C58.933189,37.355072 59.845623,39.831276 60.775650,42.494377 
	C60.793243,42.681274 60.965401,43.014931 60.961990,43.367088 
	C61.978111,45.467953 62.997639,47.216663 64.124954,49.180714 
	C64.411980,49.672302 64.648064,49.885647 64.948181,50.364208 
	C64.991241,51.125977 65.027122,51.559624 64.690277,52.030373 
	C63.384628,52.442722 62.451714,52.817970 61.518795,53.193222 
z"/>
<path fill="#E9AF1D" opacity="1.000000" stroke="none" 
	d="
M61.605110,53.519268 
	C62.451714,52.817970 63.384628,52.442722 64.862778,52.265488 
	C65.961548,52.597004 66.515076,52.730511 67.215637,53.123146 
	C67.969589,53.897457 68.576523,54.412643 69.183960,55.273979 
	C70.768272,56.822971 72.352089,58.025818 73.941391,59.585876 
	C73.104515,60.446880 72.281212,61.312737 71.414742,61.358330 
	C70.439407,61.409649 69.425171,60.721527 68.427864,60.355049 
	C67.634911,59.896717 66.841949,59.438389 65.876472,58.400322 
	C65.159622,57.538845 64.615295,57.257099 64.070969,56.975357 
	C63.277786,55.932011 62.484604,54.888660 61.605110,53.519268 
z"/>
<path fill="#F3AF0D" opacity="1.000000" stroke="none" 
	d="
M69.637527,18.433260 
	C72.688034,16.818089 75.634079,15.847404 76.997406,20.951736 
	C77.013496,22.108294 77.023781,22.553970 76.909607,23.250313 
	C75.839020,23.683033 74.892891,23.865086 73.657608,23.897448 
	C72.162315,22.825102 70.956169,21.902449 69.750031,20.979797 
	C69.705399,20.252251 69.660774,19.524704 69.637527,18.433260 
z"/>
<path fill="#F9FEFC" opacity="1.000000" stroke="none" 
	d="
M57.415527,27.001091 
	C56.824139,24.616302 57.141747,22.938745 60.306591,22.890310 
	C62.289989,22.859953 64.256554,21.729668 66.609802,21.046488 
	C67.169380,22.450752 67.349823,23.901430 67.550255,25.512882 
	C64.250206,26.015858 61.040020,26.505136 57.415527,27.001091 
z"/>
<path fill="#EAB440" opacity="1.000000" stroke="none" 
	d="
M68.579529,60.642021 
	C69.425171,60.721527 70.439407,61.409649 71.414742,61.358330 
	C72.281212,61.312737 73.104515,60.446880 74.293953,59.639450 
	C75.780830,59.623688 76.920624,59.911556 78.161942,60.391296 
	C78.468849,60.801273 78.715767,60.950928 78.998131,61.394073 
	C78.569839,62.548332 78.147636,63.340633 77.725433,64.132935 
	C76.068222,64.082924 74.410995,64.032913 72.427658,63.917347 
	C70.978088,62.877529 69.854645,61.903263 68.579529,60.642021 
z"/>
<path fill="#F3C650" opacity="1.000000" stroke="none" 
	d="
M69.551590,21.230280 
	C70.956169,21.902449 72.162315,22.825102 73.672119,24.280588 
	C73.326195,26.538116 72.676613,28.262810 72.027039,29.987503 
	C72.027031,29.987503 71.528320,29.979645 71.264992,29.714428 
	C70.991402,29.272299 70.981148,29.095385 70.970894,28.918472 
	C70.431648,26.439236 69.892403,23.959999 69.551590,21.230280 
z"/>
<path fill="#E1B23D" opacity="1.000000" stroke="none" 
	d="
M70.510246,28.921921 
	C70.981148,29.095385 70.991402,29.272299 71.015610,29.714441 
	C66.897614,29.865179 62.765671,29.750690 58.330170,29.365021 
	C62.034267,29.037682 66.041931,28.981524 70.510246,28.921921 
z"/>
<path fill="#E1B23D" opacity="1.000000" stroke="none" 
	d="
M55.647469,29.227802 
	C55.669186,32.010162 55.290966,34.783047 54.852562,38.014427 
	C54.944092,35.388062 55.095814,32.303196 55.647469,29.227802 
z"/>
<path fill="#EAB440" opacity="1.000000" stroke="none" 
	d="
M64.203018,57.240257 
	C64.615295,57.257099 65.159622,57.538845 65.753532,58.144276 
	C65.313766,58.147030 64.824409,57.826096 64.203018,57.240257 
z"/>
<path fill="#D9DEF2" opacity="1.000000" stroke="none" 
	d="
M84.255219,97.609207 
	C86.739777,96.820404 89.130569,96.232582 91.531502,96.187805 
	C98.637032,96.055267 105.750679,96.006187 112.851517,96.230133 
	C114.559128,96.283981 116.229393,97.521896 118.005966,99.046585 
	C117.950264,104.367393 117.805412,108.856888 117.660561,113.346390 
	C109.762657,113.622688 101.866447,114.051964 93.966461,114.139030 
	C82.449844,114.265976 84.077339,115.056137 83.963646,104.003197 
	C83.943275,102.022499 84.094246,100.040024 84.255219,97.609207 
M110.976387,100.084763 
	C103.751450,100.084763 96.526512,100.084763 89.301575,100.084763 
	C89.317825,100.683929 89.334084,101.283096 89.350334,101.882263 
	C96.741089,101.882263 104.131920,101.890282 111.521820,101.810699 
	C111.640038,101.809425 111.746696,100.734703 110.976387,100.084763 
z"/>
<path fill="#556097" opacity="1.000000" stroke="none" 
	d="
M117.751877,113.785065 
	C117.805412,108.856888 117.950264,104.367393 118.145401,99.411545 
	C119.103218,97.840729 120.010750,96.736259 120.959869,95.320061 
	C121.334335,100.181381 121.697723,105.352753 121.983513,110.528404 
	C122.083366,112.336731 121.991982,114.155617 121.979675,116.425186 
	C120.903908,116.903618 119.836403,116.926559 118.368042,116.912079 
	C117.925858,115.991013 117.884529,115.107376 117.751877,113.785065 
z"/>
<path fill="#FFFFFF" opacity="1.000000" stroke="none" 
	d="
M78.090881,110.547531 
	C77.809952,107.191566 77.613815,103.381081 77.712196,99.284012 
	C78.063034,102.695961 78.119362,106.394485 78.090881,110.547531 
z"/>
<path fill="#F3EBD9" opacity="1.000000" stroke="none" 
	d="
M81.526184,186.547714 
	C92.116264,186.274155 103.020966,186.219482 114.359978,186.267334 
	C114.370972,186.572113 113.947647,186.774368 113.276993,187.002747 
	C102.633369,186.941437 92.237083,186.854004 81.526184,186.547714 
z"/>
<path fill="#EFCD50" opacity="1.000000" stroke="none" 
	d="
M83.046799,69.945709 
	C81.457443,68.498726 79.850807,67.062134 78.582047,65.337234 
	C81.422241,65.258469 83.924561,65.468002 85.958122,65.638290 
	C86.384453,68.095291 86.792480,70.446854 87.128235,72.872452 
	C87.055962,72.946495 86.912651,73.095764 86.667313,73.092270 
	C86.421967,73.088776 85.935173,73.150879 85.935173,73.150879 
	C85.450478,72.534088 84.965782,71.917290 84.161438,70.909134 
	C83.574493,70.323471 83.307213,70.129166 83.039932,69.934860 
	C83.039932,69.934860 83.029510,69.956108 83.046799,69.945709 
z"/>
<path fill="#FEFADB" opacity="1.000000" stroke="none" 
	d="
M85.953491,73.504173 
	C85.935173,73.150879 86.421967,73.088776 86.800560,73.359863 
	C87.832268,74.375397 88.485382,75.119858 89.138496,75.864319 
	C89.138496,75.864319 89.002663,76.001221 88.935036,76.072372 
	C87.902214,75.381500 86.937012,74.619484 85.953491,73.504173 
z"/>
<path fill="#FEFADB" opacity="1.000000" stroke="none" 
	d="
M83.111526,70.174362 
	C83.307213,70.129166 83.574493,70.323471 83.898369,70.766678 
	C83.616913,70.918610 83.359634,70.718033 83.111526,70.174362 
z"/>
<path fill="#EAEEEE" opacity="1.000000" stroke="none" 
	d="
M89.530533,80.548340 
	C89.476448,80.580269 89.584625,80.516411 89.530533,80.548340 
z"/>
<path fill="#F9D66D" opacity="1.000000" stroke="none" 
	d="
M107.100800,90.753326 
	C103.354492,91.387955 99.626381,91.700424 95.435135,92.077682 
	C94.813835,92.082230 94.655678,92.021988 94.259033,91.876747 
	C94.364037,90.521072 94.707535,89.250404 95.553734,88.281174 
	C100.567444,91.094131 103.459724,90.637909 105.841423,87.039139 
	C106.267281,88.169815 106.693138,89.300499 107.100800,90.753326 
z"/>
<path fill="#505885" opacity="1.000000" stroke="none" 
	d="
M113.229095,93.252075 
	C114.389198,92.981583 115.777367,92.982956 117.581924,92.986954 
	C116.484604,93.167702 114.970886,93.345825 113.229095,93.252075 
z"/>
<path fill="#5E6896" opacity="1.000000" stroke="none" 
	d="
M88.035995,92.970596 
	C88.382408,92.387894 88.878822,92.080536 89.684082,91.849319 
	C89.390617,92.365616 88.788300,92.805786 88.035995,92.970596 
z"/>
<path fill="#F9D66D" opacity="1.000000" stroke="none" 
	d="
M96.380096,82.050072 
	C96.207123,81.076996 96.034149,80.103920 95.992096,78.406769 
	C95.444916,76.102081 94.766808,74.521469 94.060196,72.531525 
	C92.687218,67.417297 91.342743,62.712387 90.276573,57.997471 
	C90.740028,57.973827 90.925179,57.960190 91.317093,58.180721 
	C92.673088,58.955982 93.822304,59.497082 95.212532,60.333092 
	C99.069473,62.025124 102.717888,63.925182 106.017242,59.743629 
	C106.047852,59.539631 106.070282,59.127674 106.383972,59.074379 
	C107.095474,58.875626 107.493286,58.730171 108.176437,58.669857 
	C108.852928,58.722168 109.244087,58.689331 109.866798,58.968979 
	C111.102882,61.396507 112.090813,63.519653 113.116623,65.624329 
	C114.140205,67.724419 113.175163,71.291275 117.196373,71.199677 
	C113.582329,73.744904 109.968285,76.290123 105.589844,78.962326 
	C101.858917,79.644341 97.764404,76.981873 96.380096,82.050072 
z"/>
<path fill="#F5D167" opacity="1.000000" stroke="none" 
	d="
M124.871552,63.779568 
	C123.431122,65.505157 121.855461,66.935463 120.137512,68.679848 
	C119.585030,69.051231 119.174828,69.108543 118.545685,68.820953 
	C119.764969,62.803070 116.012672,58.671955 114.054367,53.599258 
	C114.107193,49.103401 114.136627,45.023155 114.140457,40.619102 
	C114.075844,39.864281 114.036827,39.433266 114.009949,38.627571 
	C114.013725,37.503460 114.005379,36.754017 114.353088,36.071114 
	C115.791267,38.437801 117.081787,40.665859 117.908173,43.054497 
	C119.249283,46.930901 120.286209,50.912540 121.451546,54.849751 
	C122.000412,54.879551 122.549278,54.909348 123.098137,54.939148 
	C123.741425,53.275658 124.284065,51.564003 125.051689,49.960014 
	C126.194359,47.572315 127.495926,45.260658 128.805084,43.312233 
	C127.990646,47.370556 126.932472,51.004395 126.296989,54.710709 
	C126.053879,56.128639 126.777397,57.712303 127.060425,59.220444 
	C126.285728,60.641727 125.511032,62.063004 124.871552,63.779568 
z"/>
<path fill="#F0B31E" opacity="1.000000" stroke="none" 
	d="
M96.344574,82.407036 
	C97.764404,76.981873 101.858917,79.644341 105.234665,79.048820 
	C105.709602,81.386459 105.775330,83.764587 105.841240,86.590927 
	C103.459724,90.637909 100.567444,91.094131 95.892372,88.196518 
	C95.861443,87.433121 95.994583,87.055824 96.354172,86.275604 
	C96.625076,85.757133 96.733719,85.617737 96.701393,85.530708 
	C96.619583,85.310455 96.474449,85.113716 96.354691,84.907555 
	C96.339478,84.193039 96.324265,83.478516 96.344574,82.407036 
z"/>
<path fill="#F5C737" opacity="1.000000" stroke="none" 
	d="
M114.030983,54.014874 
	C116.012672,58.671955 119.764969,62.803070 118.236427,68.850899 
	C117.976181,69.762360 117.806229,70.298973 117.416328,71.017639 
	C113.175163,71.291275 114.140205,67.724419 113.116623,65.624329 
	C112.090813,63.519653 111.102882,61.396507 110.003632,58.705132 
	C110.293549,57.432663 110.678200,56.736523 111.285515,55.941422 
	C111.788979,55.644211 111.960472,55.376049 112.261490,54.943020 
	C112.691917,54.579414 112.883522,54.310768 113.035881,54.035858 
	C112.996635,54.029594 113.057770,54.080391 113.301788,54.074585 
	C113.545799,54.068779 114.030983,54.014874 114.030983,54.014874 
z"/>
<path fill="#F1AF16" opacity="1.000000" stroke="none" 
	d="
M129.877136,31.818672 
	C130.070663,31.271355 130.264206,30.724039 131.168854,30.061901 
	C133.867371,29.955097 135.854782,29.961861 137.842178,29.971359 
	C146.900986,30.014654 146.900986,30.014931 147.038773,39.046207 
	C147.038773,39.046207 146.999390,39.003231 146.730927,39.219936 
	C146.032181,41.332951 145.601898,43.229263 145.171600,45.125572 
	C145.171600,45.125572 145.080185,44.979637 144.822266,45.206104 
	C144.485748,46.113029 144.407135,46.793488 144.328522,47.473942 
	C144.328522,47.473942 144.349701,47.800537 144.273132,47.945305 
	C143.711090,48.066059 143.225586,48.042046 142.376434,48.012802 
	C142.012756,48.007568 141.998932,47.998596 141.961563,47.667149 
	C141.883438,47.121094 141.842667,46.906487 141.623383,46.405769 
	C142.020294,42.432339 142.595703,38.745014 143.333496,34.936012 
	C143.286926,34.576351 143.077972,34.338360 142.665253,34.011879 
	C142.461487,33.923389 142.040344,33.781837 141.724182,33.524612 
	C137.609314,33.163338 133.810608,33.059292 129.990875,32.669598 
	C129.938950,32.195530 129.908035,32.007103 129.877136,31.818672 
z"/>
<path fill="#E3B23F" opacity="1.000000" stroke="none" 
	d="
M147.347504,38.771477 
	C146.900986,30.014931 146.900986,30.014654 137.842178,29.971359 
	C135.854782,29.961861 133.867371,29.955097 131.411591,29.891159 
	C130.943207,29.835241 130.976013,29.381542 130.985321,29.154001 
	C136.287170,28.985935 141.579712,29.045410 147.315155,29.176308 
	C147.724121,32.330738 147.690186,35.413742 147.347504,38.771477 
z"/>
<path fill="#E3B23F" opacity="1.000000" stroke="none" 
	d="
M145.460999,44.908176 
	C145.601898,43.229263 146.032181,41.332951 146.759064,39.227543 
	C146.620575,40.909222 146.185486,42.799999 145.460999,44.908176 
z"/>
<path fill="#E3B23F" opacity="1.000000" stroke="none" 
	d="
M144.563110,47.239441 
	C144.407135,46.793488 144.485748,46.113029 144.883026,45.267155 
	C145.067001,45.736137 144.932327,46.370537 144.563110,47.239441 
z"/>
<path fill="#F9FCFB" opacity="1.000000" stroke="none" 
	d="
M116.138016,186.766296 
	C119.041626,186.353241 122.073288,186.281128 125.547493,186.317764 
	C122.748711,186.653427 119.507401,186.880325 116.138016,186.766296 
z"/>
<path fill="#E8B947" opacity="1.000000" stroke="none" 
	d="
M133.346039,61.002075 
	C133.556244,60.412735 134.077332,59.778671 134.949326,59.164722 
	C134.752457,59.775677 134.204681,60.366516 133.346039,61.002075 
z"/>
<path fill="#E8B947" opacity="1.000000" stroke="none" 
	d="
M136.516785,58.281807 
	C136.704117,57.692783 137.191757,56.988636 138.020798,56.237488 
	C137.847168,56.849216 137.332138,57.507950 136.516785,58.281807 
z"/>
<path fill="#FDF9E7" opacity="1.000000" stroke="none" 
	d="
M142.040344,33.781837 
	C142.040344,33.781837 142.461487,33.923389 142.688843,34.267471 
	C143.001160,34.760269 143.086121,34.908981 143.171097,35.057690 
	C142.595703,38.745014 142.020294,42.432339 141.260529,46.408897 
	C140.054428,47.793312 139.032700,48.888493 138.010956,49.983677 
	C137.689514,50.379581 137.368088,50.775490 136.646255,51.523949 
	C136.048309,52.185520 135.850769,52.494534 135.653214,52.803543 
	C135.388031,52.911385 135.174088,53.083065 134.663498,53.619236 
	C134.107071,54.222080 133.898499,54.524277 133.689941,54.826469 
	C133.418411,54.914242 133.189682,55.066349 132.649170,55.558151 
	C132.107071,56.119141 131.919525,56.404774 131.731979,56.690407 
	C131.731979,56.690407 131.686661,56.754772 131.411743,56.762150 
	C130.739380,57.162975 130.341934,57.556427 129.944489,57.949883 
	C129.944489,57.949883 129.956711,57.969280 129.952087,57.953037 
	C129.161880,58.240097 128.376282,58.543396 127.325554,59.033569 
	C126.777397,57.712303 126.053879,56.128639 126.296989,54.710709 
	C126.932472,51.004395 127.990646,47.370556 128.889664,42.929329 
	C128.950500,41.107136 129.001968,40.063423 129.301453,38.731926 
	C129.641434,35.003307 131.401047,33.735619 134.795670,34.007664 
	C137.189163,34.199474 139.623978,33.875519 142.040344,33.781837 
z"/>
<path fill="#E3B23F" opacity="1.000000" stroke="none" 
	d="
M138.337296,49.931892 
	C139.032700,48.888493 140.054428,47.793312 141.439026,46.695000 
	C141.842667,46.906487 141.883438,47.121094 141.957794,47.661484 
	C140.882141,48.618214 139.772888,49.249161 138.337296,49.931892 
z"/>
<path fill="#E8B947" opacity="1.000000" stroke="none" 
	d="
M130.262848,57.959103 
	C130.341934,57.556427 130.739380,57.162975 131.422852,56.721767 
	C131.332993,57.105446 130.957092,57.536884 130.262848,57.959103 
z"/>
<path fill="#E8B947" opacity="1.000000" stroke="none" 
	d="
M133.989014,54.772469 
	C133.898499,54.524277 134.107071,54.222080 134.571503,53.805771 
	C134.647629,54.033924 134.467865,54.376194 133.989014,54.772469 
z"/>
<path fill="#E8B947" opacity="1.000000" stroke="none" 
	d="
M135.958633,52.741669 
	C135.850769,52.494534 136.048309,52.185520 136.486938,51.735626 
	C136.573349,51.956429 136.418701,52.318111 135.958633,52.741669 
z"/>
<path fill="#E8B947" opacity="1.000000" stroke="none" 
	d="
M132.021927,56.662758 
	C131.919525,56.404774 132.107071,56.119141 132.538361,55.734222 
	C132.625351,55.968327 132.468613,56.301720 132.021927,56.662758 
z"/>
<path fill="#EFCD50" opacity="1.000000" stroke="none" 
	d="
M94.088699,72.940849 
	C94.766808,74.521469 95.444916,76.102081 96.006218,78.033371 
	C93.851799,77.649254 91.814178,76.914459 89.457535,76.021996 
	C88.485382,75.119858 87.832268,74.375397 87.045898,73.363358 
	C86.912651,73.095764 87.055962,72.946495 87.501205,72.940918 
	C88.968735,72.985535 89.991020,73.035721 91.207809,73.326279 
	C92.297775,73.358040 93.193237,73.149445 94.088699,72.940849 
z"/>
<path fill="#F9D66D" opacity="1.000000" stroke="none" 
	d="
M96.255951,85.201111 
	C96.474449,85.113716 96.619583,85.310455 96.701393,85.530708 
	C96.733719,85.617737 96.625076,85.757133 96.434494,85.986359 
	C96.244652,85.898247 96.200935,85.696449 96.255951,85.201111 
z"/>
<path fill="#FBC92A" opacity="1.000000" stroke="none" 
	d="
M91.013306,73.085915 
	C89.991020,73.035721 88.968735,72.985535 87.573486,72.866882 
	C86.792480,70.446854 86.384453,68.095291 85.958122,65.638290 
	C83.924561,65.468002 81.422241,65.258469 78.551346,64.999847 
	C78.182770,64.950775 77.917488,64.562202 77.821457,64.347565 
	C78.147636,63.340633 78.569839,62.548332 79.248154,61.160164 
	C79.321815,56.732079 79.139359,52.899860 78.976013,48.671867 
	C78.663437,45.183247 78.331749,42.090405 78.269653,38.765266 
	C79.355232,36.691566 80.171219,34.850155 81.226669,33.178360 
	C81.637482,33.896191 81.808830,34.444401 81.814575,35.086296 
	C81.777740,35.449257 81.906517,35.718525 82.051941,36.302357 
	C82.082939,37.036674 82.097290,37.456429 82.108521,38.206940 
	C82.714684,39.034348 83.323982,39.530991 84.044113,40.251572 
	C84.343315,40.765697 84.599487,40.971531 84.889778,41.307606 
	C84.856110,41.522194 84.780106,41.952065 84.471634,42.024460 
	C84.406822,43.074375 84.650475,44.051899 84.930771,45.395958 
	C85.003868,46.497391 85.040314,47.232277 84.784454,48.216953 
	C84.692253,50.321274 84.288513,52.570332 85.197556,53.961693 
	C89.026505,59.822193 91.897285,65.846169 91.013306,73.085915 
z"/>
<path fill="#F2EDF8" opacity="1.000000" stroke="none" 
	d="
M112.022659,55.037983 
	C111.960472,55.376049 111.788979,55.644211 110.928223,55.937691 
	C109.529221,56.883522 108.710152,57.734116 107.891090,58.584713 
	C107.493286,58.730171 107.095474,58.875626 106.122879,58.767822 
	C99.638062,58.881783 94.432739,56.798386 89.408966,53.683537 
	C89.177849,53.101044 89.002533,52.724640 88.876526,52.009621 
	C88.642464,51.092945 88.359093,50.514877 88.054321,49.517178 
	C88.959435,44.963112 89.885956,40.828686 90.833267,36.408165 
	C90.880890,35.741177 90.907730,35.360275 91.270760,34.840878 
	C94.396896,33.789490 97.186844,32.876595 100.137009,32.204666 
	C100.886909,32.223438 101.476601,32.001247 102.066284,31.779058 
	C102.499466,31.835602 102.932640,31.892147 103.827171,32.256916 
	C104.618851,32.663605 104.949181,32.762066 105.279510,32.860527 
	C105.665169,32.866035 106.050819,32.871540 106.878021,33.189644 
	C107.863823,33.674057 108.408089,33.845871 109.233414,34.149769 
	C110.340248,35.190754 111.166016,36.099655 112.010162,37.311905 
	C112.381783,38.066418 112.735023,38.517582 113.315094,38.992535 
	C113.541908,39.016319 113.997818,39.002247 113.997818,39.002247 
	C114.036827,39.433266 114.075844,39.864281 113.844131,40.840889 
	C113.401527,45.617779 113.229652,49.849087 113.057770,54.080391 
	C113.057770,54.080391 112.996635,54.029594 112.793488,54.119896 
	C112.401115,54.486126 112.211891,54.762054 112.022659,55.037983 
M102.604897,39.198975 
	C101.898041,38.698174 100.812180,37.612152 100.542686,37.786678 
	C97.704758,39.624603 94.997177,41.663792 92.437798,43.514229 
	C93.587494,46.929058 94.713974,50.274921 95.799080,53.497875 
	C99.504356,53.273350 103.123711,53.054028 105.169975,52.930031 
	C106.773216,48.948421 107.925278,46.087280 109.061462,43.265594 
	C107.316788,42.286602 105.138466,41.064281 102.604897,39.198975 
z"/>
<path fill="#FBC831" opacity="1.000000" stroke="none" 
	d="
M129.053436,39.019714 
	C129.001968,40.063423 128.950500,41.107136 128.814453,42.533745 
	C127.495926,45.260658 126.194359,47.572315 125.051689,49.960014 
	C124.284065,51.564003 123.741425,53.275658 123.098137,54.939148 
	C122.549278,54.909348 122.000412,54.879551 121.451546,54.849751 
	C120.286209,50.912540 119.249283,46.930901 117.908173,43.054497 
	C117.081787,40.665859 115.791267,38.437801 114.322723,35.726212 
	C113.607285,34.221523 113.278275,33.128277 112.972496,31.658270 
	C112.983040,30.527269 112.970360,29.773027 112.957672,29.018784 
	C112.628090,27.324745 112.298508,25.630707 112.366821,23.552589 
	C118.166428,23.432793 123.568146,23.697073 128.969864,23.961355 
	C129.109680,26.437424 129.249496,28.913492 129.633209,31.604116 
	C129.908035,32.007103 129.938950,32.195530 129.677277,32.851067 
	C129.274292,35.218689 129.163864,37.119202 129.053436,39.019714 
z"/>
<path fill="#FDD76C" opacity="1.000000" stroke="none" 
	d="
M90.934570,34.979374 
	C90.907730,35.360275 90.880890,35.741177 90.534515,36.466595 
	C89.809944,36.853771 89.404900,36.896431 88.793922,36.698273 
	C87.366470,38.002644 86.144958,39.547829 84.923447,41.093018 
	C84.599487,40.971531 84.343315,40.765697 84.030380,39.931847 
	C83.307770,38.884182 82.709717,38.380180 82.111649,37.876179 
	C82.097290,37.456429 82.082939,37.036674 82.046913,36.053108 
	C82.025246,35.489292 81.980179,34.992607 81.980179,34.992607 
	C81.808830,34.444401 81.637482,33.896191 81.227463,32.830006 
	C80.345757,31.201183 79.702728,30.090334 79.051445,28.564190 
	C79.019684,26.763632 78.996162,25.378372 78.982773,23.996490 
	C78.992905,23.999868 79.010689,24.006218 79.410690,24.006226 
	C80.877266,23.992872 81.943840,23.979511 83.340202,23.974129 
	C84.109749,23.976433 84.549500,23.970757 85.434296,23.974545 
	C88.256737,23.976034 90.634148,23.968061 93.011551,23.960087 
	C94.748253,23.953424 96.484962,23.946764 98.617195,23.961632 
	C99.012726,23.983160 99.120659,23.912159 99.120659,23.912159 
	C99.088043,25.320408 99.055435,26.728657 98.619553,28.569977 
	C94.349342,29.240978 91.679237,30.937172 90.934570,34.979374 
z"/>
<path fill="#F4AF0A" opacity="1.000000" stroke="none" 
	d="
M129.130981,23.637688 
	C123.568146,23.697073 118.166428,23.432793 112.341553,23.180016 
	C111.369652,21.633902 110.420082,20.060690 110.479759,18.526749 
	C110.501999,17.955008 112.861969,17.097689 114.191803,17.024834 
	C117.992233,16.816633 121.811325,16.913658 125.622581,16.946657 
	C131.532959,16.997833 132.058472,17.930668 129.130981,23.637688 
z"/>
<path fill="#F6C758" opacity="1.000000" stroke="none" 
	d="
M83.010406,23.966150 
	C81.943840,23.979511 80.877266,23.992872 79.405975,23.629694 
	C79.000862,22.501213 79.000465,21.749269 79.000069,20.997328 
	C80.722580,19.664570 82.302948,18.040016 84.219833,17.106289 
	C85.408051,16.527496 87.107109,16.996155 88.576866,16.996801 
	C95.944496,17.000038 95.944496,17.000290 93.018456,23.577991 
	C90.634148,23.968061 88.256737,23.976034 85.397354,23.680653 
	C84.511818,23.063471 84.108269,22.749641 83.704712,22.435814 
	C83.473274,22.945925 83.241844,23.456038 83.010406,23.966150 
z"/>
<path fill="#EFB114" opacity="1.000000" stroke="none" 
	d="
M99.050362,23.930536 
	C98.994560,23.233118 98.764557,22.573132 98.834259,21.946480 
	C99.016205,20.310694 99.329361,18.689501 99.590195,17.062489 
	C101.023842,18.352730 103.206329,19.393642 103.736115,20.984823 
	C104.858589,24.356153 102.084984,24.047960 99.524017,23.938744 
	C99.120659,23.912159 99.012726,23.983160 99.050362,23.930536 
z"/>
<path fill="#FDD764" opacity="1.000000" stroke="none" 
	d="
M112.613411,28.946531 
	C112.970360,29.773027 112.983040,30.527269 112.560760,31.647482 
	C110.744942,31.993231 109.364067,31.973011 107.983200,31.952789 
	C107.645836,29.421892 105.203827,26.192791 110.099228,25.326904 
	C110.858345,26.567915 111.563744,27.721096 112.613411,28.946531 
z"/>
<path fill="#F4D785" opacity="1.000000" stroke="none" 
	d="
M91.270760,34.840878 
	C91.679237,30.937172 94.349342,29.240978 98.626678,28.992741 
	C99.355118,29.392237 99.673172,29.802044 99.991791,30.787296 
	C99.987167,31.563063 99.981979,31.763384 99.976791,31.963703 
	C97.186844,32.876595 94.396896,33.789490 91.270760,34.840878 
z"/>
<path fill="#F4D785" opacity="1.000000" stroke="none" 
	d="
M107.958374,32.153637 
	C109.364067,31.973011 110.744942,31.993231 112.537537,32.024239 
	C113.278275,33.128277 113.607285,34.221523 113.966660,35.659676 
	C114.005379,36.754017 114.013725,37.503460 114.009949,38.627571 
	C113.997818,39.002247 113.541908,39.016319 113.287567,38.692352 
	C112.686081,37.915108 112.338936,37.461834 111.991783,37.008556 
	C111.166016,36.099655 110.340248,35.190754 109.128532,33.891911 
	C108.464508,33.254131 108.186424,33.006294 107.908348,32.758457 
	C107.908348,32.758457 107.933556,32.354485 107.958374,32.153637 
z"/>
<path fill="#FDC63A" opacity="1.000000" stroke="none" 
	d="
M78.669075,20.998001 
	C79.000465,21.749269 79.000862,22.501213 79.005974,23.629686 
	C79.010689,24.006218 78.992905,23.999868 78.730324,23.893118 
	C77.989845,23.524128 77.511955,23.261887 77.034058,22.999645 
	C77.023781,22.553970 77.013496,22.108294 77.010811,21.327282 
	C77.458298,20.994188 77.898186,20.996429 78.669075,20.998001 
z"/>
<path fill="#FBEED8" opacity="1.000000" stroke="none" 
	d="
M100.137009,32.204666 
	C99.981979,31.763384 99.987167,31.563063 99.993301,31.060259 
	C100.559265,30.945288 101.124283,31.132801 101.877792,31.549686 
	C101.476601,32.001247 100.886909,32.223438 100.137009,32.204666 
z"/>
<path fill="#FBEED8" opacity="1.000000" stroke="none" 
	d="
M107.679245,32.813599 
	C108.186424,33.006294 108.464508,33.254131 108.847466,33.759827 
	C108.408089,33.845871 107.863823,33.674057 107.160286,33.256931 
	C107.001007,33.011623 107.450134,32.868744 107.679245,32.813599 
z"/>
<path fill="#FBEED8" opacity="1.000000" stroke="none" 
	d="
M105.124222,32.646179 
	C104.949181,32.762066 104.618851,32.663605 104.142807,32.346470 
	C104.321037,32.229141 104.644989,32.330482 105.124222,32.646179 
z"/>
<path fill="#6AC2FD" opacity="1.000000" stroke="none" 
	d="
M75.292816,184.310425 
	C75.074776,182.563263 75.156799,181.105042 75.275093,179.001846 
	C85.397308,179.001846 95.271439,178.878601 105.140709,179.044464 
	C111.901253,179.158096 118.669067,179.522263 125.399445,180.144333 
	C126.675491,180.262283 127.791046,182.116547 128.988678,183.573242 
	C126.398811,184.318909 123.800262,184.959747 121.203171,184.953873 
	C105.999550,184.919525 90.796272,184.733917 75.292816,184.310425 
z"/>
<path fill="#70C1F9" opacity="1.000000" stroke="none" 
	d="
M70.090195,152.264709 
	C70.819962,152.216766 71.653023,152.430939 72.486084,152.645126 
	C72.195938,153.069550 71.905785,153.493973 71.299637,153.967896 
	C70.720261,153.520523 70.456879,153.023666 70.090195,152.264709 
z"/>
<path fill="#FFC533" opacity="1.000000" stroke="none" 
	d="
M177.016922,175.013657 
	C166.618774,175.013657 156.220627,175.013657 145.822479,175.013657 
	C145.564194,174.528290 145.305923,174.042923 145.047638,173.557556 
	C146.328751,172.707703 147.590332,171.158569 148.894150,171.122162 
	C156.997101,170.895996 165.114410,170.870056 173.213776,171.153763 
	C174.482483,171.198212 175.683990,173.160934 176.958282,174.618317 
	C177.000000,175.000000 177.016922,175.013657 177.016922,175.013657 
z"/>
<path fill="#F1C849" opacity="1.000000" stroke="none" 
	d="
M177.006836,175.008484 
	C178.278442,175.881638 179.543243,176.746292 180.808044,177.610931 
	C180.224365,178.036697 179.640701,178.462448 179.057022,178.888214 
	C178.377869,177.858459 177.698730,176.828720 177.018250,175.406311 
	C177.016922,175.013657 177.000000,175.000000 177.006836,175.008484 
z"/>
<path fill="#FBFDF5" opacity="1.000000" stroke="none" 
	d="
M69.183456,54.927830 
	C68.576523,54.412643 67.969589,53.897457 67.212059,52.776543 
	C66.354637,51.459236 65.647820,50.747665 64.940994,50.036091 
	C64.648064,49.885647 64.411980,49.672302 64.138039,48.785011 
	C63.017357,46.454288 61.991379,44.734612 60.965401,43.014931 
	C60.965401,43.014931 60.793243,42.681274 60.860123,42.055054 
	C60.663300,38.035007 61.390427,35.602188 65.629997,35.870728 
	C66.393776,35.919102 67.236336,34.723705 68.360939,34.076523 
	C69.104195,34.075878 69.529030,34.101250 70.001610,34.448135 
	C70.916306,35.892994 71.783264,37.016335 72.726799,38.492706 
	C72.857811,39.565891 72.912254,40.286049 72.708031,41.254631 
	C73.172577,44.049652 73.895798,46.596245 74.718475,49.440697 
	C74.852829,50.154556 74.887718,50.570560 74.591431,51.042076 
	C74.260262,52.862675 74.260262,54.627766 74.260262,56.543140 
	C72.656128,56.032745 70.919792,55.480289 69.183456,54.927830 
z"/>
<path fill="#FAC92E" opacity="1.000000" stroke="none" 
	d="
M76.909607,23.250313 
	C77.511955,23.261887 77.989845,23.524128 78.720192,23.889740 
	C78.996162,25.378372 79.019684,26.763632 78.728928,28.726583 
	C75.494324,32.416370 75.793488,35.666172 78.000061,38.997559 
	C78.331749,42.090405 78.663437,45.183247 78.572670,48.639435 
	C77.431587,47.647404 76.532990,46.355179 76.030754,44.923878 
	C74.888084,41.667435 73.940048,38.342697 72.876434,34.860611 
	C72.839973,34.675507 72.767326,34.305237 72.743103,34.041275 
	C72.486526,33.521301 72.254189,33.265289 72.021843,33.009277 
	C72.017136,32.254002 72.012428,31.498728 72.017380,30.365479 
	C72.676613,28.262810 73.326195,26.538116 73.961266,24.430281 
	C74.892891,23.865086 75.839020,23.683033 76.909607,23.250313 
z"/>
<path fill="#FDF2B9" opacity="1.000000" stroke="none" 
	d="
M68.042526,34.102547 
	C67.236336,34.723705 66.393776,35.919102 65.629997,35.870728 
	C61.390427,35.602188 60.663300,38.035007 60.842533,41.868156 
	C59.845623,39.831276 58.933189,37.355072 58.486061,34.451057 
	C61.981754,34.049679 65.012138,34.076115 68.042526,34.102547 
z"/>
<path fill="#EFC84E" opacity="1.000000" stroke="none" 
	d="
M68.360939,34.076527 
	C65.012138,34.076115 61.981754,34.049679 58.502144,34.063198 
	C62.398594,33.733932 66.744270,33.364712 71.555893,33.002380 
	C72.254189,33.265289 72.486526,33.521301 72.397408,33.963242 
	C71.368584,34.141655 70.661232,34.134140 69.953873,34.126621 
	C69.529030,34.101250 69.104195,34.075878 68.360939,34.076527 
z"/>
<path fill="#FDF2B9" opacity="1.000000" stroke="none" 
	d="
M60.961990,43.367088 
	C61.991379,44.734612 63.017357,46.454288 64.030251,48.569672 
	C62.997639,47.216663 61.978111,45.467953 60.961990,43.367088 
z"/>
<path fill="#FDF2B9" opacity="1.000000" stroke="none" 
	d="
M64.948181,50.364208 
	C65.647820,50.747665 66.354637,51.459236 67.065033,52.517414 
	C66.515076,52.730511 65.961548,52.597004 65.235512,52.228386 
	C65.027122,51.559624 64.991241,51.125977 64.948181,50.364208 
z"/>
<path fill="#FDF2B9" opacity="1.000000" stroke="none" 
	d="
M69.183960,55.273979 
	C70.919792,55.480289 72.656128,56.032745 74.260262,56.543140 
	C74.260262,54.627766 74.260262,52.862675 74.881699,51.265442 
	C76.355560,54.355343 77.207993,57.277386 78.060425,60.199425 
	C76.920624,59.911556 75.780830,59.623688 74.288467,59.282242 
	C72.352089,58.025818 70.768272,56.822971 69.183960,55.273979 
z"/>
<path fill="#EFC84E" opacity="1.000000" stroke="none" 
	d="
M78.161942,60.391296 
	C77.207993,57.277386 76.355560,54.355343 75.212868,51.209938 
	C74.887718,50.570560 74.852829,50.154556 74.791946,49.045547 
	C74.166199,45.903763 73.566444,43.454987 72.966690,41.006207 
	C72.912254,40.286049 72.857811,39.565891 72.824921,38.113426 
	C72.868607,36.602650 72.890755,35.824184 72.912903,35.045715 
	C73.940048,38.342697 74.888084,41.667435 76.030754,44.923878 
	C76.532990,46.355179 77.431587,47.647404 78.553558,49.035210 
	C79.139359,52.899860 79.321815,56.732079 79.254242,60.798210 
	C78.715767,60.950928 78.468849,60.801273 78.161942,60.391296 
z"/>
<path fill="#757A91" opacity="1.000000" stroke="none" 
	d="
M111.417564,100.122841 
	C111.746696,100.734703 111.640038,101.809425 111.521820,101.810699 
	C104.131920,101.890282 96.741089,101.882263 89.350334,101.882263 
	C89.334084,101.283096 89.317825,100.683929 89.301575,100.084763 
	C96.526512,100.084763 103.751450,100.084763 111.417564,100.122841 
z"/>
<path fill="#F7C93F" opacity="1.000000" stroke="none" 
	d="
M88.827209,52.348236 
	C89.002533,52.724640 89.177849,53.101044 89.262573,53.882519 
	C89.213844,54.781223 89.255692,55.274857 89.225403,56.083687 
	C89.434921,56.935081 89.716591,57.471279 89.998268,58.007473 
	C91.342743,62.712387 92.687218,67.417297 94.060196,72.531525 
	C93.193237,73.149445 92.297775,73.358040 91.207809,73.326279 
	C91.897285,65.846169 89.026505,59.822193 85.197556,53.961693 
	C84.288513,52.570332 84.692253,50.321274 85.030510,48.237427 
	C85.892464,48.083778 86.220390,48.124363 86.635666,48.441063 
	C86.779419,49.176006 86.840164,49.599754 86.691017,50.188591 
	C86.911392,50.948776 87.341644,51.543869 88.029877,52.220802 
	C88.467628,52.317841 88.647415,52.333038 88.827209,52.348236 
z"/>
<path fill="#FAEFD6" opacity="1.000000" stroke="none" 
	d="
M89.297546,55.768490 
	C89.255692,55.274857 89.213844,54.781223 89.318375,54.088608 
	C94.432739,56.798386 99.638062,58.881783 105.809189,58.821121 
	C106.070282,59.127674 106.047852,59.539631 105.597054,59.765099 
	C101.754677,60.006439 98.363098,60.022308 94.971519,60.038177 
	C93.822304,59.497082 92.673088,58.955982 91.262260,57.878254 
	C90.432945,56.817242 89.865250,56.292866 89.297546,55.768490 
z"/>
<path fill="#EACD87" opacity="1.000000" stroke="none" 
	d="
M95.212532,60.333092 
	C98.363098,60.022308 101.754677,60.006439 105.566452,59.969101 
	C102.717888,63.925182 99.069473,62.025124 95.212532,60.333092 
z"/>
<path fill="#FAEFD6" opacity="1.000000" stroke="none" 
	d="
M108.176437,58.669857 
	C108.710152,57.734116 109.529221,56.883522 110.705566,56.036655 
	C110.678200,56.736523 110.293549,57.432663 109.772064,58.392651 
	C109.244087,58.689331 108.852928,58.722168 108.176437,58.669857 
z"/>
<path fill="#F4D785" opacity="1.000000" stroke="none" 
	d="
M89.225403,56.083687 
	C89.865250,56.292866 90.432945,56.817242 91.055481,57.644089 
	C90.925179,57.960190 90.740028,57.973827 90.276573,57.997471 
	C89.716591,57.471279 89.434921,56.935081 89.225403,56.083687 
z"/>
<path fill="#FBEED8" opacity="1.000000" stroke="none" 
	d="
M113.301788,54.074585 
	C113.229652,49.849087 113.401527,45.617779 113.869736,41.164692 
	C114.136627,45.023155 114.107193,49.103401 114.054367,53.599258 
	C114.030983,54.014874 113.545799,54.068779 113.301788,54.074585 
z"/>
<path fill="#FBEED8" opacity="1.000000" stroke="none" 
	d="
M112.261490,54.943020 
	C112.211891,54.762054 112.401115,54.486126 112.832733,54.126160 
	C112.883522,54.310768 112.691917,54.579414 112.261490,54.943020 
z"/>
<path fill="#F5D167" opacity="1.000000" stroke="none" 
	d="
M129.301453,38.731926 
	C129.163864,37.119202 129.274292,35.218689 129.698303,33.136711 
	C133.810608,33.059292 137.609314,33.163338 141.724182,33.524612 
	C139.623978,33.875519 137.189163,34.199474 134.795670,34.007664 
	C131.401047,33.735619 129.641434,35.003307 129.301453,38.731926 
z"/>
<path fill="#F5D167" opacity="1.000000" stroke="none" 
	d="
M143.333496,34.936012 
	C143.086121,34.908981 143.001160,34.760269 142.892609,34.355965 
	C143.077972,34.338360 143.286926,34.576351 143.333496,34.936012 
z"/>
<path fill="#FDC63A" opacity="1.000000" stroke="none" 
	d="
M78.269653,38.765266 
	C75.793488,35.666172 75.494324,32.416370 78.737183,29.141880 
	C79.702728,30.090334 80.345757,31.201183 80.987999,32.660385 
	C80.171219,34.850155 79.355232,36.691566 78.269653,38.765266 
z"/>
<path fill="#F4D785" opacity="1.000000" stroke="none" 
	d="
M86.552650,48.129871 
	C86.220390,48.124363 85.892464,48.083778 85.322815,47.987640 
	C85.040314,47.232277 85.003868,46.497391 84.970032,45.010849 
	C84.908455,43.490154 84.844276,42.721111 84.780106,41.952065 
	C84.780106,41.952065 84.856110,41.522194 84.889778,41.307606 
	C86.144958,39.547829 87.366470,38.002644 88.747360,37.087372 
	C88.122047,41.188148 87.337349,44.659008 86.552650,48.129871 
z"/>
<path fill="#F7C93F" opacity="1.000000" stroke="none" 
	d="
M84.471634,42.024460 
	C84.844276,42.721111 84.908455,43.490154 84.933380,44.644310 
	C84.650475,44.051899 84.406822,43.074375 84.471634,42.024460 
z"/>
<path fill="#F7C93F" opacity="1.000000" stroke="none" 
	d="
M82.108521,38.206940 
	C82.709717,38.380180 83.307770,38.884182 83.919556,39.707909 
	C83.323982,39.530991 82.714684,39.034348 82.108521,38.206940 
z"/>
<path fill="#F7C93F" opacity="1.000000" stroke="none" 
	d="
M81.814575,35.086296 
	C81.980179,34.992607 82.025246,35.489292 82.030273,35.738541 
	C81.906517,35.718525 81.777740,35.449257 81.814575,35.086296 
z"/>
<path fill="#DE9A9C" opacity="1.000000" stroke="none" 
	d="
M102.782524,39.520470 
	C105.138466,41.064281 107.316788,42.286602 109.061462,43.265594 
	C107.925278,46.087280 106.773216,48.948421 105.169975,52.930031 
	C103.123711,53.054028 99.504356,53.273350 95.799080,53.497875 
	C94.713974,50.274921 93.587494,46.929058 92.437798,43.514229 
	C94.997177,41.663792 97.704758,39.624603 100.542686,37.786678 
	C100.812180,37.612152 101.898041,38.698174 102.782524,39.520470 
M104.782707,48.202595 
	C103.591072,45.841396 102.399429,43.480194 101.207794,41.118996 
	C100.633858,41.064079 100.059929,41.009163 99.485992,40.954243 
	C98.785767,43.063160 97.006790,45.592060 97.627602,47.186661 
	C98.667221,49.856972 101.376976,51.325089 104.782707,48.202595 
z"/>
<path fill="#FBEED8" opacity="1.000000" stroke="none" 
	d="
M86.635666,48.441063 
	C87.337349,44.659008 88.122047,41.188148 88.953308,37.328190 
	C89.404900,36.896431 89.809944,36.853771 90.513733,36.752686 
	C89.885956,40.828686 88.959435,44.963112 88.008904,49.557381 
	C87.984901,50.017223 87.898178,50.099586 87.650330,50.061226 
	C87.235291,50.023079 87.068100,50.023293 86.900902,50.023502 
	C86.840164,49.599754 86.779419,49.176006 86.635666,48.441063 
z"/>
<path fill="#FBEED8" opacity="1.000000" stroke="none" 
	d="
M112.010162,37.311905 
	C112.338936,37.461834 112.686081,37.915108 113.060745,38.668564 
	C112.735023,38.517582 112.381783,38.066418 112.010162,37.311905 
z"/>
<path fill="#FAEFD6" opacity="1.000000" stroke="none" 
	d="
M88.876518,52.009624 
	C88.647415,52.333038 88.467628,52.317841 88.103607,51.884201 
	C87.912308,51.010372 87.905243,50.554981 87.898178,50.099586 
	C87.898178,50.099586 87.984901,50.017223 88.030319,49.977020 
	C88.359093,50.514877 88.642464,51.092945 88.876518,52.009624 
z"/>
<path fill="#F3C650" opacity="1.000000" stroke="none" 
	d="
M83.340202,23.974129 
	C83.241844,23.456038 83.473274,22.945925 83.704712,22.435814 
	C84.108269,22.749641 84.511818,23.063471 84.952316,23.671192 
	C84.549500,23.970757 84.109749,23.976433 83.340202,23.974129 
z"/>
<path fill="#FDF2B9" opacity="1.000000" stroke="none" 
	d="
M72.708023,41.254631 
	C73.566444,43.454987 74.166199,45.903763 74.692482,48.747692 
	C73.895798,46.596245 73.172577,44.049652 72.708023,41.254631 
z"/>
<path fill="#FDF2B9" opacity="1.000000" stroke="none" 
	d="
M72.876434,34.860611 
	C72.890755,35.824184 72.868607,36.602650 72.748337,37.760399 
	C71.783264,37.016335 70.916306,35.892994 70.001610,34.448135 
	C70.661232,34.134140 71.368584,34.141655 72.421631,34.227203 
	C72.767326,34.305237 72.839973,34.675507 72.876434,34.860611 
z"/>
<path fill="#F4D785" opacity="1.000000" stroke="none" 
	d="
M87.650330,50.061226 
	C87.905243,50.554981 87.912308,51.010372 87.845634,51.802368 
	C87.341644,51.543869 86.911392,50.948776 86.691017,50.188591 
	C87.068100,50.023293 87.235291,50.023079 87.650330,50.061226 
z"/>
<path fill="#F5838A" opacity="1.000000" stroke="none" 
	d="
M104.589973,48.548347 
	C101.376976,51.325089 98.667221,49.856972 97.627602,47.186661 
	C97.006790,45.592060 98.785767,43.063160 99.485992,40.954243 
	C100.059929,41.009163 100.633858,41.064079 101.207794,41.118996 
	C102.399429,43.480194 103.591072,45.841396 104.589973,48.548347 
z"/>
</svg>