<svg version="1.1" id="Layer_1" xmlns="http://www.w3.org/2000/svg" xmlns:xlink="http://www.w3.org/1999/xlink" x="0px" y="0px"
	 width="100%" viewBox="0 0 225 225" enable-background="new 0 0 225 225" xml:space="preserve">
<path fill="#FFFEFE" opacity="1.000000" stroke="none" 
	d="
M226.000000,79.000000 
	C226.000000,128.333328 226.000000,177.166672 226.000000,226.000000 
	C151.000000,226.000000 76.000000,226.000000 1.000000,226.000000 
	C1.000000,151.000000 1.000000,76.000000 1.000000,1.000000 
	C76.000000,1.000000 151.000000,1.000000 226.000000,1.000000 
	C226.000000,26.833334 226.000000,52.666668 226.000000,79.000000 
M91.043556,178.115173 
	C91.043556,178.115173 91.073463,178.213760 91.744209,178.136993 
	C92.155136,177.980194 92.566071,177.823395 93.414055,177.626602 
	C93.700844,177.495682 93.883995,177.277664 94.646133,176.838608 
	C97.752884,174.519318 100.859642,172.200043 104.662865,169.856522 
	C107.838303,167.261795 111.013741,164.667068 114.822403,161.774490 
	C120.557762,158.201202 126.293121,154.627899 132.702072,150.904755 
	C134.690460,149.352219 136.678833,147.799683 139.333099,146.227768 
	C146.221100,141.469055 153.109100,136.710358 160.667542,131.809113 
	C162.836136,130.235306 165.004745,128.661499 167.843307,126.922508 
	C173.559509,122.949860 179.275696,118.977219 185.671738,114.816765 
	C187.980499,112.941490 190.508820,111.266647 192.491974,109.094162 
	C193.306732,108.201630 192.946625,106.236580 193.023682,103.991585 
	C191.112244,103.323524 189.220657,102.153351 187.285843,102.076912 
	C180.059143,101.791405 172.808502,102.075195 165.585632,101.740311 
	C159.045166,101.437057 152.529205,100.605560 145.245483,99.710938 
	C143.272049,99.497169 141.295731,99.086067 139.325867,99.115028 
	C136.228195,99.160576 133.121384,99.785431 130.043533,99.638756 
	C127.012177,99.494293 124.012009,98.695114 120.108849,98.038033 
	C117.406219,98.023552 114.703590,98.009071 111.607597,97.448296 
	C112.093933,96.275803 112.385925,94.964149 113.105797,93.958885 
	C114.764580,91.642433 116.631241,89.474831 118.933533,87.024452 
	C119.270668,86.582520 119.607803,86.140594 120.361954,85.698013 
	C120.646759,85.557030 120.776474,85.328133 121.058647,84.769661 
	C121.058647,84.769661 121.173828,84.395874 121.764900,84.109978 
	C122.521072,83.081474 123.277245,82.052979 124.614960,80.731216 
	C125.544418,79.544037 126.473885,78.356865 127.883614,76.735886 
	C133.292633,70.796158 138.701660,64.856430 144.672165,58.593990 
	C146.476700,55.964108 148.026489,53.103954 150.146103,50.758862 
	C153.247177,47.327927 156.756836,44.266289 160.645721,40.768681 
	C161.076355,40.099720 161.506973,39.430759 162.565277,38.609989 
	C163.723022,37.101669 164.880768,35.593353 166.710114,34.041012 
	C168.178345,32.379929 169.646561,30.718849 171.606049,28.762053 
	C171.838135,28.254250 172.070221,27.746449 172.350327,27.256775 
	C172.350327,27.256775 172.391754,27.287069 172.972885,26.913225 
	C174.944870,24.562157 177.175629,22.373068 178.788040,19.796936 
	C179.699173,18.341251 180.402725,15.802679 179.721237,14.567821 
	C179.022537,13.301742 176.473404,12.333877 174.816483,12.446517 
	C168.142593,12.900215 161.500534,13.822247 154.283966,14.335288 
	C153.878479,14.293028 153.472977,14.250768 152.809769,13.720966 
	C152.197433,14.010091 151.585098,14.299215 150.342514,14.809889 
	C149.912979,14.924273 149.483459,15.038656 148.258636,15.051470 
	C147.190414,15.041833 146.122177,15.032196 144.237900,14.978080 
	C142.487640,15.593469 140.737381,16.208857 138.194214,16.928892 
	C136.271820,16.796234 134.304764,16.339409 132.436111,16.596855 
	C128.251404,17.173388 124.145760,18.459827 119.953461,18.815834 
	C112.185829,19.475451 104.362183,19.488876 96.600510,20.195795 
	C94.606575,20.377399 92.164429,21.697519 90.976318,23.281025 
	C89.078964,25.809799 88.059006,28.996891 86.244522,32.401649 
	C84.747772,35.234108 83.251022,38.066566 81.295731,41.153950 
	C81.208664,41.481956 81.121597,41.809967 80.547447,42.568745 
	C79.391685,44.726120 78.235924,46.883495 76.733391,49.438705 
	C72.855270,56.299877 68.977150,63.161049 64.826645,70.671448 
	C62.235676,75.579865 59.644707,80.488274 56.543644,85.769264 
	C55.319874,88.162842 54.096100,90.556412 52.368008,93.389481 
	C49.100269,100.080894 43.402557,105.794922 43.727898,114.578941 
	C43.161137,115.159042 42.594379,115.739151 41.380459,116.447990 
	C38.880650,120.107643 36.380840,123.767296 33.294186,128.006073 
	C32.379715,132.691315 34.356819,134.623535 39.784012,134.296982 
	C56.189224,135.153275 72.594437,136.009552 89.893784,137.001541 
	C94.699272,137.331512 99.504753,137.661484 104.066071,137.974670 
	C102.508057,140.836426 101.165878,143.301743 99.250198,145.545609 
	C95.842415,148.399643 92.434624,151.253677 88.437469,154.395325 
	C85.150742,157.766144 81.864006,161.136963 78.563965,164.625854 
	C78.563965,164.625854 78.490562,164.532425 77.969063,164.703308 
	C77.633965,165.124680 77.298859,165.546036 76.382950,166.215454 
	C75.219635,167.411469 74.056320,168.607468 72.288742,170.120621 
	C69.467293,172.959427 66.645844,175.798248 63.212933,178.941071 
	C58.113720,183.803528 52.874012,188.530258 47.982765,193.593613 
	C45.957897,195.689758 44.679226,198.506744 42.906330,201.376419 
	C42.906330,201.376419 42.906143,201.787231 42.164185,201.894958 
	C40.684940,202.555511 39.205700,203.216049 37.314377,203.977249 
	C37.044289,204.132568 36.903378,204.365875 36.307613,204.969818 
	C35.472919,205.947357 34.638226,206.924896 33.204826,208.368393 
	C33.798672,210.249207 33.868198,212.787155 35.147980,213.808289 
	C36.221676,214.664963 39.158909,214.423370 40.498211,213.521011 
	C56.197453,202.943329 71.750587,192.148804 87.923355,181.236725 
	C88.646095,180.570557 89.368835,179.904404 90.567894,178.986725 
	C90.760780,178.696976 90.953667,178.407242 91.043556,178.115173 
M143.906677,12.457157 
	C144.943115,12.628995 145.979553,12.800833 147.015991,12.972671 
	C147.037720,12.679891 147.059433,12.387111 147.081146,12.094331 
	C146.172592,12.094331 145.264023,12.094331 143.906677,12.457157 
M130.972580,14.175873 
	C130.563660,14.271750 130.154739,14.367629 129.745819,14.463507 
	C129.835724,14.584805 129.941147,14.818733 130.012955,14.808830 
	C130.428040,14.751591 130.835175,14.636798 130.972580,14.175873 
M138.971664,11.176498 
	C138.563049,11.272223 138.154449,11.367947 137.745834,11.463664 
	C137.835602,11.584947 137.940887,11.818826 138.012558,11.808946 
	C138.427383,11.751761 138.834259,11.637100 138.971664,11.176498 
M129.413498,11.482862 
	C129.413498,11.482862 129.524139,11.417265 129.413498,11.482862 
z"/>
<path fill="#F27A30" opacity="1.000000" stroke="none" 
	d="
M36.891640,204.677200 
	C36.903378,204.365875 37.044289,204.132568 37.845226,204.059967 
	C39.922153,204.092850 41.468231,204.043030 43.406490,204.001007 
	C46.873322,202.343521 49.947971,200.678223 53.143559,198.812195 
	C53.470230,198.367798 53.719894,198.183716 54.248482,197.957794 
	C54.686604,197.586655 54.889736,197.316925 55.438080,197.004059 
	C61.178928,193.628555 66.574562,190.296188 72.252861,187.071472 
	C73.994179,186.058762 75.452827,184.938416 76.929672,183.612473 
	C76.947876,183.406876 77.036537,183.003693 77.407608,183.003021 
	C80.836296,182.318481 83.893906,181.634613 87.050690,181.064667 
	C87.149864,181.178604 87.342285,181.411514 87.342285,181.411530 
	C71.750587,192.148804 56.197453,202.943329 40.498211,213.521011 
	C39.158909,214.423370 36.221676,214.664963 35.147980,213.808289 
	C33.868198,212.787155 33.798672,210.249207 33.798218,208.314117 
	C35.486252,208.947388 36.580898,209.634949 37.597668,210.273590 
	C37.318020,208.056915 37.104828,206.367065 36.891640,204.677200 
M38.517784,206.406967 
	C38.517784,206.406967 38.588520,206.523514 38.517784,206.406967 
z"/>
<path fill="#FBE020" opacity="1.000000" stroke="none" 
	d="
M86.668091,31.905651 
	C88.059006,28.996891 89.078964,25.809799 90.976318,23.281025 
	C92.164429,21.697519 94.606575,20.377399 96.600510,20.195795 
	C104.362183,19.488876 112.185829,19.475451 119.953461,18.815834 
	C124.145760,18.459827 128.251404,17.173388 132.436111,16.596855 
	C134.304764,16.339409 136.271820,16.796234 138.989288,16.927601 
	C141.540909,16.291727 143.297424,15.657144 145.053955,15.022560 
	C146.122177,15.032196 147.190414,15.041833 148.904602,15.345623 
	C150.699066,16.750151 151.847580,17.860521 152.699463,19.001869 
	C151.928452,19.346785 151.454086,19.660727 150.583130,19.978672 
	C149.127655,19.988724 148.068756,19.994772 146.674377,19.996168 
	C145.891724,20.000772 145.444565,20.010033 144.626129,20.013725 
	C142.841675,20.333780 141.428528,20.659407 139.572647,20.983730 
	C135.753326,21.320967 132.376755,21.659504 128.541321,21.996290 
	C126.129326,21.995045 124.130493,21.736549 122.236160,22.070627 
	C120.427612,22.389578 118.727898,23.325674 116.547958,23.987736 
	C111.054085,23.991848 105.944557,23.589048 100.950943,24.174707 
	C98.371880,24.477184 95.841660,26.307343 93.578819,27.867168 
	C91.517540,29.288061 89.847366,31.276340 87.850800,32.758141 
	C87.353905,32.303051 87.010994,32.104351 86.668091,31.905651 
z"/>
<path fill="#F58721" opacity="1.000000" stroke="none" 
	d="
M121.173828,84.395874 
	C121.173828,84.395874 121.058647,84.769661 120.737503,84.961365 
	C120.205200,85.288246 120.048058,85.470116 119.944946,85.698669 
	C119.607803,86.140594 119.270668,86.582520 118.365768,86.955536 
	C116.867592,86.263718 115.937172,85.640816 114.994858,84.621109 
	C113.057304,83.149597 111.218353,81.387169 109.189430,81.131317 
	C103.488052,80.412361 97.708412,80.314018 92.002930,79.627335 
	C93.702606,77.192368 95.358994,75.101006 97.338852,73.004593 
	C98.093109,72.989166 98.523903,72.978790 99.390877,72.979996 
	C107.895332,73.004654 115.963608,73.017738 123.993546,73.373550 
	C123.635811,74.810104 123.316399,75.903923 122.778900,77.106430 
	C122.289383,77.414284 122.100754,77.673668 121.857986,78.050034 
	C121.816277,78.072876 121.911499,78.038948 122.224518,77.895401 
	C122.714180,77.585823 122.900833,77.324905 123.327637,76.977074 
	C124.903091,77.023964 126.153214,77.096825 127.403336,77.169678 
	C126.473885,78.356865 125.544418,79.544037 123.992004,80.869888 
	C122.926132,81.025055 122.483215,81.041557 121.895912,80.889038 
	C121.504524,81.145226 121.257530,81.570427 121.020752,82.396500 
	C121.078583,83.330200 121.126205,83.863037 121.173828,84.395874 
z"/>
<path fill="#FDB718" opacity="1.000000" stroke="none" 
	d="
M166.038513,34.085030 
	C164.880768,35.593353 163.723022,37.101669 161.978729,38.456711 
	C158.664993,37.791786 156.096252,37.654846 154.833344,41.248566 
	C154.110611,41.663254 153.556946,41.834938 152.709717,41.708290 
	C145.262726,41.266045 138.109299,41.122131 130.996567,40.663048 
	C131.372406,39.573345 131.707550,38.798817 132.282654,37.870789 
	C133.018494,37.158043 133.514343,36.598793 134.330231,36.005852 
	C135.414688,35.307808 136.179138,34.643456 137.119202,33.726112 
	C138.189880,32.962013 139.084915,32.450909 140.195709,32.216228 
	C142.136734,32.569645 143.861313,32.685360 145.587402,32.716652 
	C151.718750,32.827812 157.850632,32.910191 164.292877,33.023743 
	C165.081818,33.391018 165.560165,33.738022 166.038513,34.085030 
z"/>
<path fill="#FAA72D" opacity="1.000000" stroke="none" 
	d="
M146.002441,100.006981 
	C152.529205,100.605560 159.045166,101.437057 165.585632,101.740311 
	C172.808502,102.075195 180.059143,101.791405 187.285843,102.076912 
	C189.220657,102.153351 191.112244,103.323524 192.920929,104.696960 
	C190.871613,106.595413 188.925064,107.788498 187.089966,108.681656 
	C186.015244,107.630821 184.871689,106.316086 183.635773,106.222610 
	C176.784012,105.704391 169.909790,105.483177 162.609131,105.117706 
	C160.443130,105.086197 158.711258,105.097244 156.538910,105.070190 
	C152.398560,104.689445 148.698669,104.346809 145.148560,103.760712 
	C145.533035,102.347160 145.767746,101.177071 146.002441,100.006981 
z"/>
<path fill="#EC5B1F" opacity="1.000000" stroke="none" 
	d="
M42.027622,116.319252 
	C42.594379,115.739151 43.161137,115.159042 44.229607,114.260620 
	C46.470592,111.942970 48.209862,109.943642 50.213730,108.151123 
	C51.312187,109.239189 52.146038,110.120445 52.925499,111.346481 
	C52.250507,112.852890 51.629902,114.014519 51.009296,115.176140 
	C51.305973,115.498322 51.602650,115.820503 51.899330,116.142685 
	C54.257175,114.735527 56.615025,113.328369 59.127464,112.237335 
	C61.262600,113.180138 63.272953,113.729431 65.207802,114.474731 
	C65.901764,114.742043 66.413612,115.482109 66.794701,116.284515 
	C61.079262,118.720673 55.577698,120.878731 49.840202,123.122322 
	C49.400932,123.466087 49.197598,123.724319 48.996372,123.991928 
	C48.998482,124.001297 48.983349,123.987190 48.609596,123.912186 
	C47.823895,121.891449 47.411945,119.945724 47.284428,117.965286 
	C47.891224,117.625298 48.213589,117.320015 48.535954,117.014732 
	C48.326363,116.832825 48.116772,116.650909 47.907177,116.469002 
	C47.604786,116.979332 47.302395,117.489670 46.675980,118.041992 
	C45.210491,119.036797 44.069027,119.989609 42.940948,120.592796 
	C42.645435,118.935204 42.336529,117.627228 42.027622,116.319252 
z"/>
<path fill="#F58222" opacity="1.000000" stroke="none" 
	d="
M57.053741,85.396690 
	C59.644707,80.488274 62.235676,75.579865 65.223038,70.549667 
	C67.389610,70.615967 69.159782,70.804039 71.313126,70.996742 
	C72.458107,71.001831 73.219917,71.002289 73.945435,71.360115 
	C71.604607,76.477928 69.300079,81.238365 66.751175,86.167152 
	C66.340744,86.891205 66.174698,87.446907 65.841537,88.247192 
	C65.122704,88.671036 64.570984,88.850304 63.982048,88.700485 
	C62.959698,85.076012 61.509338,86.474266 59.728390,87.963852 
	C58.623890,87.093933 57.838814,86.245308 57.053741,85.396690 
z"/>
<path fill="#FBD226" opacity="1.000000" stroke="none" 
	d="
M99.823700,145.767059 
	C101.165878,143.301743 102.508057,140.836426 104.066071,137.974670 
	C99.504753,137.661484 94.699272,137.331512 89.506386,136.619019 
	C90.108406,135.629044 91.097832,135.021606 92.085197,134.415421 
	C91.738609,133.933960 91.368004,133.419113 91.465485,132.877136 
	C99.470024,133.169968 107.006470,133.489960 115.265739,133.840637 
	C113.134911,136.879471 111.688477,138.942276 110.051041,141.257156 
	C109.182602,142.305969 108.505165,143.102692 107.617615,143.925690 
	C107.407501,143.951950 106.989265,144.018478 106.643318,144.142380 
	C104.250328,144.900482 102.203293,145.534683 100.073746,146.067902 
	C99.991241,145.966934 99.823700,145.767059 99.823700,145.767059 
z"/>
<path fill="#F9D91A" opacity="1.000000" stroke="none" 
	d="
M90.997398,132.904282 
	C91.368004,133.419113 91.738609,133.933960 92.085197,134.415421 
	C91.097832,135.021606 90.108406,135.629044 89.059319,136.551147 
	C72.594437,136.009552 56.189224,135.153275 39.278587,133.875946 
	C39.187946,132.363098 39.602734,131.271286 40.262749,130.145065 
	C40.507980,130.110672 40.997124,130.188522 41.089684,130.544525 
	C44.482506,131.599960 47.761024,132.659775 51.091358,132.860641 
	C53.021172,132.977051 55.034348,131.711426 57.350266,131.042114 
	C58.143040,131.054382 58.595558,131.092285 59.249100,131.459045 
	C65.913513,132.516800 72.362404,133.495560 78.846260,133.872101 
	C82.230835,134.068649 85.676964,133.205307 89.413132,132.812103 
	C90.153114,132.837097 90.575256,132.870697 90.997398,132.904282 
z"/>
<path fill="#F17D2F" opacity="1.000000" stroke="none" 
	d="
M43.061195,200.995911 
	C44.679226,198.506744 45.957897,195.689758 47.982765,193.593613 
	C52.874012,188.530258 58.113720,183.803528 63.699013,179.049347 
	C66.463402,178.439606 68.741714,177.721588 71.002686,177.331558 
	C70.972015,178.097031 70.958687,178.534515 70.711334,178.985825 
	C70.477303,178.999649 70.012016,179.057434 69.666641,179.071747 
	C67.882759,180.724106 66.444252,182.362152 64.711639,184.154892 
	C60.270527,188.510605 56.123516,192.711609 51.626244,196.968689 
	C48.537716,198.348480 45.799454,199.672195 43.061195,200.995911 
z"/>
<path fill="#F8A32C" opacity="1.000000" stroke="none" 
	d="
M145.623962,99.858963 
	C145.767746,101.177071 145.533035,102.347160 144.772491,103.774895 
	C143.495514,103.996735 142.744339,103.960938 141.955017,103.638458 
	C141.606812,103.040291 141.296783,102.728790 140.986740,102.417290 
	C140.662369,102.897812 140.337997,103.378334 139.754730,103.919136 
	C139.324066,104.023140 139.152313,104.066872 138.529785,104.066666 
	C133.725418,103.731369 129.371841,103.440002 124.581894,103.094925 
	C120.093544,102.666084 116.041573,102.290970 112.191208,101.593277 
	C114.091698,100.846107 115.827812,100.529594 117.477211,99.961380 
	C118.708885,99.537079 119.828590,98.787773 120.998154,98.183197 
	C124.012009,98.695114 127.012177,99.494293 130.043533,99.638756 
	C133.121384,99.785431 136.228195,99.160576 139.325867,99.115028 
	C141.295731,99.086067 143.272049,99.497169 145.623962,99.858963 
M138.412354,101.482895 
	C138.412354,101.482895 138.522919,101.417145 138.412354,101.482895 
z"/>
<path fill="#F2742B" opacity="1.000000" stroke="none" 
	d="
M127.643478,76.952782 
	C126.153214,77.096825 124.903091,77.023964 123.326485,76.975555 
	C123.000000,77.000000 122.996986,76.997749 122.996986,76.997749 
	C123.316399,75.903923 123.635811,74.810104 124.332794,73.331329 
	C126.470398,71.294914 128.230438,69.643456 130.046692,67.658943 
	C132.743286,64.233978 135.383667,61.142078 138.317963,57.916195 
	C139.742249,56.850330 140.872635,55.918442 142.360474,55.049034 
	C143.182190,56.379902 143.646439,57.648296 144.110672,58.916695 
	C138.701660,64.856430 133.292633,70.796158 127.643478,76.952782 
z"/>
<path fill="#FAD625" opacity="1.000000" stroke="none" 
	d="
M159.997101,131.951645 
	C153.109100,136.710358 146.221100,141.469055 138.561310,146.169800 
	C136.503632,145.681473 135.217712,145.251114 134.136169,144.562134 
	C137.880569,141.832031 141.420593,139.360565 145.281097,136.782898 
	C148.122971,134.842850 150.644363,133.009033 153.456787,131.091919 
	C154.296265,130.448288 154.844727,129.887955 155.703354,129.285141 
	C156.627319,129.136108 157.241089,129.029541 158.123245,128.865997 
	C158.926773,129.856567 159.461945,130.904099 159.997101,131.951645 
z"/>
<path fill="#F7E313" opacity="1.000000" stroke="none" 
	d="
M152.996094,18.970894 
	C151.847580,17.860521 150.699066,16.750151 149.302246,15.396408 
	C149.483459,15.038656 149.912979,14.924273 150.956238,14.780941 
	C151.979233,14.804797 152.388504,14.857599 153.066086,14.943285 
	C153.838516,14.841204 154.342621,14.706239 154.846725,14.571274 
	C161.500534,13.822247 168.142593,12.900215 174.816483,12.446517 
	C176.473404,12.333877 179.022537,13.301742 179.721237,14.567821 
	C180.402725,15.802679 179.699173,18.341251 178.788040,19.796936 
	C177.175629,22.373068 174.944870,24.562157 172.569595,26.704744 
	C172.439713,24.657850 172.713120,22.819439 173.174057,20.719086 
	C176.303116,18.375662 176.316879,18.300640 173.987122,16.588978 
	C172.933258,15.488530 171.892075,14.774590 170.850891,14.060648 
	C170.237549,15.043926 169.624207,16.027208 169.006042,17.005501 
	C169.001221,17.000511 169.005432,17.009470 168.636581,17.002243 
	C167.359879,16.686567 166.454681,16.370083 165.543732,16.071068 
	C161.717667,14.815194 156.993683,16.241684 155.621918,18.960384 
	C154.496689,18.971365 153.746384,18.971128 152.996094,18.970894 
z"/>
<path fill="#F2722C" opacity="1.000000" stroke="none" 
	d="
M70.929962,70.992111 
	C69.159782,70.804039 67.389610,70.615967 65.359238,70.225052 
	C68.977150,63.161049 72.855270,56.299877 77.272232,49.237110 
	C78.546944,50.021709 79.282814,51.007904 79.870773,52.311089 
	C79.452423,53.739113 79.181992,54.850136 78.613815,56.138527 
	C75.854034,61.207966 73.391998,66.100037 70.929962,70.992111 
z"/>
<path fill="#FBB328" opacity="1.000000" stroke="none" 
	d="
M132.028488,151.054596 
	C126.293121,154.627899 120.557762,158.201202 114.109116,161.903580 
	C112.601738,162.018692 111.807640,162.004715 111.044952,161.641647 
	C114.036331,158.521408 116.996307,155.750244 120.119308,152.752304 
	C121.189461,152.019928 122.096581,151.514343 123.270370,150.898529 
	C124.032768,150.222015 124.528503,149.655731 125.279266,149.088104 
	C125.703285,149.105423 125.872276,149.124100 126.101135,149.476929 
	C128.116837,150.225571 130.072662,150.640091 132.028488,151.054596 
z"/>
<path fill="#F9A72E" opacity="1.000000" stroke="none" 
	d="
M49.949127,107.944305 
	C48.209862,109.943642 46.470592,111.942970 44.392174,114.002304 
	C43.402557,105.794922 49.100269,100.080894 52.897617,93.334702 
	C54.273640,93.851311 55.120056,94.422699 55.935997,95.354309 
	C53.920052,99.791130 51.934589,103.867714 49.949127,107.944305 
z"/>
<path fill="#F99E2C" opacity="1.000000" stroke="none" 
	d="
M144.391418,58.755341 
	C143.646439,57.648296 143.182190,56.379902 142.407135,54.677116 
	C143.177155,53.497601 144.344269,52.848896 145.314804,51.980503 
	C146.304321,51.095131 147.100555,49.993763 147.990417,48.617760 
	C149.667358,46.167912 151.335312,44.087269 153.003265,42.006626 
	C153.556946,41.834938 154.110611,41.663254 155.257446,41.248932 
	C157.264526,41.019951 158.678452,41.033607 160.092361,41.047264 
	C156.756836,44.266289 153.247177,47.327927 150.146103,50.758862 
	C148.026489,53.103954 146.476700,55.964108 144.391418,58.755341 
z"/>
<path fill="#F9B41D" opacity="1.000000" stroke="none" 
	d="
M86.456306,32.153648 
	C87.010994,32.104351 87.353905,32.303051 87.848846,33.088478 
	C87.999634,34.116051 87.998367,34.556904 87.858810,35.052177 
	C87.814430,35.072033 87.908333,35.037464 88.390396,35.001472 
	C90.187096,35.339111 91.595634,35.678173 92.969971,36.358776 
	C92.294937,38.133663 91.654106,39.567005 90.659225,41.062843 
	C89.537102,43.083637 88.769035,45.041935 87.755806,47.153175 
	C87.006996,47.873341 86.503357,48.440563 85.626312,49.005730 
	C84.506538,48.999992 83.760185,48.996307 83.014076,48.593651 
	C83.019417,47.130768 83.024506,46.066853 83.320404,44.858994 
	C84.661591,43.216381 85.711967,41.717712 86.762352,40.219044 
	C86.439308,40.026134 86.116264,39.833221 85.793213,39.640308 
	C84.446899,40.059883 83.100578,40.479454 81.754265,40.899025 
	C83.251022,38.066566 84.747772,35.234108 86.456306,32.153648 
z"/>
<path fill="#FB9E31" opacity="1.000000" stroke="none" 
	d="
M120.553497,98.110611 
	C119.828590,98.787773 118.708885,99.537079 117.477211,99.961380 
	C115.827812,100.529594 114.091698,100.846107 111.811356,101.639542 
	C110.464371,102.048409 109.698845,102.088425 108.502434,102.070381 
	C105.773788,101.867020 103.476028,101.721725 101.171272,101.309631 
	C101.438339,100.360214 101.712395,99.677605 102.008530,98.760155 
	C102.030609,98.525314 102.057953,98.054352 102.356491,97.908676 
	C104.774017,95.515503 106.893005,93.268013 109.343590,91.015999 
	C110.117371,91.007126 110.559555,91.002769 110.964325,91.352127 
	C110.105392,93.641014 109.283867,95.576172 108.257179,97.994598 
	C110.080345,97.994598 111.040649,97.994598 112.000961,97.994598 
	C114.703590,98.009071 117.406219,98.023552 120.553497,98.110611 
z"/>
<path fill="#FBC432" opacity="1.000000" stroke="none" 
	d="
M184.991882,115.004562 
	C179.275696,118.977219 173.559509,122.949860 167.248627,126.828957 
	C167.691010,125.514290 168.845856,124.367302 169.690506,123.025101 
	C169.931519,122.642136 169.272308,121.692665 169.034698,120.781700 
	C169.043488,120.560425 169.041840,120.117531 169.388245,120.062103 
	C172.472672,118.323387 175.210678,116.640099 178.240936,115.086792 
	C179.343185,114.786621 180.153168,114.356461 180.991028,113.699020 
	C181.018890,113.471733 181.135300,113.028816 181.450317,113.059135 
	C182.840866,113.727829 183.916367,114.366196 184.991882,115.004562 
z"/>
<path fill="#F99E2C" opacity="1.000000" stroke="none" 
	d="
M111.013542,161.990738 
	C111.807640,162.004715 112.601738,162.018692 113.792503,162.052521 
	C111.013741,164.667068 107.838303,167.261795 104.097633,169.630005 
	C101.684380,168.931015 99.836357,168.458527 98.112488,167.722931 
	C98.822479,166.973480 99.408318,166.487152 100.310333,165.864212 
	C102.634682,164.654007 104.642860,163.580383 106.651039,162.506775 
	C106.101379,161.936935 105.551720,161.367096 105.002060,160.797241 
	C106.003738,161.197464 107.005409,161.597702 108.382729,161.999725 
	C109.510094,161.997940 110.261818,161.994339 111.013542,161.990738 
z"/>
<path fill="#F5912D" opacity="1.000000" stroke="none" 
	d="
M97.988327,167.986038 
	C99.836357,168.458527 101.684380,168.931015 103.749397,169.642120 
	C100.859642,172.200043 97.752884,174.519318 94.252594,176.869812 
	C93.859062,176.901001 93.754539,176.829437 93.711975,176.685089 
	C93.669418,176.540756 93.269463,176.551666 93.269463,176.551666 
	C93.269463,176.551666 93.062820,176.947784 93.035416,176.971771 
	C93.008018,176.995773 92.954247,177.044907 92.647873,177.058868 
	C91.918831,177.453140 91.496147,177.833450 91.073471,178.213760 
	C91.073463,178.213760 91.043556,178.115173 90.806885,178.071167 
	C90.376938,178.020920 90.183670,178.014664 89.747147,178.003662 
	C89.503891,177.998917 89.017326,177.993591 88.897812,177.772171 
	C88.508774,177.357819 88.239258,177.164886 88.017952,176.629883 
	C91.373550,173.520554 94.680939,170.753296 97.988327,167.986038 
z"/>
<path fill="#F69927" opacity="1.000000" stroke="none" 
	d="
M72.893005,169.803482 
	C74.056320,168.607468 75.219635,167.411469 76.995468,166.066620 
	C77.902176,165.456009 78.196365,164.994217 78.490562,164.532425 
	C78.490562,164.532425 78.563965,164.625854 78.940628,164.630173 
	C81.211571,164.755356 83.105843,164.876205 84.999886,165.373108 
	C85.000481,166.501282 85.001305,167.253387 84.709030,168.152130 
	C83.280014,169.202133 82.144096,170.105484 80.687057,171.046143 
	C79.905434,171.716812 79.444923,172.350143 78.673141,173.024368 
	C77.574776,173.709976 76.787697,174.354675 76.000389,174.749313 
	C76.000114,174.332520 76.000069,174.165802 75.992500,173.633255 
	C74.954323,172.112778 73.923668,170.958130 72.893005,169.803482 
z"/>
<path fill="#FBC72D" opacity="1.000000" stroke="none" 
	d="
M41.704041,116.383621 
	C42.336529,117.627228 42.645435,118.935204 42.957108,120.603065 
	C42.959881,120.962952 42.958038,120.945137 42.726494,121.042007 
	C42.350662,121.423592 42.206371,121.708305 41.929665,122.293503 
	C41.140453,123.698898 40.483654,124.803818 39.597073,126.073685 
	C38.919956,126.826050 38.472622,127.413475 37.691711,128.046387 
	C36.115555,128.307144 34.293182,131.554291 33.881027,127.426949 
	C36.380840,123.767296 38.880650,120.107643 41.704041,116.383621 
z"/>
<path fill="#FCC029" opacity="1.000000" stroke="none" 
	d="
M89.026840,154.107727 
	C92.434624,151.253677 95.842415,148.399643 99.536949,145.656342 
	C99.823700,145.767059 99.991241,145.966934 100.027100,146.418518 
	C98.720680,148.958221 97.378395,151.046341 95.778503,153.252869 
	C94.996567,153.906784 94.472229,154.442307 93.638321,155.024475 
	C92.874413,155.685287 92.420074,156.299469 91.803406,157.161667 
	C91.093941,157.602310 90.546806,157.794907 89.863556,157.675690 
	C89.493912,156.278503 89.260376,155.193100 89.026840,154.107727 
z"/>
<path fill="#FACB28" opacity="1.000000" stroke="none" 
	d="
M169.025909,121.002975 
	C169.272308,121.692665 169.931519,122.642136 169.690506,123.025101 
	C168.845856,124.367302 167.691010,125.514290 166.913651,126.911545 
	C165.004745,128.661499 162.836136,130.235306 160.332321,131.880371 
	C159.461945,130.904099 158.926773,129.856567 158.175171,128.557907 
	C157.997223,127.891144 158.035721,127.475502 158.059052,127.041336 
	C158.043884,127.022827 158.022705,127.055809 158.256073,126.943413 
	C158.704193,126.565857 158.918915,126.300697 159.480301,126.005783 
	C162.893265,124.318352 165.959595,122.660667 169.025909,121.002975 
z"/>
<path fill="#F9AD2C" opacity="1.000000" stroke="none" 
	d="
M88.732147,154.251526 
	C89.260376,155.193100 89.493912,156.278503 89.831650,158.019821 
	C88.962212,160.110596 87.988564,161.545456 86.892357,163.247849 
	C86.179901,164.009293 85.590012,164.503189 85.000122,164.997070 
	C83.105843,164.876205 81.211571,164.755356 78.947289,164.571136 
	C81.864006,161.136963 85.150742,157.766144 88.732147,154.251526 
z"/>
<path fill="#FCD82A" opacity="1.000000" stroke="none" 
	d="
M172.986526,20.981030 
	C172.713120,22.819439 172.439713,24.657850 172.279022,26.891666 
	C172.391754,27.287069 172.350327,27.256775 171.999359,27.189365 
	C171.470520,27.767225 171.292648,28.412495 171.114777,29.057766 
	C169.646561,30.718849 168.178345,32.379929 166.374313,34.063019 
	C165.560165,33.738022 165.081818,33.391018 164.338074,32.671173 
	C167.043961,28.525896 170.015244,24.753464 172.986526,20.981030 
z"/>
<path fill="#F49633" opacity="1.000000" stroke="none" 
	d="
M111.804276,97.721451 
	C111.040649,97.994598 110.080345,97.994598 108.257179,97.994598 
	C109.283867,95.576172 110.105392,93.641014 111.013336,91.013741 
	C112.402077,88.553726 113.704407,86.785820 115.006744,85.017914 
	C115.937172,85.640816 116.867592,86.263718 118.105789,87.066727 
	C116.631241,89.474831 114.764580,91.642433 113.105797,93.958885 
	C112.385925,94.964149 112.093933,96.275803 111.804276,97.721451 
z"/>
<path fill="#F5912D" opacity="1.000000" stroke="none" 
	d="
M72.590874,169.962051 
	C73.923668,170.958130 74.954323,172.112778 75.745544,173.633942 
	C75.506111,174.000473 75.012329,174.010681 74.688278,174.048965 
	C73.916893,174.734802 73.469566,175.382355 72.853394,176.272827 
	C72.129715,176.678360 71.574867,176.840973 71.020027,177.003571 
	C68.741714,177.721588 66.463402,178.439606 64.004738,178.897354 
	C66.645844,175.798248 69.467293,172.959427 72.590874,169.962051 
z"/>
<path fill="#FAB22E" opacity="1.000000" stroke="none" 
	d="
M185.331818,114.910660 
	C183.916367,114.366196 182.840866,113.727829 181.552704,112.743919 
	C183.219543,111.259453 185.099014,110.120522 186.978500,108.981583 
	C188.925064,107.788498 190.871613,106.595413 192.969543,105.080864 
	C192.946625,106.236580 193.306732,108.201630 192.491974,109.094162 
	C190.508820,111.266647 187.980499,112.941490 185.331818,114.910660 
z"/>
<path fill="#FACC2D" opacity="1.000000" stroke="none" 
	d="
M132.365280,150.979675 
	C130.072662,150.640091 128.116837,150.225571 126.411484,149.393280 
	C127.774193,148.047745 128.886444,147.120010 130.348877,146.145905 
	C131.776657,145.673279 132.854233,145.247009 133.931808,144.820740 
	C135.217712,145.251114 136.503632,145.681473 138.228378,146.179489 
	C136.678833,147.799683 134.690460,149.352219 132.365280,150.979675 
z"/>
<path fill="#F49633" opacity="1.000000" stroke="none" 
	d="
M55.966473,94.994080 
	C55.120056,94.422699 54.273640,93.851311 53.149780,93.114960 
	C54.096100,90.556412 55.319874,88.162842 56.798691,85.582977 
	C57.838814,86.245308 58.623890,87.093933 59.579506,88.280884 
	C58.827152,90.740067 57.904255,92.860931 56.727638,94.985229 
	C56.304771,94.990471 56.135620,94.992279 55.966473,94.994080 
z"/>
<path fill="#F9B41D" opacity="1.000000" stroke="none" 
	d="
M42.983765,201.186157 
	C45.799454,199.672195 48.537716,198.348480 51.549629,197.233337 
	C52.223057,197.965576 52.622837,198.489243 53.022621,199.012909 
	C49.947971,200.678223 46.873322,202.343521 43.403507,203.632507 
	C42.974277,202.766525 42.940212,202.276886 42.906143,201.787231 
	C42.906143,201.787231 42.906330,201.376419 42.983765,201.186157 
z"/>
<path fill="#F69927" opacity="1.000000" stroke="none" 
	d="
M83.029602,45.002941 
	C83.024506,46.066853 83.019417,47.130768 82.686142,48.640434 
	C81.578201,50.055492 80.798447,51.024792 80.018692,51.994095 
	C79.282814,51.007904 78.546944,50.021709 77.445618,49.038193 
	C78.235924,46.883495 79.391685,44.726120 80.786606,42.696526 
	C81.693718,43.550514 82.361656,44.276730 83.029602,45.002941 
z"/>
<path fill="#FBD226" opacity="1.000000" stroke="none" 
	d="
M33.587608,127.716507 
	C34.293182,131.554291 36.115555,128.307144 37.610687,128.334030 
	C38.581329,129.110611 39.299427,129.645035 40.017525,130.179459 
	C39.602734,131.271286 39.187946,132.363098 38.891167,133.731796 
	C34.356819,134.623535 32.379715,132.691315 33.587608,127.716507 
z"/>
<path fill="#F9A322" opacity="1.000000" stroke="none" 
	d="
M83.320404,44.858994 
	C82.361656,44.276730 81.693718,43.550514 81.030151,42.481140 
	C81.121597,41.809967 81.208664,41.481956 81.524994,41.026489 
	C83.100578,40.479454 84.446899,40.059883 85.793213,39.640308 
	C86.116264,39.833221 86.439308,40.026134 86.762352,40.219044 
	C85.711967,41.717712 84.661591,43.216381 83.320404,44.858994 
z"/>
<path fill="#FCAD1A" opacity="1.000000" stroke="none" 
	d="
M160.369049,40.907974 
	C158.678452,41.033607 157.264526,41.019951 155.426498,41.005928 
	C156.096252,37.654846 158.664993,37.791786 161.664886,38.532616 
	C161.506973,39.430759 161.076355,40.099720 160.369049,40.907974 
z"/>
<path fill="#FCFBED" opacity="1.000000" stroke="none" 
	d="
M144.645935,15.000320 
	C143.297424,15.657144 141.540909,16.291727 139.385742,16.875278 
	C140.737381,16.208857 142.487640,15.593469 144.645935,15.000320 
z"/>
<path fill="#F47427" opacity="1.000000" stroke="none" 
	d="
M36.599625,204.823517 
	C37.104828,206.367065 37.318020,208.056915 37.597668,210.273590 
	C36.580898,209.634949 35.486252,208.947388 34.097569,208.081131 
	C34.638226,206.924896 35.472919,205.947357 36.599625,204.823517 
z"/>
<path fill="#F47427" opacity="1.000000" stroke="none" 
	d="
M42.535164,201.841095 
	C42.940212,202.276886 42.974277,202.766525 43.011326,203.624695 
	C41.468231,204.043030 39.922153,204.092850 38.051266,204.009644 
	C39.205700,203.216049 40.684940,202.555511 42.535164,201.841095 
z"/>
<path fill="#F49633" opacity="1.000000" stroke="none" 
	d="
M121.469368,84.252930 
	C121.126205,83.863037 121.078583,83.330200 121.238586,82.296875 
	C121.717499,81.609230 121.915527,81.363121 122.040306,81.058060 
	C122.483215,81.041557 122.926132,81.025055 123.701233,81.016510 
	C123.277245,82.052979 122.521072,83.081474 121.469368,84.252930 
z"/>
<path fill="#F27A30" opacity="1.000000" stroke="none" 
	d="
M89.017326,177.993591 
	C89.017326,177.993591 89.503891,177.998917 89.764282,178.311707 
	C90.046982,178.829071 90.069283,179.033661 90.091576,179.238235 
	C89.368835,179.904404 88.646095,180.570557 87.632820,181.324127 
	C87.342285,181.411514 87.149864,181.178604 87.107346,180.758057 
	C87.715660,179.556198 88.366493,178.774887 89.017326,177.993591 
z"/>
<path fill="#FCFBED" opacity="1.000000" stroke="none" 
	d="
M144.131073,12.275743 
	C145.264023,12.094331 146.172592,12.094331 147.081146,12.094331 
	C147.059433,12.387111 147.037720,12.679891 147.015991,12.972671 
	C145.979553,12.800833 144.943115,12.628995 144.131073,12.275743 
z"/>
<path fill="#FCFBED" opacity="1.000000" stroke="none" 
	d="
M152.797760,14.910402 
	C152.388504,14.857599 151.979233,14.804797 151.271362,14.670167 
	C151.585098,14.299215 152.197433,14.010091 152.889648,14.147228 
	C152.969543,14.573490 152.797760,14.910402 152.797760,14.910402 
z"/>
<path fill="#F7E313" opacity="1.000000" stroke="none" 
	d="
M171.360413,28.909908 
	C171.292648,28.412495 171.470520,27.767225 171.975342,27.180302 
	C172.070221,27.746449 171.838135,28.254250 171.360413,28.909908 
z"/>
<path fill="#FCFBED" opacity="1.000000" stroke="none" 
	d="
M131.108795,14.358684 
	C130.835175,14.636798 130.428040,14.751591 130.012955,14.808830 
	C129.941147,14.818733 129.835724,14.584805 129.745819,14.463507 
	C130.154739,14.367629 130.563660,14.271750 131.108795,14.358684 
z"/>
<path fill="#FCFBED" opacity="1.000000" stroke="none" 
	d="
M139.107758,11.359196 
	C138.834259,11.637100 138.427383,11.751761 138.012558,11.808946 
	C137.940887,11.818826 137.835602,11.584947 137.745834,11.463667 
	C138.154449,11.367947 138.563049,11.272223 139.107758,11.359196 
z"/>
<path fill="#F9AD2C" opacity="1.000000" stroke="none" 
	d="
M78.229813,164.617859 
	C78.196365,164.994217 77.902176,165.456009 77.285873,165.942596 
	C77.298859,165.546036 77.633965,165.124680 78.229813,164.617859 
z"/>
<path fill="#F27E29" opacity="1.000000" stroke="none" 
	d="
M91.408844,178.175385 
	C91.496147,177.833450 91.918831,177.453140 92.653603,177.214035 
	C92.965698,177.355240 92.976997,177.666580 92.976997,177.666580 
	C92.566071,177.823395 92.155136,177.980194 91.408844,178.175385 
z"/>
<path fill="#FBE020" opacity="1.000000" stroke="none" 
	d="
M153.066086,14.943285 
	C152.797760,14.910402 152.969543,14.573490 153.018524,14.390999 
	C153.472977,14.250768 153.878479,14.293028 154.565338,14.453281 
	C154.342621,14.706239 153.838516,14.841204 153.066086,14.943285 
z"/>
<path fill="#F27E29" opacity="1.000000" stroke="none" 
	d="
M90.329735,179.112488 
	C90.069283,179.033661 90.046982,178.829071 90.007538,178.316467 
	C90.183670,178.014664 90.376938,178.020920 90.858383,178.072327 
	C90.953667,178.407242 90.760780,178.696976 90.329735,179.112488 
z"/>
<path fill="#F5912D" opacity="1.000000" stroke="none" 
	d="
M93.195526,177.646591 
	C92.976997,177.666580 92.965698,177.355240 92.959976,177.200073 
	C92.954247,177.044907 93.008018,176.995773 93.210800,176.958893 
	C93.413589,176.922028 93.754539,176.829437 93.754539,176.829437 
	C93.754539,176.829437 93.859062,176.901001 93.911285,176.936783 
	C93.883995,177.277664 93.700844,177.495682 93.195526,177.646591 
z"/>
<path fill="#F49633" opacity="1.000000" stroke="none" 
	d="
M120.153450,85.698341 
	C120.048058,85.470116 120.205200,85.288246 120.583725,85.082191 
	C120.776474,85.328133 120.646759,85.557030 120.153450,85.698341 
z"/>
<path fill="#FCFBED" opacity="1.000000" stroke="none" 
	d="
M129.468811,11.450064 
	C129.524139,11.417265 129.413498,11.482862 129.468811,11.450064 
z"/>
<path fill="#F5C214" opacity="1.000000" stroke="none" 
	d="
M53.143555,198.812195 
	C52.622837,198.489243 52.223057,197.965576 51.899891,197.177261 
	C56.123516,192.711609 60.270527,188.510605 65.054535,184.120972 
	C67.131699,182.307388 68.571861,180.682419 70.012024,179.057434 
	C70.012016,179.057434 70.477303,178.999649 71.086067,178.960571 
	C73.381584,178.260361 75.130241,177.722122 76.741112,176.910431 
	C79.409378,175.565903 81.124542,176.212631 81.828339,179.300385 
	C80.093018,180.705734 78.564781,181.854706 77.036537,183.003693 
	C77.036537,183.003693 76.947876,183.406876 76.602386,183.694153 
	C74.827995,184.975555 73.399101,185.969696 71.970207,186.963837 
	C66.574562,190.296188 61.178928,193.628555 55.194569,197.095520 
	C54.408394,197.506485 54.210941,197.782837 54.013489,198.059204 
	C53.719894,198.183716 53.470230,198.367798 53.143555,198.812195 
z"/>
<path fill="#F27E29" opacity="1.000000" stroke="none" 
	d="
M77.407608,183.003021 
	C78.564781,181.854706 80.093018,180.705734 82.068794,179.288574 
	C82.516327,179.020401 82.997353,178.985733 83.221649,178.887207 
	C83.728760,178.596893 83.917564,178.336838 84.005722,178.004639 
	C83.999084,178.000732 84.008751,178.015274 84.351616,177.979797 
	C85.786232,177.620193 86.877991,177.296066 87.969742,176.971954 
	C88.239258,177.164886 88.508774,177.357819 88.897812,177.772171 
	C88.366493,178.774887 87.715660,179.556198 87.008179,180.644119 
	C83.893906,181.634613 80.836296,182.318481 77.407608,183.003021 
z"/>
<path fill="#F27E29" opacity="1.000000" stroke="none" 
	d="
M72.252869,187.071472 
	C73.399101,185.969696 74.827995,184.975555 76.584183,183.899750 
	C75.452827,184.938416 73.994179,186.058762 72.252869,187.071472 
z"/>
<path fill="#F9B41D" opacity="1.000000" stroke="none" 
	d="
M54.248478,197.957794 
	C54.210941,197.782837 54.408394,197.506485 54.849358,197.138672 
	C54.889736,197.316925 54.686604,197.586655 54.248478,197.957794 
z"/>
<path fill="#F47427" opacity="1.000000" stroke="none" 
	d="
M38.553154,206.465240 
	C38.588520,206.523514 38.517784,206.406967 38.553154,206.465240 
z"/>
<path fill="#FDC010" opacity="1.000000" stroke="none" 
	d="
M173.174057,20.719086 
	C170.015244,24.753464 167.043961,28.525896 164.027481,32.650902 
	C157.850632,32.910191 151.718750,32.827812 145.587402,32.716652 
	C143.861313,32.685360 142.136734,32.569645 140.338440,31.922586 
	C141.799744,30.210157 143.334061,29.067793 145.235352,27.942888 
	C146.692749,26.629074 147.783173,25.297800 148.873596,23.966528 
	C148.682495,23.749454 148.491394,23.532381 148.300293,23.315310 
	C149.193420,22.201761 150.086563,21.088213 150.979706,19.974667 
	C151.454086,19.660727 151.928452,19.346785 152.699463,19.001869 
	C153.746384,18.971128 154.496689,18.971365 156.051300,18.974594 
	C160.905563,18.321548 164.955505,17.665510 169.005432,17.009470 
	C169.005432,17.009470 169.001221,17.000511 169.421417,17.002522 
	C171.227676,16.994852 172.613754,16.985170 173.999817,16.975489 
	C176.316879,18.300640 176.303116,18.375662 173.174057,20.719086 
z"/>
<path fill="#FBC014" opacity="1.000000" stroke="none" 
	d="
M87.997101,34.997757 
	C87.998367,34.556904 87.999634,34.116051 88.002846,33.344864 
	C89.847366,31.276340 91.517540,29.288061 93.578819,27.867168 
	C95.841660,26.307343 98.371880,24.477184 100.950943,24.174707 
	C105.944557,23.589048 111.054085,23.991848 116.845169,24.009232 
	C118.055405,24.335655 118.536041,24.637838 118.577003,24.961851 
	C113.002213,25.647177 107.848549,26.197212 102.741394,27.031809 
	C100.786674,27.351242 98.938271,28.321198 96.888901,29.313818 
	C96.146545,31.410774 95.556709,33.188625 94.712990,35.080948 
	C93.974121,35.469353 93.489143,35.743290 93.004173,36.017227 
	C91.595634,35.678173 90.187096,35.339111 88.389282,35.000027 
	C88.000000,35.000000 87.997101,34.997757 87.997101,34.997757 
z"/>
<path fill="#FBC117" opacity="1.000000" stroke="none" 
	d="
M150.583130,19.978668 
	C150.086563,21.088213 149.193420,22.201761 148.300293,23.315310 
	C148.491394,23.532381 148.682495,23.749454 148.873596,23.966528 
	C147.783173,25.297800 146.692749,26.629074 145.267700,27.552492 
	C144.038925,21.764172 139.680740,24.873571 137.042053,23.582043 
	C138.069595,22.502636 139.042496,21.743834 140.015381,20.985031 
	C141.428528,20.659407 142.841675,20.333780 144.774780,20.236477 
	C145.866455,20.310137 146.438171,20.155479 147.009872,20.000820 
	C148.068756,19.994772 149.127655,19.988724 150.583130,19.978668 
z"/>
<path fill="#FBC117" opacity="1.000000" stroke="none" 
	d="
M119.016678,24.940022 
	C118.536041,24.637838 118.055405,24.335655 117.277557,24.011974 
	C118.727898,23.325674 120.427612,22.389578 122.236160,22.070627 
	C124.130493,21.736549 126.129326,21.995045 128.690002,22.237034 
	C129.868851,22.957886 130.440170,23.436241 130.571228,23.939768 
	C126.414124,24.331121 122.697304,24.697306 118.990387,25.032873 
	C119.000290,25.002256 119.016678,24.940020 119.016678,24.940022 
z"/>
<path fill="#FDC010" opacity="1.000000" stroke="none" 
	d="
M131.011505,23.914597 
	C130.440170,23.436241 129.868851,22.957886 129.148834,22.238787 
	C132.376755,21.659504 135.753326,21.320967 139.572647,20.983730 
	C139.042496,21.743834 138.069595,22.502636 136.616318,23.615070 
	C134.427780,23.950668 132.719650,23.932632 131.011505,23.914597 
z"/>
<path fill="#FDC010" opacity="1.000000" stroke="none" 
	d="
M146.674377,19.996166 
	C146.438171,20.155479 145.866455,20.310137 145.146088,20.242044 
	C145.444565,20.010033 145.891724,20.000772 146.674377,19.996166 
z"/>
<path fill="#FAB318" opacity="1.000000" stroke="none" 
	d="
M98.954689,72.968414 
	C98.523903,72.978790 98.093109,72.989166 96.980682,73.035706 
	C94.541939,73.924858 92.784828,74.777847 90.811096,75.736000 
	C88.812302,71.238472 85.111938,71.851082 81.200157,72.310104 
	C79.535233,72.505478 77.724945,71.461952 75.986374,70.593491 
	C77.993408,65.469963 79.994774,60.734371 82.242355,55.997177 
	C82.488564,55.995571 82.980965,55.990990 83.218796,56.265968 
	C88.347664,57.977329 93.216240,59.497211 98.137688,60.820503 
	C101.378296,61.691849 104.695076,62.279972 107.980743,63.243446 
	C107.983742,63.491978 107.988060,63.989059 107.682266,64.128479 
	C104.569214,67.168068 101.761955,70.068245 98.954689,72.968414 
z"/>
<path fill="#F9A81A" opacity="1.000000" stroke="none" 
	d="
M75.980713,70.981430 
	C77.724945,71.461952 79.535233,72.505478 81.200157,72.310104 
	C85.111938,71.851082 88.812302,71.238472 90.811096,75.736000 
	C92.784828,74.777847 94.541939,73.924858 96.657211,73.040756 
	C95.358994,75.101006 93.702606,77.192368 91.687607,79.774132 
	C89.209366,82.170998 87.089737,84.077461 84.674110,86.139114 
	C82.268616,87.874084 80.159119,89.453857 77.697311,90.990501 
	C72.899414,90.964378 68.453827,90.981384 64.005196,90.670059 
	C64.007858,89.904335 64.013565,89.466957 64.019272,89.029572 
	C64.570984,88.850304 65.122704,88.671036 66.133591,88.216095 
	C66.727020,87.293221 66.861290,86.646011 66.995552,85.998810 
	C69.300079,81.238365 71.604607,76.477928 74.278992,71.358170 
	C75.092804,70.993057 75.536758,70.987244 75.980713,70.981430 
z"/>
<path fill="#F7911E" opacity="1.000000" stroke="none" 
	d="
M99.390877,72.979996 
	C101.761955,70.068245 104.569214,67.168068 108.066269,64.297951 
	C111.521797,64.552002 114.284073,64.890709 117.054031,64.974007 
	C121.584938,65.110237 126.329033,64.179939 129.990479,67.992004 
	C128.230438,69.643456 126.470398,71.294914 124.371124,72.988602 
	C115.963608,73.017738 107.895332,73.004654 99.390877,72.979996 
z"/>
<path fill="#F4801F" opacity="1.000000" stroke="none" 
	d="
M84.970116,85.983925 
	C87.089737,84.077461 89.209366,82.170998 91.644318,80.117737 
	C97.708412,80.314018 103.488052,80.412361 109.189430,81.131317 
	C111.218353,81.387169 113.057304,83.149597 114.994858,84.621109 
	C113.704407,86.785820 112.402077,88.553726 111.050743,90.660019 
	C110.559555,91.002769 110.117371,91.007126 109.273247,90.650543 
	C105.285301,89.193077 101.762749,87.729836 98.096771,87.095413 
	C93.786194,86.349442 89.351173,86.322617 84.970116,85.983925 
z"/>
<path fill="#F2742B" opacity="1.000000" stroke="none" 
	d="
M121.895912,80.889038 
	C121.915527,81.363121 121.717499,81.609230 121.228378,81.896011 
	C121.257530,81.570427 121.504524,81.145226 121.895912,80.889038 
z"/>
<path fill="#F2742B" opacity="1.000000" stroke="none" 
	d="
M122.006714,78.005020 
	C121.911499,78.038948 121.816277,78.072876 121.860535,78.053406 
	C122.000000,78.000000 122.006714,78.005020 122.006714,78.005020 
z"/>
<path fill="#F2742B" opacity="1.000000" stroke="none" 
	d="
M123.001144,77.001518 
	C122.900833,77.324905 122.714180,77.585823 122.224518,77.895401 
	C122.006714,78.005020 122.000000,78.000000 121.997459,77.996635 
	C122.100754,77.673668 122.289383,77.414284 122.778900,77.106430 
	C122.996986,76.997749 123.000000,77.000000 123.001144,77.001518 
z"/>
<path fill="#FDD347" opacity="1.000000" stroke="none" 
	d="
M97.041420,28.994713 
	C98.938271,28.321198 100.786674,27.351242 102.741394,27.031809 
	C107.848549,26.197212 113.002213,25.647177 118.577003,24.961849 
	C119.016678,24.940020 119.000290,25.002256 118.929855,25.388325 
	C117.933388,27.658640 114.683319,30.684923 119.538452,30.754349 
	C124.967056,30.831976 129.718521,31.705587 133.999298,35.257545 
	C134.004715,35.691998 134.007462,35.865772 134.010208,36.039543 
	C133.514343,36.598793 133.018494,37.158043 131.863052,37.853203 
	C124.459381,36.671432 117.722397,35.315754 110.968361,34.051144 
	C107.254097,33.355698 103.009476,34.181717 100.774673,29.696402 
	C100.433815,29.012304 98.329887,29.206659 97.041420,28.994713 
z"/>
<path fill="#FCAD1A" opacity="1.000000" stroke="none" 
	d="
M152.709717,41.708290 
	C151.335312,44.087269 149.667358,46.167912 147.623474,48.662315 
	C144.170288,50.292446 141.355118,50.246632 137.919235,49.429390 
	C133.170639,48.299908 127.976822,49.042175 123.112221,48.700005 
	C124.156563,47.274315 125.062370,46.131454 126.240677,44.869522 
	C127.002937,44.148647 127.492699,43.546848 128.248352,42.783699 
	C129.328110,42.074306 130.141998,41.526264 130.955872,40.978222 
	C138.109299,41.122131 145.262726,41.266045 152.709717,41.708290 
z"/>
<path fill="#FDD54F" opacity="1.000000" stroke="none" 
	d="
M133.996643,34.996864 
	C129.718521,31.705587 124.967056,30.831976 119.538452,30.754349 
	C114.683319,30.684923 117.933388,27.658640 118.919952,25.418941 
	C122.697304,24.697306 126.414124,24.331121 130.571228,23.939766 
	C132.719650,23.932632 134.427780,23.950668 136.561676,23.935677 
	C139.680740,24.873571 144.038925,21.764172 144.900726,27.535032 
	C143.334061,29.067793 141.799744,30.210157 140.122696,31.646168 
	C139.084915,32.450909 138.189880,32.962013 136.787811,33.734653 
	C135.519394,34.329750 134.758026,34.663307 133.996643,34.996864 
z"/>
<path fill="#FDD041" opacity="1.000000" stroke="none" 
	d="
M130.996567,40.663048 
	C130.141998,41.526264 129.328110,42.074306 128.063995,42.458206 
	C121.534515,40.862591 115.465057,39.387802 109.372940,38.013485 
	C104.585434,36.933472 99.769943,35.977535 94.966881,34.966480 
	C95.556709,33.188625 96.146545,31.410774 96.888901,29.313818 
	C98.329887,29.206659 100.433815,29.012304 100.774673,29.696402 
	C103.009476,34.181717 107.254097,33.355698 110.968361,34.051144 
	C117.722397,35.315754 124.459381,36.671432 131.623077,38.006699 
	C131.707550,38.798817 131.372406,39.573345 130.996567,40.663048 
z"/>
<path fill="#FDD041" opacity="1.000000" stroke="none" 
	d="
M133.999298,35.257545 
	C134.758026,34.663307 135.519394,34.329750 136.612183,33.987648 
	C136.179138,34.643456 135.414688,35.307808 134.330231,36.005852 
	C134.007462,35.865772 134.004715,35.691998 133.999298,35.257545 
z"/>
<path fill="#EE5D23" opacity="1.000000" stroke="none" 
	d="
M187.089966,108.681648 
	C185.099014,110.120522 183.219543,111.259453 181.237686,112.713600 
	C181.135300,113.028816 181.018890,113.471733 180.655182,113.711349 
	C179.510544,114.286247 178.729614,114.621521 177.948685,114.956802 
	C175.210678,116.640099 172.472672,118.323387 169.162750,119.751709 
	C165.087982,120.013306 161.585129,120.529861 157.705200,120.879372 
	C152.320435,120.430038 147.173630,119.309647 142.345703,120.110802 
	C137.881531,120.851601 133.977219,121.882011 130.543808,118.354362 
	C128.051651,118.871048 124.928528,123.122322 124.432213,117.024963 
	C127.561531,116.665970 130.273575,116.316154 133.398468,115.975266 
	C141.207748,114.655830 148.604172,113.327461 156.419586,112.000343 
	C160.911682,111.113098 164.984787,110.224602 169.057907,109.336105 
	C169.027679,108.869690 168.997437,108.403282 168.967209,107.936867 
	C166.992554,107.011330 165.017914,106.085793 163.043259,105.160263 
	C169.909790,105.483177 176.784012,105.704391 183.635773,106.222610 
	C184.871689,106.316086 186.015244,107.630821 187.089966,108.681648 
z"/>
<path fill="#E74424" opacity="1.000000" stroke="none" 
	d="
M156.000610,111.999084 
	C148.604172,113.327461 141.207748,114.655830 133.438568,115.625595 
	C134.081512,113.640610 135.198822,112.067505 136.086716,110.374115 
	C137.153381,108.339783 138.024689,106.203018 138.980576,104.110603 
	C139.152313,104.066872 139.324066,104.023140 140.082428,103.969879 
	C141.110428,103.948608 141.551804,103.936867 141.993179,103.925140 
	C142.744339,103.960938 143.495514,103.996735 144.622726,104.018356 
	C148.698669,104.346809 152.398560,104.689445 156.536804,105.453949 
	C156.650314,107.916901 156.325470,109.957993 156.000610,111.999084 
z"/>
<path fill="#E95123" opacity="1.000000" stroke="none" 
	d="
M156.419586,112.000336 
	C156.325470,109.957993 156.650314,107.916901 156.977264,105.492050 
	C158.711258,105.097244 160.443130,105.086197 162.609131,105.117706 
	C165.017914,106.085793 166.992554,107.011330 168.967209,107.936867 
	C168.997437,108.403282 169.027679,108.869690 169.057907,109.336105 
	C164.984787,110.224602 160.911682,111.113098 156.419586,112.000336 
z"/>
<path fill="#D92225" opacity="1.000000" stroke="none" 
	d="
M101.178261,101.576424 
	C103.476028,101.721725 105.773788,101.867020 108.294937,102.302315 
	C107.629173,102.861572 106.740013,103.130836 106.858109,103.095070 
	C107.411057,104.470276 108.676231,106.365784 108.277260,106.829498 
	C105.858681,109.640549 102.995003,112.061783 100.410599,114.739288 
	C98.501450,116.717201 96.790962,118.886879 94.594612,121.031738 
	C89.787048,122.043144 85.376839,122.993927 80.638962,123.950012 
	C79.874496,123.966843 79.437698,123.978378 78.597603,123.988121 
	C76.460960,124.316635 74.727623,124.646927 72.552773,124.976196 
	C65.642883,125.855919 59.190128,126.887215 52.700245,127.560745 
	C48.829517,127.962448 44.900517,127.802658 41.351494,127.878067 
	C44.131302,126.569633 46.557323,125.278412 48.983349,123.987190 
	C48.983349,123.987190 48.998482,124.001297 49.225529,123.896866 
	C49.744064,123.609581 49.951920,123.357704 50.076134,123.036789 
	C55.577698,120.878731 61.079262,118.720673 67.145004,116.225945 
	C69.897209,114.855110 72.088646,113.828110 74.272430,112.785095 
	C77.530708,111.228889 80.783577,109.661377 84.399567,108.032997 
	C89.515450,105.918968 94.270508,103.870613 99.389282,101.848358 
	C100.228088,101.775108 100.703171,101.675766 101.178261,101.576424 
z"/>
<path fill="#EF6322" opacity="1.000000" stroke="none" 
	d="
M84.038750,108.098671 
	C80.783577,109.661377 77.530708,111.228889 74.272430,112.785095 
	C72.088646,113.828110 69.897209,114.855110 67.358887,115.947845 
	C66.413612,115.482109 65.901764,114.742043 65.207802,114.474731 
	C63.272953,113.729431 61.262600,113.180138 59.157280,111.928375 
	C59.362537,110.541077 59.692566,109.778854 60.271324,109.011276 
	C60.520058,109.005913 61.018101,109.004272 61.246872,108.993408 
	C61.653500,108.656120 61.831360,108.329697 62.152985,107.695724 
	C64.155472,106.229935 66.014183,105.071686 68.265846,103.938477 
	C72.132004,104.807388 75.615417,105.612022 79.074036,106.511978 
	C80.752892,106.948830 82.385307,107.564148 84.038750,108.098671 
z"/>
<path fill="#F26B21" opacity="1.000000" stroke="none" 
	d="
M55.935997,95.354309 
	C56.135620,94.992279 56.304771,94.990471 56.992794,95.166412 
	C58.355652,95.898041 59.199638,96.451904 60.031952,97.375977 
	C60.006573,98.485870 59.992870,99.225555 59.634979,100.024979 
	C57.187160,103.723709 55.083527,107.362709 52.979889,111.001701 
	C52.146038,110.120445 51.312187,109.239189 50.213730,108.151123 
	C51.934589,103.867714 53.920052,99.791130 55.935997,95.354309 
z"/>
<path fill="#F89221" opacity="1.000000" stroke="none" 
	d="
M52.925503,111.346481 
	C55.083527,107.362709 57.187160,103.723709 59.642841,100.429443 
	C59.585136,102.248985 58.878384,103.719353 58.856243,105.199959 
	C58.837311,106.466087 59.603607,107.743958 60.022598,109.016640 
	C59.692566,109.778854 59.362537,110.541077 59.002693,111.612251 
	C56.615025,113.328369 54.257175,114.735527 51.899330,116.142685 
	C51.602650,115.820503 51.305973,115.498322 51.009296,115.176140 
	C51.629902,114.014519 52.250507,112.852890 52.925503,111.346481 
z"/>
<path fill="#EC5125" opacity="1.000000" stroke="none" 
	d="
M48.609596,123.912186 
	C46.557323,125.278412 44.131302,126.569633 41.320660,127.574432 
	C40.566311,126.828262 40.196583,126.368507 39.826855,125.908745 
	C40.483654,124.803818 41.140453,123.698898 42.137951,122.175903 
	C42.737820,121.545578 42.897614,121.274681 42.958038,120.945137 
	C42.958038,120.945137 42.959881,120.962952 42.943718,120.952682 
	C44.069027,119.989609 45.210491,119.036797 46.675980,118.041992 
	C47.411945,119.945724 47.823895,121.891449 48.609596,123.912186 
z"/>
<path fill="#EC5125" opacity="1.000000" stroke="none" 
	d="
M47.284428,117.965286 
	C47.302395,117.489670 47.604786,116.979332 47.907177,116.469002 
	C48.116772,116.650909 48.326363,116.832825 48.535954,117.014732 
	C48.213589,117.320015 47.891224,117.625298 47.284428,117.965286 
z"/>
<path fill="#EC5125" opacity="1.000000" stroke="none" 
	d="
M49.840202,123.122330 
	C49.951920,123.357704 49.744064,123.609581 49.223419,123.887489 
	C49.197598,123.724319 49.400932,123.466087 49.840202,123.122330 
z"/>
<path fill="#F8971B" opacity="1.000000" stroke="none" 
	d="
M75.986374,70.593491 
	C75.536758,70.987244 75.092804,70.993057 74.315292,71.000809 
	C73.219917,71.002289 72.458107,71.001831 71.313126,70.996742 
	C73.391998,66.100037 75.854034,61.207966 79.001144,56.150703 
	C80.456192,55.989937 81.226166,55.994358 81.996140,55.998779 
	C79.994774,60.734371 77.993408,65.469963 75.986374,70.593491 
z"/>
<path fill="#F37620" opacity="1.000000" stroke="none" 
	d="
M60.043625,97.005775 
	C59.199638,96.451904 58.355652,95.898041 57.246510,95.162979 
	C57.904255,92.860931 58.827152,90.740067 59.898933,88.302170 
	C61.509338,86.474266 62.959698,85.076012 63.982048,88.700493 
	C64.013565,89.466957 64.007858,89.904335 63.948013,91.006470 
	C62.610455,93.449409 61.327038,95.227592 60.043625,97.005775 
z"/>
<path fill="#F99E1D" opacity="1.000000" stroke="none" 
	d="
M66.751175,86.167152 
	C66.861290,86.646011 66.727020,87.293221 66.300705,87.971519 
	C66.174698,87.446907 66.340744,86.891205 66.751175,86.167152 
z"/>
<path fill="#EC4F23" opacity="1.000000" stroke="none" 
	d="
M39.597073,126.073685 
	C40.196583,126.368507 40.566311,126.828262 40.966873,127.591644 
	C44.900517,127.802658 48.829517,127.962448 52.700245,127.560745 
	C59.190128,126.887215 65.642883,125.855919 72.565720,125.367172 
	C74.159660,126.482834 75.926620,128.059982 76.320915,127.770081 
	C77.502159,126.901634 78.146805,125.303322 79.000900,123.989906 
	C79.437698,123.978378 79.874496,123.966843 80.853592,124.227722 
	C82.874756,125.207634 84.353607,125.915123 86.011818,126.708412 
	C87.712509,124.025505 89.636841,122.778305 92.642792,125.428909 
	C93.732353,126.389656 95.720222,126.706833 97.290207,126.686928 
	C107.748207,126.554298 118.203911,126.155838 128.660812,126.140099 
	C129.788376,126.138405 130.918823,128.035736 132.021973,129.039215 
	C131.996033,129.026260 132.051041,129.033188 131.821960,129.123657 
	C131.306900,129.401123 131.110703,129.656952 130.625168,130.002319 
	C124.214958,131.892380 118.367386,134.044327 114.663971,139.997833 
	C112.993713,140.364639 111.617874,140.684860 110.242035,141.005081 
	C111.688477,138.942276 113.134911,136.879471 115.265739,133.840637 
	C107.006470,133.489960 99.470024,133.169968 91.465485,132.877136 
	C90.575256,132.870697 90.153114,132.837097 89.069954,132.576721 
	C79.927956,131.868942 71.446976,131.387970 62.755516,130.666046 
	C61.365330,130.549362 60.185627,130.673599 59.010887,130.881622 
	C59.015846,130.965439 59.048077,131.130203 59.048077,131.130188 
	C58.595558,131.092285 58.143040,131.054382 56.922882,130.973236 
	C51.102539,130.682861 46.049831,130.435684 40.997124,130.188522 
	C40.997124,130.188522 40.507980,130.110672 40.262753,130.145065 
	C39.299427,129.645035 38.581329,129.110611 37.944256,128.288544 
	C38.472622,127.413475 38.919956,126.826050 39.597073,126.073685 
M80.587563,127.516998 
	C80.587563,127.516998 80.476837,127.582954 80.587563,127.516998 
z"/>
<path fill="#F17643" opacity="1.000000" stroke="none" 
	d="
M110.051041,141.257156 
	C111.617874,140.684860 112.993713,140.364639 114.852524,140.244629 
	C118.117256,140.712616 120.671005,141.318100 123.484604,139.336746 
	C124.814278,138.400391 127.889847,139.943268 130.552338,140.432251 
	C132.338409,136.620575 136.308914,137.728210 139.822769,138.286926 
	C136.412949,141.099564 133.205826,143.645920 129.998688,146.192261 
	C128.886444,147.120010 127.774193,148.047745 126.351608,149.059143 
	C125.872276,149.124100 125.703285,149.105423 125.304527,148.733398 
	C125.972115,147.304947 126.869469,146.229797 127.908844,144.984497 
	C121.113693,144.617325 114.470711,144.258377 107.827728,143.899414 
	C108.505165,143.102692 109.182602,142.305969 110.051041,141.257156 
z"/>
<path fill="#F27C3B" opacity="1.000000" stroke="none" 
	d="
M107.617615,143.925690 
	C114.470711,144.258377 121.113693,144.617325 127.908844,144.984497 
	C126.869469,146.229797 125.972115,147.304947 125.049500,148.734772 
	C124.528503,149.655731 124.032768,150.222015 123.027351,150.706558 
	C122.517670,149.572693 122.517670,148.520554 122.517670,148.073135 
	C116.502724,148.388733 110.748260,148.690674 105.149094,148.684235 
	C105.866013,146.923401 106.427643,145.470932 106.989273,144.018478 
	C106.989265,144.018478 107.407501,143.951950 107.617615,143.925690 
z"/>
<path fill="#EF6322" opacity="1.000000" stroke="none" 
	d="
M106.643326,144.142380 
	C106.427643,145.470932 105.866013,146.923401 104.863266,148.824249 
	C103.271889,150.507874 102.121643,151.743134 100.634659,153.038513 
	C99.852425,154.045273 99.406921,154.991913 98.634354,155.949219 
	C97.870697,155.971085 97.434113,155.982300 96.741829,155.799271 
	C96.336128,154.781494 96.186119,153.957977 96.036110,153.134460 
	C97.378395,151.046341 98.720680,148.958221 100.109612,146.519501 
	C102.203293,145.534683 104.250328,144.900482 106.643326,144.142380 
z"/>
<path fill="#FBD226" opacity="1.000000" stroke="none" 
	d="
M62.965996,130.906982 
	C71.446976,131.387970 79.927956,131.868942 88.752121,132.585297 
	C85.676964,133.205307 82.230835,134.068649 78.846260,133.872101 
	C72.362404,133.495560 65.913513,132.516800 59.249100,131.459045 
	C59.048077,131.130203 59.015846,130.965439 59.402821,130.950287 
	C60.848530,130.925766 61.907261,130.916382 62.965996,130.906982 
z"/>
<path fill="#FBD226" opacity="1.000000" stroke="none" 
	d="
M41.089684,130.544525 
	C46.049831,130.435684 51.102539,130.682861 56.582626,130.998886 
	C55.034348,131.711426 53.021172,132.977051 51.091358,132.860641 
	C47.761024,132.659775 44.482506,131.599960 41.089684,130.544525 
z"/>
<path fill="#F4B518" opacity="1.000000" stroke="none" 
	d="
M82.997353,178.985733 
	C82.997353,178.985733 82.516327,179.020401 82.275864,179.032196 
	C81.124542,176.212631 79.409378,175.565903 76.741112,176.910431 
	C75.130241,177.722122 73.381584,178.260361 71.320099,178.946747 
	C70.958687,178.534515 70.972015,178.097031 71.002686,177.331558 
	C71.574867,176.840973 72.129715,176.678360 73.148567,176.241028 
	C74.082420,175.649658 74.552254,175.333008 75.266663,175.008514 
	C75.511230,175.000687 76.000610,174.999390 76.000610,174.999390 
	C76.787697,174.354675 77.574776,173.709976 78.995499,172.989273 
	C80.088814,172.278458 80.548492,171.643646 81.008179,171.008820 
	C82.144096,170.105484 83.280014,169.202133 84.958252,168.152496 
	C85.500572,168.006210 85.999062,168.003860 86.220543,168.271774 
	C89.168976,169.670395 90.133873,170.983032 87.418045,173.389648 
	C86.016129,174.631927 85.128662,176.454758 84.008751,178.015274 
	C84.008751,178.015274 83.999084,178.000732 83.783852,178.106308 
	C83.292465,178.406555 83.102043,178.664505 82.997353,178.985733 
z"/>
<path fill="#F4B518" opacity="1.000000" stroke="none" 
	d="
M69.666641,179.071747 
	C68.571861,180.682419 67.131699,182.307388 65.348648,183.966278 
	C66.444252,182.362152 67.882759,180.724106 69.666641,179.071747 
z"/>
<path fill="#DD2B25" opacity="1.000000" stroke="none" 
	d="
M94.991966,120.971123 
	C96.790962,118.886879 98.501450,116.717201 100.410599,114.739288 
	C102.995003,112.061783 105.858681,109.640549 108.277260,106.829498 
	C108.676231,106.365784 107.411057,104.470276 106.858109,103.095070 
	C106.740013,103.130836 107.629173,102.861572 108.725815,102.360382 
	C109.698845,102.088425 110.464371,102.048409 111.609749,101.962128 
	C116.041573,102.290970 120.093544,102.666084 124.718399,103.379822 
	C123.526321,111.000832 119.086121,114.937500 110.252960,114.034927 
	C111.658882,116.085205 112.330246,117.064278 112.603256,118.087280 
	C106.467255,119.077843 100.729614,120.024483 94.991966,120.971123 
z"/>
<path fill="#E13825" opacity="1.000000" stroke="none" 
	d="
M113.001617,118.043350 
	C112.330246,117.064278 111.658882,116.085205 110.252960,114.034927 
	C119.086121,114.937500 123.526321,111.000832 125.154770,103.433548 
	C129.371841,103.440002 133.725418,103.731369 138.529785,104.066666 
	C138.024689,106.203018 137.153381,108.339783 136.086716,110.374115 
	C135.198822,112.067505 134.081512,113.640610 133.025726,115.616653 
	C130.273575,116.316154 127.561531,116.665970 124.092812,117.015678 
	C122.557022,117.341415 121.777901,117.667274 120.625198,117.995621 
	C119.504791,118.006065 118.757980,118.014015 117.662048,118.019722 
	C115.875832,118.026100 114.438728,118.034721 113.001617,118.043350 
z"/>
<path fill="#FAA72D" opacity="1.000000" stroke="none" 
	d="
M141.955017,103.638458 
	C141.551804,103.936867 141.110428,103.948608 140.341339,103.909607 
	C140.337997,103.378334 140.662369,102.897812 140.986740,102.417290 
	C141.296783,102.728790 141.606812,103.040291 141.955017,103.638458 
z"/>
<path fill="#FAA72D" opacity="1.000000" stroke="none" 
	d="
M138.467636,101.450020 
	C138.522919,101.417145 138.412354,101.482895 138.467636,101.450020 
z"/>
<path fill="#FAA21A" opacity="1.000000" stroke="none" 
	d="
M122.973679,48.982834 
	C127.976822,49.042175 133.170639,48.299908 137.919235,49.429390 
	C141.355118,50.246632 144.170288,50.292446 147.614502,49.031525 
	C147.100555,49.993763 146.304321,51.095131 145.314804,51.980503 
	C144.344269,52.848896 143.177155,53.497601 142.049683,54.614639 
	C140.872635,55.918442 139.742249,56.850330 138.091019,57.704681 
	C129.973892,59.735748 122.488777,57.919361 115.123764,56.694225 
	C116.841133,54.598671 118.413353,52.796318 120.249252,50.823009 
	C121.333176,50.095646 122.153427,49.539238 122.973679,48.982834 
z"/>
<path fill="#F99A1D" opacity="1.000000" stroke="none" 
	d="
M114.978607,56.987427 
	C122.488777,57.919361 129.973892,59.735748 137.797104,57.838661 
	C135.383667,61.142078 132.743286,64.233978 130.046692,67.658943 
	C126.329033,64.179939 121.584938,65.110237 117.054031,64.974007 
	C114.284073,64.890709 111.521797,64.552002 108.372063,64.158531 
	C107.988060,63.989059 107.983742,63.491978 108.128250,62.956703 
	C109.521065,60.961643 110.769386,59.501858 112.308060,57.909065 
	C113.391815,57.513180 114.185211,57.250301 114.978607,56.987427 
z"/>
<path fill="#E95123" opacity="1.000000" stroke="none" 
	d="
M130.348877,146.145905 
	C133.205826,143.645920 136.412949,141.099564 140.118622,138.159332 
	C141.749649,137.122925 142.882111,136.480392 144.254211,135.847382 
	C144.493835,135.856903 144.972412,135.825195 144.973328,136.091217 
	C144.969711,136.534546 144.965164,136.711838 144.960632,136.889114 
	C141.420593,139.360565 137.880569,141.832031 134.136169,144.562119 
	C132.854233,145.247009 131.776657,145.673279 130.348877,146.145905 
z"/>
<path fill="#EF6322" opacity="1.000000" stroke="none" 
	d="
M145.281097,136.782898 
	C144.965164,136.711838 144.969711,136.534546 145.136642,135.809082 
	C147.856354,133.830414 150.413681,132.399887 153.019897,131.020630 
	C153.068802,131.071884 153.165756,131.175217 153.165756,131.175217 
	C150.644363,133.009033 148.122971,134.842850 145.281097,136.782898 
z"/>
<path fill="#EF6322" opacity="1.000000" stroke="none" 
	d="
M158.074203,127.059853 
	C158.035721,127.475502 157.997223,127.891144 157.906799,128.614868 
	C157.241089,129.029541 156.627319,129.136108 155.600006,129.201233 
	C155.186493,129.159790 154.987091,128.983429 155.131989,128.692108 
	C156.209320,127.953804 157.141754,127.506828 158.074203,127.059853 
z"/>
<path fill="#EF6322" opacity="1.000000" stroke="none" 
	d="
M155.289825,129.243698 
	C154.844727,129.887955 154.296265,130.448288 153.456787,131.091919 
	C153.165756,131.175217 153.068802,131.071884 153.060837,130.701447 
	C153.697601,129.881805 154.342346,129.432617 154.987091,128.983429 
	C154.987091,128.983429 155.186493,129.159790 155.289825,129.243698 
z"/>
<path fill="#FBE020" opacity="1.000000" stroke="none" 
	d="
M168.636581,17.002243 
	C164.955505,17.665510 160.905563,18.321548 156.426239,18.963377 
	C156.993683,16.241684 161.717667,14.815194 165.543732,16.071068 
	C166.454681,16.370083 167.359879,16.686567 168.636581,17.002243 
z"/>
<path fill="#FBE020" opacity="1.000000" stroke="none" 
	d="
M173.987122,16.588978 
	C172.613754,16.985170 171.227676,16.994852 169.426239,17.007513 
	C169.624207,16.027208 170.237549,15.043926 170.850891,14.060648 
	C171.892075,14.774590 172.933258,15.488530 173.987122,16.588978 
z"/>
<path fill="#F9A322" opacity="1.000000" stroke="none" 
	d="
M82.242355,55.997177 
	C81.226166,55.994358 80.456192,55.989937 79.298889,55.973335 
	C79.181992,54.850136 79.452423,53.739113 79.870773,52.311089 
	C80.798447,51.024792 81.578201,50.055492 82.685898,49.039406 
	C83.760185,48.996307 84.506538,48.999992 85.622574,49.334068 
	C85.988594,50.102478 85.984955,50.540489 85.684219,51.134655 
	C84.585068,52.857533 83.783020,54.424263 82.980965,55.990990 
	C82.980965,55.990990 82.488564,55.995571 82.242355,55.997177 
z"/>
<path fill="#F59127" opacity="1.000000" stroke="none" 
	d="
M98.961411,155.938553 
	C99.406921,154.991913 99.852425,154.045273 101.011581,153.044037 
	C107.802246,152.985977 113.879257,152.982544 119.956276,152.979095 
	C116.996307,155.750244 114.036331,158.521408 111.044952,161.641647 
	C110.261818,161.994339 109.510094,161.997940 108.336639,161.620758 
	C106.415695,160.160049 104.978516,158.976425 103.398689,158.031235 
	C102.002151,157.195694 100.446701,156.625763 98.961411,155.938553 
z"/>
<path fill="#F38732" opacity="1.000000" stroke="none" 
	d="
M120.119308,152.752319 
	C113.879257,152.982544 107.802246,152.985977 101.348312,152.983902 
	C102.121643,151.743134 103.271889,150.507874 104.707970,149.132614 
	C110.748260,148.690674 116.502724,148.388733 122.517670,148.073135 
	C122.517670,148.520554 122.517670,149.572693 122.760689,150.816772 
	C122.096581,151.514343 121.189461,152.019928 120.119308,152.752319 
z"/>
<path fill="#FEC731" opacity="1.000000" stroke="none" 
	d="
M123.112221,48.700005 
	C122.153427,49.539238 121.333176,50.095646 119.868042,50.818268 
	C114.735687,50.581612 110.251938,50.129730 105.759735,49.789387 
	C101.089355,49.435535 96.398575,49.306759 91.743752,48.820625 
	C90.446930,48.685192 89.245934,47.632259 88.000977,47.000237 
	C88.769035,45.041935 89.537102,43.083637 91.097778,41.062107 
	C97.797722,41.337887 103.705582,41.668221 109.611626,42.028278 
	C110.258972,42.067741 111.206963,42.052113 111.490829,42.443035 
	C115.522141,47.994576 120.882401,45.670486 125.968170,44.988594 
	C125.062370,46.131454 124.156563,47.274315 123.112221,48.700005 
z"/>
<path fill="#FCC029" opacity="1.000000" stroke="none" 
	d="
M87.755806,47.153175 
	C89.245934,47.632259 90.446930,48.685192 91.743752,48.820625 
	C96.398575,49.306759 101.089355,49.435535 105.759735,49.789387 
	C110.251938,50.129730 114.735687,50.581612 119.604362,50.989227 
	C118.413353,52.796318 116.841133,54.598671 115.123764,56.694221 
	C114.185211,57.250301 113.391815,57.513180 112.064758,57.621597 
	C104.792343,56.307510 98.023079,55.293823 91.334175,53.895657 
	C89.429840,53.497597 87.759148,51.981754 85.981316,50.978504 
	C85.984955,50.540489 85.988594,50.102478 85.995979,49.336124 
	C86.503357,48.440563 87.006996,47.873341 87.755806,47.153175 
z"/>
<path fill="#FDCC39" opacity="1.000000" stroke="none" 
	d="
M126.240677,44.869518 
	C120.882401,45.670486 115.522141,47.994576 111.490829,42.443035 
	C111.206963,42.052113 110.258972,42.067741 109.611626,42.028278 
	C103.705582,41.668221 97.797722,41.337887 91.451843,40.999611 
	C91.654106,39.567005 92.294937,38.133663 92.969971,36.358772 
	C93.489143,35.743290 93.974121,35.469353 94.712990,35.080948 
	C99.769943,35.977535 104.585434,36.933472 109.372940,38.013485 
	C115.465057,39.387802 121.534515,40.862591 127.798096,42.619556 
	C127.492699,43.546848 127.002937,44.148647 126.240677,44.869518 
z"/>
<path fill="#FBC014" opacity="1.000000" stroke="none" 
	d="
M88.001122,35.001450 
	C87.908333,35.037464 87.814430,35.072033 87.858810,35.052177 
	C87.997101,34.997757 88.000000,35.000000 88.001122,35.001450 
z"/>
<path fill="#F26B21" opacity="1.000000" stroke="none" 
	d="
M84.399567,108.032997 
	C82.385307,107.564148 80.752892,106.948830 79.074036,106.511978 
	C75.615417,105.612022 72.132004,104.807388 68.299118,103.577667 
	C69.561729,99.082024 72.190292,96.215935 77.296082,95.957474 
	C79.313095,96.004654 80.954315,95.917152 82.572449,96.071571 
	C89.071495,96.691795 95.563408,97.386917 102.057953,98.054352 
	C102.057953,98.054352 102.030609,98.525314 101.646286,98.768005 
	C100.516502,99.947884 99.771027,100.885071 99.025558,101.822250 
	C94.270508,103.870613 89.515450,105.918968 84.399567,108.032997 
z"/>
<path fill="#F37620" opacity="1.000000" stroke="none" 
	d="
M102.356491,97.908676 
	C95.563408,97.386917 89.071495,96.691795 82.572449,96.071571 
	C80.954315,95.917152 79.313095,96.004654 77.316277,95.596146 
	C77.316582,93.818764 77.683105,92.426201 78.049622,91.033630 
	C80.159119,89.453857 82.268616,87.874084 84.674110,86.139114 
	C89.351173,86.322617 93.786194,86.349442 98.096771,87.095413 
	C101.762749,87.729836 105.285301,89.193077 108.941650,90.655075 
	C106.893005,93.268013 104.774017,95.515503 102.356491,97.908676 
z"/>
<path fill="#F37620" opacity="1.000000" stroke="none" 
	d="
M99.389282,101.848351 
	C99.771027,100.885071 100.516502,99.947884 101.624207,99.002853 
	C101.712395,99.677605 101.438339,100.360214 101.171272,101.309631 
	C100.703171,101.675766 100.228088,101.775108 99.389282,101.848351 
z"/>
<path fill="#F4814A" opacity="1.000000" stroke="none" 
	d="
M155.131989,128.692108 
	C154.342346,129.432617 153.697601,129.881805 153.011932,130.650177 
	C150.413681,132.399887 147.856354,133.830414 145.135727,135.543060 
	C144.972412,135.825195 144.493835,135.856903 144.247589,135.461731 
	C143.675339,130.044846 139.563950,132.339447 137.082397,131.505875 
	C135.433884,130.952148 133.748505,130.508270 132.070328,129.769775 
	C132.061035,129.524323 132.051041,129.033188 132.051041,129.033188 
	C132.051041,129.033188 131.996033,129.026260 132.432755,129.037231 
	C141.273743,126.380943 149.677994,123.713676 158.082260,121.046417 
	C161.585129,120.529861 165.087982,120.013306 168.816345,119.807137 
	C169.041840,120.117531 169.043488,120.560425 169.034698,120.781700 
	C165.959595,122.660667 162.893265,124.318352 159.232590,126.100906 
	C158.433044,126.502457 158.227875,126.779129 158.022705,127.055801 
	C158.022705,127.055809 158.043884,127.022827 158.059052,127.041336 
	C157.141754,127.506828 156.209320,127.953804 155.131989,128.692108 
z"/>
<path fill="#FAB22E" opacity="1.000000" stroke="none" 
	d="
M178.240936,115.086792 
	C178.729614,114.621521 179.510544,114.286247 180.627319,113.938637 
	C180.153168,114.356461 179.343185,114.786621 178.240936,115.086792 
z"/>
<path fill="#F79B1E" opacity="1.000000" stroke="none" 
	d="
M98.634354,155.949219 
	C100.446701,156.625763 102.002151,157.195694 103.398689,158.031235 
	C104.978516,158.976425 106.415695,160.160049 107.960999,161.618958 
	C107.005409,161.597702 106.003738,161.197464 105.002060,160.797241 
	C105.551720,161.367096 106.101379,161.936935 106.651039,162.506775 
	C104.642860,163.580383 102.634682,164.654007 100.275703,165.517761 
	C96.247253,161.429230 90.318520,162.576996 85.999062,168.003860 
	C85.999062,168.003860 85.500572,168.006210 85.251358,168.005859 
	C85.001305,167.253387 85.000481,166.501282 84.999893,165.373123 
	C85.590012,164.503189 86.179901,164.009293 87.241806,163.216690 
	C89.809525,161.613968 91.905235,160.309937 94.300079,158.983673 
	C95.067505,158.636795 95.535797,158.312149 96.248138,157.820435 
	C96.660637,157.100098 96.829079,156.546814 96.997520,155.993530 
	C97.434113,155.982300 97.870697,155.971085 98.634354,155.949219 
z"/>
<path fill="#F6A71D" opacity="1.000000" stroke="none" 
	d="
M86.220543,168.271774 
	C90.318520,162.576996 96.247253,161.429230 99.959534,165.654358 
	C99.408318,166.487152 98.822479,166.973480 98.112480,167.722931 
	C94.680939,170.753296 91.373550,173.520554 88.017952,176.629883 
	C86.877991,177.296066 85.786232,177.620193 84.351616,177.979797 
	C85.128662,176.454758 86.016129,174.631927 87.418045,173.389648 
	C90.133873,170.983032 89.168976,169.670395 86.220543,168.271774 
z"/>
<path fill="#F27E29" opacity="1.000000" stroke="none" 
	d="
M93.711975,176.685089 
	C93.754539,176.829437 93.413589,176.922028 93.238205,176.934906 
	C93.062820,176.947784 93.269463,176.551666 93.269463,176.551666 
	C93.269463,176.551666 93.669418,176.540756 93.711975,176.685089 
z"/>
<path fill="#F6A71D" opacity="1.000000" stroke="none" 
	d="
M80.687057,171.046143 
	C80.548492,171.643646 80.088814,172.278458 79.306778,172.948380 
	C79.444923,172.350143 79.905434,171.716812 80.687057,171.046143 
z"/>
<path fill="#F6A71D" opacity="1.000000" stroke="none" 
	d="
M76.000389,174.749313 
	C76.000610,174.999390 75.511230,175.000687 75.261414,174.757034 
	C75.011841,174.345810 75.012085,174.178238 75.012329,174.010681 
	C75.012329,174.010681 75.506111,174.000473 75.753067,173.999786 
	C76.000069,174.165802 76.000114,174.332520 76.000389,174.749313 
z"/>
<path fill="#EC5B1F" opacity="1.000000" stroke="none" 
	d="
M42.726494,121.042007 
	C42.897614,121.274681 42.737820,121.545578 42.270367,121.875427 
	C42.206371,121.708305 42.350662,121.423592 42.726494,121.042007 
z"/>
<path fill="#EC7720" opacity="1.000000" stroke="none" 
	d="
M96.741829,155.799271 
	C96.829079,156.546814 96.660637,157.100098 95.947624,157.839523 
	C94.935684,158.352417 94.468315,158.679169 94.000946,159.005920 
	C91.905235,160.309937 89.809525,161.613968 87.364365,162.949142 
	C87.988564,161.545456 88.962212,160.110596 89.967766,158.331635 
	C90.546806,157.794907 91.093941,157.602310 92.079086,157.070953 
	C92.994034,156.147415 93.470963,155.562607 93.947891,154.977814 
	C94.472229,154.442307 94.996567,153.906784 95.778503,153.252869 
	C96.186119,153.957977 96.336128,154.781494 96.741829,155.799271 
z"/>
<path fill="#F9AD2C" opacity="1.000000" stroke="none" 
	d="
M93.638321,155.024475 
	C93.470963,155.562607 92.994034,156.147415 92.241425,156.822922 
	C92.420074,156.299469 92.874413,155.685287 93.638321,155.024475 
z"/>
<path fill="#EF6322" opacity="1.000000" stroke="none" 
	d="
M158.256073,126.943405 
	C158.227875,126.779129 158.433044,126.502457 158.885941,126.130661 
	C158.918915,126.300697 158.704193,126.565857 158.256073,126.943405 
z"/>
<path fill="#F69927" opacity="1.000000" stroke="none" 
	d="
M74.688278,174.048965 
	C75.012085,174.178238 75.011841,174.345810 75.016846,174.764862 
	C74.552254,175.333008 74.082420,175.649658 73.317413,175.998108 
	C73.469566,175.382355 73.916893,174.734802 74.688278,174.048965 
z"/>
<path fill="#F6A71D" opacity="1.000000" stroke="none" 
	d="
M83.221649,178.887207 
	C83.102043,178.664505 83.292465,178.406555 83.790489,178.110199 
	C83.917564,178.336838 83.728760,178.596893 83.221649,178.887207 
z"/>
<path fill="#FBBB20" opacity="1.000000" stroke="none" 
	d="
M85.684219,51.134655 
	C87.759148,51.981754 89.429840,53.497597 91.334175,53.895657 
	C98.023079,55.293823 104.792343,56.307510 111.774399,57.754604 
	C110.769386,59.501858 109.521065,60.961643 108.125244,62.708168 
	C104.695076,62.279972 101.378296,61.691849 98.137688,60.820503 
	C93.216240,59.497211 88.347664,57.977329 83.218796,56.265968 
	C83.783020,54.424263 84.585068,52.857533 85.684219,51.134655 
z"/>
<path fill="#F99E1D" opacity="1.000000" stroke="none" 
	d="
M77.697311,90.990501 
	C77.683105,92.426201 77.316582,93.818764 76.929871,95.572662 
	C72.190292,96.215935 69.561729,99.082024 67.906174,103.552628 
	C66.014183,105.071686 64.155472,106.229935 61.932419,107.801323 
	C61.292118,108.413216 61.108791,108.676483 61.018101,109.004272 
	C61.018101,109.004272 60.520058,109.005913 60.271328,109.011276 
	C59.603607,107.743958 58.837311,106.466087 58.856243,105.199959 
	C58.878384,103.719353 59.585136,102.248985 59.987030,100.369705 
	C59.992870,99.225555 60.006573,98.485870 60.031948,97.375977 
	C61.327038,95.227592 62.610455,93.449409 63.951057,91.334808 
	C68.453827,90.981384 72.899414,90.964378 77.697311,90.990501 
z"/>
<path fill="#EC5125" opacity="1.000000" stroke="none" 
	d="
M157.705200,120.879364 
	C149.677994,123.713676 141.273743,126.380943 132.458710,129.050201 
	C130.918823,128.035736 129.788376,126.138405 128.660812,126.140099 
	C118.203911,126.155838 107.748207,126.554298 97.290207,126.686928 
	C95.720222,126.706833 93.732353,126.389656 92.642792,125.428909 
	C89.636841,122.778305 87.712509,124.025505 86.011818,126.708412 
	C84.353607,125.915123 82.874756,125.207634 81.181267,124.222427 
	C85.376839,122.993927 89.787048,122.043144 94.594612,121.031738 
	C100.729614,120.024483 106.467255,119.077843 112.603256,118.087280 
	C114.438728,118.034721 115.875832,118.026100 117.667068,118.386597 
	C118.486778,119.442497 118.952362,120.129272 119.417938,120.816048 
	C119.944885,119.875076 120.471832,118.934097 120.998779,117.993134 
	C121.777901,117.667274 122.557022,117.341415 123.675545,117.024841 
	C124.928528,123.122322 128.051651,118.871048 130.543808,118.354362 
	C133.977219,121.882011 137.881531,120.851601 142.345703,120.110802 
	C147.173630,119.309647 152.320435,120.430038 157.705200,120.879364 
z"/>
<path fill="#EC5125" opacity="1.000000" stroke="none" 
	d="
M78.597595,123.988121 
	C78.146805,125.303322 77.502159,126.901634 76.320915,127.770081 
	C75.926620,128.059982 74.159660,126.482834 73.007233,125.368195 
	C74.727623,124.646927 76.460960,124.316635 78.597595,123.988121 
z"/>
<path fill="#EC5B1F" opacity="1.000000" stroke="none" 
	d="
M61.246872,108.993408 
	C61.108791,108.676483 61.292118,108.413216 61.788651,108.108871 
	C61.831360,108.329697 61.653500,108.656120 61.246872,108.993408 
z"/>
<path fill="#F37A4D" opacity="1.000000" stroke="none" 
	d="
M132.079620,130.015228 
	C133.748505,130.508270 135.433884,130.952148 137.082397,131.505875 
	C139.563950,132.339447 143.675339,130.044846 144.007965,135.452209 
	C142.882111,136.480392 141.749649,137.122925 140.321320,137.893051 
	C136.308914,137.728210 132.338409,136.620575 130.552338,140.432251 
	C127.889847,139.943268 124.814278,138.400391 123.484604,139.336746 
	C120.671005,141.318100 118.117256,140.712616 115.146950,140.198029 
	C118.367386,134.044327 124.214958,131.892380 130.893860,130.014343 
	C131.720978,130.008835 131.900299,130.012039 132.079620,130.015228 
z"/>
<path fill="#EC5125" opacity="1.000000" stroke="none" 
	d="
M62.755516,130.666061 
	C61.907261,130.916382 60.848530,130.925766 59.397858,130.866486 
	C60.185627,130.673599 61.365330,130.549362 62.755516,130.666061 
z"/>
<path fill="#EC5125" opacity="1.000000" stroke="none" 
	d="
M132.070328,129.769775 
	C131.900299,130.012039 131.720978,130.008835 131.272964,129.993622 
	C131.110703,129.656952 131.306900,129.401123 131.821960,129.123657 
	C132.051041,129.033188 132.061035,129.524323 132.070328,129.769775 
z"/>
<path fill="#EC5125" opacity="1.000000" stroke="none" 
	d="
M80.532196,127.549973 
	C80.476837,127.582954 80.587563,127.516998 80.532196,127.549973 
z"/>
<path fill="#EE5D23" opacity="1.000000" stroke="none" 
	d="
M120.625198,117.995621 
	C120.471832,118.934097 119.944885,119.875076 119.417938,120.816048 
	C118.952362,120.129272 118.486778,119.442497 118.016174,118.388840 
	C118.757980,118.014015 119.504791,118.006065 120.625198,117.995621 
z"/>
<path fill="#F59127" opacity="1.000000" stroke="none" 
	d="
M94.300079,158.983673 
	C94.468315,158.679169 94.935684,158.352417 95.703568,158.006592 
	C95.535797,158.312149 95.067505,158.636795 94.300079,158.983673 
z"/>
</svg>