<svg version="1.1" id="Layer_1" xmlns="http://www.w3.org/2000/svg" xmlns:xlink="http://www.w3.org/1999/xlink" x="0px" y="0px"
	 width="100%" viewBox="0 0 784 1024" enable-background="new 0 0 784 1024" xml:space="preserve">
<path fill="#000000" opacity="1.000000" stroke="none" 
	d="
M259.468658,1025.000000 
	C258.953339,1019.672913 258.824005,1014.344666 258.897522,1009.019226 
	C258.930542,1006.627808 258.268005,1005.004272 256.096741,1003.686279 
	C253.260941,1001.964844 250.660248,999.838806 248.040710,997.781982 
	C242.479462,993.415588 241.742661,991.066650 244.101425,984.398926 
	C247.764587,974.044067 251.792282,963.812561 255.232925,953.385986 
	C259.982422,938.993286 262.544647,924.052368 265.734253,909.265259 
	C269.816101,890.341614 270.342194,870.934753 273.726990,851.986511 
	C275.874451,839.965149 271.029449,829.656799 270.125275,816.925049 
	C263.509186,825.266846 255.630310,829.172668 248.192291,833.891724 
	C233.323273,843.325439 218.475494,835.722717 210.256424,825.339233 
	C203.297089,816.547241 198.647263,806.321106 194.694244,795.830811 
	C190.577087,784.905151 187.835617,773.575195 184.946182,762.295898 
	C182.963379,754.555664 183.687073,746.940796 185.543686,739.129822 
	C190.292526,719.151184 196.480972,699.704834 204.568268,680.823975 
	C212.363083,662.625854 227.299927,654.100525 245.558914,650.125366 
	C252.041077,648.714050 258.527863,650.431641 264.784119,652.115906 
	C269.786102,653.462524 273.117249,652.397522 276.249115,648.080627 
	C281.136688,641.343811 287.140961,635.673035 293.878113,630.573303 
	C300.230682,625.764587 295.007294,618.745178 295.368347,612.752319 
	C295.570068,609.403992 293.709717,607.096375 289.898193,606.152588 
	C271.066803,601.489380 253.127228,594.552368 236.033936,585.249451 
	C214.908859,573.752258 196.716171,559.136292 183.512131,538.769775 
	C182.521606,537.241882 180.944138,536.059326 180.116547,534.468140 
	C178.168777,530.723145 175.394241,530.728516 171.776154,531.632996 
	C165.972305,533.083923 160.091309,534.538940 154.158325,535.103699 
	C134.178467,537.005615 119.759514,527.153931 108.044220,512.251770 
	C101.963333,504.516785 98.155800,495.703522 96.944458,485.876099 
	C95.219688,471.883453 100.149757,460.391937 110.485092,451.149750 
	C112.800537,449.079132 115.782982,447.754364 118.760376,445.897919 
	C117.287247,442.088196 114.456398,439.247925 111.787346,436.438934 
	C105.446487,429.765808 100.238937,422.230621 94.721390,414.922638 
	C81.643913,397.601593 77.766632,378.046967 80.418877,356.853607 
	C80.641716,355.072937 80.448357,353.240173 80.448357,351.069702 
	C77.257774,351.327332 75.211182,353.643982 72.551857,354.362549 
	C71.143066,354.743225 69.668671,355.725586 68.433418,354.170990 
	C67.358871,352.818604 67.637306,351.340240 68.538559,349.994080 
	C78.288506,335.430603 88.009911,320.788910 103.416321,311.405121 
	C107.079346,309.174011 106.310158,307.606812 104.171333,304.893433 
	C95.649597,294.082306 91.636772,281.579132 90.985329,267.929962 
	C90.792450,263.888855 92.312813,260.489410 95.076546,257.539734 
	C99.632393,252.677307 104.057419,247.692215 108.620232,242.836517 
	C110.057373,241.307144 111.539444,239.244949 114.083176,240.356461 
	C116.251907,241.304092 116.145737,243.508896 116.345177,245.525040 
	C117.442406,256.616882 118.433868,267.727325 121.168716,278.581207 
	C121.565254,280.154938 121.640640,281.879059 123.378189,283.141113 
	C128.109222,278.772552 130.608459,272.841980 134.166107,267.726013 
	C157.606964,234.017242 188.552338,210.089859 226.731613,195.163254 
	C261.104828,181.724686 296.781281,174.290970 333.388428,170.573105 
	C352.082001,168.674545 370.708069,166.110504 389.364075,163.842575 
	C391.157135,163.624603 393.055237,162.943909 394.401733,164.829285 
	C395.752075,166.720032 394.476562,168.267303 393.678711,169.899155 
	C390.108521,177.201294 385.334839,183.800079 380.689728,191.282059 
	C400.636475,189.297562 419.839264,187.707413 438.853210,184.516739 
	C443.263428,183.776657 447.646790,182.593918 451.532684,180.138077 
	C453.233063,179.063431 455.102631,177.754669 457.035706,179.231110 
	C459.099335,180.807281 458.486481,183.217911 457.910828,185.266418 
	C455.650269,193.310349 452.566010,201.029266 448.259979,208.220627 
	C446.310150,211.477036 444.313995,214.705688 442.234711,218.117813 
	C453.130615,218.317673 463.555237,215.963425 474.128174,215.696960 
	C480.863556,215.527206 482.709167,216.774475 484.266296,223.445724 
	C488.943634,243.485031 487.838348,263.066589 478.667999,281.783966 
	C476.529297,286.149170 473.029327,289.591339 469.760376,293.150146 
	C468.671295,294.335754 467.068604,295.183228 466.894135,297.673309 
	C473.513611,300.260498 480.161194,303.119537 487.263763,304.798981 
	C489.977051,305.440582 493.133362,305.623383 493.398132,309.463745 
	C493.651825,313.144287 490.728882,314.100861 488.183929,315.293182 
	C478.219238,319.961853 468.066345,324.168182 457.313568,326.650940 
	C454.118652,327.388611 452.938324,328.821869 453.107056,332.124390 
	C454.196136,353.440002 451.063293,374.271545 445.659149,394.831512 
	C444.166138,400.511627 446.309082,405.745483 451.363159,408.764191 
	C467.063019,418.141327 470.295868,433.138275 469.682678,449.722839 
	C469.530518,453.838409 468.421631,457.936829 467.556549,462.001434 
	C466.980225,464.709137 467.204132,467.209930 468.086304,469.830109 
	C477.169250,496.807831 471.818451,520.721863 453.521545,542.420227 
	C440.426514,557.949646 425.738251,571.676697 409.191650,583.231201 
	C394.632355,593.397949 379.800507,603.450623 362.231689,608.079834 
	C359.776581,608.726746 358.910736,610.063477 359.382751,612.420715 
	C359.610992,613.560669 359.955963,614.677002 360.235474,615.807129 
	C362.049835,623.142395 362.025940,623.066711 368.988922,620.980652 
	C378.031006,618.271729 387.436554,618.493530 396.721161,617.866211 
	C401.700500,617.529785 406.765411,618.138733 411.701630,617.556824 
	C420.058624,616.571777 426.568451,620.109192 432.728271,624.957703 
	C448.651184,637.490967 462.114258,652.491150 475.231384,667.790283 
	C488.990112,683.837769 503.248718,699.479919 515.588501,716.706909 
	C527.094910,732.770325 526.414429,730.395569 514.083679,743.222107 
	C505.352112,752.304688 504.690582,749.836426 509.908295,763.095093 
	C519.228027,786.777527 528.768860,810.409546 534.951538,835.178711 
	C537.772644,846.480652 538.285461,858.170715 540.162476,869.639709 
	C543.599976,890.644165 546.897034,911.671753 550.205322,932.697083 
	C551.028442,937.928589 553.999695,942.246704 555.980652,946.986877 
	C557.815369,951.377197 559.779358,955.439697 558.556641,960.795288 
	C557.597961,964.994446 559.945129,969.563599 561.304749,973.829529 
	C562.689819,978.175049 562.469849,982.153015 560.724976,986.434631 
	C559.110229,990.397095 558.133240,994.697693 557.449097,998.941833 
	C556.552856,1004.501587 553.818420,1008.734436 549.942078,1012.666687 
	C546.231262,1016.431152 541.831238,1019.604492 539.073853,1024.665283 
	C445.979095,1025.000000 352.958221,1025.000000 259.468658,1025.000000 
M373.733643,1020.095459 
	C377.869995,1019.623413 382.028198,1019.291992 386.138550,1018.652771 
	C398.119690,1016.789551 410.384552,1016.403809 422.006531,1012.659180 
	C433.564087,1008.935242 445.126556,1005.109497 456.366516,1000.540405 
	C481.019257,990.518860 506.281189,981.918762 529.808838,969.209167 
	C535.078064,966.362671 540.621033,964.107483 545.225281,960.120544 
	C552.095764,954.171265 552.146667,954.221313 548.862183,945.972290 
	C548.123474,944.116821 547.337341,942.280029 546.560791,940.439819 
	C535.691895,914.682190 523.724243,889.359253 515.078674,862.713684 
	C505.763733,834.005005 493.596191,806.412109 482.038147,778.609375 
	C467.023529,742.492004 449.515106,707.424683 436.251465,670.556580 
	C435.733521,669.116882 434.301941,667.658447 436.672058,665.572815 
	C440.728699,670.937500 444.862732,676.142639 448.707397,681.553284 
	C453.879120,688.831482 456.494415,697.375610 459.282166,705.658081 
	C465.388275,723.799377 472.015320,741.700745 480.075531,759.065613 
	C480.689789,760.389038 480.767426,762.047974 482.555237,762.490173 
	C484.013702,762.344543 484.980621,761.366638 485.927368,760.457947 
	C495.539398,751.231995 505.068848,741.919067 514.758362,732.775574 
	C517.093201,730.572327 516.439941,728.848877 514.911865,726.749268 
	C509.620758,719.479126 504.152832,712.324158 499.161743,704.851746 
	C481.972229,679.116760 462.849213,655.086182 439.251862,634.825806 
	C430.390076,627.217163 421.153564,621.407654 408.665161,623.084167 
	C403.255890,623.810242 397.676849,623.182068 392.184021,623.399414 
	C386.346680,623.630310 380.520081,624.134033 374.688782,624.518616 
	C379.146820,626.148010 383.559753,626.857605 387.913940,627.830383 
	C391.746918,628.686646 394.758270,630.715698 397.307404,633.924927 
	C409.330048,649.060852 397.300812,666.216797 385.297089,670.440796 
	C383.824951,670.958801 381.873932,670.664490 380.917572,672.912415 
	C383.030365,675.348267 385.940674,675.637390 388.946350,675.737000 
	C397.650238,676.025330 404.707703,679.290039 409.597992,686.813965 
	C411.769379,690.154785 414.336151,693.239990 416.748291,696.422485 
	C421.757843,703.031799 425.506714,709.872620 425.210022,718.745667 
	C424.714294,733.572876 410.321045,744.468506 395.944061,740.369263 
	C392.981354,739.524475 390.268860,737.671875 387.183533,737.731873 
	C385.933380,739.286499 386.374695,740.849976 386.219849,742.305298 
	C385.419617,749.826843 384.353119,758.135498 379.643433,763.418274 
	C375.354889,768.228638 374.811981,773.408936 372.766113,778.555359 
	C364.430420,799.524170 353.790863,805.858826 333.309357,807.194824 
	C325.677551,807.692627 318.000458,807.299561 310.336060,807.717590 
	C305.049957,808.005798 299.905518,807.196777 295.104065,804.039795 
	C291.843506,801.895935 288.995605,797.303101 285.276276,798.033569 
	C281.577576,798.759949 280.830627,804.256653 277.961853,807.084229 
	C274.321564,810.672424 273.287567,815.003418 275.217072,819.917480 
	C275.698883,821.144531 275.929291,822.488037 276.143768,823.799561 
	C278.586243,838.735962 280.291077,853.812134 284.795593,868.353210 
	C285.389435,870.270264 285.540955,872.316223 283.552460,873.662781 
	C280.402740,873.924011 280.671844,870.314819 278.213715,869.163757 
	C277.803009,871.319214 277.370697,873.236755 277.078857,875.175415 
	C274.899078,889.653809 273.085114,904.196838 270.509247,918.603943 
	C266.395416,941.612793 259.214233,963.782532 250.969528,985.613098 
	C249.752487,988.835632 249.436340,991.641602 252.642212,994.042725 
	C266.484619,1004.410217 279.721252,1015.953308 298.406464,1016.445496 
	C300.559143,1016.502136 302.770416,1016.666138 304.839203,1017.215088 
	C327.292053,1023.173035 350.063080,1021.654968 373.733643,1020.095459 
M152.390472,458.074097 
	C150.051208,456.795349 147.723938,455.494080 145.370697,454.241577 
	C133.309586,447.821869 122.291817,450.931152 112.414635,458.751740 
	C104.129196,465.312042 100.551949,474.664246 102.404709,485.000336 
	C105.649811,503.103973 115.362129,516.893127 132.286240,524.968811 
	C146.293991,531.652893 160.261597,528.678345 174.118561,524.345154 
	C178.891907,522.852478 182.252258,520.821594 186.061325,527.547302 
	C190.982605,536.236755 198.601181,543.414734 205.163223,551.154541 
	C212.713135,560.059570 220.737762,568.455383 231.377609,573.792236 
	C240.446259,578.340881 249.465378,582.995667 258.627502,587.348633 
	C269.331543,592.434204 280.694244,595.778503 291.976715,599.284973 
	C296.572266,600.713318 297.553192,599.713440 297.910614,595.063354 
	C298.298126,590.021851 296.380707,587.400024 291.821075,584.614258 
	C269.456879,570.950745 259.518280,549.680603 256.815186,524.375671 
	C256.473785,521.179443 257.734009,517.801147 256.155975,514.948059 
	C254.113907,514.096680 252.190689,516.291016 250.677963,514.300903 
	C254.940933,507.506622 268.491760,505.530457 272.058533,511.153290 
	C271.193176,512.949524 268.726959,511.453796 267.414001,514.009216 
	C274.343140,519.984070 282.092224,524.656555 291.223663,526.860962 
	C293.005646,527.291016 294.452118,526.071472 295.162476,524.396301 
	C296.668121,520.845764 299.458893,518.416321 302.508972,516.413513 
	C306.037201,514.096680 306.361511,511.313416 304.751465,507.827637 
	C303.550781,505.228241 302.754364,502.545990 302.929230,499.621185 
	C303.155243,495.842102 305.012360,493.054565 308.651337,492.392853 
	C312.622803,491.670624 314.692444,494.556122 315.885498,497.898590 
	C316.494690,499.605469 316.752045,501.459045 317.001160,503.269348 
	C317.702332,508.364319 320.063507,512.340515 324.501373,515.062195 
	C329.606018,518.192810 334.218506,522.034302 339.400635,525.099487 
	C342.914062,527.177612 347.264832,528.716248 349.249695,532.486267 
	C350.617737,535.084656 352.236938,535.213318 354.442474,534.971741 
	C363.405121,533.990112 372.164276,532.102722 380.667450,529.060913 
	C382.230621,528.501709 383.822327,526.875305 385.551208,528.782410 
	C385.618958,530.804565 383.958832,531.217590 382.766022,531.991638 
	C379.351013,534.207947 375.375244,534.985291 371.581635,536.206177 
	C369.429352,536.898926 367.313232,537.624390 366.955688,540.165649 
	C365.954895,547.278564 362.196411,553.546387 361.098907,560.699585 
	C359.813721,569.075806 358.230621,577.965759 352.738495,584.434937 
	C348.761719,589.119202 348.671539,592.726501 350.417938,597.733398 
	C352.323486,603.196472 352.457550,603.327698 358.242462,601.431641 
	C374.035065,596.255310 388.344727,588.168945 402.103668,579.060608 
	C421.760376,566.047974 440.618530,552.020569 452.952637,531.308777 
	C465.530609,510.187561 468.292389,488.123169 458.446228,464.892365 
	C452.685913,451.301605 445.825043,437.987000 444.032562,423.038025 
	C441.552612,402.355682 437.409912,381.989807 432.483765,361.788025 
	C430.317810,352.905701 427.287781,344.232727 424.605164,335.478485 
	C423.702545,332.532867 421.517365,331.324982 418.809448,332.646942 
	C416.174683,333.933228 417.659454,335.936401 418.696228,337.699158 
	C419.364044,338.834686 420.040192,340.027161 420.372437,341.284058 
	C420.902863,343.290649 422.412323,345.693970 420.306244,347.320312 
	C418.445740,348.757050 416.512543,346.966888 414.841339,346.010254 
	C406.598755,341.291931 398.136475,337.019104 389.368958,333.373718 
	C383.835876,331.073151 378.088684,329.973114 371.510742,330.427551 
	C372.147705,332.120331 372.582458,333.156525 372.930298,334.221069 
	C374.250977,338.262939 373.057831,340.026886 368.850464,339.783051 
	C359.047455,339.214905 349.173615,339.057220 339.473083,337.699829 
	C318.510498,334.766632 297.995209,329.687805 277.858002,323.134583 
	C276.774017,322.781799 275.689209,322.074615 274.439606,323.712708 
	C275.106232,325.802368 275.769592,328.181885 276.622620,330.491272 
	C278.240845,334.872375 277.222290,337.524017 272.481445,339.242950 
	C263.365479,342.548248 255.209488,347.707550 247.345673,353.379089 
	C235.517670,361.909576 225.501877,372.395233 215.161880,382.546082 
	C213.908188,383.776855 212.593765,385.579956 210.494705,384.632599 
	C208.333786,383.657257 208.235123,381.481689 208.408676,379.440796 
	C208.862991,374.098419 209.965668,368.944794 212.411667,364.079132 
	C219.332321,350.312286 230.207779,340.119812 242.076538,330.778931 
	C244.070724,329.209442 246.526505,328.082367 248.638489,324.488586 
	C223.369370,324.536011 199.144028,323.904785 174.483246,319.949219 
	C177.025253,326.876740 179.968460,332.136475 181.301422,338.018738 
	C186.510666,361.006592 180.806564,382.392120 170.881531,402.791382 
	C167.985199,408.744263 168.125107,413.567108 170.235626,419.170441 
	C174.636047,430.853302 179.009354,442.548615 183.186005,454.312592 
	C185.355347,460.422699 187.267395,466.641235 188.916718,472.910461 
	C189.570755,475.396545 190.898010,479.170044 186.774216,479.826233 
	C184.241135,480.229340 182.626038,481.209076 181.325790,483.002380 
	C180.570709,482.807739 179.971878,482.828613 179.637009,482.541534 
	C170.547089,474.748352 162.773087,465.499725 152.390472,458.074097 
M185.123276,308.977112 
	C183.894836,307.653015 181.275696,307.378784 181.792725,304.609985 
	C183.723892,303.950226 185.543427,304.526672 187.147339,305.222961 
	C194.365494,308.356598 202.118301,309.739319 209.538605,312.219757 
	C217.115616,314.752594 224.965195,314.539581 232.700058,312.521240 
	C234.381165,312.082550 236.401733,311.929138 237.128738,309.838501 
	C236.019684,306.191284 232.473068,303.791656 231.966660,299.533661 
	C232.902054,299.533661 233.579193,299.375336 234.145248,299.559113 
	C238.098129,300.842407 242.094757,302.028900 245.950668,303.564575 
	C252.915771,306.338440 261.475616,303.998657 265.110352,297.525360 
	C267.479919,293.305359 270.303497,292.509766 274.587799,294.029419 
	C284.052856,297.386658 293.838470,299.247375 303.859894,300.006317 
	C308.208527,300.335663 312.417786,301.572906 316.226257,303.717010 
	C327.235870,309.915222 338.650726,315.437531 348.824066,323.048737 
	C350.313232,324.162842 351.906128,325.348969 353.819916,324.205383 
	C355.778534,323.034943 356.845154,321.273254 356.894226,318.840942 
	C356.932831,316.924133 355.529572,314.965424 356.930328,313.099487 
	C370.386139,310.666840 371.753693,310.584167 377.537811,312.348053 
	C381.833557,313.658020 386.110260,315.033325 390.375031,316.441284 
	C399.055084,319.306854 405.232422,316.543304 408.921082,308.044922 
	C410.125305,305.270508 410.457306,302.280609 411.018280,299.332275 
	C412.863983,289.631866 415.730804,280.284393 421.264496,271.947418 
	C424.979248,266.350830 427.253845,260.434296 425.422241,253.562057 
	C424.556519,250.313904 426.065063,247.826019 428.026154,245.365784 
	C430.498535,242.264023 433.592377,239.583206 434.933685,235.660751 
	C436.992188,229.641022 433.257172,224.835999 426.974304,225.516373 
	C423.172241,225.928085 419.392731,226.656448 415.583038,226.852524 
	C412.863892,226.992462 409.816589,228.140594 406.988953,225.419708 
	C410.825684,222.532303 415.248260,223.081085 419.107422,221.849945 
	C421.084259,221.219284 423.951630,221.732620 424.252441,218.928299 
	C424.550476,216.149582 422.394379,214.364029 420.091064,213.235886 
	C418.641113,212.525726 416.903656,211.973007 415.322418,212.035767 
	C408.888031,212.291214 402.841980,211.732285 397.233154,207.880157 
	C394.412323,205.942841 390.932831,207.087311 388.487366,209.403625 
	C385.963501,211.794220 387.617981,214.213562 389.097748,216.556976 
	C391.663696,220.620575 390.359009,222.957993 385.078766,222.853836 
	C378.889435,222.731720 373.970673,224.973328 369.043091,228.565811 
	C350.942627,241.762054 331.380798,248.100739 308.502075,242.948364 
	C295.970612,240.126236 283.434906,240.181015 272.824219,251.057388 
	C265.339386,258.729675 255.566193,262.338928 244.018021,257.635468 
	C232.557190,252.967575 220.381348,252.742523 208.122849,254.700333 
	C204.063522,255.348679 199.592361,255.668396 195.708801,254.636124 
	C189.988617,253.115677 182.172333,254.822357 180.139771,245.973328 
	C179.543533,243.377548 176.958237,243.958344 175.294800,245.551727 
	C166.751434,253.735306 160.258621,263.355927 158.345398,275.100281 
	C157.406647,280.862854 155.210648,285.460938 151.844772,289.878693 
	C149.324493,293.186615 146.701111,296.459137 144.585724,300.021759 
	C141.768158,304.767029 142.916199,306.946503 148.291260,308.030762 
	C152.367035,308.852966 156.463303,309.576080 160.531342,310.433868 
	C167.374893,311.876862 174.211136,313.636810 181.261429,312.455536 
	C182.905624,312.180054 186.132629,313.194000 185.123276,308.977112 
M353.260712,670.254272 
	C351.124817,669.911316 348.992065,669.547485 346.852539,669.228882 
	C334.653625,667.412598 322.319702,667.118103 310.064575,665.942993 
	C308.117432,665.756287 305.630096,666.283325 304.635773,663.664246 
	C306.049652,661.374695 308.218811,661.819702 310.130127,661.868652 
	C317.112885,662.047485 324.093414,662.568115 331.072571,662.531677 
	C334.860077,662.511902 337.281891,659.088623 336.337830,655.649475 
	C335.187714,651.459534 332.342804,654.115234 330.232727,654.467773 
	C326.316193,655.122192 322.411896,656.346985 318.368713,653.800598 
	C320.376343,651.336121 322.549072,651.983765 324.413635,651.914551 
	C327.770691,651.790039 330.642670,650.588440 333.002350,648.373474 
	C343.987976,638.061340 347.412323,624.697693 346.861481,610.382446 
	C346.488556,600.690796 342.792023,591.533325 338.497375,582.833496 
	C334.283234,574.296692 328.218658,567.959778 317.761932,568.234131 
	C307.714050,568.497803 301.482025,577.856262 305.250092,587.033875 
	C306.841705,590.910522 308.057739,594.858826 308.854828,598.951111 
	C309.173157,600.585632 309.683563,602.502197 308.093628,603.598511 
	C305.271301,605.544617 305.436218,608.359497 305.318604,611.181335 
	C304.959900,619.787292 302.872955,627.907349 298.892120,635.595215 
	C293.415985,646.170837 284.573914,654.240845 278.080994,664.157410 
	C269.585724,677.132080 264.152222,690.366760 266.474365,705.795776 
	C267.578064,713.129028 268.078796,720.028381 266.411682,727.404175 
	C263.401978,740.720032 270.642944,753.302246 270.316315,766.558105 
	C270.262146,768.755554 271.427307,771.091736 272.405121,773.188416 
	C279.314362,788.004028 289.600189,799.201477 306.607849,801.292603 
	C315.637787,802.402893 324.964813,802.230225 334.045166,801.402283 
	C340.202911,800.840881 346.931244,800.185059 352.235229,796.667664 
	C359.721375,791.703369 363.734009,783.897461 366.411163,775.478760 
	C367.352600,772.518250 366.334229,770.462341 362.933716,770.437195 
	C347.212189,770.320984 332.020355,765.620117 316.341766,765.083313 
	C314.264160,765.012146 311.682800,765.185913 310.521210,762.507935 
	C312.459015,760.635315 314.714355,760.972961 316.818573,760.979553 
	C329.172760,761.018250 341.342438,763.101746 353.588165,764.358704 
	C360.057495,765.022705 367.224060,766.394165 372.050232,761.022217 
	C379.554199,752.669556 381.989380,742.405762 379.893860,731.256714 
	C379.356598,728.398071 377.493195,727.290039 374.538696,727.116821 
	C354.487457,725.941528 335.004425,721.753906 315.910553,715.651550 
	C314.320557,715.143372 312.116730,715.144470 312.000061,712.548157 
	C313.310303,711.507629 314.564514,712.353882 315.820435,712.546265 
	C334.880554,715.465942 353.931000,718.452148 373.009491,721.246826 
	C378.451355,722.043945 383.053955,719.232788 385.753479,714.407288 
	C387.598663,711.108948 387.977112,707.422180 388.672302,703.868652 
	C390.989136,692.025818 386.119720,682.537292 375.249237,677.806458 
	C368.398041,674.824707 361.604187,671.564209 353.260712,670.254272 
M204.533218,758.170288 
	C204.595398,754.824646 205.331848,751.583557 205.897461,748.300537 
	C208.482254,733.297668 216.256531,720.666870 224.012833,708.013123 
	C225.083679,706.266113 226.701675,705.077881 228.350204,703.932922 
	C238.468781,696.905701 248.201126,689.264771 259.335632,683.830383 
	C262.934448,682.073853 262.903351,678.737061 263.248383,675.760376 
	C263.607452,672.663208 260.393677,672.500488 258.418365,671.612793 
	C255.388428,670.251160 252.190903,669.267456 249.110397,668.010864 
	C247.927307,667.528198 246.536346,666.934387 247.547409,664.667969 
	C252.441406,665.000610 257.036255,666.845276 261.664642,668.546692 
	C263.556732,669.242249 265.613342,670.251282 267.035553,667.990601 
	C268.579529,665.536255 270.970673,663.459595 271.208313,660.046570 
	C269.852722,659.458191 268.695404,658.824890 267.460693,658.439819 
	C252.883331,653.893555 239.433167,656.154602 227.416245,665.586975 
	C221.344986,670.352417 214.697845,674.268616 210.957169,681.861816 
	C203.562729,696.871704 198.583145,712.715027 192.905792,728.350952 
	C188.129303,741.505798 186.813019,754.449768 191.219650,767.857971 
	C192.776794,772.596008 193.808121,777.508179 195.396576,782.234253 
	C199.811264,795.369141 204.400055,808.709473 213.114349,819.511963 
	C226.333542,835.898621 229.816376,836.989807 247.378769,827.699829 
	C260.253540,820.889465 269.138397,809.847778 277.578796,798.401184 
	C279.099243,796.339294 280.711761,794.391174 278.441315,791.783142 
	C276.251526,789.267639 274.564636,786.591736 270.233948,787.898193 
	C250.247803,793.927612 233.669235,788.382874 219.960358,772.867798 
	C216.242050,768.659546 213.408676,763.862122 209.609283,759.576111 
	C209.838882,784.594910 212.957932,808.671814 231.000549,828.801819 
	C225.184860,830.009277 222.447083,826.606018 220.082932,823.043579 
	C210.523941,808.639465 207.399490,792.098450 204.742905,775.460938 
	C203.879486,770.053528 203.162430,764.559326 204.533218,758.170288 
M240.636887,707.198059 
	C238.398529,708.630554 236.108902,709.989868 233.933517,711.512329 
	C230.480820,713.928894 228.255493,717.361877 228.093918,721.490234 
	C227.682434,732.004211 225.439972,741.888489 219.671783,750.831665 
	C218.174606,753.152832 217.315781,755.822449 218.511841,758.441956 
	C223.667984,769.734375 230.971054,778.929077 243.589188,782.359558 
	C247.425018,783.402405 251.403641,784.065857 255.361145,784.478394 
	C260.305878,784.993896 265.140106,784.377869 269.617004,781.893677 
	C260.772980,763.082397 256.536285,742.964355 258.859222,725.898987 
	C260.085175,716.892639 259.366699,707.966309 259.711914,699.010986 
	C259.772125,697.449097 260.180542,695.588806 257.554352,694.424805 
	C252.262283,698.409973 246.727554,702.577881 240.636887,707.198059 
M520.500488,858.957153 
	C524.137573,868.695129 527.774658,878.433105 531.442688,888.253906 
	C534.124451,885.931702 534.073059,882.949158 533.688599,880.217896 
	C531.169434,862.324341 532.025391,843.929565 525.724304,826.591736 
	C523.512756,820.506470 521.622986,814.303467 519.374390,808.232666 
	C515.387634,797.469177 511.307404,786.738342 506.198395,776.435059 
	C505.214874,774.451660 504.224304,773.097900 501.612122,774.229614 
	C496.610901,776.396179 492.597931,784.677734 494.728363,789.612732 
	C504.412537,812.045776 513.955078,834.523254 520.500488,858.957153 
M359.732788,539.189697 
	C354.077209,539.376709 348.418488,539.496521 342.766724,539.764160 
	C329.743500,540.380981 316.884949,539.730774 304.126251,536.563660 
	C291.303986,533.380737 279.876068,527.451050 268.859100,520.450623 
	C267.433685,519.544922 265.714325,517.523804 264.030579,519.231750 
	C262.158417,521.130859 264.173645,522.885437 265.323364,524.428406 
	C270.838501,531.830139 278.715393,536.402039 286.367554,540.965637 
	C303.374725,551.108459 322.376831,551.892944 341.494873,551.292114 
	C346.627197,551.130859 351.943573,551.045776 356.545471,548.326599 
	C359.794708,546.406738 363.511566,544.314392 359.732788,539.189697 
M400.321930,684.057983 
	C398.568695,683.054626 396.751251,682.913879 395.210449,684.282837 
	C393.431244,685.863525 394.637695,687.634277 395.234100,689.326172 
	C395.509094,690.106262 395.981598,690.947449 395.892548,691.705444 
	C394.736725,701.546265 394.688904,711.569397 389.167450,720.499878 
	C385.029327,727.192993 386.692383,730.503784 394.341187,732.807678 
	C400.518921,734.668457 406.322144,729.814697 412.581818,731.798767 
	C413.246948,732.009644 414.693420,730.343140 415.526520,729.339417 
	C420.261566,723.634399 420.883148,716.607727 418.124695,710.556946 
	C413.809448,701.091064 407.600800,692.543884 400.321930,684.057983 
M371.010071,635.797791 
	C373.673553,635.949219 376.259766,636.223633 378.211517,633.604614 
	C379.915802,631.317688 381.927002,632.015015 383.762451,633.715820 
	C387.963593,637.608948 388.187866,645.222168 384.157562,649.551697 
	C379.651550,654.392273 374.174652,657.253174 367.455505,657.290100 
	C360.811829,657.326599 354.167389,657.255859 347.523499,657.204712 
	C345.509491,657.189270 343.147980,656.828003 343.029999,659.719360 
	C342.925842,662.271973 345.270782,661.566406 346.751038,661.894592 
	C353.728851,663.441589 360.655884,665.174988 367.401031,667.563538 
	C382.834900,673.028748 399.974060,659.206482 397.671875,643.032593 
	C397.150787,639.371765 395.932922,635.417175 392.174103,634.095703 
	C385.481201,631.742493 378.819885,628.799622 371.446808,629.287415 
	C369.571716,629.411499 366.826447,628.479797 366.206238,630.890076 
	C365.501129,633.630066 367.863464,634.912781 371.010071,635.797791 
M536.555237,1015.058228 
	C540.037598,1010.214966 543.848999,1005.570068 546.918640,1000.477966 
	C550.718506,994.174438 553.382751,987.372681 552.196228,979.699097 
	C551.893433,977.740784 551.279297,976.090515 548.862000,976.190002 
	C545.818726,976.315186 538.995361,983.237549 539.246521,986.318237 
	C539.542358,989.945984 538.585449,993.162903 537.241333,996.428040 
	C534.779785,1002.407837 532.475220,1008.452759 530.141785,1014.484680 
	C529.255676,1016.775452 528.543091,1019.109314 529.660706,1022.062012 
	C532.530884,1020.265686 534.140015,1017.746948 536.555237,1015.058228 
M145.367371,314.346008 
	C143.110092,318.962738 144.161057,324.689728 147.831665,327.774597 
	C152.251663,331.489288 157.947250,331.919464 162.056366,328.848938 
	C166.592987,325.459045 166.665359,319.150238 161.870239,317.610718 
	C156.740326,315.963715 151.523346,314.249237 145.367371,314.346008 
M463.107697,436.334625 
	C462.780029,431.180420 461.039001,426.589417 457.583099,422.714508 
	C456.187408,421.149658 454.461578,419.868652 452.364990,421.111786 
	C450.213654,422.387451 450.711182,424.571320 451.367950,426.504333 
	C451.732910,427.578430 452.374054,428.597870 453.058228,429.517303 
	C455.569855,432.892456 456.943848,436.799683 458.713287,440.548553 
	C460.214813,443.729858 458.123596,447.445312 460.827179,450.612518 
	C464.718445,446.375397 463.673035,441.718933 463.107697,436.334625 
M349.490417,636.614319 
	C349.269318,638.029053 347.991455,639.250854 348.762604,641.040833 
	C352.723083,642.857971 355.724396,641.208923 358.096802,638.041016 
	C359.412048,636.284729 360.322418,634.156494 358.499969,632.150940 
	C357.080170,630.588562 355.733002,628.337036 353.455963,628.491272 
	C350.745117,628.674866 350.898499,631.535522 350.204926,633.466614 
	C349.928253,634.237000 349.864380,635.083801 349.490417,636.614319 
M255.866531,317.653961 
	C257.804108,320.304657 259.875916,322.052399 263.145538,318.499268 
	C258.739929,316.240387 254.616074,314.125946 250.492218,312.011475 
	C250.391083,312.891479 250.575455,313.166382 250.817856,313.373352 
	C252.319382,314.655304 253.833954,315.922028 255.866531,317.653961 
z"/>
<path fill="#000000" opacity="1.000000" stroke="none" 
	d="
M785.000000,281.531342 
	C778.114868,282.427521 772.625732,278.827087 767.030151,275.657043 
	C757.474915,270.243866 749.302795,262.655151 739.251221,257.988068 
	C736.635498,256.773590 734.968567,254.397705 733.339172,252.027054 
	C729.341797,246.211121 724.375916,241.318466 718.668518,237.165802 
	C717.000122,235.951904 715.101379,234.695999 713.157837,235.311050 
	C706.610046,237.383133 699.333252,237.896652 694.620178,244.071381 
	C691.544128,248.101440 689.345154,247.738495 687.828552,242.915588 
	C684.186829,231.335129 679.925964,219.932358 677.514771,207.984756 
	C677.121033,206.033844 676.654907,204.065598 675.321289,202.468338 
	C656.216492,179.587677 638.342957,155.739365 620.360046,131.989258 
	C606.591125,113.804565 593.705872,94.970360 581.676147,75.565636 
	C568.245300,53.900856 555.967407,31.607903 544.866882,8.665965 
	C543.782471,6.424680 542.979492,4.047173 542.022949,1.366452 
	C560.020874,1.000000 578.041809,1.000000 596.653076,1.328627 
	C608.237427,22.676065 621.056702,42.456036 637.058716,60.054424 
	C648.099854,72.197067 660.299133,82.942917 674.850952,90.772881 
	C679.695435,93.379593 680.130127,92.971382 680.798950,87.416283 
	C682.493896,73.337837 682.674927,59.230320 681.781189,45.111259 
	C680.846191,30.341520 679.357178,15.620933 677.000000,1.000000 
	C712.933411,1.000000 748.866882,1.000000 785.000000,1.000000 
	C785.000000,43.687355 785.000000,86.375015 784.711548,129.284836 
	C780.532654,127.107567 776.250793,127.513153 772.377686,128.843018 
	C765.518372,131.198257 759.866089,131.416840 755.527344,124.281021 
	C753.790039,121.423729 750.972046,122.299255 750.358826,125.682632 
	C749.874329,128.355026 749.980347,131.134460 749.824219,133.866364 
	C747.873474,127.362953 745.594421,121.208038 741.578247,115.763603 
	C738.652405,111.797249 736.521118,111.679962 734.455261,116.232086 
	C732.027161,121.582573 728.203674,125.605896 723.907715,129.339508 
	C721.084412,131.793259 719.136108,134.775558 717.659302,138.231598 
	C713.404114,148.189697 712.934570,158.499969 713.967224,169.100830 
	C715.629211,186.162384 721.088623,201.181473 735.388000,211.918976 
	C739.604797,215.085358 748.389038,216.797958 752.404175,214.418518 
	C757.346130,211.489822 758.142212,206.682358 757.812988,201.380219 
	C757.078003,189.540100 753.823486,178.110229 752.284607,166.403595 
	C751.307800,158.973190 749.964478,151.564285 751.601929,144.026352 
	C754.099854,155.047592 756.509216,166.065430 758.210327,177.191544 
	C760.127930,189.734161 763.232300,201.960068 766.934692,214.044113 
	C768.610291,219.512772 772.310486,221.061615 777.669312,219.510651 
	C780.058472,218.819168 782.553162,218.492340 785.000000,218.000000 
	C785.000000,239.020889 785.000000,260.041779 785.000000,281.531342 
z"/>
<path fill="#000000" opacity="1.000000" stroke="none" 
	d="
M785.000000,978.531372 
	C775.946777,978.763428 767.255066,981.162231 758.466064,982.751953 
	C743.703674,985.422180 729.417236,989.997375 714.992432,994.010254 
	C709.615845,995.506104 704.181274,996.072693 698.735291,994.471252 
	C690.571594,992.070557 688.524902,986.759155 693.244385,979.701782 
	C697.035278,974.033081 701.176819,968.598755 705.164062,963.061340 
	C705.829102,962.137756 706.826050,961.387024 706.690796,959.651367 
	C702.363586,958.680664 698.371765,960.839172 694.396729,961.720398 
	C663.202637,968.636047 631.497681,972.855286 600.305298,979.748535 
	C596.031677,980.692932 591.652161,980.566956 587.363342,980.089539 
	C584.012756,979.716614 580.722717,978.447205 579.478088,974.834961 
	C578.260254,971.300720 580.342712,968.808105 582.748413,966.559998 
	C594.757385,955.338013 608.833923,946.988708 622.621216,938.313293 
	C647.209106,922.841858 671.087524,906.611023 691.095825,885.187866 
	C711.320679,863.532776 726.576721,839.115479 734.994446,810.585388 
	C736.737732,804.676758 738.661987,798.821472 740.398560,792.910950 
	C741.443848,789.353516 743.428162,788.975159 746.399963,790.690002 
	C749.209717,792.311218 751.159912,794.841431 753.393921,797.060608 
	C757.825317,801.462769 762.804810,804.457214 769.333130,804.000671 
	C772.371155,803.788147 774.678650,805.119324 776.890747,807.166382 
	C779.398499,809.486877 780.996582,812.829163 784.734009,814.042847 
	C785.000000,868.687561 785.000000,923.375122 785.000000,978.531372 
z"/>
<path fill="#000000" opacity="1.000000" stroke="none" 
	d="
M409.052307,376.971924 
	C404.725677,371.091431 398.612366,368.251465 392.717896,365.204773 
	C388.694641,363.125336 383.706970,364.986298 379.959137,369.328094 
	C373.551819,376.750854 372.343384,385.664337 372.178986,395.012573 
	C371.885315,411.712524 374.910828,427.735687 381.307251,443.148010 
	C381.536285,443.699921 381.410767,444.398956 381.451294,445.042236 
	C379.380096,445.733826 378.975067,444.072571 378.416962,443.094208 
	C366.209686,421.695862 362.818237,399.023560 369.501678,375.231415 
	C374.296021,358.164215 388.920929,353.004700 403.175171,363.463867 
	C419.058289,375.118256 426.366943,391.687012 428.246521,410.914612 
	C429.101654,419.662140 428.106384,428.212036 424.936676,436.442322 
	C422.036285,443.973297 425.207306,447.925140 433.634674,447.172455 
	C441.188110,446.497833 446.270172,450.140930 446.447968,456.357635 
	C446.576904,460.865997 442.296234,467.390839 438.091309,469.095367 
	C427.170380,473.522339 423.190247,471.478363 417.549408,458.546204 
	C414.913666,452.503540 413.374634,451.766815 406.939423,454.288788 
	C400.999023,456.616852 395.250824,456.618805 389.542175,453.772888 
	C387.799133,452.903992 385.814331,452.199738 385.519379,449.851440 
	C386.623901,448.453583 387.699005,449.451782 388.682678,449.816010 
	C405.610962,456.083984 419.834991,448.434479 422.437592,430.751099 
	C425.297150,411.321716 419.905273,393.549469 409.052307,376.971924 
z"/>
<path fill="#000000" opacity="1.000000" stroke="none" 
	d="
M311.225220,425.656891 
	C311.797668,426.300201 312.178345,426.635437 312.475220,427.033234 
	C314.017792,429.100342 317.644775,430.318909 316.955475,433.148621 
	C316.206543,436.223083 312.691010,434.681000 310.392212,435.079407 
	C308.241058,435.452240 307.162964,436.762939 306.709564,438.643921 
	C306.047943,441.388550 305.281067,444.159302 305.086914,446.955566 
	C304.484009,455.639038 299.360107,462.427948 295.540222,469.673157 
	C291.887878,476.600586 284.234619,474.832855 278.092224,475.981323 
	C275.119476,476.537109 271.879791,476.436005 268.867523,474.579254 
	C271.161163,472.386017 273.813873,473.072449 276.193146,472.862915 
	C288.078552,471.816284 295.852997,464.629028 298.980621,453.203461 
	C303.949432,435.051971 297.468719,419.506561 288.979095,404.279541 
	C285.389130,397.840576 280.861145,392.171387 274.874725,387.680420 
	C266.246857,381.207855 256.753326,381.478546 248.410370,388.408691 
	C235.068588,399.491150 233.453384,414.488831 234.609360,430.188232 
	C235.487213,442.110535 238.217545,453.612732 246.696045,462.807159 
	C248.991425,465.296387 251.599762,467.497009 254.673355,470.406525 
	C251.230499,470.508270 249.399979,469.159760 247.717163,467.587250 
	C230.422485,451.426117 225.236801,431.603271 230.519714,408.918304 
	C232.129822,402.004425 233.723999,394.855865 238.268753,389.053589 
	C249.837784,374.283417 269.169861,373.217316 283.027649,385.956909 
	C290.919769,393.212158 295.084259,402.562408 299.438385,411.873108 
	C300.401031,413.931610 303.195068,415.538605 301.294830,419.159332 
	C306.164429,414.592163 307.533905,417.926636 308.939392,421.400665 
	C309.496613,422.778076 310.302216,424.055023 311.225220,425.656891 
z"/>
<path fill="#000000" opacity="1.000000" stroke="none" 
	d="
M256.692474,425.091339 
	C257.521820,420.890289 258.876221,417.367493 261.059448,414.146729 
	C266.495514,406.127228 276.534698,405.917603 282.277679,413.911011 
	C288.263306,422.242126 288.872467,431.784332 287.862366,441.561218 
	C287.503967,445.030365 286.657959,448.400513 284.930237,451.527313 
	C280.139465,460.197449 269.895477,461.247894 263.476715,453.603455 
	C256.577667,445.387085 255.074783,435.812958 256.692474,425.091339 
M280.495422,420.210144 
	C279.609314,418.448700 278.352936,417.134216 276.221130,417.701813 
	C274.748383,418.093933 274.352966,419.484741 274.318634,420.874359 
	C274.258179,423.319702 274.707153,426.136261 277.406738,426.323425 
	C280.901276,426.565735 280.820709,423.525116 280.495422,420.210144 
M265.923035,419.808105 
	C264.992950,418.598724 263.960754,417.180298 262.330444,418.539734 
	C260.703156,419.896667 260.120789,421.772888 260.953156,423.902161 
	C261.390381,425.020599 261.895477,426.128815 263.279297,426.135376 
	C265.440796,426.145599 265.902283,424.408447 266.285828,422.799072 
	C266.466370,422.041718 266.256287,421.191193 265.923035,419.808105 
z"/>
<path fill="#000000" opacity="1.000000" stroke="none" 
	d="
M388.661377,393.862823 
	C393.908722,386.029602 403.772064,386.220123 409.245941,396.478516 
	C414.362854,406.067810 414.930542,416.448639 411.598206,426.904938 
	C410.446045,430.520111 408.062042,433.282288 405.142578,435.563232 
	C401.262360,438.594940 396.435669,437.890442 392.722351,433.892181 
	C383.867310,424.357544 381.980377,406.872040 388.661377,393.862823 
M402.757812,398.993591 
	C399.644196,400.900208 399.665649,403.347443 401.677307,405.991364 
	C402.833099,407.510376 404.270447,407.496521 405.244659,405.837463 
	C406.910797,403.000061 406.582642,400.542999 402.757812,398.993591 
M389.101532,402.263702 
	C389.353027,403.430359 389.573120,404.803345 391.250275,404.053040 
	C392.407562,403.535278 392.720734,402.329315 392.700470,401.095062 
	C392.682648,400.010254 392.290283,398.927582 391.186432,398.832642 
	C389.316315,398.671844 389.274963,400.252563 389.101532,402.263702 
z"/>
<path fill="#000000" opacity="1.000000" stroke="none" 
	d="
M139.817566,481.048096 
	C142.355927,475.851257 141.592621,474.015869 136.307678,473.455536 
	C131.567520,472.952972 126.753838,471.985840 121.988174,473.720642 
	C120.660042,474.204132 119.078835,474.634216 117.571869,473.069885 
	C119.007835,469.677429 122.388405,469.254089 125.236656,468.921814 
	C138.785370,467.341095 153.558304,470.017639 162.285889,486.336121 
	C164.011032,489.561737 165.869370,492.715942 167.608795,495.934174 
	C168.181244,496.993256 168.471024,498.197174 167.355820,499.112671 
	C166.253922,500.017242 164.996521,499.643188 164.203720,498.765869 
	C162.256531,496.610992 159.378632,495.241425 158.919067,491.812714 
	C158.185532,486.340118 154.133972,483.255524 149.948013,480.455566 
	C146.978592,478.469421 145.476761,480.898407 144.699905,483.018707 
	C142.017212,490.340515 141.686874,497.591492 146.368652,504.421875 
	C147.224777,505.670898 149.157104,506.478180 148.409668,508.556580 
	C139.013016,507.394836 134.502090,493.277435 139.817566,481.048096 
z"/>
<path fill="#000000" opacity="1.000000" stroke="none" 
	d="
M371.636353,467.712097 
	C372.442291,466.020325 373.183105,464.709106 373.719482,463.319031 
	C374.516998,461.252319 376.867371,459.126678 374.958618,456.947876 
	C373.289276,455.042389 370.539612,456.003510 368.295746,456.277618 
	C362.285583,457.011810 356.947449,459.893097 351.327850,461.879059 
	C349.981415,462.354858 348.734497,463.416443 347.163239,462.807800 
	C346.090851,460.825256 347.462769,459.849121 348.678009,459.108856 
	C356.042786,454.623016 364.010101,451.880829 372.682251,451.843506 
	C379.429352,451.814484 381.351898,454.070770 380.441254,460.759033 
	C379.145386,470.276794 374.891052,478.402466 368.086609,485.154297 
	C366.848022,486.383362 365.531219,487.863953 362.355865,487.160980 
	C363.143066,479.679993 369.900604,474.954987 371.636353,467.712097 
z"/>
<path fill="#000000" opacity="1.000000" stroke="none" 
	d="
M244.224533,479.615723 
	C246.772095,481.257507 249.878387,482.924408 247.902267,485.878448 
	C246.047974,488.650513 247.194199,494.669220 240.707901,493.431732 
	C239.200272,493.144104 237.405701,494.739960 235.670746,495.189972 
	C231.272476,496.330902 228.744232,494.384644 229.019897,489.940460 
	C229.296967,485.473175 231.197891,481.533447 234.374344,478.471863 
	C237.702896,475.263733 240.826202,477.989166 244.224533,479.615723 
z"/>
<path fill="#000000" opacity="1.000000" stroke="none" 
	d="
M113.375763,474.627441 
	C111.355614,482.688232 112.572189,490.262238 114.239700,497.930023 
	C107.476234,493.655731 107.856529,486.858002 108.012596,480.594330 
	C108.145195,475.272278 108.963966,469.627960 114.601021,466.222504 
	C116.521286,469.732574 114.058388,471.804077 113.375763,474.627441 
z"/>
<path fill="#000000" opacity="1.000000" stroke="none" 
	d="
M253.244019,484.836609 
	C254.398529,482.615448 255.833359,481.660522 256.644958,484.353516 
	C257.396332,486.846771 257.001343,489.479584 254.573151,491.329498 
	C251.954391,489.442902 253.001297,487.226379 253.244019,484.836609 
z"/>
</svg>