<svg version="1.1" id="Layer_1" xmlns="http://www.w3.org/2000/svg" xmlns:xlink="http://www.w3.org/1999/xlink" x="0px" y="0px"
	 width="100%" viewBox="0 0 300 200" enable-background="new 0 0 300 200" xml:space="preserve">
<path fill="#FABD00" opacity="1.000000" stroke="none" 
	d="
M1.000000,151.000000 
	C1.000000,117.979103 1.000000,84.958214 1.468657,51.468094 
	C101.624878,50.999249 201.312439,50.999626 301.000000,51.000000 
	C301.000000,84.020897 301.000000,117.041786 300.531342,150.531891 
	C200.375122,151.000732 100.687561,151.000366 1.000000,151.000000 
M101.797104,68.444603 
	C101.231659,68.624893 100.666222,68.805191 100.028847,69.791702 
	C99.985046,70.870857 99.941254,71.950020 99.099007,72.996338 
	C97.065125,73.379257 95.031242,73.762184 92.511169,73.981583 
	C92.354553,73.912964 92.197937,73.844345 92.079834,73.150711 
	C92.288467,69.155624 94.938301,68.680931 98.306496,69.243462 
	C95.493584,65.168037 93.089729,65.738983 89.607719,70.309982 
	C86.085175,69.883087 82.443024,69.334457 80.484749,73.341339 
	C78.471451,77.460793 81.040024,80.290764 83.642418,82.940048 
	C84.545380,83.859268 85.805634,84.427521 87.235878,85.730568 
	C87.813843,87.148262 88.391808,88.565956 88.081566,89.986656 
	C85.864876,90.083580 83.648193,90.180511 81.174553,90.288673 
	C81.174553,95.539009 81.174553,100.249016 81.038841,105.514099 
	C81.027084,105.704208 81.015335,105.894318 80.289261,106.201836 
	C79.760590,105.754593 79.231926,105.307350 78.577415,104.221558 
	C77.472313,101.770065 76.367203,99.318581 75.195686,96.405411 
	C75.164520,96.096054 75.183456,95.789803 75.678925,94.969879 
	C77.032883,91.064735 75.326645,87.223091 71.325172,85.139305 
	C66.055779,90.843880 68.490417,97.722145 67.859711,104.689995 
	C65.210831,106.510765 65.472656,108.656921 67.317749,111.632141 
	C67.864075,113.211983 68.410393,114.791832 68.358833,116.793541 
	C66.170082,118.393082 61.990295,119.798920 67.905510,123.025917 
	C68.004028,125.021034 68.102547,127.016144 68.145668,129.500656 
	C68.145668,129.500656 68.248215,129.982376 68.075699,130.710876 
	C67.711334,132.135117 67.346970,133.559357 66.810425,135.678467 
	C64.654694,139.551712 67.994667,139.213120 70.805061,140.079865 
	C71.859413,140.016708 72.913757,139.953552 74.720963,139.972107 
	C75.650391,139.665207 76.579819,139.358307 77.444008,139.492554 
	C77.531868,139.624176 77.592537,139.813858 77.715141,139.871262 
	C77.840797,139.930099 78.027061,139.859467 78.186806,139.845505 
	C77.817230,138.195084 77.447662,136.544678 77.052780,134.921295 
	C77.052780,134.921295 77.093765,134.919785 77.107407,134.075821 
	C76.623672,128.605576 76.139931,123.135338 76.140144,117.143738 
	C76.457680,115.089828 76.775215,113.035927 76.686806,110.394051 
	C76.735527,105.842567 79.365334,108.826347 81.001648,109.713074 
	C81.630768,111.814117 82.259888,113.915161 82.977592,116.945122 
	C82.637230,121.854683 82.153976,126.761765 82.068321,131.675766 
	C82.049561,132.752335 83.447090,133.853577 84.515137,134.995224 
	C84.515137,134.995224 84.841751,135.008835 85.221809,135.577972 
	C86.428650,136.060120 87.635498,136.542282 89.064445,137.475418 
	C89.353340,137.602417 89.642235,137.729416 90.430321,137.973923 
	C90.600716,137.960236 90.771111,137.946564 91.505524,137.972336 
	C91.691917,137.944412 91.878304,137.916504 92.513298,137.960907 
	C92.513298,137.960907 92.967331,137.942551 92.957664,138.065292 
	C92.957664,138.065292 93.015640,138.173889 93.208908,138.655014 
	C93.550255,139.042603 93.891594,139.430191 94.736221,140.459137 
	C99.095329,140.230408 103.454437,140.001663 108.101997,139.398575 
	C108.314041,139.153076 108.573425,138.977478 109.684837,138.980927 
	C114.891052,138.839844 118.617477,136.661743 120.700523,130.731003 
	C120.472061,125.098190 120.243591,119.465370 120.007568,112.991989 
	C120.060425,111.593307 120.113281,110.194618 120.907928,108.778938 
	C122.621780,108.501892 124.335632,108.224846 126.275467,108.614624 
	C125.822258,109.400887 125.369049,110.187157 124.321114,111.391289 
	C124.994392,113.482857 125.667664,115.574425 126.358543,118.651451 
	C125.854492,124.048676 125.350433,129.445908 124.880112,134.848190 
	C124.880112,134.848190 124.862762,134.842682 124.246620,135.105713 
	C123.984993,136.577820 123.723358,138.049927 123.461739,139.522034 
	C123.806953,139.364777 124.152168,139.207520 125.250999,139.098389 
	C126.176521,139.362289 127.102036,139.626190 128.802704,140.096558 
	C129.855194,140.023422 130.907700,139.950302 132.687912,139.970718 
	C135.558121,139.310349 136.948257,137.940750 135.105728,134.263687 
	C134.385498,132.713165 133.665283,131.162659 132.971909,128.867401 
	C133.343613,126.694885 133.715317,124.522362 134.785065,122.193092 
	C137.680862,120.251030 137.111877,118.699944 134.340500,117.186356 
	C133.425079,116.686401 132.760864,115.726524 132.069412,114.278580 
	C132.420288,112.953606 132.771164,111.628624 133.699997,110.477188 
	C137.943802,108.463058 137.906921,107.622269 133.490402,103.038216 
	C133.511383,98.221283 133.768875,93.385254 133.382751,88.601181 
	C133.289246,87.442528 131.164230,85.775986 129.803894,85.591286 
	C128.584106,85.425674 126.042030,86.897911 125.977341,87.785599 
	C125.747421,90.941017 126.326553,94.155373 126.602707,98.131966 
	C126.865280,100.997635 126.260246,103.324074 122.267250,103.972237 
	C121.566780,103.983192 120.866310,103.994148 120.044724,103.081772 
	C120.044724,99.152893 120.044724,95.224014 120.044724,91.227150 
	C117.108658,91.065201 114.959839,90.946671 112.934677,90.168304 
	C113.227974,89.110489 113.521271,88.052681 114.154030,86.389206 
	C114.760643,85.212036 115.367249,84.034866 116.419861,82.368256 
	C118.134941,80.713593 119.850021,79.058937 121.679871,77.293549 
	C118.726288,76.152946 116.880035,75.439972 114.632256,74.329498 
	C114.386940,71.974907 114.566002,71.770561 116.544380,72.509285 
	C118.055923,73.073700 119.511230,73.788727 120.991547,74.436752 
	C118.929817,66.885727 111.675064,71.693047 107.175003,67.975067 
	C106.122055,68.046356 105.069099,68.117638 103.514778,68.300819 
	C103.041504,68.479019 102.568230,68.657211 102.037544,68.882172 
	C102.037544,68.882172 102.104828,68.913078 101.797104,68.444603 
z"/>
<path fill="#AD1519" opacity="1.000000" stroke="none" 
	d="
M1.000000,151.468658 
	C100.687561,151.000366 200.375122,151.000732 300.531342,151.000549 
	C301.000000,167.648422 301.000000,184.296844 301.000000,200.943542 
	C200.999985,200.941818 100.999977,200.941818 1.000000,200.941818 
	C1.000000,184.568192 1.000000,168.252762 1.000000,151.468658 
z"/>
<path fill="#AD1519" opacity="1.000000" stroke="none" 
	d="
M301.000000,50.531342 
	C201.312439,50.999626 101.624878,50.999249 1.468657,50.999435 
	C1.000000,34.351578 1.000000,17.703156 1.000005,1.056448 
	C101.000015,1.058164 201.000015,1.058164 301.000000,1.058164 
	C301.000000,17.431780 301.000000,33.747231 301.000000,50.531342 
z"/>
<path fill="#B40027" opacity="1.000000" stroke="none" 
	d="
M82.888992,116.016205 
	C82.259888,113.915161 81.630768,111.814117 81.050827,108.962448 
	C81.067871,107.502686 81.035721,106.793556 81.003578,106.084427 
	C81.015335,105.894318 81.027084,105.704208 81.337189,104.899689 
	C81.750313,102.642838 81.945442,101.001427 81.966560,99.357788 
	C82.085609,90.093719 80.953636,91.169891 90.627541,90.905304 
	C92.805557,90.845734 94.953903,89.701225 97.458405,89.042473 
	C98.600204,89.364761 99.399521,89.700745 100.318810,90.434364 
	C100.639755,93.920494 101.181007,97.034355 100.953110,100.090866 
	C100.685341,103.682060 101.538239,106.349098 104.673958,108.190750 
	C103.610260,108.968407 102.758080,109.515182 101.648987,109.935959 
	C99.969147,109.960083 98.546204,110.110207 97.033821,109.880585 
	C96.885864,109.247429 96.827347,108.994011 96.672134,108.594589 
	C96.410316,108.274223 96.213577,108.149818 95.991547,108.044617 
	C95.997887,108.013855 95.935120,108.020004 95.929672,107.601791 
	C96.554771,102.052979 96.874969,97.039505 90.807503,94.318466 
	C86.981842,95.948631 85.321655,98.625923 86.783920,103.093094 
	C87.268761,104.574280 86.855530,106.349434 86.533539,108.090256 
	C84.398674,110.287376 85.457367,111.394562 87.636612,111.713966 
	C89.699738,112.016357 91.818924,111.936249 93.942238,112.270569 
	C94.159500,112.905029 94.347992,113.293274 94.536484,113.681519 
	C94.664436,113.104736 94.792389,112.527946 94.932655,111.945999 
	C94.944969,111.940842 94.959206,111.918259 95.359383,111.966492 
	C96.027596,112.034401 96.295631,112.054077 96.473038,112.451057 
	C96.423775,113.850021 96.465134,114.871681 96.145065,115.986298 
	C95.200768,117.064651 94.617897,118.050041 94.015671,119.500641 
	C93.990448,124.050621 93.827812,128.144012 94.051994,132.216110 
	C94.148438,133.967941 95.046974,135.675613 95.546310,137.526443 
	C95.511497,137.649536 95.497635,137.904999 95.184364,137.879181 
	C94.252609,137.960220 93.634125,138.067047 93.015640,138.173889 
	C93.015640,138.173889 92.957664,138.065292 92.974617,137.539398 
	C92.993164,134.545471 93.112434,132.070663 92.971382,129.610794 
	C92.693779,124.769943 92.271606,119.937378 91.690620,115.087601 
	C91.472000,115.073822 91.037041,115.126343 90.730240,115.401688 
	C90.259331,123.070160 90.095230,130.463303 89.931122,137.856430 
	C89.642235,137.729416 89.353340,137.602417 89.005196,136.784210 
	C88.960800,130.306625 89.098808,124.515800 88.890480,118.737457 
	C88.846863,117.527672 87.526810,116.363914 86.794968,115.178947 
	C86.200287,116.335266 85.141525,117.471443 85.090324,118.651352 
	C84.853989,124.097183 84.898148,129.555191 84.841751,135.008835 
	C84.841751,135.008835 84.515137,134.995224 84.296539,134.507812 
	C84.048149,130.896255 84.150261,127.763634 83.950012,124.650459 
	C83.764191,121.761574 83.255516,118.893463 82.888992,116.016205 
z"/>
<path fill="#AFADAE" opacity="1.000000" stroke="none" 
	d="
M104.885483,107.959877 
	C101.538239,106.349098 100.685341,103.682060 100.953110,100.090866 
	C101.181007,97.034355 100.639755,93.920494 100.744576,90.438568 
	C104.970581,90.306137 108.890800,90.567139 112.811020,90.828140 
	C114.959839,90.946671 117.108658,91.065201 120.044724,91.227150 
	C120.044724,95.224014 120.044724,99.152893 120.038879,103.939507 
	C120.077400,106.130142 120.121765,107.463036 120.166138,108.795937 
	C120.113281,110.194618 120.060425,111.593307 119.554634,113.491814 
	C115.379272,113.979797 111.656837,113.967957 107.830795,113.603859 
	C107.383003,112.071243 107.038826,110.890884 107.039879,109.545860 
	C109.797592,109.558167 112.210075,109.735130 115.099258,109.947060 
	C115.099258,108.498367 115.099258,106.805695 115.293396,104.846619 
	C114.019569,95.736862 113.348366,95.225410 105.196526,96.546394 
	C105.456970,98.705048 105.716911,100.859604 106.011497,103.301247 
	C106.844711,103.227821 108.444267,103.086861 109.997948,103.305237 
	C108.685417,105.267525 107.418770,106.870468 105.839752,108.334442 
	C105.313423,108.116928 105.099449,108.038399 104.885483,107.959877 
z"/>
<path fill="#814B08" opacity="1.000000" stroke="none" 
	d="
M115.973854,82.857697 
	C115.367249,84.034866 114.760643,85.212036 113.651306,86.611237 
	C111.960503,86.305534 110.771873,85.325172 109.584450,85.326622 
	C103.720932,85.333801 97.857605,85.598076 91.998543,85.866302 
	C91.973091,85.867470 92.010139,87.234085 91.910751,88.284378 
	C90.858917,89.065048 89.914345,89.524345 88.969765,89.983650 
	C88.391808,88.565956 87.813843,87.148262 87.162338,85.128448 
	C87.727203,83.991714 88.365608,83.457100 89.384605,82.911438 
	C92.150490,82.242752 94.535774,81.585098 97.244873,80.826645 
	C101.711266,80.464752 105.853844,80.203659 110.258125,79.965660 
	C112.337830,80.945068 114.155846,81.901382 115.973854,82.857697 
z"/>
<path fill="#917204" opacity="1.000000" stroke="none" 
	d="
M126.599281,97.347412 
	C126.326553,94.155373 125.747421,90.941017 125.977341,87.785599 
	C126.042030,86.897911 128.584106,85.425674 129.803894,85.591286 
	C131.164230,85.775986 133.289246,87.442528 133.382751,88.601181 
	C133.768875,93.385254 133.511383,98.221283 133.317169,103.357529 
	C132.854965,103.440712 132.565964,103.204582 132.219208,102.538002 
	C132.036163,100.534393 131.910889,98.961227 131.757904,97.040337 
	C129.789017,97.133484 128.194931,97.208893 126.594833,97.298111 
	C126.588799,97.311913 126.599281,97.347412 126.599281,97.347412 
z"/>
<path fill="#A60922" opacity="1.000000" stroke="none" 
	d="
M109.996429,79.942566 
	C105.853844,80.203659 101.711266,80.464752 96.952744,80.625961 
	C94.779915,80.181870 93.223015,79.837662 91.576958,79.473747 
	C91.361809,77.576454 91.164040,75.832336 91.231689,73.998604 
	C91.678513,73.864571 91.859924,73.820152 92.041328,73.775734 
	C92.197937,73.844345 92.354553,73.912964 92.777100,74.410408 
	C95.235229,79.835587 96.161003,79.833847 100.324471,74.763176 
	C101.053566,74.178070 101.522438,73.655807 102.051636,73.098099 
	C102.111946,73.062660 102.127686,72.923637 102.518753,72.910706 
	C105.608337,73.571915 108.306847,74.246048 110.986290,75.289398 
	C110.643631,77.086594 110.320030,78.514580 109.996429,79.942566 
z"/>
<path fill="#8F6604" opacity="1.000000" stroke="none" 
	d="
M92.017998,87.963005 
	C92.010139,87.234085 91.973091,85.867470 91.998543,85.866302 
	C97.857605,85.598076 103.720932,85.333801 109.584450,85.326622 
	C110.771873,85.325172 111.960503,86.305534 113.481575,86.914062 
	C113.521271,88.052681 113.227974,89.110489 112.872849,90.498222 
	C108.890800,90.567139 104.970581,90.306137 100.624596,90.040932 
	C99.399521,89.700745 98.600204,89.364761 97.091782,88.957138 
	C94.927773,88.578011 93.472885,88.270508 92.017998,87.963005 
z"/>
<path fill="#9F7E00" opacity="1.000000" stroke="none" 
	d="
M85.031784,135.293396 
	C84.898148,129.555191 84.853989,124.097183 85.090324,118.651352 
	C85.141525,117.471443 86.200287,116.335266 86.794968,115.178947 
	C87.526810,116.363914 88.846863,117.527672 88.890480,118.737457 
	C89.098808,124.515800 88.960800,130.306625 88.894142,136.558716 
	C87.635498,136.542282 86.428650,136.060120 85.031784,135.293396 
z"/>
<path fill="#E7AC01" opacity="1.000000" stroke="none" 
	d="
M111.005356,74.920181 
	C108.306847,74.246048 105.608337,73.571915 102.517670,72.707596 
	C102.125504,72.517410 102.088814,72.111847 102.275101,71.860374 
	C102.965630,70.694061 103.469856,69.779228 104.332077,68.902893 
	C105.782089,68.650093 106.874123,68.358795 107.966148,68.067505 
	C111.675064,71.693047 118.929817,66.885727 120.991547,74.436752 
	C119.511230,73.788727 118.055923,73.073700 116.544380,72.509285 
	C114.566002,71.770561 114.386940,71.974907 114.428436,74.543465 
	C113.151535,74.811684 112.078445,74.865929 111.005356,74.920181 
z"/>
<path fill="#9F7E00" opacity="1.000000" stroke="none" 
	d="
M68.415619,104.220039 
	C68.490417,97.722145 66.055779,90.843880 71.325172,85.139305 
	C75.326645,87.223091 77.032883,91.064735 75.031387,95.135994 
	C70.445221,94.599503 68.467972,96.054840 68.853432,100.237976 
	C68.972008,101.524803 68.892494,102.829872 68.784714,104.165863 
	C68.665749,104.205139 68.415619,104.220039 68.415619,104.220039 
z"/>
<path fill="#97700B" opacity="1.000000" stroke="none" 
	d="
M89.004005,82.922478 
	C88.365608,83.457100 87.727203,83.991714 86.995743,84.841202 
	C85.805634,84.427521 84.545380,83.859268 83.642418,82.940048 
	C81.040024,80.290764 78.471451,77.460793 80.484749,73.341339 
	C82.443024,69.334457 86.085175,69.883087 89.857986,70.951981 
	C90.049843,72.097443 89.991425,72.600906 89.532227,73.078606 
	C87.140968,74.227325 84.089439,74.964424 83.386513,76.669655 
	C82.029900,79.960693 85.077560,80.858986 87.736694,81.510689 
	C88.243996,81.635010 88.585831,82.434494 89.004005,82.922478 
z"/>
<path fill="#A6A4A1" opacity="1.000000" stroke="none" 
	d="
M134.087021,122.349846 
	C133.715317,124.522362 133.343613,126.694885 132.562592,129.295258 
	C130.628265,130.039337 129.103256,130.355560 127.003105,130.791046 
	C127.003105,126.141869 127.003105,122.042946 127.339005,118.040543 
	C129.812271,119.541336 131.949646,120.945595 134.087021,122.349846 
z"/>
<path fill="#A6381A" opacity="1.000000" stroke="none" 
	d="
M68.137665,104.455017 
	C68.415619,104.220039 68.665749,104.205139 69.133743,104.228348 
	C71.388237,104.059685 73.174736,103.867821 75.279892,103.768845 
	C76.633453,104.194519 77.668358,104.527313 78.703255,104.860107 
	C79.231926,105.307350 79.760590,105.754593 80.646423,106.143127 
	C81.035721,106.793556 81.067871,107.502686 81.051804,108.563606 
	C79.365334,108.826347 76.735527,105.842567 76.560898,110.696388 
	C75.997185,110.997627 75.559395,110.996536 75.089920,110.602020 
	C73.644440,109.601830 72.184006,108.436714 70.830276,108.549728 
	C69.548157,108.656776 68.377953,110.104286 67.158531,110.962273 
	C65.472656,108.656921 65.210831,106.510765 68.137665,104.455017 
z"/>
<path fill="#A80C25" opacity="1.000000" stroke="none" 
	d="
M120.109558,131.407928 
	C118.617477,136.661743 114.891052,138.839844 109.135239,138.651321 
	C107.806000,138.027161 107.026360,137.732620 106.035782,137.208725 
	C104.695030,135.742218 103.565201,134.505051 102.816040,133.276733 
	C104.297768,133.979980 105.374023,134.717941 106.504158,135.361252 
	C111.425949,138.162872 117.145096,136.174454 118.040123,130.558182 
	C118.804771,125.760040 117.934311,120.701324 118.103638,115.616730 
	C118.950974,116.816231 119.859985,118.134468 119.941002,119.501770 
	C120.175545,123.459915 120.077225,127.437798 120.109558,131.407928 
z"/>
<path fill="#A80C25" opacity="1.000000" stroke="none" 
	d="
M110.986290,75.289398 
	C112.078445,74.865929 113.151535,74.811684 114.629211,74.742218 
	C116.880035,75.439972 118.726288,76.152946 121.679871,77.293549 
	C119.850021,79.058937 118.134941,80.713593 116.196854,82.612976 
	C114.155846,81.901382 112.337830,80.945068 110.258125,79.965660 
	C110.320030,78.514580 110.643631,77.086594 110.986290,75.289398 
z"/>
<path fill="#A91126" opacity="1.000000" stroke="none" 
	d="
M134.436035,122.271469 
	C131.949646,120.945595 129.812271,119.541336 127.183197,117.947495 
	C126.691498,117.757912 126.340935,117.665993 126.340935,117.665993 
	C125.667664,115.574425 124.994392,113.482857 124.938751,111.194809 
	C125.983086,111.000435 126.409782,111.002548 126.905319,111.385208 
	C127.112259,115.223801 129.607162,115.006569 131.981781,114.976936 
	C132.760864,115.726524 133.425079,116.686401 134.340500,117.186356 
	C137.111877,118.699944 137.680862,120.251030 134.436035,122.271469 
z"/>
<path fill="#A91126" opacity="1.000000" stroke="none" 
	d="
M75.121597,110.995445 
	C75.559395,110.996536 75.997185,110.997627 76.763870,110.990372 
	C76.775215,113.035927 76.457680,115.089828 75.724731,117.453224 
	C75.309326,117.762711 75.007317,117.954178 74.695068,118.050446 
	C73.237976,118.753159 72.093124,119.359612 70.618561,120.025055 
	C69.470818,120.782715 68.652802,121.481361 67.834785,122.180008 
	C61.990295,119.798920 66.170082,118.393082 68.993332,116.577469 
	C72.199867,115.331184 75.148430,114.686447 75.121597,110.995445 
z"/>
<path fill="#917204" opacity="1.000000" stroke="none" 
	d="
M75.007317,117.954178 
	C75.007317,117.954178 75.309326,117.762711 75.482758,117.713898 
	C76.139931,123.135338 76.623672,128.605576 76.640678,134.454269 
	C73.110168,134.883011 70.046379,134.933304 66.982597,134.983597 
	C67.346970,133.559357 67.711334,132.135117 68.414047,130.466187 
	C69.480301,130.096970 70.208206,129.972458 71.258621,129.819931 
	C72.006691,129.725800 72.432259,129.659683 73.264458,129.599487 
	C74.116501,125.721664 74.561913,121.837921 75.007317,117.954178 
z"/>
<path fill="#A6381A" opacity="1.000000" stroke="none" 
	d="
M132.276978,102.968452 
	C132.565964,103.204582 132.854965,103.440712 133.278320,103.802277 
	C137.906921,107.622269 137.943802,108.463058 133.099670,110.254745 
	C131.670349,109.327202 130.841354,108.622086 129.960449,107.686905 
	C127.594971,106.297981 125.281418,105.139122 122.967865,103.980263 
	C126.260246,103.324074 126.865280,100.997635 126.600998,97.739685 
	C126.599281,97.347412 126.588799,97.311913 126.634766,97.690735 
	C126.891632,103.844200 127.295837,104.198036 132.276978,102.968452 
z"/>
<path fill="#A4A09B" opacity="1.000000" stroke="none" 
	d="
M74.961227,103.675957 
	C73.174736,103.867821 71.388237,104.059685 69.252716,104.189072 
	C68.892494,102.829872 68.972008,101.524803 68.853432,100.237976 
	C68.467972,96.054840 70.445221,94.599503 74.818176,95.394379 
	C75.183456,95.789803 75.164520,96.096054 75.187943,97.072357 
	C75.107208,99.718185 75.034218,101.697075 74.961227,103.675957 
z"/>
<path fill="#917204" opacity="1.000000" stroke="none" 
	d="
M126.349739,118.158722 
	C126.340935,117.665993 126.691498,117.757912 126.847305,117.850967 
	C127.003105,122.042946 127.003105,126.141869 127.003105,130.791046 
	C129.103256,130.355560 130.628265,130.039337 132.549164,129.667633 
	C133.665283,131.162659 134.385498,132.713165 134.628693,134.559723 
	C131.049911,134.851547 127.948143,134.847336 124.846375,134.843124 
	C125.350433,129.445908 125.854492,124.048676 126.349739,118.158722 
z"/>
<path fill="#435E79" opacity="1.000000" stroke="none" 
	d="
M66.896515,135.331024 
	C70.046379,134.933304 73.110168,134.883011 76.633858,134.876251 
	C77.093765,134.919785 77.052780,134.921295 77.085159,135.232208 
	C77.248116,136.712555 77.378685,137.881989 77.509254,139.051407 
	C76.579819,139.358307 75.650391,139.665207 74.109642,139.729187 
	C72.341400,139.616272 71.184471,139.746262 70.027550,139.876251 
	C67.994667,139.213120 64.654694,139.551712 66.896515,135.331024 
z"/>
<path fill="#435E79" opacity="1.000000" stroke="none" 
	d="
M124.863243,134.845657 
	C127.948143,134.847336 131.049911,134.851547 134.609772,134.929871 
	C136.948257,137.940750 135.558121,139.310349 132.084518,139.728577 
	C130.329941,139.620972 129.178741,139.755539 128.027557,139.890106 
	C127.102036,139.626190 126.176521,139.362289 124.761902,138.786591 
	C124.469452,137.264099 124.666107,136.053391 124.862762,134.842682 
	C124.862762,134.842682 124.880112,134.848190 124.863243,134.845657 
z"/>
<path fill="#A6A4A1" opacity="1.000000" stroke="none" 
	d="
M75.089920,110.602020 
	C75.148430,114.686447 72.199867,115.331184 69.292267,116.366539 
	C68.410393,114.791832 67.864075,113.211983 67.238144,111.297211 
	C68.377953,110.104286 69.548157,108.656776 70.830276,108.549728 
	C72.184006,108.436714 73.644440,109.601830 75.089920,110.602020 
z"/>
<path fill="#AFADAE" opacity="1.000000" stroke="none" 
	d="
M72.857826,129.593567 
	C72.432259,129.659683 72.006691,129.725800 71.038681,129.624664 
	C69.731178,129.308701 68.966118,129.159973 68.201065,129.011261 
	C68.102547,127.016144 68.004028,125.021034 67.870148,122.602966 
	C68.652802,121.481361 69.470818,120.782715 70.976929,120.173630 
	C72.062614,123.373329 72.460220,126.483444 72.857826,129.593567 
z"/>
<path fill="#6D3808" opacity="1.000000" stroke="none" 
	d="
M91.910751,88.284378 
	C93.472885,88.270508 94.927773,88.578011 96.749283,88.970840 
	C94.953903,89.701225 92.805557,90.845734 90.627541,90.905304 
	C80.953636,91.169891 82.085609,90.093719 81.966560,99.357788 
	C81.945442,101.001427 81.750313,102.642838 81.405045,104.622154 
	C81.174553,100.249016 81.174553,95.539009 81.174553,90.288673 
	C83.648193,90.180511 85.864876,90.083580 88.525665,89.985153 
	C89.914345,89.524345 90.858917,89.065048 91.910751,88.284378 
z"/>
<path fill="#692326" opacity="1.000000" stroke="none" 
	d="
M120.405045,131.069458 
	C120.077225,127.437798 120.175545,123.459915 119.941002,119.501770 
	C119.859985,118.134468 118.950974,116.816231 117.770981,115.655670 
	C114.025383,115.844398 110.928978,115.853035 107.848877,115.544334 
	C107.888252,114.803368 107.911331,114.379745 107.934410,113.956116 
	C111.656837,113.967957 115.379272,113.979797 119.558411,113.912094 
	C120.243591,119.465370 120.472061,125.098190 120.405045,131.069458 
z"/>
<path fill="#A91126" opacity="1.000000" stroke="none" 
	d="
M122.617554,103.976250 
	C125.281418,105.139122 127.594971,106.297981 129.592392,107.716034 
	C128.538971,107.964203 127.801689,107.953178 126.810539,107.918945 
	C126.387611,107.913086 126.218544,107.930435 126.049484,107.947792 
	C124.335632,108.224846 122.621780,108.501892 120.537033,108.787437 
	C120.121765,107.463036 120.077400,106.130142 120.099434,104.401176 
	C120.866310,103.994148 121.566780,103.983192 122.617554,103.976250 
z"/>
<path fill="#AFADAE" opacity="1.000000" stroke="none" 
	d="
M127.064407,107.942162 
	C127.801689,107.953178 128.538971,107.964203 129.644318,107.946098 
	C130.841354,108.622086 131.670349,109.327202 132.810684,110.167984 
	C132.771164,111.628624 132.420288,112.953606 132.025604,114.627762 
	C129.607162,115.006569 127.112259,115.223801 126.922523,110.998322 
	C126.935402,109.467979 126.999908,108.705070 127.064407,107.942162 
z"/>
<path fill="#B40027" opacity="1.000000" stroke="none" 
	d="
M100.064255,74.826019 
	C96.161003,79.833847 95.235229,79.835587 93.020203,74.492172 
	C95.031242,73.762184 97.065125,73.379257 99.514450,73.020920 
	C99.929901,73.045502 99.961082,73.059624 99.967545,73.354706 
	C100.004097,74.041862 100.034180,74.433945 100.064255,74.826019 
z"/>
<path fill="#E7AC01" opacity="1.000000" stroke="none" 
	d="
M89.933006,73.104362 
	C89.991425,72.600906 90.049843,72.097443 90.165131,71.217194 
	C93.089729,65.738983 95.493584,65.168037 98.306496,69.243462 
	C94.938301,68.680931 92.288467,69.155624 92.060577,73.463226 
	C91.859924,73.820152 91.678513,73.864571 91.024223,73.874046 
	C90.278069,73.650719 90.071960,73.405800 89.933006,73.104362 
z"/>
<path fill="#854C08" opacity="1.000000" stroke="none" 
	d="
M90.180725,137.915176 
	C90.095230,130.463303 90.259331,123.070160 90.714111,115.860031 
	C90.983696,123.339653 90.962601,130.636261 90.941513,137.932877 
	C90.771111,137.946564 90.600716,137.960236 90.180725,137.915176 
z"/>
<path fill="#9F7E00" opacity="1.000000" stroke="none" 
	d="
M91.223511,137.952606 
	C90.962601,130.636261 90.983696,123.339653 91.020920,115.584694 
	C91.037041,115.126343 91.472000,115.073822 91.717606,115.546539 
	C91.997047,123.309044 92.030869,130.598831 92.064690,137.888611 
	C91.878304,137.916504 91.691917,137.944412 91.223511,137.952606 
z"/>
<path fill="#882A12" opacity="1.000000" stroke="none" 
	d="
M92.288994,137.924759 
	C92.030869,130.598831 91.997047,123.309044 91.936234,115.560318 
	C92.271606,119.937378 92.693779,124.769943 92.971382,129.610794 
	C93.112434,132.070663 92.993164,134.545471 92.979446,137.478027 
	C92.967331,137.942551 92.513298,137.960907 92.288994,137.924759 
z"/>
<path fill="#814B08" opacity="1.000000" stroke="none" 
	d="
M82.933289,116.480667 
	C83.255516,118.893463 83.764191,121.761574 83.950012,124.650459 
	C84.150261,127.763634 84.048149,130.896255 84.135162,134.481934 
	C83.447090,133.853577 82.049561,132.752335 82.068321,131.675766 
	C82.153976,126.761765 82.637230,121.854683 82.933289,116.480667 
z"/>
<path fill="#6B6236" opacity="1.000000" stroke="none" 
	d="
M107.813545,139.772934 
	C103.454437,140.001663 99.095329,140.230408 94.823700,140.185608 
	C96.209084,139.721710 97.506981,139.531342 99.158463,139.408936 
	C100.482491,139.582047 101.452942,139.687195 102.752838,139.807587 
	C103.745613,139.827728 104.408943,139.832642 105.413300,139.883240 
	C106.440735,139.876907 107.127144,139.824921 107.813545,139.772934 
z"/>
<path fill="#9F7E00" opacity="1.000000" stroke="none" 
	d="
M75.279892,103.768845 
	C75.034218,101.697075 75.107208,99.718185 75.221146,97.303192 
	C76.367203,99.318581 77.472313,101.770065 78.640335,104.540833 
	C77.668358,104.527313 76.633453,104.194519 75.279892,103.768845 
z"/>
<path fill="#A6A4A1" opacity="1.000000" stroke="none" 
	d="
M98.804878,139.340973 
	C97.506981,139.531342 96.209084,139.721710 94.572067,139.864929 
	C93.891594,139.430191 93.550255,139.042603 93.112274,138.414444 
	C93.634125,138.067047 94.252609,137.960220 95.524292,137.905991 
	C96.403107,137.973282 96.628723,137.987961 97.012489,138.263611 
	C97.715378,138.796722 98.260124,139.068848 98.804878,139.340973 
z"/>
<path fill="#917204" opacity="1.000000" stroke="none" 
	d="
M124.554688,134.974197 
	C124.666107,136.053391 124.469452,137.264099 124.385094,138.762543 
	C124.152168,139.207520 123.806953,139.364777 123.461731,139.522034 
	C123.723358,138.049927 123.984993,136.577820 124.554688,134.974197 
z"/>
<path fill="#917204" opacity="1.000000" stroke="none" 
	d="
M77.476631,139.271973 
	C77.378685,137.881989 77.248116,136.712555 77.097816,135.218689 
	C77.447662,136.544678 77.817230,138.195084 78.186806,139.845505 
	C78.027061,139.859467 77.840797,139.930099 77.715141,139.871262 
	C77.592537,139.813858 77.531868,139.624176 77.476631,139.271973 
z"/>
<path fill="#97700B" opacity="1.000000" stroke="none" 
	d="
M102.088806,72.111847 
	C102.088814,72.111847 102.125504,72.517410 102.126595,72.720520 
	C102.127686,72.923637 102.111946,73.062660 101.715942,73.016907 
	C100.866989,73.000641 100.414032,73.030128 99.961082,73.059616 
	C99.961082,73.059624 99.929901,73.045502 99.913681,73.037338 
	C99.941254,71.950020 99.985046,70.870857 100.398560,69.385582 
	C101.213791,68.957336 101.659309,68.935204 102.104828,68.913078 
	C102.104828,68.913078 102.037544,68.882172 102.045181,69.268967 
	C102.064819,70.474464 102.076813,71.293152 102.088806,72.111847 
z"/>
<path fill="#AFADAE" opacity="1.000000" stroke="none" 
	d="
M107.957771,139.585754 
	C107.127144,139.824921 106.440735,139.876907 105.412811,139.723724 
	C105.071297,139.518570 105.088310,139.199921 105.273941,139.049255 
	C105.721733,138.688202 105.873817,138.416275 106.022858,137.934082 
	C106.129883,137.785385 106.246712,137.438065 106.246712,137.438065 
	C107.026360,137.732620 107.806000,138.027161 108.732895,138.596741 
	C108.573425,138.977478 108.314041,139.153076 107.957771,139.585754 
z"/>
<path fill="#98938C" opacity="1.000000" stroke="none" 
	d="
M68.173370,129.255951 
	C68.966118,129.159973 69.731178,129.308701 70.716171,129.652679 
	C70.208206,129.972458 69.480301,130.096970 68.500305,130.101929 
	C68.248215,129.982376 68.145668,129.500656 68.173370,129.255951 
z"/>
<path fill="#917204" opacity="1.000000" stroke="none" 
	d="
M102.275101,71.860374 
	C102.076813,71.293152 102.064819,70.474464 102.073891,69.245590 
	C102.568230,68.657211 103.041504,68.479019 103.756775,68.413773 
	C103.998772,68.526733 103.974091,68.864395 103.974091,68.864395 
	C103.469856,69.779228 102.965630,70.694061 102.275101,71.860374 
z"/>
<path fill="#8F6604" opacity="1.000000" stroke="none" 
	d="
M104.332077,68.902893 
	C103.974091,68.864395 103.998772,68.526733 104.007462,68.357826 
	C105.069099,68.117638 106.122055,68.046356 107.570572,68.021286 
	C106.874123,68.358795 105.782089,68.650093 104.332077,68.902893 
z"/>
<path fill="#A6381A" opacity="1.000000" stroke="none" 
	d="
M126.810547,107.918945 
	C126.999908,108.705070 126.935402,109.467979 126.853683,110.617783 
	C126.409782,111.002548 125.983086,111.000435 125.236115,110.985870 
	C125.369049,110.187157 125.822258,109.400887 126.162476,108.281204 
	C126.218544,107.930435 126.387611,107.913086 126.810547,107.918945 
z"/>
<path fill="#224378" opacity="1.000000" stroke="none" 
	d="
M70.416306,139.978058 
	C71.184471,139.746262 72.341400,139.616272 73.733215,139.688324 
	C72.913757,139.953552 71.859413,140.016708 70.416306,139.978058 
z"/>
<path fill="#224378" opacity="1.000000" stroke="none" 
	d="
M128.415131,139.993332 
	C129.178741,139.755539 130.329941,139.620972 131.720657,139.681793 
	C130.907700,139.950302 129.855194,140.023422 128.415131,139.993332 
z"/>
<path fill="#917204" opacity="1.000000" stroke="none" 
	d="
M101.950966,68.678841 
	C101.659309,68.935204 101.213791,68.957336 100.434525,68.982468 
	C100.666222,68.805191 101.231659,68.624893 101.950966,68.678841 
z"/>
<path fill="#9C0A25" opacity="1.000000" stroke="none" 
	d="
M107.830795,113.603867 
	C107.911331,114.379745 107.888252,114.803368 107.704102,115.777832 
	C108.066849,117.176659 108.590683,118.024666 109.286499,119.151093 
	C108.186256,119.526718 107.124290,119.889275 105.841942,120.327065 
	C106.602066,121.700127 107.151451,122.692513 107.700829,123.684891 
	C107.458160,123.846176 107.215485,124.007462 106.972809,124.168747 
	C105.928772,123.353020 104.884735,122.537292 102.468849,120.649704 
	C102.468849,125.551453 102.468849,129.431763 102.167656,133.517365 
	C100.198830,134.775238 98.531197,135.827820 96.860306,136.420471 
	C96.843582,131.725800 97.065109,127.470070 96.689644,123.267670 
	C96.557594,121.789673 94.962234,120.442398 94.035019,119.035431 
	C94.617897,118.050041 95.200768,117.064651 96.316833,116.266174 
	C98.448715,117.748421 100.047394,119.043755 101.646072,120.339088 
	C101.981216,119.937408 102.316360,119.535728 102.651505,119.134041 
	C102.402969,116.110016 102.154434,113.085983 101.905899,110.061966 
	C102.758080,109.515182 103.610260,108.968407 104.673958,108.190750 
	C105.099449,108.038399 105.313423,108.116928 105.802719,108.518188 
	C106.283585,109.130783 106.489113,109.420647 106.694649,109.710518 
	C107.038826,110.890884 107.383003,112.071243 107.830795,113.603867 
z"/>
<path fill="#715203" opacity="1.000000" stroke="none" 
	d="
M86.852898,107.990189 
	C86.855530,106.349434 87.268761,104.574280 86.783920,103.093094 
	C85.321655,98.625923 86.981842,95.948631 90.807503,94.318466 
	C96.874969,97.039505 96.554771,102.052979 95.695892,107.600304 
	C95.467575,108.017036 95.000008,108.000160 95.000000,108.000076 
	C95.000000,108.000000 94.999863,108.000000 94.997292,107.580170 
	C95.387047,102.615761 93.466972,101.038071 89.464539,102.352051 
	C88.494980,104.445175 87.673943,106.217682 86.852898,107.990189 
z"/>
<path fill="#7A5E08" opacity="1.000000" stroke="none" 
	d="
M86.533539,108.090256 
	C87.673943,106.217682 88.494980,104.445175 89.464539,102.352051 
	C93.466972,101.038071 95.387047,102.615761 94.935242,107.615128 
	C94.875771,108.069901 94.862633,108.225571 94.862633,108.225571 
	C94.862633,108.225571 95.000008,108.000160 95.000008,108.000160 
	C95.000008,108.000160 95.467575,108.017036 95.701347,108.018524 
	C95.935120,108.020004 95.997887,108.013855 95.981476,108.257660 
	C95.965073,108.501465 95.958412,108.928482 95.854950,109.229126 
	C95.487396,110.325935 95.223305,111.122101 94.959206,111.918259 
	C94.959206,111.918259 94.944969,111.940842 94.678993,111.936844 
	C94.246498,111.963356 94.079979,111.993858 93.913460,112.024361 
	C91.818924,111.936249 89.699738,112.016357 87.636612,111.713966 
	C85.457367,111.394562 84.398674,110.287376 86.533539,108.090256 
M92.512192,104.781006 
	C92.302223,104.561249 92.112068,104.311150 91.864281,104.149307 
	C91.818916,104.119682 91.539032,104.449127 91.367393,104.612816 
	C91.634964,104.700737 91.902542,104.788658 92.512192,104.781006 
z"/>
<path fill="#224378" opacity="1.000000" stroke="none" 
	d="
M101.648987,109.935959 
	C102.154434,113.085983 102.402969,116.110016 102.651505,119.134041 
	C102.316360,119.535728 101.981216,119.937408 101.646072,120.339088 
	C100.047394,119.043755 98.448715,117.748421 96.678261,116.173210 
	C96.465134,114.871681 96.423775,113.850021 96.611740,112.255196 
	C96.935143,111.208122 97.029205,110.734230 97.123268,110.260330 
	C98.546204,110.110207 99.969147,109.960083 101.648987,109.935959 
z"/>
<path fill="#917204" opacity="1.000000" stroke="none" 
	d="
M94.015671,119.500641 
	C94.962234,120.442398 96.557594,121.789673 96.689644,123.267670 
	C97.065109,127.470070 96.843582,131.725800 96.539810,136.550262 
	C96.008759,137.227753 95.794937,137.315552 95.581116,137.403351 
	C95.046974,135.675613 94.148438,133.967941 94.051994,132.216110 
	C93.827812,128.144012 93.990448,124.050621 94.015671,119.500641 
z"/>
<path fill="#98938C" opacity="1.000000" stroke="none" 
	d="
M95.546310,137.526443 
	C95.794937,137.315552 96.008759,137.227753 96.543076,137.010193 
	C98.531197,135.827820 100.198830,134.775238 102.166588,133.498566 
	C102.466713,133.274460 102.435371,133.267883 102.435371,133.267883 
	C103.565201,134.505051 104.695030,135.742218 106.035782,137.208725 
	C106.246712,137.438065 106.129883,137.785385 105.638344,137.890488 
	C104.115250,137.937820 103.083687,137.880051 102.004517,137.547241 
	C101.785690,136.846649 101.614471,136.421066 101.443253,135.995499 
	C101.224808,136.648773 101.006378,137.302063 100.393494,137.930084 
	C98.950813,137.937408 97.902580,137.970016 96.854347,138.002640 
	C96.628723,137.987961 96.403107,137.973282 95.837555,137.931793 
	C95.497635,137.904999 95.511497,137.649536 95.546310,137.526443 
z"/>
<path fill="#9C0A25" opacity="1.000000" stroke="none" 
	d="
M97.033821,109.880585 
	C97.029205,110.734230 96.935143,111.208122 96.702362,111.877884 
	C96.295631,112.054077 96.027596,112.034401 95.359383,111.966492 
	C95.223305,111.122101 95.487396,110.325935 96.057892,109.183098 
	C96.364296,108.836418 96.768837,108.740593 96.768837,108.740593 
	C96.827347,108.994011 96.885864,109.247429 97.033821,109.880585 
z"/>
<path fill="#9C0A25" opacity="1.000000" stroke="none" 
	d="
M93.942238,112.270569 
	C94.079979,111.993858 94.246498,111.963356 94.666679,111.942009 
	C94.792389,112.527946 94.664436,113.104736 94.536484,113.681519 
	C94.347992,113.293274 94.159500,112.905029 93.942238,112.270569 
z"/>
<path fill="#715203" opacity="1.000000" stroke="none" 
	d="
M96.672134,108.594589 
	C96.768837,108.740593 96.364296,108.836418 96.161354,108.882446 
	C95.958412,108.928482 95.965073,108.501465 95.975143,108.288422 
	C96.213577,108.149818 96.410316,108.274223 96.672134,108.594589 
z"/>
<path fill="#B75C98" opacity="1.000000" stroke="none" 
	d="
M110.043823,102.945892 
	C108.444267,103.086861 106.844711,103.227821 106.011497,103.301247 
	C105.716911,100.859604 105.456970,98.705048 105.196526,96.546394 
	C113.348366,95.225410 114.019569,95.736862 115.054504,104.686783 
	C113.295639,103.681877 112.812325,100.482758 110.043823,102.945892 
z"/>
<path fill="#C55EA1" opacity="1.000000" stroke="none" 
	d="
M109.997948,103.305237 
	C112.812325,100.482758 113.295639,103.681877 114.860367,104.953186 
	C115.099258,106.805695 115.099258,108.498367 115.099258,109.947060 
	C112.210075,109.735130 109.797592,109.558167 107.039879,109.545860 
	C106.489113,109.420647 106.283585,109.130783 106.115082,108.657166 
	C107.418770,106.870468 108.685417,105.267525 109.997948,103.305237 
z"/>
<path fill="#B40027" opacity="1.000000" stroke="none" 
	d="
M89.532227,73.078606 
	C90.071960,73.405800 90.278069,73.650719 90.758804,73.963669 
	C91.164040,75.832336 91.361809,77.576454 91.576958,79.473747 
	C93.223015,79.837662 94.779915,80.181870 96.628937,80.726753 
	C94.535774,81.585098 92.150490,82.242752 89.384605,82.911438 
	C88.585831,82.434494 88.243996,81.635010 87.736694,81.510689 
	C85.077560,80.858986 82.029900,79.960693 83.386513,76.669655 
	C84.089439,74.964424 87.140968,74.227325 89.532227,73.078606 
z"/>
<path fill="#AFADAE" opacity="1.000000" stroke="none" 
	d="
M132.219208,102.538002 
	C127.295837,104.198036 126.891632,103.844200 126.640800,97.676933 
	C128.194931,97.208893 129.789017,97.133484 131.757904,97.040337 
	C131.910889,98.961227 132.036163,100.534393 132.219208,102.538002 
z"/>
<path fill="#98938C" opacity="1.000000" stroke="none" 
	d="
M99.967545,73.354706 
	C100.414032,73.030128 100.866989,73.000641 101.655624,73.052345 
	C101.522438,73.655807 101.053566,74.178070 100.324471,74.763176 
	C100.034180,74.433945 100.004097,74.041862 99.967545,73.354706 
z"/>
<path fill="#854C08" opacity="1.000000" stroke="none" 
	d="
M102.816040,133.276733 
	C102.435371,133.267883 102.466713,133.274460 102.467781,133.293259 
	C102.468849,129.431763 102.468849,125.551453 102.468849,120.649704 
	C104.884735,122.537292 105.928772,123.353020 106.972809,124.168747 
	C107.215485,124.007462 107.458160,123.846176 107.700829,123.684891 
	C107.151451,122.692513 106.602066,121.700127 105.841942,120.327065 
	C107.124290,119.889275 108.186256,119.526718 109.286499,119.151093 
	C108.590683,118.024666 108.066849,117.176659 107.687805,116.095169 
	C110.928978,115.853035 114.025383,115.844398 117.454437,115.796814 
	C117.934311,120.701324 118.804771,125.760040 118.040123,130.558182 
	C117.145096,136.174454 111.425949,138.162872 106.504158,135.361252 
	C105.374023,134.717941 104.297768,133.979980 102.816040,133.276733 
z"/>
<path fill="#98938C" opacity="1.000000" stroke="none" 
	d="
M73.264458,129.599487 
	C72.460220,126.483444 72.062614,123.373329 71.306641,120.114632 
	C72.093124,119.359612 73.237976,118.753159 74.695068,118.050446 
	C74.561913,121.837921 74.116501,125.721664 73.264458,129.599487 
z"/>
<path fill="#435E79" opacity="1.000000" stroke="none" 
	d="
M97.012489,138.263611 
	C97.902580,137.970016 98.950813,137.937408 100.710297,137.897400 
	C101.631729,137.867432 101.841927,137.844849 102.052132,137.822281 
	C103.083687,137.880051 104.115250,137.937820 105.531319,138.039185 
	C105.873817,138.416275 105.721733,138.688202 104.991386,139.062622 
	C103.823265,139.415207 103.123322,139.603775 102.423386,139.792358 
	C101.452942,139.687195 100.482491,139.582047 99.158463,139.408936 
	C98.260124,139.068848 97.715378,138.796722 97.012489,138.263611 
z"/>
<path fill="#98938C" opacity="1.000000" stroke="none" 
	d="
M102.752838,139.807587 
	C103.123322,139.603775 103.823265,139.415207 104.805756,139.213287 
	C105.088310,139.199921 105.071297,139.518570 105.071777,139.678070 
	C104.408943,139.832642 103.745613,139.827728 102.752838,139.807587 
z"/>
<path fill="#715203" opacity="1.000000" stroke="none" 
	d="
M92.341156,104.828796 
	C91.902542,104.788658 91.634964,104.700737 91.367401,104.612823 
	C91.539032,104.449127 91.818916,104.119682 91.864281,104.149307 
	C92.112068,104.311150 92.302223,104.561249 92.341156,104.828796 
z"/>
<path fill="#715203" opacity="1.000000" stroke="none" 
	d="
M95.000000,108.000076 
	C95.000008,108.000160 94.862633,108.225571 94.862633,108.225571 
	C94.862633,108.225571 94.875771,108.069901 94.937820,108.034950 
	C94.999863,108.000000 95.000000,108.000000 95.000000,108.000076 
z"/>
<path fill="#A6381A" opacity="1.000000" stroke="none" 
	d="
M102.004517,137.547241 
	C101.841927,137.844849 101.631729,137.867432 101.104744,137.922668 
	C101.006378,137.302063 101.224808,136.648773 101.443253,135.995499 
	C101.614471,136.421066 101.785690,136.846649 102.004517,137.547241 
z"/>
</svg>