<svg version="1.1" id="Layer_1" xmlns="http://www.w3.org/2000/svg" xmlns:xlink="http://www.w3.org/1999/xlink" x="0px" y="0px"
	 width="100%" viewBox="0 0 784 980" enable-background="new 0 0 784 980" xml:space="preserve">
<path fill="#FFFFFF" opacity="1.000000" stroke="none" 
	d="
M1.000000,364.000000 
	C1.000000,242.666672 1.000000,121.833336 1.000000,1.000000 
	C262.333344,1.000000 523.666687,1.000000 785.000000,1.000000 
	C785.000000,327.666656 785.000000,654.333313 785.000000,981.000000 
	C523.666687,981.000000 262.333344,981.000000 1.000000,981.000000 
	C1.000000,775.500000 1.000000,570.000000 1.000000,364.000000 
M330.884186,853.866577 
	C326.206299,859.494080 321.317535,864.964355 316.951233,870.824036 
	C315.128479,873.270264 312.740356,877.294006 313.617340,879.255554 
	C314.756226,881.802917 318.734741,884.187012 321.768036,884.598328 
	C339.244171,886.967773 354.447510,882.676758 365.482086,867.851990 
	C370.250885,861.445251 374.976074,855.001404 379.926025,848.736389 
	C381.816803,846.343201 384.280640,844.402710 386.483337,842.255981 
	C386.986725,842.432800 387.490143,842.609619 387.993530,842.786438 
	C387.993530,847.854248 388.066406,852.923523 387.965485,857.989319 
	C387.907318,860.908813 388.766785,862.879700 392.016083,863.811646 
	C394.109802,866.786499 393.587616,868.468079 390.731049,871.330688 
	C387.757416,874.310730 386.845886,879.348511 384.802612,884.047913 
	C380.426544,889.271057 376.118408,894.553101 371.658051,899.703186 
	C365.447052,906.874817 366.744293,911.981140 376.050659,913.505188 
	C393.134186,916.302979 408.137634,912.074890 419.336273,898.063782 
	C424.110352,892.090637 428.405334,885.737061 433.053162,879.659729 
	C435.495514,876.466187 438.229248,873.495483 440.831421,870.424194 
	C441.499390,870.830017 442.167389,871.235901 442.835358,871.641724 
	C442.835358,876.783569 442.589386,881.943909 442.975372,887.056641 
	C443.102081,888.735046 444.867462,890.289795 445.883514,891.901062 
	C447.235992,890.369019 449.452545,889.008850 449.797119,887.276245 
	C451.670319,877.858276 452.925293,868.319092 454.693695,858.877991 
	C456.674194,848.304626 456.705444,838.303040 448.249786,829.324707 
	C448.577454,823.520081 448.706146,817.696106 449.269531,811.914490 
	C451.070801,793.429565 453.111359,774.967896 454.906799,756.482422 
	C456.158020,743.600525 457.740051,730.711060 458.112549,717.794312 
	C458.508362,704.066589 458.927063,690.121521 457.006531,676.602295 
	C454.791077,661.006836 450.577484,645.716980 452.048370,629.739746 
	C452.686401,622.808960 453.184814,615.865356 454.289124,608.448486 
	C456.690613,607.308777 459.047882,606.061279 461.503693,605.053894 
	C465.425018,603.445435 467.188049,600.724243 467.660095,596.405884 
	C470.895721,566.805725 475.057373,537.289368 477.563690,507.631348 
	C480.588287,471.840881 475.816803,436.907196 462.057709,402.674957 
	C460.270294,390.984161 458.561035,379.280579 456.644867,367.610901 
	C456.111847,364.364594 454.966187,361.218903 454.118225,357.302673 
	C454.785248,355.784576 455.404144,354.243164 456.127319,352.752289 
	C460.407684,343.928497 464.719330,335.119934 469.003296,326.297852 
	C470.014404,324.215607 470.718292,322.136017 467.757141,320.987488 
	C455.543915,316.250275 443.324524,311.528992 431.164734,306.053894 
	C431.777435,302.661682 432.390137,299.269470 433.843536,295.909332 
	C435.312042,296.129211 436.875763,296.096497 438.234009,296.608704 
	C449.545013,300.874359 460.875122,305.100708 472.066833,309.664154 
	C475.281067,310.974792 477.390228,311.770416 479.233734,307.823242 
	C480.832642,304.399750 483.424255,301.454895 485.244141,298.116974 
	C493.352020,283.246185 500.377502,268.064606 497.018585,250.362961 
	C494.687317,238.077179 489.594879,227.523712 479.082733,219.902847 
	C472.489166,215.122772 465.259888,216.007675 457.720428,215.464722 
	C455.077515,213.294769 452.434601,211.124832 449.750549,208.095947 
	C450.939941,188.172394 452.545868,168.262207 453.186401,148.321014 
	C453.694885,132.490250 452.362091,116.685127 447.363281,101.472000 
	C441.034576,82.211540 429.133453,73.845955 408.942261,73.896301 
	C406.612152,73.902115 404.079254,73.154999 401.980713,72.087715 
	C390.237183,66.115166 378.469482,65.552513 367.350677,72.912163 
	C354.979401,81.100868 346.720673,92.737587 343.160309,107.181595 
	C338.790466,124.909561 338.124878,143.069824 338.241699,161.246399 
	C338.292480,169.147217 338.632660,177.046173 338.169800,185.030792 
	C335.130310,188.027817 331.616547,190.679382 329.136780,194.084076 
	C320.311035,206.201813 316.081329,220.334976 312.416138,234.624573 
	C311.968658,236.369278 311.961395,239.123596 313.002075,240.202805 
	C318.378571,245.778549 324.066620,251.104446 331.962646,253.932007 
	C331.274414,257.028900 330.586182,260.125793 329.156189,263.129791 
	C322.240753,259.251709 315.325287,255.373611 307.829742,251.170197 
	C305.357300,258.546570 303.165955,265.848755 300.399200,272.925995 
	C299.425598,275.416473 297.389160,277.813934 295.229156,279.450073 
	C290.910675,282.721222 289.727509,287.053955 292.224518,291.921387 
	C292.969025,293.372681 293.333710,295.342804 293.061737,296.936920 
	C291.697784,304.931915 289.689056,312.830566 288.610443,320.857605 
	C286.774902,334.517487 289.507446,338.463440 301.536469,343.614563 
	C303.196381,344.325378 305.026093,345.052826 306.780426,345.060883 
	C316.197571,345.104156 325.615723,344.922119 335.009796,345.730225 
	C334.452271,350.963623 334.239227,356.261963 333.267334,361.417236 
	C331.075531,373.043152 328.508392,384.598297 326.110931,397.020294 
	C325.075287,409.294495 323.007019,421.584076 323.189270,433.840179 
	C323.850372,478.298157 325.567474,522.740662 326.187195,567.198792 
	C326.343964,578.445129 329.036194,587.223572 338.644318,593.541992 
	C338.765259,596.805054 338.801788,600.073792 339.023438,603.330017 
	C339.618561,612.072083 340.083740,620.832642 341.077301,629.531433 
	C341.337555,631.809998 343.335693,633.890015 344.762177,636.859802 
	C344.835114,638.242615 344.908081,639.625427 344.410675,641.558594 
	C344.973145,646.535461 345.445923,651.526062 346.207672,656.472229 
	C346.306732,657.115662 347.894958,657.529724 348.902039,658.705261 
	C348.903473,659.147461 348.904938,659.589661 348.348938,660.633545 
	C348.237244,664.386414 347.838379,668.158630 348.090607,671.886902 
	C348.369904,676.015381 348.812073,680.282776 352.804810,683.892151 
	C352.872040,685.594177 352.939301,687.296204 352.574829,689.286743 
	C352.867554,689.883057 353.160278,690.479309 353.673584,691.793335 
	C353.690674,692.540588 353.707733,693.287781 353.328094,694.450195 
	C353.513733,695.297424 353.699371,696.144592 353.985626,697.661316 
	C353.976624,698.112061 353.967621,698.562866 353.397308,699.569885 
	C353.871002,702.390808 354.344666,705.211792 354.931732,708.772217 
	C354.940765,709.519409 354.949799,710.266602 354.390991,711.458374 
	C353.462402,713.938904 350.460938,716.842224 355.864563,718.899597 
	C355.897522,720.604736 355.930450,722.309814 355.395233,724.574402 
	C354.953369,727.622192 354.154114,730.678284 354.224518,733.714172 
	C354.258301,735.172668 355.934967,736.592957 356.958679,738.824219 
	C356.954529,739.888367 356.950378,740.952515 356.369781,742.612122 
	C356.248627,753.725830 356.349274,764.847839 355.938232,775.950806 
	C355.590363,785.347595 354.677277,794.724487 353.957672,804.105896 
	C353.704803,807.402710 353.283783,810.686768 352.951172,814.649719 
	C352.630554,815.436157 352.309937,816.222595 351.234772,817.012329 
	C349.768402,818.734497 347.702698,820.226807 346.938904,822.218384 
	C343.534851,831.095032 340.448608,840.009277 332.593872,846.308105 
	C330.737946,847.796387 328.856415,850.354187 330.884186,853.866577 
z"/>
<path fill="#2B2D36" opacity="1.000000" stroke="none" 
	d="
M339.003967,593.014648 
	C329.036194,587.223572 326.343964,578.445129 326.187195,567.198792 
	C325.567474,522.740662 323.850372,478.298157 323.189270,433.840179 
	C323.007019,421.584076 325.075287,409.294495 326.449951,396.511108 
	C343.138153,418.040680 366.473724,425.094635 392.386810,426.320007 
	C418.470673,427.553436 442.609528,422.539368 462.079590,403.457977 
	C475.816803,436.907196 480.588287,471.840881 477.563690,507.631348 
	C475.057373,537.289368 470.895721,566.805725 467.660095,596.405884 
	C467.188049,600.724243 465.425018,603.445435 461.503693,605.053894 
	C459.047882,606.061279 456.690613,607.308777 453.692444,608.697327 
	C451.700470,609.567322 450.305176,610.188477 448.523071,610.828247 
	C445.762390,611.568237 443.388458,612.289734 440.674561,613.008545 
	C439.886444,613.072144 439.438324,613.138428 438.584656,613.190796 
	C434.249603,613.829651 430.341034,614.678589 426.386841,615.101135 
	C409.608307,616.894409 393.231934,614.312012 376.657532,610.132202 
	C372.852448,608.790649 369.290192,607.859131 365.956757,606.403564 
	C357.794983,602.839722 349.738892,599.033813 341.551453,595.037720 
	C340.643066,594.171631 339.823517,593.593140 339.003967,593.014648 
z"/>
<path fill="#E2BB8B" opacity="1.000000" stroke="none" 
	d="
M448.909912,610.809692 
	C450.305176,610.188477 451.700470,609.567322 453.421204,608.936890 
	C453.184814,615.865356 452.686401,622.808960 452.048370,629.739746 
	C450.577484,645.716980 454.791077,661.006836 457.006531,676.602295 
	C458.927063,690.121521 458.508362,704.066589 458.112549,717.794312 
	C457.740051,730.711060 456.158020,743.600525 454.906799,756.482422 
	C453.111359,774.967896 451.070801,793.429565 449.269531,811.914490 
	C448.706146,817.696106 448.577454,823.520081 448.166351,830.140137 
	C447.715942,832.740173 447.314880,834.518433 446.987122,836.310120 
	C442.412354,861.317444 427.929657,877.625122 403.758789,885.276611 
	C398.158875,887.049377 392.640747,886.819275 388.000488,882.146606 
	C390.120575,878.577393 392.117126,875.318970 394.312134,872.200317 
	C405.591766,856.174255 412.707550,838.326965 412.681305,818.836914 
	C412.642151,789.782898 411.223053,760.712769 409.685944,731.686890 
	C408.995087,718.641418 406.612244,705.684570 404.951263,692.693359 
	C404.822662,691.687317 404.329865,690.727905 404.006317,689.746826 
	C402.903778,693.943481 402.476166,698.012573 402.072205,702.083984 
	C400.648193,716.436157 399.127808,730.779785 397.839264,745.144165 
	C396.165161,763.806946 394.677795,782.486511 393.125977,801.560425 
	C389.795868,826.709473 377.899384,845.074097 354.044800,854.638306 
	C346.375519,857.713135 339.000244,858.775818 332.185333,852.684692 
	C334.471375,849.436890 337.033112,846.710022 338.720367,843.520508 
	C343.340149,834.787476 347.591888,825.859741 351.989319,817.009094 
	C352.309937,816.222595 352.630554,815.436157 353.217926,814.064331 
	C354.977051,805.531677 357.384827,797.627502 357.761597,789.627686 
	C358.441315,775.196411 357.931458,760.707642 357.837799,746.243469 
	C357.828674,744.832642 357.256836,743.425537 356.946198,742.016663 
	C356.950378,740.952515 356.954529,739.888367 356.971863,737.964233 
	C356.644501,732.741089 356.303955,728.378052 355.963379,724.014954 
	C355.930450,722.309814 355.897522,720.604736 355.884399,718.062622 
	C355.589081,715.155029 355.273956,713.084412 354.958832,711.013794 
	C354.949799,710.266602 354.940765,709.519409 354.946960,707.965820 
	C354.627686,704.444092 354.293152,701.728882 353.958618,699.013611 
	C353.967621,698.562866 353.976624,698.112061 353.984131,696.955383 
	C353.896667,695.511292 353.810730,694.773193 353.724792,694.035034 
	C353.707733,693.287781 353.690674,692.540588 353.696411,691.159546 
	C353.481659,690.016602 353.244110,689.507385 353.006561,688.998230 
	C352.939301,687.296204 352.872040,685.594177 352.822815,683.061646 
	C351.529327,674.831421 350.217865,667.431641 348.906372,660.031860 
	C348.904938,659.589661 348.903473,659.147461 348.888428,657.975769 
	C347.576904,651.833618 346.278992,646.420898 344.981049,641.008240 
	C344.908081,639.625427 344.835114,638.242615 344.763763,636.064209 
	C343.912231,630.209473 342.638641,625.178162 342.301727,620.084839 
	C341.757263,611.853088 341.828857,603.580627 341.640259,595.325317 
	C349.738892,599.033813 357.794983,602.839722 365.956757,606.403564 
	C369.290192,607.859131 372.852448,608.790649 376.675140,610.519043 
	C379.334595,611.771118 381.639893,612.432251 383.922760,613.163574 
	C398.609497,617.868896 413.770721,617.283630 428.850494,616.827087 
	C432.263824,616.723694 435.612000,614.469116 438.990173,613.204712 
	C439.438324,613.138428 439.886444,613.072144 440.900360,613.277649 
	C443.947418,612.636169 446.428650,611.722961 448.909912,610.809692 
z"/>
<path fill="#E2BB8B" opacity="1.000000" stroke="none" 
	d="
M431.107361,306.801819 
	C443.324524,311.528992 455.543915,316.250275 467.757141,320.987488 
	C470.718292,322.136017 470.014404,324.215607 469.003296,326.297852 
	C464.719330,335.119934 460.407684,343.928497 456.127319,352.752289 
	C455.404144,354.243164 454.785248,355.784576 453.785217,357.792847 
	C449.323242,364.805908 445.557129,371.604614 440.902435,377.727814 
	C438.778748,380.521454 435.161072,382.765442 431.767456,383.890045 
	C423.807159,386.527954 416.445831,382.662720 409.310272,379.979218 
	C397.594208,375.573090 385.988251,370.750732 374.726379,365.297333 
	C364.668945,360.427246 355.194641,354.364594 345.346191,349.044525 
	C342.096008,347.288788 338.481476,346.207581 335.033539,344.817932 
	C325.615723,344.922119 316.197571,345.104156 306.780426,345.060883 
	C305.026093,345.052826 303.196381,344.325378 301.536469,343.614563 
	C289.507446,338.463440 286.774902,334.517487 288.610443,320.857605 
	C289.689056,312.830566 291.697784,304.931915 293.061737,296.936920 
	C293.333710,295.342804 292.969025,293.372681 292.224518,291.921387 
	C289.727509,287.053955 290.910675,282.721222 295.229156,279.450073 
	C297.389160,277.813934 299.425598,275.416473 300.399200,272.925995 
	C303.165955,265.848755 305.357300,258.546570 307.829742,251.170197 
	C315.325287,255.373611 322.240753,259.251709 329.725342,263.483612 
	C330.834290,264.833832 331.689148,265.778442 331.862762,266.834991 
	C332.987335,273.679108 334.476044,280.520081 334.846375,287.415741 
	C335.228882,294.537659 340.840698,297.847351 344.559174,302.454224 
	C345.735931,303.912170 349.049713,303.753937 351.418823,304.119263 
	C357.455414,305.050110 363.506226,305.892975 369.559662,306.709351 
	C380.357941,308.165649 391.180786,309.451874 401.957764,311.049622 
	C409.283691,312.135773 416.615295,313.354462 423.809143,315.078278 
	C426.767242,315.787140 427.532623,315.331116 428.153259,312.514984 
	C428.599060,310.491852 430.085297,308.697998 431.107361,306.801819 
z"/>
<path fill="#3D3C42" opacity="1.000000" stroke="none" 
	d="
M338.841370,184.945984 
	C338.632660,177.046173 338.292480,169.147217 338.241699,161.246399 
	C338.124878,143.069824 338.790466,124.909561 343.160309,107.181595 
	C346.720673,92.737587 354.979401,81.100868 367.350677,72.912163 
	C378.469482,65.552513 390.237183,66.115166 401.980713,72.087715 
	C404.079254,73.154999 406.612152,73.902115 408.942261,73.896301 
	C429.133453,73.845955 441.034576,82.211540 447.363281,101.472000 
	C452.362091,116.685127 453.694885,132.490250 453.186401,148.321014 
	C452.545868,168.262207 450.939941,188.172394 449.541321,208.813171 
	C447.698822,214.990219 446.065613,220.450027 444.235657,226.174591 
	C441.654755,230.801956 439.270538,235.164581 436.612366,239.747620 
	C427.202606,252.220291 415.819153,261.471558 400.967255,267.226501 
	C402.226532,263.931427 403.162750,261.481628 404.338379,258.761841 
	C409.454254,245.120972 410.440247,231.191971 410.635620,216.677979 
	C410.178253,207.470230 409.532837,198.719604 409.073486,189.959244 
	C408.989044,188.349091 409.218903,185.565094 410.049072,185.242752 
	C418.690002,181.887695 425.003418,175.680847 431.234741,169.196136 
	C439.300568,168.056976 442.329376,161.917526 444.860687,155.575195 
	C446.817200,150.673004 445.402344,148.760574 440.095581,147.552277 
	C440.083374,145.687454 440.633362,143.366852 439.882355,142.814255 
	C436.458038,140.294556 432.668213,138.271561 428.867371,135.752258 
	C427.466278,134.259125 426.207581,133.083755 424.963135,131.947189 
	C424.977417,131.985977 424.897369,132.006561 425.181152,131.808640 
	C424.797974,130.750992 424.130951,129.891251 423.257874,128.993317 
	C423.051788,128.955109 422.857758,128.583511 422.846924,128.251160 
	C421.190216,126.286896 419.544342,124.654976 417.943787,123.012741 
	C417.989075,123.002426 418.007233,123.093529 417.872925,122.864868 
	C417.461578,122.421761 417.184540,122.207314 416.956482,121.990479 
	C417.005493,121.988106 417.014191,122.085808 416.848938,121.849495 
	C416.355438,121.417923 416.027191,121.222664 415.410645,120.907036 
	C413.757263,119.499809 412.392090,118.212952 410.889221,116.627815 
	C408.228119,113.822586 405.704681,111.315636 403.058044,108.579681 
	C402.622498,108.234467 402.310150,108.118263 401.934418,107.780922 
	C401.669281,107.620903 401.467529,107.682022 401.265778,107.743149 
	C401.512695,107.827049 401.759644,107.910950 401.897919,108.260132 
	C401.990723,108.840279 402.192139,109.155151 402.512146,109.796265 
	C404.699738,113.215279 406.768677,116.308052 408.852051,119.752968 
	C409.561035,121.838860 410.255615,123.572594 411.343567,126.288254 
	C407.267395,124.930237 404.129395,123.884773 400.776581,122.596283 
	C395.116089,118.482513 389.670441,114.611763 384.139526,110.812195 
	C384.054260,110.883377 384.254181,110.786575 384.182556,110.482391 
	C383.482758,109.694908 382.854584,109.211617 382.176514,108.762955 
	C382.126587,108.797600 382.223633,108.870728 382.185547,108.573013 
	C381.811859,108.108681 381.476196,107.942070 381.144714,107.846359 
	C381.148834,107.917259 381.280212,107.863266 381.296722,107.549263 
	C380.901093,106.786583 380.488953,106.337898 380.061829,105.937637 
	C380.046844,105.986053 380.125916,105.922592 380.045959,105.625320 
	C379.392426,104.797272 378.818909,104.266495 378.197388,103.776657 
	C378.149414,103.817596 378.264160,103.870049 378.253296,103.560562 
	C377.863037,102.789848 377.483612,102.328621 377.096985,101.923965 
	C377.089813,101.980545 377.160706,101.891182 377.077637,101.550217 
	C375.532196,98.728371 374.069855,96.247498 372.302734,93.249527 
	C370.967499,94.666245 369.914093,95.783943 368.894836,96.927002 
	C368.928986,96.952370 368.946960,96.869209 368.685120,96.950653 
	C368.228882,97.326431 368.034546,97.620766 367.882446,97.898476 
	C367.924744,97.881851 367.855042,97.823555 367.546143,97.943146 
	C365.400177,99.955879 363.563080,101.849030 361.749023,103.791122 
	C361.772064,103.840065 361.848511,103.763481 361.559204,103.808167 
	C361.100067,104.178185 360.930237,104.503517 360.813782,104.832550 
	C360.867126,104.836258 360.813477,104.743690 360.517212,104.777344 
	C360.061249,105.146004 359.901520,105.481003 359.771301,105.759491 
	C359.800842,105.702988 359.679291,105.664452 359.370056,105.697823 
	C358.333954,106.461777 357.607056,107.192368 356.924164,107.943886 
	C356.968170,107.964813 356.928314,107.875908 356.645172,107.973656 
	C355.865448,108.676765 355.368896,109.282127 354.942230,109.907898 
	C355.012115,109.928307 354.882965,109.860191 354.595947,109.957474 
	C353.814423,110.664772 353.319946,111.274803 352.875916,111.897812 
	C352.926361,111.910789 352.879517,111.817696 352.509277,111.925026 
	C351.421478,113.406578 350.186218,114.741684 350.078918,116.161995 
	C349.683136,121.401291 349.660583,126.668785 349.081451,132.036392 
	C346.760712,133.054657 343.958496,133.456940 343.112427,134.960190 
	C340.011658,140.469330 344.070465,151.935181 350.110474,155.381165 
	C351.027893,156.246826 351.908752,156.856003 352.210693,157.677872 
	C357.907196,173.184830 368.861908,183.079102 384.417267,188.177307 
	C385.688110,188.593826 386.781464,189.551849 388.075836,190.329453 
	C387.102509,191.537949 386.491211,192.296906 385.538269,193.049850 
	C369.617462,204.796097 361.233398,221.389709 354.111816,239.175903 
	C353.126404,238.974365 351.887726,238.752136 351.604218,238.108887 
	C349.383087,233.069916 347.345032,227.950241 345.224182,222.463593 
	C343.079010,209.696487 340.960205,197.321243 338.841370,184.945984 
z"/>
<path fill="#E1E1E9" opacity="1.000000" stroke="none" 
	d="
M335.021667,345.274078 
	C338.481476,346.207581 342.096008,347.288788 345.346191,349.044525 
	C355.194641,354.364594 364.668945,360.427246 374.726379,365.297333 
	C385.988251,370.750732 397.594208,375.573090 409.310272,379.979218 
	C416.445831,382.662720 423.807159,386.527954 431.767456,383.890045 
	C435.161072,382.765442 438.778748,380.521454 440.902435,377.727814 
	C445.557129,371.604614 449.323242,364.805908 453.776886,358.155029 
	C454.966187,361.218903 456.111847,364.364594 456.644867,367.610901 
	C458.561035,379.280579 460.270294,390.984161 462.068665,403.066467 
	C442.609528,422.539368 418.470673,427.553436 392.386810,426.320007 
	C366.473724,425.094635 343.138153,418.040680 326.441467,396.092072 
	C328.508392,384.598297 331.075531,373.043152 333.267334,361.417236 
	C334.239227,356.261963 334.452271,350.963623 335.021667,345.274078 
z"/>
<path fill="#E1E1E8" opacity="1.000000" stroke="none" 
	d="
M345.250519,222.855453 
	C347.345032,227.950241 349.383087,233.069916 351.604218,238.108887 
	C351.887726,238.752136 353.126404,238.974365 354.474854,239.169525 
	C357.761047,240.868210 360.438477,242.876190 363.241302,244.690491 
	C368.127838,247.853607 372.733582,252.024292 378.105652,253.731232 
	C386.485474,256.393860 395.407013,257.351654 404.098999,259.031830 
	C403.162750,261.481628 402.226532,263.931427 400.967255,267.226501 
	C415.819153,261.471558 427.202606,252.220291 436.641907,240.191437 
	C435.625549,251.403168 433.978027,262.365387 433.100159,273.388885 
	C432.506805,280.840332 432.997192,288.378113 433.002869,295.877258 
	C432.390137,299.269470 431.777435,302.661682 431.136047,306.427856 
	C430.085297,308.697998 428.599060,310.491852 428.153259,312.514984 
	C427.532623,315.331116 426.767242,315.787140 423.809143,315.078278 
	C416.615295,313.354462 409.283691,312.135773 401.957764,311.049622 
	C391.180786,309.451874 380.357941,308.165649 369.559662,306.709351 
	C363.506226,305.892975 357.455414,305.050110 351.418823,304.119263 
	C349.049713,303.753937 345.735931,303.912170 344.559174,302.454224 
	C340.840698,297.847351 335.228882,294.537659 334.846375,287.415741 
	C334.476044,280.520081 332.987335,273.679108 331.862762,266.834991 
	C331.689148,265.778442 330.834290,264.833832 330.096222,263.530060 
	C330.586182,260.125793 331.274414,257.028900 332.232697,253.249832 
	C334.890656,241.864990 338.172577,231.545898 345.250519,222.855453 
z"/>
<path fill="#C8C8DC" opacity="1.000000" stroke="none" 
	d="
M433.423218,295.893311 
	C432.997192,288.378113 432.506805,280.840332 433.100159,273.388885 
	C433.978027,262.365387 435.625549,251.403168 436.915833,239.971039 
	C439.270538,235.164581 441.654755,230.801956 444.655396,226.186279 
	C448.077576,223.671860 450.862701,221.384125 453.698029,219.160385 
	C455.081818,218.075058 456.559174,217.109024 457.994171,216.088989 
	C465.259888,216.007675 472.489166,215.122772 479.082733,219.902847 
	C489.594879,227.523712 494.687317,238.077179 497.018585,250.362961 
	C500.377502,268.064606 493.352020,283.246185 485.244141,298.116974 
	C483.424255,301.454895 480.832642,304.399750 479.233734,307.823242 
	C477.390228,311.770416 475.281067,310.974792 472.066833,309.664154 
	C460.875122,305.100708 449.545013,300.874359 438.234009,296.608704 
	C436.875763,296.096497 435.312042,296.129211 433.423218,295.893311 
z"/>
<path fill="#FDFBF6" opacity="1.000000" stroke="none" 
	d="
M393.110046,801.158813 
	C394.677795,782.486511 396.165161,763.806946 397.839264,745.144165 
	C399.127808,730.779785 400.648193,716.436157 402.072205,702.083984 
	C402.476166,698.012573 402.903778,693.943481 404.006317,689.746826 
	C404.329865,690.727905 404.822662,691.687317 404.951263,692.693359 
	C406.612244,705.684570 408.995087,718.641418 409.685944,731.686890 
	C411.223053,760.712769 412.642151,789.782898 412.681305,818.836914 
	C412.707550,838.326965 405.591766,856.174255 394.312134,872.200317 
	C392.117126,875.318970 390.120575,878.577393 387.680176,882.041870 
	C386.562836,882.703796 385.797791,883.095215 385.032715,883.486572 
	C386.845886,879.348511 387.757416,874.310730 390.731049,871.330688 
	C393.587616,868.468079 394.109802,866.786499 392.316895,863.228699 
	C393.421173,861.466919 394.723022,860.376465 394.950165,859.095398 
	C396.978302,847.658203 398.998199,836.213562 400.652985,824.718201 
	C401.941803,815.765137 400.416504,807.475403 393.110046,801.158813 
z"/>
<path fill="#3E3D42" opacity="1.000000" stroke="none" 
	d="
M384.917664,883.767273 
	C385.797791,883.095215 386.562836,882.703796 387.648193,882.417114 
	C392.640747,886.819275 398.158875,887.049377 403.758789,885.276611 
	C427.929657,877.625122 442.412354,861.317444 446.987122,836.310120 
	C447.314880,834.518433 447.715942,832.740173 448.133453,830.563538 
	C456.705444,838.303040 456.674194,848.304626 454.693695,858.877991 
	C452.925293,868.319092 451.670319,877.858276 449.797119,887.276245 
	C449.452545,889.008850 447.235992,890.369019 445.883514,891.901062 
	C444.867462,890.289795 443.102081,888.735046 442.975372,887.056641 
	C442.589386,881.943909 442.835358,876.783569 442.835358,871.641724 
	C442.167389,871.235901 441.499390,870.830017 440.831421,870.424194 
	C438.229248,873.495483 435.495514,876.466187 433.053162,879.659729 
	C428.405334,885.737061 424.110352,892.090637 419.336273,898.063782 
	C408.137634,912.074890 393.134186,916.302979 376.050659,913.505188 
	C366.744293,911.981140 365.447052,906.874817 371.658051,899.703186 
	C376.118408,894.553101 380.426544,889.271057 384.917664,883.767273 
z"/>
<path fill="#3E3D43" opacity="1.000000" stroke="none" 
	d="
M393.125977,801.560425 
	C400.416504,807.475403 401.941803,815.765137 400.652985,824.718201 
	C398.998199,836.213562 396.978302,847.658203 394.950165,859.095398 
	C394.723022,860.376465 393.421173,861.466919 392.309509,862.864868 
	C388.766785,862.879700 387.907318,860.908813 387.965485,857.989319 
	C388.066406,852.923523 387.993530,847.854248 387.993530,842.786438 
	C387.490143,842.609619 386.986725,842.432800 386.483337,842.255981 
	C384.280640,844.402710 381.816803,846.343201 379.926025,848.736389 
	C374.976074,855.001404 370.250885,861.445251 365.482086,867.851990 
	C354.447510,882.676758 339.244171,886.967773 321.768036,884.598328 
	C318.734741,884.187012 314.756226,881.802917 313.617340,879.255554 
	C312.740356,877.294006 315.128479,873.270264 316.951233,870.824036 
	C321.317535,864.964355 326.206299,859.494080 331.238617,853.510864 
	C331.593048,853.155151 332.062073,852.994568 332.062073,852.994568 
	C339.000244,858.775818 346.375519,857.713135 354.044800,854.638306 
	C377.899384,845.074097 389.795868,826.709473 393.125977,801.560425 
z"/>
<path fill="#C8C8DC" opacity="1.000000" stroke="none" 
	d="
M345.224182,222.463593 
	C338.172577,231.545898 334.890656,241.864990 332.218872,252.836487 
	C324.066620,251.104446 318.378571,245.778549 313.002075,240.202805 
	C311.961395,239.123596 311.968658,236.369278 312.416138,234.624573 
	C316.081329,220.334976 320.311035,206.201813 329.136780,194.084076 
	C331.616547,190.679382 335.130310,188.027817 338.505615,184.988388 
	C340.960205,197.321243 343.079010,209.696487 345.224182,222.463593 
z"/>
<path fill="#FCF5E4" opacity="1.000000" stroke="none" 
	d="
M356.657990,742.314392 
	C357.256836,743.425537 357.828674,744.832642 357.837799,746.243469 
	C357.931458,760.707642 358.441315,775.196411 357.761597,789.627686 
	C357.384827,797.627502 354.977051,805.531677 353.212097,813.727783 
	C353.283783,810.686768 353.704803,807.402710 353.957672,804.105896 
	C354.677277,794.724487 355.590363,785.347595 355.938232,775.950806 
	C356.349274,764.847839 356.248627,753.725830 356.657990,742.314392 
z"/>
<path fill="#FCF5E4" opacity="1.000000" stroke="none" 
	d="
M332.185333,852.684692 
	C332.062073,852.994568 331.593048,853.155151 331.348999,853.199219 
	C328.856415,850.354187 330.737946,847.796387 332.593872,846.308105 
	C340.448608,840.009277 343.534851,831.095032 346.938904,822.218384 
	C347.702698,820.226807 349.768402,818.734497 351.612061,817.010742 
	C347.591888,825.859741 343.340149,834.787476 338.720367,843.520508 
	C337.033112,846.710022 334.471375,849.436890 332.185333,852.684692 
z"/>
<path fill="#FCF5E4" opacity="1.000000" stroke="none" 
	d="
M341.551453,595.037720 
	C341.828857,603.580627 341.757263,611.853088 342.301727,620.084839 
	C342.638641,625.178162 343.912231,630.209473 344.650513,635.664917 
	C343.335693,633.890015 341.337555,631.809998 341.077301,629.531433 
	C340.083740,620.832642 339.618561,612.072083 339.023438,603.330017 
	C338.801788,600.073792 338.765259,596.805054 338.824158,593.278320 
	C339.823517,593.593140 340.643066,594.171631 341.551453,595.037720 
z"/>
<path fill="#E1E1E9" opacity="1.000000" stroke="none" 
	d="
M457.857300,215.776855 
	C456.559174,217.109024 455.081818,218.075058 453.698029,219.160385 
	C450.862701,221.384125 448.077576,223.671860 444.852081,225.921539 
	C446.065613,220.450027 447.698822,214.990219 449.561890,209.242645 
	C452.434601,211.124832 455.077515,213.294769 457.857300,215.776855 
z"/>
<path fill="#FCF5E4" opacity="1.000000" stroke="none" 
	d="
M348.627655,660.332703 
	C350.217865,667.431641 351.529327,674.831421 352.739807,682.644775 
	C348.812073,680.282776 348.369904,676.015381 348.090607,671.886902 
	C347.838379,668.158630 348.237244,664.386414 348.627655,660.332703 
z"/>
<path fill="#FCF5E4" opacity="1.000000" stroke="none" 
	d="
M344.695862,641.283447 
	C346.278992,646.420898 347.576904,651.833618 348.834106,657.648132 
	C347.894958,657.529724 346.306732,657.115662 346.207672,656.472229 
	C345.445923,651.526062 344.973145,646.535461 344.695862,641.283447 
z"/>
<path fill="#FCF5E4" opacity="1.000000" stroke="none" 
	d="
M355.679321,724.294678 
	C356.303955,728.378052 356.644501,732.741089 356.926361,737.567383 
	C355.934967,736.592957 354.258301,735.172668 354.224518,733.714172 
	C354.154114,730.678284 354.953369,727.622192 355.679321,724.294678 
z"/>
<path fill="#FCF5E4" opacity="1.000000" stroke="none" 
	d="
M354.674927,711.236084 
	C355.273956,713.084412 355.589081,715.155029 355.820557,717.641479 
	C350.460938,716.842224 353.462402,713.938904 354.674927,711.236084 
z"/>
<path fill="#FCF5E4" opacity="1.000000" stroke="none" 
	d="
M353.677979,699.291748 
	C354.293152,701.728882 354.627686,704.444092 354.890289,707.596069 
	C354.344666,705.211792 353.871002,702.390808 353.677979,699.291748 
z"/>
<path fill="#FCF5E4" opacity="1.000000" stroke="none" 
	d="
M352.790710,689.142456 
	C353.244110,689.507385 353.481659,690.016602 353.586121,690.800659 
	C353.160278,690.479309 352.867554,689.883057 352.790710,689.142456 
z"/>
<path fill="#FCF5E4" opacity="1.000000" stroke="none" 
	d="
M353.526428,694.242615 
	C353.810730,694.773193 353.896667,695.511292 353.933777,696.620605 
	C353.699371,696.144592 353.513733,695.297424 353.526428,694.242615 
z"/>
<path fill="#D0B89A" opacity="1.000000" stroke="none" 
	d="
M438.584656,613.190796 
	C435.612000,614.469116 432.263824,616.723694 428.850494,616.827087 
	C413.770721,617.283630 398.609497,617.868896 383.922760,613.163574 
	C381.639893,612.432251 379.334595,611.771118 377.022095,610.690735 
	C393.231934,614.312012 409.608307,616.894409 426.386841,615.101135 
	C430.341034,614.678589 434.249603,613.829651 438.584656,613.190796 
z"/>
<path fill="#D0B89A" opacity="1.000000" stroke="none" 
	d="
M448.523102,610.828247 
	C446.428650,611.722961 443.947418,612.636169 441.240356,613.280334 
	C443.388458,612.289734 445.762390,611.568237 448.523102,610.828247 
z"/>
<path fill="#D9AD7B" opacity="1.000000" stroke="none" 
	d="
M429.009766,136.070038 
	C432.668213,138.271561 436.458038,140.294556 439.882355,142.814255 
	C440.633362,143.366852 440.083374,145.687454 440.029968,147.926086 
	C436.951080,155.440063 433.974670,162.221817 430.998260,169.003571 
	C425.003418,175.680847 418.690002,181.887695 410.049072,185.242752 
	C409.218903,185.565094 408.989044,188.349091 409.073486,189.959244 
	C409.532837,198.719604 410.178253,207.470230 410.328735,216.730713 
	C398.635620,228.643097 387.373474,240.048981 376.111298,251.454865 
	C375.517426,251.080231 374.923553,250.705582 374.329681,250.330948 
	C374.953033,244.761169 375.109436,239.090088 376.291748,233.641602 
	C379.239166,220.059052 382.653198,206.577789 385.879944,193.055862 
	C386.491211,192.296906 387.102509,191.537949 388.075836,190.329453 
	C386.781464,189.551849 385.688110,188.593826 384.417267,188.177307 
	C368.861908,183.079102 357.907196,173.184830 352.210693,157.677872 
	C351.908752,156.856003 351.027893,156.246826 350.291199,155.023773 
	C350.145538,146.968094 350.125214,139.427277 350.382263,131.598404 
	C351.399628,124.812798 352.139557,118.315247 352.879517,111.817696 
	C352.879517,111.817696 352.926361,111.910789 353.223938,111.894424 
	C353.975342,111.205437 354.429138,110.532814 354.882965,109.860184 
	C354.882965,109.860191 355.012115,109.928307 355.286530,109.905205 
	C356.016724,109.213371 356.472504,108.544632 356.928314,107.875900 
	C356.928314,107.875908 356.968170,107.964813 357.305786,107.965874 
	C358.322021,107.199440 359.000641,106.431946 359.679291,105.664452 
	C359.679291,105.664452 359.800842,105.702988 360.053986,105.706863 
	C360.475922,105.388390 360.644684,105.066032 360.813477,104.743683 
	C360.813477,104.743690 360.867126,104.836258 361.092041,104.774368 
	C361.494171,104.396156 361.671356,104.079826 361.848511,103.763489 
	C361.848511,103.763481 361.772064,103.840065 362.117065,103.849686 
	C364.259705,101.847382 366.057373,99.835457 367.855042,97.823547 
	C367.855042,97.823555 367.924744,97.881851 368.141113,97.814743 
	C368.553986,97.454826 368.750458,97.162018 368.946960,96.869202 
	C368.946960,96.869209 368.928986,96.952370 369.287415,96.959442 
	C372.150757,98.608070 374.655731,100.249634 377.160706,101.891190 
	C377.160706,101.891182 377.089813,101.980545 377.088379,102.252167 
	C377.479370,102.972542 377.871765,103.421295 378.264160,103.870049 
	C378.264160,103.870049 378.149414,103.817596 378.150360,104.132553 
	C378.809509,104.939201 379.467712,105.430893 380.125916,105.922592 
	C380.125916,105.922592 380.046844,105.986053 380.063385,106.264389 
	C380.480011,106.982910 380.880096,107.423096 381.280212,107.863266 
	C381.280212,107.863266 381.148834,107.917259 381.213806,108.121643 
	C381.593719,108.507599 381.908691,108.689163 382.223633,108.870728 
	C382.223633,108.870728 382.126587,108.797600 382.139557,109.128189 
	C382.853088,109.901382 383.553619,110.343979 384.254181,110.786575 
	C384.254181,110.786575 384.054260,110.883377 384.089966,111.180359 
	C389.237610,115.609856 394.340515,119.753853 399.507324,123.816597 
	C399.654724,123.932503 400.481445,123.184502 400.991394,122.839310 
	C404.129395,123.884773 407.267395,124.930237 411.343567,126.288254 
	C410.255615,123.572594 409.561035,121.838860 408.919434,119.385368 
	C409.657227,118.085777 410.342102,117.505936 411.026947,116.926094 
	C412.392090,118.212952 413.757263,119.499809 415.559326,121.165146 
	C416.335571,121.724342 416.674866,121.905075 417.014191,122.085808 
	C417.014191,122.085808 417.005493,121.988106 417.013062,122.286209 
	C417.349518,122.754051 417.678375,122.923790 418.007233,123.093529 
	C418.007233,123.093529 417.989075,123.002426 418.005676,123.338547 
	C419.634125,125.310944 421.245941,126.947220 422.857758,128.583511 
	C422.857758,128.583511 423.051788,128.955109 423.426453,129.295563 
	C424.166534,130.426208 424.531952,131.216385 424.897369,132.006561 
	C424.897369,132.006561 424.977417,131.985977 424.558350,132.017776 
	C418.913940,132.309158 413.679169,132.464005 408.472534,132.931854 
	C407.609070,133.009430 406.868469,134.453674 406.071106,135.266357 
	C407.166962,135.609238 408.436340,136.496414 409.331879,136.210938 
	C418.459991,133.301056 426.050995,134.864105 432.035645,143.094193 
	C431.027008,140.752808 430.018402,138.411423 429.009766,136.070038 
M361.131378,130.210236 
	C367.745300,125.883904 374.213409,125.941643 380.558960,130.803513 
	C381.342407,131.403763 382.232483,132.015961 383.162872,132.226807 
	C383.945343,132.404114 384.984802,132.199585 385.652222,131.766281 
	C385.922821,131.590607 385.758514,130.182190 385.369019,129.636932 
	C379.682007,121.675827 365.861938,121.863602 359.420898,130.121994 
	C359.408508,130.354523 359.396118,130.587036 359.383759,130.819565 
	C359.735809,130.693680 360.087891,130.567795 361.131378,130.210236 
M403.313110,173.765610 
	C403.119354,173.442947 402.925568,173.120300 402.771332,172.216110 
	C402.492310,171.758377 402.213287,171.300659 401.832581,170.164093 
	C395.153503,164.850540 386.999573,166.001709 379.324646,165.153000 
	C378.630890,165.076279 377.785065,166.374405 376.995483,167.000351 
	C376.995483,167.000351 377.030792,167.009872 376.320465,167.122864 
	C376.080170,168.378235 375.278534,169.890762 375.712158,170.837341 
	C376.729187,173.057281 378.100647,175.222595 379.748352,177.026749 
	C386.133301,184.017975 398.950714,182.585800 402.983093,173.968124 
	C402.983093,173.968124 402.903198,173.970886 403.313110,173.765610 
M410.855896,147.803131 
	C411.032959,147.985001 411.210022,148.166855 411.385284,149.107269 
	C411.268188,152.205856 411.250885,155.675354 415.310242,155.832428 
	C419.124664,155.980057 419.767181,152.671967 420.248077,149.569397 
	C420.432251,148.381134 421.180267,147.280243 421.771942,145.905838 
	C416.994995,140.599060 409.894531,141.659683 406.797119,149.258240 
	C408.305817,148.393509 409.352905,147.793365 410.855896,147.803131 
M372.594330,135.913757 
	C370.668854,135.913757 368.743378,135.913757 367.313416,135.913757 
	C367.313416,138.698212 367.340515,140.852081 367.307434,143.005020 
	C367.248779,146.823517 370.351501,150.117874 372.389587,148.284760 
	C374.575287,146.318893 375.833679,142.947693 376.585052,139.960464 
	C376.855194,138.886444 374.473572,137.145416 372.594330,135.913757 
M392.079468,159.984802 
	C391.771942,160.079620 391.457306,160.157410 391.161652,160.280685 
	C391.083099,160.313461 391.004578,160.568939 391.023956,160.582520 
	C394.482361,163.007690 399.079895,162.161560 398.802887,159.017853 
	C398.395782,154.397446 396.925629,149.870697 395.908356,145.304047 
	C395.247742,145.479370 394.587128,145.654694 393.926514,145.830032 
	C394.535065,147.793793 395.499298,149.727371 395.669189,151.728378 
	C395.927185,154.766388 397.709686,158.603973 392.079468,159.984802 
z"/>
<path fill="#FBFAF7" opacity="1.000000" stroke="none" 
	d="
M385.538269,193.049850 
	C382.653198,206.577789 379.239166,220.059052 376.291748,233.641602 
	C375.109436,239.090088 374.953033,244.761169 374.329681,250.330948 
	C374.923553,250.705582 375.517426,251.080231 376.111298,251.454865 
	C387.373474,240.048981 398.635620,228.643097 410.204712,217.184479 
	C410.440247,231.191971 409.454254,245.120972 404.338379,258.761841 
	C395.407013,257.351654 386.485474,256.393860 378.105652,253.731232 
	C372.733582,252.024292 368.127838,247.853607 363.241302,244.690491 
	C360.438477,242.876190 357.761047,240.868210 354.664124,238.953781 
	C361.233398,221.389709 369.617462,204.796097 385.538269,193.049850 
z"/>
<path fill="#B8946F" opacity="1.000000" stroke="none" 
	d="
M350.104889,131.886459 
	C350.125214,139.427277 350.145538,146.968094 349.985168,154.866318 
	C344.070465,151.935181 340.011658,140.469330 343.112427,134.960190 
	C343.958496,133.456940 346.760712,133.054657 349.231873,132.013779 
	C349.798553,131.880447 350.104889,131.886459 350.104889,131.886459 
z"/>
<path fill="#B8946F" opacity="1.000000" stroke="none" 
	d="
M431.234741,169.196136 
	C433.974670,162.221817 436.951080,155.440063 439.993042,148.284515 
	C445.402344,148.760574 446.817200,150.673004 444.860687,155.575195 
	C442.329376,161.917526 439.300568,168.056976 431.234741,169.196136 
z"/>
<path fill="#1B120C" opacity="1.000000" stroke="none" 
	d="
M428.867371,135.752258 
	C430.018402,138.411423 431.027008,140.752808 432.035645,143.094193 
	C426.050995,134.864105 418.459991,133.301056 409.331879,136.210938 
	C408.436340,136.496414 407.166962,135.609238 406.071106,135.266357 
	C406.868469,134.453674 407.609070,133.009430 408.472534,132.931854 
	C413.679169,132.464005 418.913940,132.309158 424.544067,131.978989 
	C426.207581,133.083755 427.466278,134.259125 428.867371,135.752258 
z"/>
<path fill="#D0B89A" opacity="1.000000" stroke="none" 
	d="
M400.776581,122.596283 
	C400.481445,123.184502 399.654724,123.932503 399.507324,123.816597 
	C394.340515,119.753853 389.237610,115.609856 384.175201,111.109177 
	C389.670441,114.611763 395.116089,118.482513 400.776581,122.596283 
z"/>
<path fill="#D0B89A" opacity="1.000000" stroke="none" 
	d="
M350.382263,131.598404 
	C350.104889,131.886459 349.798553,131.880447 349.648132,131.903061 
	C349.660583,126.668785 349.683136,121.401291 350.078918,116.161995 
	C350.186218,114.741684 351.421478,113.406578 352.509277,111.925026 
	C352.139557,118.315247 351.399628,124.812798 350.382263,131.598404 
z"/>
<path fill="#D0B89A" opacity="1.000000" stroke="none" 
	d="
M410.889221,116.627815 
	C410.342102,117.505936 409.657227,118.085777 408.904999,119.033218 
	C406.768677,116.308052 404.699738,113.215279 402.720825,109.644936 
	C402.934357,109.047806 403.057831,108.928253 403.181274,108.808693 
	C405.704681,111.315636 408.228119,113.822586 410.889221,116.627815 
z"/>
<path fill="#D0B89A" opacity="1.000000" stroke="none" 
	d="
M377.077637,101.550217 
	C374.655731,100.249634 372.150757,98.608070 369.253235,96.934074 
	C369.914093,95.783943 370.967499,94.666245 372.302734,93.249527 
	C374.069855,96.247498 375.532196,98.728371 377.077637,101.550217 
z"/>
<path fill="#D0B89A" opacity="1.000000" stroke="none" 
	d="
M367.546143,97.943130 
	C366.057373,99.835457 364.259705,101.847382 362.093994,103.800743 
	C363.563080,101.849030 365.400177,99.955879 367.546143,97.943130 
z"/>
<path fill="#1B120C" opacity="1.000000" stroke="none" 
	d="
M422.846924,128.251160 
	C421.245941,126.947220 419.634125,125.310944 417.960388,123.348862 
	C419.544342,124.654976 421.190216,126.286896 422.846924,128.251160 
z"/>
<path fill="#D0B89A" opacity="1.000000" stroke="none" 
	d="
M359.370056,105.697823 
	C359.000641,106.431946 358.322021,107.199440 357.261780,107.944946 
	C357.607056,107.192368 358.333954,106.461777 359.370056,105.697823 
z"/>
<path fill="#1B120C" opacity="1.000000" stroke="none" 
	d="
M425.181152,131.808640 
	C424.531952,131.216385 424.166534,130.426208 423.632538,129.333771 
	C424.130951,129.891251 424.797974,130.750992 425.181152,131.808640 
z"/>
<path fill="#D0B89A" opacity="1.000000" stroke="none" 
	d="
M380.045959,105.625320 
	C379.467712,105.430893 378.809509,104.939201 378.198364,104.091614 
	C378.818909,104.266495 379.392426,104.797272 380.045959,105.625320 
z"/>
<path fill="#D0B89A" opacity="1.000000" stroke="none" 
	d="
M354.595947,109.957466 
	C354.429138,110.532814 353.975342,111.205437 353.173523,111.881447 
	C353.319946,111.274803 353.814423,110.664772 354.595947,109.957466 
z"/>
<path fill="#D0B89A" opacity="1.000000" stroke="none" 
	d="
M384.182556,110.482391 
	C383.553619,110.343979 382.853088,109.901382 382.189453,109.093552 
	C382.854584,109.211617 383.482758,109.694908 384.182556,110.482391 
z"/>
<path fill="#D0B89A" opacity="1.000000" stroke="none" 
	d="
M356.645172,107.973648 
	C356.472504,108.544632 356.016724,109.213371 355.216644,109.884796 
	C355.368896,109.282127 355.865448,108.676765 356.645172,107.973648 
z"/>
<path fill="#D0B89A" opacity="1.000000" stroke="none" 
	d="
M378.253296,103.560562 
	C377.871765,103.421295 377.479370,102.972542 377.095581,102.195587 
	C377.483612,102.328621 377.863037,102.789848 378.253296,103.560562 
z"/>
<path fill="#D0B89A" opacity="1.000000" stroke="none" 
	d="
M381.296722,107.549271 
	C380.880096,107.423096 380.480011,106.982910 380.078369,106.215973 
	C380.488953,106.337898 380.901093,106.786583 381.296722,107.549271 
z"/>
<path fill="#D0B89A" opacity="1.000000" stroke="none" 
	d="
M360.517212,104.777344 
	C360.644684,105.066032 360.475922,105.388390 360.024475,105.763374 
	C359.901520,105.481003 360.061249,105.146004 360.517212,104.777344 
z"/>
<path fill="#D0B89A" opacity="1.000000" stroke="none" 
	d="
M361.559204,103.808182 
	C361.671356,104.079826 361.494171,104.396156 361.038696,104.770660 
	C360.930237,104.503517 361.100067,104.178185 361.559204,103.808182 
z"/>
<path fill="#D0B89A" opacity="1.000000" stroke="none" 
	d="
M402.006561,107.994858 
	C401.759644,107.910950 401.512695,107.827049 401.265778,107.743149 
	C401.467529,107.682022 401.669281,107.620903 401.935608,107.779808 
	C402.000153,107.999832 402.006561,107.994858 402.006561,107.994858 
z"/>
<path fill="#D0B89A" opacity="1.000000" stroke="none" 
	d="
M382.185547,108.573013 
	C381.908691,108.689163 381.593719,108.507599 381.209656,108.050751 
	C381.476196,107.942070 381.811859,108.108681 382.185547,108.573013 
z"/>
<path fill="#D0B89A" opacity="1.000000" stroke="none" 
	d="
M402.602234,109.318695 
	C402.192139,109.155151 401.990723,108.840279 401.897919,108.260132 
	C402.006561,107.994858 402.000153,107.999832 401.998962,108.000946 
	C402.310150,108.118263 402.622498,108.234467 403.058044,108.579681 
	C403.057831,108.928253 402.934357,109.047806 402.602234,109.318695 
z"/>
<path fill="#D0B89A" opacity="1.000000" stroke="none" 
	d="
M368.685120,96.950653 
	C368.750458,97.162018 368.553986,97.454826 368.098846,97.831367 
	C368.034546,97.620766 368.228882,97.326431 368.685120,96.950653 
z"/>
<path fill="#1B120C" opacity="1.000000" stroke="none" 
	d="
M416.848938,121.849495 
	C416.674866,121.905075 416.335571,121.724342 415.847595,121.285507 
	C416.027191,121.222664 416.355438,121.417923 416.848938,121.849495 
z"/>
<path fill="#1B120C" opacity="1.000000" stroke="none" 
	d="
M417.872925,122.864868 
	C417.678375,122.923790 417.349518,122.754051 416.964081,122.288589 
	C417.184540,122.207314 417.461578,122.421761 417.872925,122.864868 
z"/>
<path fill="#FCF5E4" opacity="1.000000" stroke="none" 
	d="
M401.934235,170.842957 
	C402.213287,171.300659 402.492310,171.758377 402.657074,172.820786 
	C402.662933,173.607254 402.783051,173.789062 402.903198,173.970886 
	C402.903198,173.970886 402.983093,173.968124 402.590576,173.824860 
	C400.916046,174.410995 399.655212,175.181030 398.348541,175.863205 
	C389.611481,180.424469 379.853485,176.364807 377.030792,167.009872 
	C377.030792,167.009872 376.995483,167.000351 377.392883,166.979706 
	C385.838257,168.253693 393.886261,169.548325 401.934235,170.842957 
z"/>
<path fill="#1B120C" opacity="1.000000" stroke="none" 
	d="
M410.399994,147.193207 
	C409.352905,147.793365 408.305817,148.393509 406.797119,149.258240 
	C409.894531,141.659683 416.994995,140.599060 421.771942,145.905838 
	C421.180267,147.280243 420.432251,148.381134 420.248077,149.569397 
	C419.767181,152.671967 419.124664,155.980057 415.310242,155.832428 
	C411.250885,155.675354 411.268188,152.205856 411.571167,148.521332 
	C411.654327,147.429550 411.551605,146.923721 411.448853,146.417892 
	C411.099243,146.676346 410.749603,146.934784 410.399994,147.193207 
z"/>
<path fill="#C58974" opacity="1.000000" stroke="none" 
	d="
M376.675629,167.066376 
	C379.853485,176.364807 389.611481,180.424469 398.348541,175.863205 
	C399.655212,175.181030 400.916046,174.410995 402.565063,173.794128 
	C398.950714,182.585800 386.133301,184.017975 379.748352,177.026749 
	C378.100647,175.222595 376.729187,173.057281 375.712158,170.837341 
	C375.278534,169.890762 376.080170,168.378235 376.675629,167.066376 
z"/>
<path fill="#1B120C" opacity="1.000000" stroke="none" 
	d="
M372.948242,135.811279 
	C374.473572,137.145416 376.855194,138.886444 376.585052,139.960464 
	C375.833679,142.947693 374.575287,146.318893 372.389587,148.284760 
	C370.351501,150.117874 367.248779,146.823517 367.307434,143.005020 
	C367.340515,140.852081 367.313416,138.698212 367.313416,135.913757 
	C368.743378,135.913757 370.668854,135.913757 372.948242,135.811279 
z"/>
<path fill="#1B120C" opacity="1.000000" stroke="none" 
	d="
M359.924835,129.934235 
	C365.861938,121.863602 379.682007,121.675827 385.369019,129.636932 
	C385.758514,130.182190 385.922821,131.590607 385.652222,131.766281 
	C384.984802,132.199585 383.945343,132.404114 383.162872,132.226807 
	C382.232483,132.015961 381.342407,131.403763 380.558960,130.803513 
	C374.213409,125.941643 367.745300,125.883904 360.659729,130.196274 
	C360.188049,130.182312 359.924835,129.934235 359.924835,129.934235 
z"/>
<path fill="#C58974" opacity="1.000000" stroke="none" 
	d="
M401.883423,170.503525 
	C393.886261,169.548325 385.838257,168.253693 377.400085,166.996552 
	C377.785065,166.374405 378.630890,165.076279 379.324646,165.153000 
	C386.999573,166.001709 395.153503,164.850540 401.883423,170.503525 
z"/>
<path fill="#B8946F" opacity="1.000000" stroke="none" 
	d="
M392.432190,159.944763 
	C397.709686,158.603973 395.927185,154.766388 395.669189,151.728378 
	C395.499298,149.727371 394.535065,147.793793 393.926514,145.830032 
	C394.587128,145.654694 395.247742,145.479370 395.908356,145.304047 
	C396.925629,149.870697 398.395782,154.397446 398.802887,159.017853 
	C399.079895,162.161560 394.482361,163.007690 391.023956,160.582520 
	C391.004578,160.568939 391.083099,160.313461 391.161652,160.280685 
	C391.457306,160.157410 391.771942,160.079620 392.432190,159.944763 
z"/>
<path fill="#C58974" opacity="1.000000" stroke="none" 
	d="
M403.108154,173.868256 
	C402.783051,173.789062 402.662933,173.607254 402.637329,173.111542 
	C402.925568,173.120300 403.119354,173.442947 403.108154,173.868256 
z"/>
<path fill="#1B120C" opacity="1.000000" stroke="none" 
	d="
M360.313995,130.312103 
	C360.087891,130.567795 359.735809,130.693680 359.383728,130.819565 
	C359.396118,130.587036 359.408508,130.354523 359.672852,130.028107 
	C359.924835,129.934235 360.188049,130.182312 360.313995,130.312103 
z"/>
<path fill="#D9AD7B" opacity="1.000000" stroke="none" 
	d="
M410.627930,147.498169 
	C410.749603,146.934784 411.099243,146.676346 411.448853,146.417892 
	C411.551605,146.923721 411.654327,147.429550 411.572083,148.142059 
	C411.210022,148.166855 411.032959,147.985001 410.627930,147.498169 
z"/>
</svg>